<?xml version="1.0" encoding="iso-8859-1"?>
<!-- Generator: Adobe Illustrator 19.0.0, SVG Export Plug-In . SVG Version: 6.00 Build 0)  -->
<svg version="1.1" id="Capa_1" xmlns="http://www.w3.org/2000/svg" xmlns:xlink="http://www.w3.org/1999/xlink" x="0px" y="0px"
	 viewBox="0 0 512 512" style="enable-background:new 0 0 512 512;" xml:space="preserve">
<circle style="fill:#C0BCC1;" cx="421.16" cy="90.84" r="90.84"/>
<circle style="fill:#9C969E;" cx="421.16" cy="90.84" r="57.806"/>
<circle style="fill:#C0BCC1;" cx="90.84" cy="90.84" r="90.84"/>
<circle style="fill:#9C969E;" cx="90.84" cy="90.84" r="57.806"/>
<path style="fill:#C9C6CA;" d="M256,49.548c-132.263,0-239.484,99.826-239.484,222.968c0,70.75,35.394,133.804,90.596,174.651
	c40.901,30.265,91.242,45.011,142.122,45.061l13.039,0.013c50.935,0.05,101.356-14.634,142.344-44.873
	c55.357-40.841,90.867-103.985,90.867-174.851C495.484,149.374,388.263,49.548,256,49.548z"/>
<path style="fill:#C0BCC1;" d="M173.176,453.743c-55.202-42.37-90.596-107.776-90.596-181.166
	c0-106.453,74.493-196.049,175.863-222.971c-0.818-0.008-1.624-0.057-2.444-0.057c-132.263,0-239.484,99.826-239.484,222.968
	c0,70.75,35.394,133.804,90.596,174.651c40.901,30.265,91.242,45.011,142.122,45.061l3.344,0.003
	C224.095,484.701,197.01,472.037,173.176,453.743z"/>
<path style="fill:#DBD9DC;" d="M256,512L256,512c-27.692,0-50.458-21.837-51.611-49.505l-3.789-90.932
	c-1.313-31.501,23.871-57.756,55.4-57.756l0,0c31.529,0,56.712,26.255,55.4,57.756l-3.789,90.932
	C306.458,490.163,283.692,512,256,512z"/>
<path style="fill:#5D5360;" d="M256,313.806c-31.529,0-56.713,26.255-55.4,57.756l3.06,73.447
	c13.838,5.681,32.143,9.184,52.339,9.184s38.502-3.503,52.339-9.184l3.06-73.447C312.713,340.061,287.529,313.806,256,313.806z"/>
<path style="fill:#4B3F4E;" d="M144.516,313.806L144.516,313.806c-15.897,0-28.903-13.006-28.903-28.903v-16.516
	c0-15.897,13.006-28.903,28.903-28.903l0,0c15.897,0,28.903,13.006,28.903,28.903v16.516
	C173.419,300.8,160.413,313.806,144.516,313.806z"/>
<path style="fill:#5D5360;" d="M144.516,239.484c-1.413,0-2.769,0.221-4.129,0.419v40.871c0,9.121,7.395,16.516,16.516,16.516
	c9.122,0,16.516-7.395,16.516-16.516v-12.387C173.419,252.49,160.413,239.484,144.516,239.484z"/>
<circle style="fill:#FFFFFF;" cx="144.52" cy="260.13" r="12.387"/>
<path style="fill:#4B3F4E;" d="M367.484,313.806L367.484,313.806c-15.897,0-28.903-13.006-28.903-28.903v-16.516
	c0-15.897,13.006-28.903,28.903-28.903l0,0c15.897,0,28.903,13.006,28.903,28.903v16.516
	C396.387,300.8,383.381,313.806,367.484,313.806z"/>
<path style="fill:#5D5360;" d="M367.484,239.484c-1.413,0-2.769,0.221-4.129,0.419v40.871c0,9.121,7.395,16.516,16.516,16.516
	c9.122,0,16.516-7.395,16.516-16.516v-12.387C396.387,252.49,383.381,239.484,367.484,239.484z"/>
<circle style="fill:#FFFFFF;" cx="367.48" cy="260.13" r="12.387"/>
<path style="fill:#4B3F4E;" d="M328.774,432.863c-2.661-3.71-7.822-4.552-11.524-1.895c-12.863,9.234-36.331,14.968-61.25,14.968
	c-4.993,0-9.907-0.256-14.697-0.715c-4.039-0.387-7.118-3.805-7.287-7.859l-2.742-65.799c-1.091-26.172,16.131-48.666,40.062-55.548
	c-9-2.588-18.873-3.149-29.295-0.344c-25.746,6.929-42.439,31.962-41.329,58.601l2.563,61.521c-3.149-1.487-6.081-3.07-8.527-4.826
	c-3.71-2.669-8.867-1.819-11.524,1.895c-2.657,3.706-1.81,8.863,1.895,11.524c15.758,11.31,42.254,18.065,70.879,18.065
	c28.629,0,55.121-6.754,70.879-18.065C330.589,441.726,331.435,436.569,328.774,432.863z"/>
<g>
</g>
<g>
</g>
<g>
</g>
<g>
</g>
<g>
</g>
<g>
</g>
<g>
</g>
<g>
</g>
<g>
</g>
<g>
</g>
<g>
</g>
<g>
</g>
<g>
</g>
<g>
</g>
<g>
</g>
</svg>
