<?xml version="1.0" encoding="iso-8859-1"?>
<!-- Generator: Adobe Illustrator 19.0.0, SVG Export Plug-In . SVG Version: 6.00 Build 0)  -->
<svg version="1.1" id="Capa_1" xmlns="http://www.w3.org/2000/svg" xmlns:xlink="http://www.w3.org/1999/xlink" x="0px" y="0px"
	 viewBox="0 0 511.999 511.999" style="enable-background:new 0 0 511.999 511.999;" xml:space="preserve">
<path style="fill:#AF6E5A;" d="M444.01,257.935c-8.43-14.545-13.27-30.888-13.27-47.7v-0.001
	c0-72.924-44.702-135.353-108.172-161.538V18.853l-41.605,16.642l-8.321-33.284c-21.947,7.316-40.669,22.669-54.77,37.582
	C139.725,57.208,81.26,126.84,81.26,210.235c0,16.812-4.84,33.155-13.269,47.7c-12.817,22.115-20.015,46.836-20.015,72.954
	c0,94.208,93.135,170.58,208.024,170.58s208.024-76.371,208.024-170.58C464.024,304.771,456.826,280.05,444.01,257.935z"/>
<path style="fill:#965A50;" d="M139.507,360.705c0-30.47,7.198-59.312,20.014-85.113c8.431-16.969,13.27-36.036,13.27-55.65
	c0-84.675,44.304-157.144,107.304-187.922l-7.452-29.809c-21.947,7.316-40.668,22.669-54.771,37.582
	C139.725,57.208,81.26,126.84,81.26,210.235c0,16.812-4.839,33.155-13.27,47.7c-12.817,22.115-20.014,46.836-20.014,72.954
	c0,76.04,60.691,140.432,144.507,162.451C159.553,458.133,139.507,411.666,139.507,360.705z"/>
<path style="fill:#FAEBC8;" d="M256,468.184c68.933,0,124.814-44.705,124.814-99.851c0-11.44-2.433-22.414-6.887-32.633
	c-6.459-14.819-4.26-31.827,6.116-44.223c13.234-15.811,20.059-37.158,16.457-60.089c-4.948-31.497-30.412-56.917-61.916-61.82
	c-24.074-3.747-46.388,3.998-62.374,18.58c-4.544,4.145-10.379,6.217-16.209,6.217c-5.834,0-11.669-2.072-16.213-6.217
	c-15.986-14.581-38.3-22.327-62.374-18.58c-31.504,4.903-56.968,30.323-61.916,61.82c-3.602,22.931,3.223,44.278,16.457,60.089
	c10.376,12.396,12.575,29.404,6.116,44.223c-4.454,10.219-6.887,21.193-6.887,32.633C131.186,423.479,187.067,468.184,256,468.184z"
	/>
<path style="fill:#F5DCB4;" d="M131.186,368.332c0,18.663,6.517,36.067,17.658,51.011c-5.983-18.552-9.337-38.205-9.337-58.638
	c0-30.47,7.198-59.312,20.014-85.113c8.431-16.969,13.27-36.036,13.27-55.65c0-17.439,1.975-34.315,5.509-50.462
	c-0.298,0.043-0.587,0.041-0.886,0.087c-31.504,4.903-56.967,30.323-61.916,61.82c-3.602,22.931,3.224,44.278,16.457,60.089
	c10.377,12.396,12.576,29.404,6.117,44.223C133.618,345.918,131.186,356.892,131.186,368.332z"/>
<g>
	<path style="fill:#5D5360;" d="M239.35,326.728c-1.251,0-2.519-0.28-3.714-0.878l-16.642-8.321
		c-4.112-2.056-5.778-7.053-3.722-11.165c2.064-4.112,7.053-5.778,11.165-3.722l16.642,8.321c4.112,2.056,5.778,7.053,3.722,11.165
		C245.339,325.046,242.405,326.728,239.35,326.728z"/>
	<path style="fill:#5D5360;" d="M272.65,326.728c-3.055,0-5.989-1.682-7.451-4.599c-2.056-4.112-0.39-9.109,3.722-11.165
		l16.642-8.321c4.104-2.056,9.101-0.39,11.165,3.722c2.056,4.112,0.39,9.109-3.722,11.165l-16.642,8.321
		C275.169,326.448,273.901,326.728,272.65,326.728z"/>
</g>
<path style="fill:#4B3F4E;" d="M181.758,360.012c-5.039,0-9.01,4.465-8.311,9.456C178.613,406.364,213.604,434.9,256,434.9
	c42.397,0,77.388-28.537,82.553-65.433c0.699-4.991-3.272-9.456-8.311-9.456H181.758V360.012z"/>
<path style="fill:#E6646E;" d="M208.055,421.157C221.614,429.785,238.131,434.9,256,434.9s34.386-5.115,47.945-13.743
	c-6.011-20.824-25.253-36.182-47.945-36.182S214.066,400.333,208.055,421.157z"/>
<path style="fill:#4B3F4E;" d="M181.111,268.481L181.111,268.481c-13.787,0-24.963-11.176-24.963-24.963v-8.321
	c0-13.787,11.176-24.963,24.963-24.963l0,0c13.787,0,24.963,11.176,24.963,24.963v8.321
	C206.074,257.305,194.898,268.481,181.111,268.481z"/>
<path style="fill:#5D5360;" d="M181.111,210.235v29.123c0,6.893,5.588,12.481,12.481,12.481s12.481-5.588,12.481-12.481v-4.16
	C206.074,221.411,194.898,210.235,181.111,210.235z"/>
<circle style="fill:#FFFFFF;" cx="181.11" cy="226.88" r="8.321"/>
<path style="fill:#4B3F4E;" d="M330.889,268.481L330.889,268.481c-13.787,0-24.963-11.176-24.963-24.963v-8.321
	c0-13.787,11.176-24.963,24.963-24.963l0,0c13.787,0,24.963,11.176,24.963,24.963v8.321
	C355.851,257.305,344.675,268.481,330.889,268.481z"/>
<path style="fill:#5D5360;" d="M330.889,210.235v29.123c0,6.893,5.588,12.481,12.481,12.481c6.893,0,12.481-5.588,12.481-12.481
	v-4.16C355.851,221.411,344.675,210.235,330.889,210.235z"/>
<circle style="fill:#FFFFFF;" cx="330.89" cy="226.88" r="8.321"/>
<path style="fill:#FF8087;" d="M256,434.9c2.814,0,5.58-0.171,8.321-0.418v-16.223c0-4.595-3.722-8.321-8.321-8.321
	c-4.599,0-8.321,3.726-8.321,8.321v16.223C250.42,434.729,253.186,434.9,256,434.9z"/>
<path style="fill:#F5DCB4;" d="M77.842,139.109c-8.635-11.513-26.763-7.852-30.254,6.109l-18.86,75.443
	c-3.795,15.18-5.715,30.769-5.715,46.417v109.575H81.26v-227.29C81.26,145.666,80.061,142.068,77.842,139.109z"/>
<path style="fill:#EBC9A0;" d="M56.297,278.481c0-15.648,1.919-31.237,5.715-46.417l18.86-75.443
	c0.087-0.347,0.283-0.61,0.388-0.945v-6.313c0-3.698-1.199-7.296-3.418-10.254c-8.635-11.513-26.763-7.852-30.254,6.109
	l-18.86,75.443c-3.795,15.18-5.715,30.769-5.715,46.417v109.575h33.284C56.297,376.653,56.297,278.481,56.297,278.481z"/>
<path style="fill:#AF6E5A;" d="M81.26,360.012H37.035c-12.72,0-23.405,9.564-24.81,22.206L0.104,491.309
	c-1.095,9.858,6.621,18.48,16.54,18.48h56.295c9.191,0,16.642-7.451,16.642-16.642V368.333
	C89.581,363.737,85.856,360.012,81.26,360.012z"/>
<path style="fill:#965A50;" d="M31.438,491.309L43.56,382.218c1.404-12.642,12.09-22.206,24.81-22.206H37.035
	c-12.72,0-23.405,9.564-24.81,22.206L0.104,491.309c-1.095,9.858,6.622,18.48,16.54,18.48h31.334
	C38.059,509.789,30.343,501.167,31.438,491.309z"/>
<path style="fill:#EBC9A0;" d="M434.158,139.109c8.635-11.513,26.763-7.852,30.254,6.109l18.86,75.443
	c3.795,15.18,5.715,30.769,5.715,46.417v109.575H430.74v-227.29C430.74,145.666,431.939,142.068,434.158,139.109z"/>
<path style="fill:#F5DCB4;" d="M455.703,278.481c0-15.648-1.919-31.237-5.715-46.417l-18.86-75.443
	c-0.087-0.347-0.283-0.61-0.388-0.945v-6.313c0-3.698,1.199-7.296,3.418-10.254c8.635-11.513,26.763-7.852,30.254,6.109
	l18.86,75.443c3.795,15.18,5.715,30.769,5.715,46.417v109.575h-33.284L455.703,278.481L455.703,278.481z"/>
<path style="fill:#965A50;" d="M430.74,360.012h44.225c12.72,0,23.405,9.564,24.81,22.206l12.121,109.091
	c1.095,9.858-6.621,18.48-16.54,18.48h-56.295c-9.191,0-16.642-7.451-16.642-16.642V368.333
	C422.419,363.737,426.144,360.012,430.74,360.012z"/>
<path style="fill:#AF6E5A;" d="M472.243,491.309l-14.98-117.256c-1.387-7.801-3.987-14.042-13.633-14.042h31.335
	c12.72,0,23.405,9.564,24.81,22.206l12.121,109.092c1.095,9.858-6.622,18.48-16.54,18.48h-39.653
	C465.622,509.789,473.338,501.167,472.243,491.309z"/>
<g>
</g>
<g>
</g>
<g>
</g>
<g>
</g>
<g>
</g>
<g>
</g>
<g>
</g>
<g>
</g>
<g>
</g>
<g>
</g>
<g>
</g>
<g>
</g>
<g>
</g>
<g>
</g>
<g>
</g>
</svg>
