<?xml version="1.0" encoding="iso-8859-1"?>
<!-- Generator: Adobe Illustrator 19.0.0, SVG Export Plug-In . SVG Version: 6.00 Build 0)  -->
<svg version="1.1" id="Capa_1" xmlns="http://www.w3.org/2000/svg" xmlns:xlink="http://www.w3.org/1999/xlink" x="0px" y="0px"
	 viewBox="0 0 512 512" style="enable-background:new 0 0 512 512;" xml:space="preserve">
<g>
	<path style="fill:#4B3F4E;" d="M34.025,372.496c15.884,1.086,49.087,0.726,73.365-17.483l66.049-181.635
		c0,0-111.199,39.714-146.622,189.257C25.676,367.448,29.09,372.158,34.025,372.496z"/>
	<path style="fill:#4B3F4E;" d="M477.975,372.496c-15.884,1.086-49.087,0.726-73.365-17.483l-66.049-181.635
		c0,0,111.199,39.714,146.622,189.257C486.324,367.448,482.91,372.158,477.975,372.496z"/>
</g>
<path style="fill:#5D5360;" d="M353.098,182.089l-193.682-0.572c-41.519,45.945-68.539,116.866-68.539,181.753
	c0,47.823,20.331,90.899,52.821,121.054L222.972,512l66.048-0.121l79.723-27.968c32.232-30.135,52.379-73.036,52.379-120.642
	C421.122,298.651,394.326,228.048,353.098,182.089z"/>
<path style="fill:#4B3F4E;" d="M149.466,193.459C173.5,226.28,212.204,247.684,256,247.684c43.799,0,82.505-21.407,106.539-54.231
	c-3.065-3.915-6.191-7.741-9.441-11.364l-193.682-0.572C155.985,185.314,152.693,189.338,149.466,193.459z"/>
<path style="fill:#DBD9DC;" d="M330.305,181.635h-148.61c-21.394,36.287-41.281,102.616-41.281,148.61
	c0,68.396,51.749,123.842,115.586,123.842s115.586-55.446,115.586-123.842C371.586,284.251,351.699,217.922,330.305,181.635z"/>
<path style="fill:#C9C6CA;" d="M166.649,212.679c23.53,21.665,54.845,35.004,89.351,35.004s65.822-13.339,89.351-35.004
	c-4.753-11.631-9.852-22.234-15.046-31.045h-148.61C176.501,190.445,171.402,201.048,166.649,212.679z"/>
<path style="fill:#FFC850;" d="M165.183,478.855h33.025c18.239,0,33.024,14.786,33.024,33.024l0,0h-99.073l0,0
	C132.158,493.64,146.944,478.855,165.183,478.855z"/>
<path style="fill:#EBAF4B;" d="M198.207,478.855h-33.024c-18.239,0-33.024,14.785-33.024,33.024h33.024
	C165.183,493.64,179.968,478.855,198.207,478.855z"/>
<path style="fill:#FFC850;" d="M313.793,478.855h33.025c18.239,0,33.024,14.786,33.024,33.024l0,0h-99.073l0,0
	C280.768,493.64,295.554,478.855,313.793,478.855z"/>
<path style="fill:#EBAF4B;" d="M346.817,478.855h-33.024c-18.239,0-33.024,14.785-33.024,33.024h33.024
	C313.793,493.64,328.578,478.855,346.817,478.855z"/>
<circle style="fill:#EDEBED;" cx="256" cy="115.59" r="115.59"/>
<path style="fill:#EBAF4B;" d="M252.792,150.749l-16.474,10.983c-2.762,1.842-3.411,5.626-1.419,8.282l16.474,21.965
	c2.313,3.084,6.94,3.084,9.253,0l16.474-21.965c1.992-2.656,1.344-6.44-1.419-8.282l-16.474-10.983
	C257.265,149.454,254.735,149.454,252.792,150.749z"/>
<path style="fill:#DBD9DC;" d="M181.695,115.586c0-56.779,40.974-103.897,94.945-113.643C269.932,0.732,263.057,0,256,0
	c-63.836,0-115.586,51.749-115.586,115.586S192.164,231.171,256,231.171c7.057,0,13.932-0.732,20.64-1.943
	C222.669,219.483,181.695,172.365,181.695,115.586z"/>
<path style="fill:#5D5360;" d="M256,0c-63.836,0-115.586,51.749-115.586,115.586c0,1.393,0.159,2.746,0.208,4.127
	c2.135-32.264,28.909-57.792,61.713-57.792c15.884,0,30.28,6.057,41.208,15.915c3.41,3.076,7.864,4.725,12.457,4.725
	c4.594,0,9.047-1.649,12.458-4.725c10.928-9.858,25.323-15.915,41.207-15.915c32.804,0,59.578,25.528,61.713,57.792
	c0.049-1.381,0.208-2.734,0.208-4.127C371.586,51.749,319.836,0,256,0z"/>
<g>
	<path style="fill:#4B3F4E;" d="M256,0c-63.836,0-115.586,51.749-115.586,115.586c0,1.393,0.159,2.746,0.208,4.127
		c1.967-29.732,24.877-53.692,54.129-57.276c16.221-31.163,46.163-54.042,81.888-60.493C269.933,0.732,263.057,0,256,0z"/>
	<path style="fill:#4B3F4E;" d="M206.463,140.354L206.463,140.354c-9.119,0-16.512-7.393-16.512-16.512v-8.256
		c0-9.119,7.393-16.512,16.512-16.512l0,0c9.119,0,16.512,7.393,16.512,16.512v8.256
		C222.976,132.961,215.583,140.354,206.463,140.354z"/>
</g>
<circle style="fill:#FFFFFF;" cx="206.46" cy="115.59" r="8.256"/>
<path style="fill:#4B3F4E;" d="M305.537,140.354L305.537,140.354c-9.119,0-16.512-7.393-16.512-16.512v-8.256
	c0-9.119,7.393-16.512,16.512-16.512l0,0c9.119,0,16.512,7.393,16.512,16.512v8.256
	C322.049,132.961,314.656,140.354,305.537,140.354z"/>
<circle style="fill:#FFFFFF;" cx="305.54" cy="115.59" r="8.256"/>
<g>
</g>
<g>
</g>
<g>
</g>
<g>
</g>
<g>
</g>
<g>
</g>
<g>
</g>
<g>
</g>
<g>
</g>
<g>
</g>
<g>
</g>
<g>
</g>
<g>
</g>
<g>
</g>
<g>
</g>
</svg>
