<?xml version="1.0" encoding="iso-8859-1"?>
<!-- Generator: Adobe Illustrator 19.0.0, SVG Export Plug-In . SVG Version: 6.00 Build 0)  -->
<svg version="1.1" id="Capa_1" xmlns="http://www.w3.org/2000/svg" xmlns:xlink="http://www.w3.org/1999/xlink" x="0px" y="0px"
	 viewBox="0 0 512 512" style="enable-background:new 0 0 512 512;" xml:space="preserve">
<path style="fill:#AEA8AF;" d="M478.968,0c0,0-3.969,183.681-105.29,267.871L299.871,208C366.574,66.722,478.968,0,478.968,0z"/>
<path style="fill:#9C969E;" d="M373.677,267.871l-32.684-26.514l-2.454-21.745C356.36,178.724,403.169,82.115,478.968,0
	C478.968,0,474.998,183.681,373.677,267.871z"/>
<path style="fill:#AEA8AF;" d="M33.032,0c0,0,3.969,183.681,105.29,267.871L212.129,208C145.426,66.722,33.032,0,33.032,0z"/>
<path style="fill:#9C969E;" d="M138.323,267.871l32.684-26.514l2.454-21.745C155.64,178.724,108.831,82.115,33.032,0
	C33.032,0,37.002,183.681,138.323,267.871z"/>
<path style="fill:#C9C6CA;" d="M401.638,361.412c-8.914-15.482-14.206-32.579-13.566-50.215c0.038-1.053,0.058-2.111,0.058-3.172
	c0-60.659-59.156-109.832-132.129-109.832s-132.129,49.174-132.129,109.832c0,1.061,0.019,2.118,0.058,3.172
	c0.639,17.636-4.652,34.733-13.566,50.215c-7.251,12.594-11.266,26.338-11.266,40.755C99.097,462.826,169.345,512,256,512
	s156.903-49.174,156.903-109.832C412.903,387.75,408.889,374.006,401.638,361.412z"/>
<path style="fill:#C0BCC1;" d="M159.656,415.105c0-16.695,4.015-32.608,11.266-47.191c8.914-17.926,14.206-37.723,13.566-58.144
	c-0.038-1.219-0.057-2.444-0.057-3.672c0-45.302,24.685-84.965,61.739-107.492c-68.364,4.195-122.298,51.52-122.298,109.419
	c0,1.061,0.019,2.118,0.057,3.172c0.64,17.636-4.652,34.733-13.566,50.215c-7.251,12.594-11.266,26.338-11.266,40.756
	c0,48.893,45.67,90.279,108.754,104.512C178.191,483.543,159.656,451.105,159.656,415.105z"/>
<path style="fill:#4B3F4E;" d="M181.677,388.129L181.677,388.129c-13.682,0-24.774-11.092-24.774-24.774v-8.258
	c0-13.682,11.092-24.774,24.774-24.774l0,0c13.682,0,24.774,11.092,24.774,24.774v8.258
	C206.452,377.037,195.36,388.129,181.677,388.129z"/>
<path style="fill:#5D5360;" d="M181.677,330.323v28.903c0,6.841,5.546,12.387,12.387,12.387s12.387-5.546,12.387-12.387v-4.129
	C206.452,341.414,195.36,330.323,181.677,330.323z"/>
<circle style="fill:#FFFFFF;" cx="181.68" cy="346.84" r="8.258"/>
<path style="fill:#4B3F4E;" d="M330.323,388.129L330.323,388.129c-13.682,0-24.774-11.092-24.774-24.774v-8.258
	c0-13.682,11.092-24.774,24.774-24.774l0,0c13.682,0,24.774,11.092,24.774,24.774v8.258
	C355.097,377.037,344.005,388.129,330.323,388.129z"/>
<path style="fill:#5D5360;" d="M330.323,330.323v28.903c0,6.841,5.546,12.387,12.387,12.387s12.387-5.546,12.387-12.387v-4.129
	C355.097,341.414,344.005,330.323,330.323,330.323z"/>
<circle style="fill:#FFFFFF;" cx="330.32" cy="346.84" r="8.258"/>
<path style="fill:#DBD9DC;" d="M330.323,412.903c-49.548-16.516-57.806-41.29-57.806-57.806s-8.258-24.774-16.516-24.774
	s-16.516,8.258-16.516,24.774s-8.258,41.29-57.806,57.806c-34.586,11.529-44.987,35.14-42.524,62.384
	C167.884,497.769,209.517,512,256,512s88.116-14.232,116.847-36.713C375.31,448.043,364.908,424.432,330.323,412.903z"/>
<path style="fill:#C0BCC1;" d="M284.012,500.988c-9.79,0-19.085-3.278-26.871-9.48c-0.649-0.524-1.633-0.52-2.282-0.004
	c-7.79,6.206-17.081,9.484-26.871,9.484c-14.782,0-28.512-7.585-36.73-20.286c-2.476-3.827-1.379-8.94,2.452-11.419
	c3.823-2.476,8.94-1.375,11.419,2.452c5.157,7.976,13.706,12.738,22.859,12.738c6.012,0,11.746-2.036,16.577-5.883
	c6.621-5.282,16.242-5.286,22.871,0.004c4.827,3.843,10.56,5.879,16.577,5.879c9.153,0,17.698-4.762,22.859-12.742
	c2.48-3.823,7.593-4.919,11.419-2.452c3.831,2.48,4.927,7.593,2.452,11.419C312.524,493.403,298.794,500.988,284.012,500.988z"/>
<path style="fill:#FF96A0;" d="M256,412.903c20.787,0,37.638,12.262,37.638,27.389c0,14.588-15.818,22.269-27.234,27.949
	c-6.617,3.292-14.19,3.292-20.807,0c-11.416-5.68-27.234-13.361-27.234-27.949C218.362,425.166,235.213,412.903,256,412.903z"/>
<path style="fill:#FF8087;" d="M264.416,464.756c-11.416-6.727-27.234-15.826-27.234-33.105c0-6.234,2.076-12.036,5.611-16.98
	c-14.262,3.896-24.431,13.881-24.431,25.621c0,14.587,15.818,22.269,27.234,27.949c6.617,3.292,14.19,3.292,20.807,0
	c0.917-0.456,1.87-0.932,2.834-1.416C267.596,466.338,265.976,465.675,264.416,464.756z"/>
<path style="fill:#C9C6CA;" d="M207.851,506.68c-27.293-21.29-44.97-50.498-47.65-83.068c-17.48,12.784-22.899,31.203-21.048,51.675
	c-0.008,0.015-0.013,0.03-0.021,0.045C157.476,489.662,181.066,500.637,207.851,506.68z"/>
<g>
</g>
<g>
</g>
<g>
</g>
<g>
</g>
<g>
</g>
<g>
</g>
<g>
</g>
<g>
</g>
<g>
</g>
<g>
</g>
<g>
</g>
<g>
</g>
<g>
</g>
<g>
</g>
<g>
</g>
</svg>
