<?xml version="1.0" encoding="iso-8859-1"?>
<!-- Generator: Adobe Illustrator 19.0.0, SVG Export Plug-In . SVG Version: 6.00 Build 0)  -->
<svg version="1.1" id="Capa_1" xmlns="http://www.w3.org/2000/svg" xmlns:xlink="http://www.w3.org/1999/xlink" x="0px" y="0px"
	 viewBox="0 0 511.999 511.999" style="enable-background:new 0 0 511.999 511.999;" xml:space="preserve">
<path style="fill:#EBAF4B;" d="M440.822,1.159c24.009-6.059,47.346,12.423,46.374,37.166
	c-1.206,30.716-16.487,85.546-49.519,118.579L330.323,66.065C371.613,24.774,415.224,7.62,440.822,1.159z"/>
<path style="fill:#E19C46;" d="M356.444,88.167c37.96-37.616,80.591-64.159,94.891-67.004c14.681-2.92,25.772,14.679,21.982,35.341
	c-4.421,24.106-23.178,66.993-44.861,92.596L356.444,88.167z"/>
<path style="fill:#EBAF4B;" d="M71.178,1.159C47.169-4.9,23.832,13.582,24.803,38.325c1.206,30.716,16.487,85.546,49.519,118.579
	l107.355-90.839C140.387,24.774,96.776,7.62,71.178,1.159z"/>
<path style="fill:#E19C46;" d="M155.556,88.167c-37.96-37.616-80.591-64.159-94.891-67.004
	c-14.681-2.92-25.772,14.679-21.982,35.341c4.421,24.106,23.178,66.993,44.861,92.596L155.556,88.167z"/>
<path style="fill:#FFC850;" d="M256,41.29c-272.516,0-239.484,313.806-239.484,313.806l31.312-11.527
	c0,0,1.72,58.323,26.494,118.882l23.742-27.871c17.548,33.032,50.581,60.903,50.581,60.903l24.774-33.032H338.58l24.774,33.032
	c0,0,33.032-27.871,50.581-60.903l23.742,27.871c24.774-60.559,26.494-118.882,26.494-118.882l31.312,11.527
	C495.484,355.097,528.516,41.29,256,41.29z"/>
<g>
	<path style="fill:#EBAF4B;" d="M90.839,231.226c0-68.979,29.155-131.35,76.16-176.268
		C-8.708,115.301,16.516,355.097,16.516,355.097l31.312-11.527c0,0,1.72,58.323,26.494,118.882l23.742-27.871
		c17.548,33.032,50.581,60.903,50.581,60.903l24.774-33.032h81.511C158.966,426.703,90.839,336.69,90.839,231.226z"/>
	<path style="fill:#EBAF4B;" d="M350.893,478.868l12.462,16.615c0,0,8.731-7.386,19.587-19.016
		C372.451,477.902,361.754,478.705,350.893,478.868z"/>
</g>
<path style="fill:#F5DCB4;" d="M36.328,191.86C7.909,272.367,16.516,355.097,16.516,355.097l31.312-11.527
	c0,0,1.72,58.323,26.494,118.882l23.742-27.871c17.548,33.032,50.581,60.903,50.581,60.903l24.774-33.032
	C120.845,417.388,6.84,331.321,36.328,191.86z"/>
<path style="fill:#FAEBC8;" d="M475.705,191.86c28.419,80.507,19.811,163.237,19.811,163.237l-31.312-11.527
	c0,0-1.72,58.323-26.494,118.882l-23.742-27.871c-17.548,33.032-50.581,60.903-50.581,60.903l-24.774-33.032
	C391.188,417.388,505.192,331.321,475.705,191.86z"/>
<path style="fill:#F5DCB4;" d="M256,437.677l-81.719,18.952c5.111,31.401,32.358,55.37,65.203,55.37h33.032
	c32.709,0,59.867-23.772,65.139-54.981L256,437.677z"/>
<g>
	<path style="fill:#5D5360;" d="M131.545,365.423c-1.455,0-2.941-0.351-4.328-1.093c-4.95-2.633-9.779-5.633-14.342-8.923
		c-4.442-3.194-5.602-9.609-2.6-14.331c2.994-4.734,9.028-5.96,13.471-2.766c3.866,2.782,7.952,5.323,12.144,7.552
		c4.798,2.552,6.739,8.75,4.344,13.851C138.534,363.331,135.108,365.423,131.545,365.423z"/>
	<path style="fill:#5D5360;" d="M92.748,334.742c-3.305,0-6.58-1.484-8.884-4.371c-18.14-22.734-25.167-44.754-25.455-45.677
		c-2.032-6.492,1.258-13.508,7.361-15.669c6.072-2.185,12.682,1.327,14.721,7.806c0.144,0.452,6.163,18.754,21.127,37.508
		c4.162,5.218,3.563,13.032-1.342,17.46C98.084,333.774,95.409,334.742,92.748,334.742z"/>
	<path style="fill:#5D5360;" d="M372.197,365.423c-3.563,0-6.989-2.093-8.687-5.71c-2.395-5.101-0.455-11.298,4.344-13.851
		c4.192-2.23,8.278-4.77,12.144-7.552c4.435-3.194,10.469-1.968,13.471,2.766c3.002,4.722,1.842,11.137-2.6,14.331
		c-4.563,3.29-9.392,6.29-14.342,8.923C375.138,365.069,373.652,365.423,372.197,365.423z"/>
	<path style="fill:#5D5360;" d="M410.994,334.742c-2.661,0-5.337-0.968-7.527-2.944c-4.905-4.427-5.503-12.242-1.342-17.46
		c15.078-18.895,21.074-37.331,21.127-37.516c2.077-6.464,8.657-9.94,14.744-7.77c6.087,2.177,9.37,9.165,7.338,15.641
		c-0.288,0.923-7.315,22.944-25.455,45.677C417.574,333.258,414.299,334.742,410.994,334.742z"/>
	<path style="fill:#5D5360;" d="M148.653,131.286c-3.403,0-6.742-1.681-8.71-4.766c-3.065-4.806-1.661-11.19,3.145-14.258
		c5.581-3.56,11.452-6.883,17.468-9.883c5.089-2.54,11.306-0.472,13.847,4.633c2.54,5.101,0.468,11.298-4.637,13.843
		c-5.363,2.673-10.597,5.637-15.565,8.81C152.484,130.762,150.556,131.286,148.653,131.286z"/>
	<path style="fill:#5D5360;" d="M313.798,153.887c-1.339,0-2.702-0.262-4.016-0.819c-32.839-13.895-74.726-13.895-107.564,0
		c-5.266,2.214-11.306-0.234-13.532-5.488c-2.218-5.25,0.234-11.306,5.484-13.528c37.903-16.024,85.758-16.024,123.661,0
		c5.25,2.222,7.702,8.278,5.484,13.528C321.645,151.52,317.823,153.887,313.798,153.887z"/>
	<path style="fill:#5D5360;" d="M363.347,131.286c-1.903,0-3.823-0.524-5.548-1.621c-4.968-3.173-10.202-6.137-15.565-8.81
		c-5.105-2.544-7.177-8.742-4.637-13.843c2.54-5.109,8.75-7.19,13.847-4.633c6.016,3,11.887,6.323,17.468,9.883
		c4.806,3.069,6.21,9.452,3.145,14.258C370.089,129.605,366.75,131.286,363.347,131.286z"/>
	<path style="fill:#5D5360;" d="M314.742,111.488c-1.153,0-2.315-0.161-3.476-0.5c-35.339-10.298-75.194-10.298-110.532,0
		c-6.548,1.911-13.444-1.847-15.363-8.423c-1.911-6.569,1.863-13.444,8.427-15.359c39.839-11.621,84.564-11.621,124.403,0
		c6.565,1.915,10.339,8.79,8.427,15.359C325.048,107.976,320.105,111.488,314.742,111.488z"/>
</g>
<path style="fill:#4B3F4E;" d="M152.774,305.548L152.774,305.548c-15.897,0-28.903-13.006-28.903-28.903v-16.516
	c0-15.897,13.006-28.903,28.903-28.903l0,0c15.897,0,28.903,13.006,28.903,28.903v16.516
	C181.677,292.542,168.671,305.548,152.774,305.548z"/>
<path style="fill:#5D5360;" d="M152.774,231.226c-1.413,0-2.769,0.221-4.129,0.419v40.871c0,9.121,7.395,16.516,16.516,16.516
	c9.122,0,16.516-7.395,16.516-16.516v-12.387C181.677,244.232,168.671,231.226,152.774,231.226z"/>
<circle style="fill:#FFFFFF;" cx="152.77" cy="251.87" r="12.387"/>
<path style="fill:#4B3F4E;" d="M359.226,305.548L359.226,305.548c-15.897,0-28.903-13.006-28.903-28.903v-16.516
	c0-15.897,13.006-28.903,28.903-28.903l0,0c15.897,0,28.903,13.006,28.903,28.903v16.516
	C388.129,292.542,375.123,305.548,359.226,305.548z"/>
<path style="fill:#5D5360;" d="M359.226,231.226c-1.413,0-2.769,0.221-4.129,0.419v40.871c0,9.121,7.395,16.516,16.516,16.516
	c9.122,0,16.516-7.395,16.516-16.516v-12.387C388.129,244.232,375.122,231.226,359.226,231.226z"/>
<circle style="fill:#FFFFFF;" cx="359.23" cy="251.87" r="12.387"/>
<path style="fill:#FAEBC8;" d="M309.677,363.355c-22.977,0-42.987,10.034-53.677,24.9c-10.691-14.866-30.7-24.9-53.677-24.9
	c-34.206,0-61.935,22.183-61.935,49.548s27.729,49.548,61.935,49.548c22.977,0,42.987-10.034,53.677-24.9
	c10.691,14.866,30.7,24.9,53.677,24.9c34.206,0,61.935-22.183,61.935-49.548C371.613,385.538,343.884,363.355,309.677,363.355z"/>
<path style="fill:#FF8087;" d="M202.876,381.513l20.915,17.437c18.657,15.555,45.764,15.555,64.421,0l20.914-17.437
	c9.265-7.725,3.863-22.807-8.2-22.807c-26.711,0-63.138,0-89.849-0.001C199.012,358.706,193.61,373.788,202.876,381.513z"/>
<path style="fill:#E6646E;" d="M256.823,405.483l-20.915-25.41c-4.755-5.777-5.626-14.363-3.738-21.367c-7.42,0-14.553,0-21.094,0
	c-12.063,0-17.465,15.082-8.2,22.807l20.915,17.437c10.743,8.957,24.276,12.582,37.396,11.224
	C259.693,408.724,258.227,407.19,256.823,405.483z"/>
<path style="fill:#D4AF91;" d="M306.097,470.71c-16.831,0-32.694-5.581-45.855-16.133c-2.5-2-5.992-2-8.476,0
	c-13.169,10.552-29.032,16.133-45.863,16.133c-40.677,0-73.774-33.343-73.774-74.323c0-4.56,3.694-8.258,8.258-8.258
	s8.258,3.698,8.258,8.258c0,31.875,25.685,57.806,57.258,57.806c13.04,0,25.323-4.323,35.532-12.504
	c8.565-6.879,20.556-6.879,29.137,0c10.202,8.181,22.484,12.504,35.524,12.504c31.573,0,57.258-25.931,57.258-57.806
	c0-4.56,3.694-8.258,8.258-8.258c4.565,0,8.258,3.698,8.258,8.258C379.871,437.367,346.774,470.71,306.097,470.71z"/>
<g>
</g>
<g>
</g>
<g>
</g>
<g>
</g>
<g>
</g>
<g>
</g>
<g>
</g>
<g>
</g>
<g>
</g>
<g>
</g>
<g>
</g>
<g>
</g>
<g>
</g>
<g>
</g>
<g>
</g>
</svg>
