<?xml version="1.0" encoding="iso-8859-1"?>
<!-- Generator: Adobe Illustrator 19.0.0, SVG Export Plug-In . SVG Version: 6.00 Build 0)  -->
<svg version="1.1" id="Capa_1" xmlns="http://www.w3.org/2000/svg" xmlns:xlink="http://www.w3.org/1999/xlink" x="0px" y="0px"
	 viewBox="0 0 512.001 512.001" style="enable-background:new 0 0 512.001 512.001;" xml:space="preserve">
<path style="fill:#FFDC64;" d="M322.427,16.516l-33.032,1.367v41.34c0,4.381-1.74,8.581-4.838,11.679
	c-6.45,6.45-16.907,6.45-23.357,0c-3.098-3.098-4.838-7.298-4.838-11.679v-41.34l-33.032-1.367L203,131.243l139.904,0.886
	L322.427,16.516z"/>
<g>
	<path style="fill:#EBAF4B;" d="M347.201,148.645l8.258,16.516C442.055,145.178,458.8,82.209,462.038,58.604
		c0.57-4.156-3.581-7.335-7.399-5.597C433.969,62.417,379.008,91.678,347.201,148.645z"/>
	<path style="fill:#EBAF4B;" d="M198.556,148.645l-8.258,16.516C103.702,145.178,86.957,82.209,83.719,58.604
		c-0.57-4.156,3.581-7.335,7.399-5.597C111.788,62.417,166.749,91.678,198.556,148.645z"/>
</g>
<path style="fill:#E69641;" d="M363.717,206.452l-90.839,214.71v74.323c0,9.122,7.395,16.516,16.516,16.516h96.715
	c10.001,0,17.707-8.817,16.367-18.728L363.717,206.452z"/>
<path style="fill:#D27D38;" d="M347.201,272.516h-11.434l-62.888,148.645v74.323c0,9.121,7.395,16.516,16.516,16.516h33.858
	L347.201,272.516z"/>
<path style="fill:#E69641;" d="M223.965,363.679c3.805,32.591,24.256,57.482,48.913,57.482c24.739,0,45.244-25.056,48.951-57.806
	L223.965,363.679z"/>
<path style="fill:#AFD755;" d="M135.895,394.16c-7.902,11.854-11.226,25.084-10.231,36.842c0.316,3.736,4.072,6.24,7.642,5.095
	c11.236-3.604,22.171-11.76,30.073-23.614s11.226-25.084,10.231-36.842c-0.316-3.736-4.072-6.24-7.642-5.095
	C154.732,374.15,143.797,382.307,135.895,394.16z"/>
<g>
	<path style="fill:#BEE86E;" d="M70.974,354.23c-10.317,5.199-17.461,14.13-20.614,24.243c-0.971,3.115,0.757,6.377,3.842,7.441
		c9.977,3.44,21.36,2.994,31.638-2.186c10.317-5.199,17.461-14.13,20.614-24.243c0.971-3.115-0.757-6.377-3.842-7.441
		C92.634,348.605,81.252,349.05,70.974,354.23z"/>
	<path style="fill:#BEE86E;" d="M115.084,324.788c3.345,13.848,10.808,25.267,20.119,32.515c2.959,2.303,7.347,1.243,8.928-2.156
		c4.977-10.699,6.406-24.265,3.062-38.113c-3.345-13.848-10.808-25.267-20.119-32.515c-2.959-2.303-7.347-1.243-8.928,2.156
		C113.169,297.373,111.74,310.94,115.084,324.788z"/>
</g>
<path style="fill:#96BE4B;" d="M229.197,380.435c-35.339,0-111.778-4.935-175.278-43.032c-3.911-2.347-5.177-7.419-2.831-11.331
	c2.347-3.919,7.415-5.185,11.331-2.831c79.27,47.556,184.012,40.21,185.056,40.137c4.552-0.435,8.512,3.056,8.863,7.605
	c0.347,4.548-3.056,8.516-7.601,8.863C247.649,379.927,240.536,380.435,229.197,380.435z"/>
<path style="fill:#FFC850;" d="M272.878,99.097c-56.891,0-87.575,36.881-96.989,74.323l6.151,41.29
	c0,0,22.193,97.211,30.968,131.356c9.715,37.809,46.107,42.063,59.872,42.063c13.763,0,50.155-4.254,59.87-42.063
	c8.774-34.146,30.968-131.356,30.968-131.356l6.151-41.29C360.455,135.977,329.772,99.097,272.878,99.097z"/>
<path style="fill:#EBAF4B;" d="M247.391,346.066c-3.735-34.146-13.184-131.356-13.184-131.356l-1.427-22.496
	c-1.063-16.767,0.072-33.698,4.51-49.902c6.681-24.397,18.289-43.214,35.589-43.214h-0.001c-56.892,0-87.576,36.881-96.989,74.323
	l6.151,41.29c0,0,22.193,97.211,30.968,131.356c9.715,37.808,46.107,42.063,59.871,42.063
	C267.018,388.129,251.526,383.875,247.391,346.066z"/>
<g>
	<path style="fill:#4B3F4E;" d="M248.104,338.581c-2.113,0-4.226-0.806-5.839-2.419l-8.258-8.258c-3.226-3.226-3.226-8.452,0-11.677
		c3.226-3.226,8.452-3.226,11.677,0l8.258,8.258c3.226,3.226,3.226,8.452,0,11.677C252.33,337.774,250.217,338.581,248.104,338.581z
		"/>
	<path style="fill:#4B3F4E;" d="M297.653,338.581c-2.113,0-4.226-0.806-5.839-2.419c-3.226-3.226-3.226-8.452,0-11.677l8.258-8.258
		c3.226-3.226,8.452-3.226,11.677,0s3.226,8.452,0,11.677l-8.258,8.258C301.879,337.774,299.766,338.581,297.653,338.581z"/>
	<path style="fill:#4B3F4E;" d="M363.717,222.968L363.717,222.968c-13.682,0-24.774-11.092-24.774-24.774v-8.258
		c0-13.682,11.092-24.774,24.774-24.774l0,0c13.682,0,24.774,11.092,24.774,24.774v8.258
		C388.491,211.876,377.4,222.968,363.717,222.968z"/>
</g>
<path style="fill:#5D5360;" d="M363.717,165.161v28.903c0,6.841,5.546,12.387,12.387,12.387s12.387-5.546,12.387-12.387v-4.129
	C388.491,176.253,377.4,165.161,363.717,165.161z"/>
<circle style="fill:#FFFFFF;" cx="363.72" cy="181.68" r="8.258"/>
<path style="fill:#4B3F4E;" d="M182.04,222.968L182.04,222.968c-13.682,0-24.774-11.092-24.774-24.774v-8.258
	c0-13.682,11.092-24.774,24.774-24.774l0,0c13.682,0,24.774,11.092,24.774,24.774v8.258
	C206.814,211.876,195.722,222.968,182.04,222.968z"/>
<path style="fill:#5D5360;" d="M182.04,165.161v28.903c0,6.841,5.546,12.387,12.387,12.387s12.387-5.546,12.387-12.387v-4.129
	C206.814,176.253,195.722,165.161,182.04,165.161z"/>
<circle style="fill:#FFFFFF;" cx="182.04" cy="181.68" r="8.258"/>
<g>
	<path style="fill:#D27D38;" d="M239.846,33.032L239.846,33.032c-9.122,0-16.516-7.395-16.516-16.516l0,0
		C223.33,7.395,230.725,0,239.846,0l0,0c9.122,0,16.516,7.395,16.516,16.516l0,0C256.362,25.638,248.968,33.032,239.846,33.032z"/>
	<path style="fill:#D27D38;" d="M305.911,33.032L305.911,33.032c-9.122,0-16.516-7.395-16.516-16.516l0,0
		C289.395,7.395,296.789,0,305.911,0l0,0c9.122,0,16.516,7.395,16.516,16.516l0,0C322.427,25.638,315.032,33.032,305.911,33.032z"/>
</g>
<g>
</g>
<g>
</g>
<g>
</g>
<g>
</g>
<g>
</g>
<g>
</g>
<g>
</g>
<g>
</g>
<g>
</g>
<g>
</g>
<g>
</g>
<g>
</g>
<g>
</g>
<g>
</g>
<g>
</g>
</svg>
