<?xml version="1.0" encoding="UTF-8" standalone="no"?>
<svg
   width="24"
   height="24"
   viewBox="0 0 24 24"
   fill="none"
   version="1.1"
   id="svg4"
   sodipodi:docname="archive-plus.svg"
   inkscape:version="1.2.2 (b0a8486541, 2022-12-01)"
   xmlns:inkscape="http://www.inkscape.org/namespaces/inkscape"
   xmlns:sodipodi="http://sodipodi.sourceforge.net/DTD/sodipodi-0.dtd"
   xmlns="http://www.w3.org/2000/svg"
   xmlns:svg="http://www.w3.org/2000/svg">
  <defs
     id="defs8" />
  <sodipodi:namedview
     id="namedview6"
     pagecolor="#ffffff"
     bordercolor="#000000"
     borderopacity="0.25"
     inkscape:showpageshadow="2"
     inkscape:pageopacity="0.0"
     inkscape:pagecheckerboard="0"
     inkscape:deskcolor="#d1d1d1"
     showgrid="false"
     inkscape:zoom="19.583333"
     inkscape:cx="12"
     inkscape:cy="12"
     inkscape:window-width="1366"
     inkscape:window-height="699"
     inkscape:window-x="0"
     inkscape:window-y="0"
     inkscape:window-maximized="1"
     inkscape:current-layer="svg4" />
  <path
     d="M9.75 13.75H10.5C10.5 13.3358 10.1642 13 9.75 13V13.75ZM14.25 13.75V13C13.8358 13 13.5 13.3358 13.5 13.75H14.25ZM20 11.75C20 11.3358 19.6642 11 19.25 11C18.8358 11 18.5 11.3358 18.5 11.75H20ZM12.25 5.5C12.6642 5.5 13 5.16421 13 4.75C13 4.33579 12.6642 4 12.25 4V5.5ZM17.75 4.75C17.75 4.33579 17.4142 4 17 4C16.5858 4 16.25 4.33579 16.25 4.75H17.75ZM16.25 9.25C16.25 9.66421 16.5858 10 17 10C17.4142 10 17.75 9.66421 17.75 9.25H16.25ZM19.25 7.75C19.6642 7.75 20 7.41421 20 7C20 6.58579 19.6642 6.25 19.25 6.25L19.25 7.75ZM14.75 6.25C14.3358 6.25 14 6.58579 14 7C14 7.41421 14.3358 7.75 14.75 7.75L14.75 6.25ZM16.25 18.5H7.75V20H16.25V18.5ZM5.5 16.25V13.75H4V16.25H5.5ZM5.5 13.75V7.75H4V13.75H5.5ZM4.75 14.5H9.75V13H4.75V14.5ZM9 13.75V14.25H10.5V13.75H9ZM11.75 17H12.25V15.5H11.75V17ZM15 14.25V13.75H13.5V14.25H15ZM20 16.25V13.75H18.5V16.25H20ZM14.25 14.5H19.25V13H14.25V14.5ZM20 13.75V11.75H18.5V13.75H20ZM7.75 5.5H12.25V4H7.75V5.5ZM5.5 7.75C5.5 6.50736 6.50736 5.5 7.75 5.5V4C5.67893 4 4 5.67893 4 7.75H5.5ZM12.25 17C13.7688 17 15 15.7688 15 14.25H13.5C13.5 14.9404 12.9404 15.5 12.25 15.5V17ZM7.75 18.5C6.50736 18.5 5.5 17.4926 5.5 16.25H4C4 18.3211 5.67893 20 7.75 20V18.5ZM9 14.25C9 15.7688 10.2312 17 11.75 17V15.5C11.0596 15.5 10.5 14.9404 10.5 14.25H9ZM16.25 20C18.3211 20 20 18.3211 20 16.25H18.5C18.5 17.4926 17.4926 18.5 16.25 18.5V20ZM16.25 4.75V9.25H17.75V4.75H16.25ZM19.25 6.25L14.75 6.25L14.75 7.75L19.25 7.75L19.25 6.25Z"
     fill="currentColor"
     id="path2"
     style="fill:#e01b24;fill-opacity:0.90588236" />
</svg>
