<?xml version="1.0" encoding="UTF-8" standalone="no"?>
<svg
   height="16px"
   viewBox="0 0 16 16"
   width="16px"
   version="1.1"
   id="svg1"
   sodipodi:docname="scheduled.svg"
   inkscape:version="1.3.2 (091e20ef0f, 2023-11-25)"
   xmlns:inkscape="http://www.inkscape.org/namespaces/inkscape"
   xmlns:sodipodi="http://sodipodi.sourceforge.net/DTD/sodipodi-0.dtd"
   xmlns="http://www.w3.org/2000/svg"
   xmlns:svg="http://www.w3.org/2000/svg">
  <defs
     id="defs1" />
  <sodipodi:namedview
     id="namedview1"
     pagecolor="#ffffff"
     bordercolor="#000000"
     borderopacity="0.25"
     inkscape:showpageshadow="2"
     inkscape:pageopacity="0.0"
     inkscape:pagecheckerboard="0"
     inkscape:deskcolor="#d1d1d1"
     inkscape:zoom="50.3125"
     inkscape:cx="8"
     inkscape:cy="8"
     inkscape:window-width="1920"
     inkscape:window-height="1011"
     inkscape:window-x="0"
     inkscape:window-y="0"
     inkscape:window-maximized="1"
     inkscape:current-layer="svg1" />
  <path
     d="m 4 0 v 1 c -1.644531 0 -3 1.355469 -3 3 v 8 c 0 1.644531 1.355469 3 3 3 h 8 c 1.644531 0 3 -1.355469 3 -3 v -8 c 0 -1.644531 -1.355469 -3 -3 -3 v -1 h -1 v 1 h -6 v -1 z m -1 6 h 10 v 6 c 0 0.570312 -0.429688 1 -1 1 h -8 c -0.570312 0 -1 -0.429688 -1 -1 z m 1 1 v 2 h 2 v -2 z m 3 0 v 2 h 2 v -2 z m 3 0 v 2 h 2 v -2 z m -6 3 v 2 h 2 v -2 z m 3 0 v 2 h 2 v -2 z m 0 0"
     fill="#222222"
     id="path1"
     style="fill:#9141ac;fill-opacity:1" />
</svg>
