<?xml version="1.0" encoding="UTF-8" standalone="no"?>
<svg
   xmlns:dc="http://purl.org/dc/elements/1.1/"
   xmlns:cc="http://creativecommons.org/ns#"
   xmlns:rdf="http://www.w3.org/1999/02/22-rdf-syntax-ns#"
   xmlns:svg="http://www.w3.org/2000/svg"
   xmlns="http://www.w3.org/2000/svg"
   xmlns:sodipodi="http://sodipodi.sourceforge.net/DTD/sodipodi-0.dtd"
   xmlns:inkscape="http://www.inkscape.org/namespaces/inkscape"
   class="ionicon"
   viewBox="0 0 512 512"
   version="1.1"
   id="svg6"
   sodipodi:docname="extension-puzzle-outline.svg"
   inkscape:version="0.92.5 (2060ec1f9f, 2020-04-08)">
  <metadata
     id="metadata12">
    <rdf:RDF>
      <cc:Work
         rdf:about="">
        <dc:format>image/svg+xml</dc:format>
        <dc:type
           rdf:resource="http://purl.org/dc/dcmitype/StillImage" />
      </cc:Work>
    </rdf:RDF>
  </metadata>
  <defs
     id="defs10" />
  <sodipodi:namedview
     pagecolor="#ffffff"
     bordercolor="#666666"
     borderopacity="1"
     objecttolerance="10"
     gridtolerance="10"
     guidetolerance="10"
     inkscape:pageopacity="0"
     inkscape:pageshadow="2"
     inkscape:window-width="779"
     inkscape:window-height="480"
     id="namedview8"
     showgrid="false"
     inkscape:zoom="0.4609375"
     inkscape:cx="18.440678"
     inkscape:cy="256"
     inkscape:window-x="0"
     inkscape:window-y="27"
     inkscape:window-maximized="0"
     inkscape:current-layer="svg6" />
  <title
     id="title2">Extension Puzzle</title>
  <path
     fill="none"
     stroke="currentColor"
     stroke-linecap="round"
     stroke-linejoin="round"
     stroke-width="32"
     d="M413.66 246.1H386a2 2 0 01-2-2v-77.24A38.86 38.86 0 00345.14 128H267.9a2 2 0 01-2-2V98.34c0-27.14-21.5-49.86-48.64-50.33a49.53 49.53 0 00-50.4 49.51V126a2 2 0 01-2 2H87.62A39.74 39.74 0 0048 167.62V238a2 2 0 002 2h26.91c29.37 0 53.68 25.48 54.09 54.85.42 29.87-23.51 57.15-53.29 57.15H50a2 2 0 00-2 2v70.38A39.74 39.74 0 0087.62 464H158a2 2 0 002-2v-20.93c0-30.28 24.75-56.35 55-57.06 30.1-.7 57 20.31 57 50.28V462a2 2 0 002 2h71.14A38.86 38.86 0 00384 425.14v-78a2 2 0 012-2h28.48c27.63 0 49.52-22.67 49.52-50.4s-23.2-48.64-50.34-48.64z"
     id="path4"
     style="stroke:#ffffff;stroke-opacity:1" />
</svg>
