<?xml version="1.0" encoding="UTF-8" standalone="no"?>
<!-- Generator: Adobe Illustrator 19.0.0, SVG Export Plug-In . SVG Version: 6.00 Build 0)  -->

<svg
   xmlns:dc="http://purl.org/dc/elements/1.1/"
   xmlns:cc="http://creativecommons.org/ns#"
   xmlns:rdf="http://www.w3.org/1999/02/22-rdf-syntax-ns#"
   xmlns:svg="http://www.w3.org/2000/svg"
   xmlns="http://www.w3.org/2000/svg"
   xmlns:sodipodi="http://sodipodi.sourceforge.net/DTD/sodipodi-0.dtd"
   xmlns:inkscape="http://www.inkscape.org/namespaces/inkscape"
   version="1.1"
   id="Capa_1"
   x="0px"
   y="0px"
   viewBox="0 0 16 16"
   xml:space="preserve"
   sodipodi:docname="repeat.svg"
   width="16"
   height="16"
   inkscape:version="0.92.3 (2405546, 2018-03-11)"><metadata
   id="metadata47"><rdf:RDF><cc:Work
       rdf:about=""><dc:format>image/svg+xml</dc:format><dc:type
         rdf:resource="http://purl.org/dc/dcmitype/StillImage" /><dc:title></dc:title></cc:Work></rdf:RDF></metadata><defs
   id="defs45" /><sodipodi:namedview
   pagecolor="#ffffff"
   bordercolor="#666666"
   borderopacity="1"
   objecttolerance="10"
   gridtolerance="10"
   guidetolerance="10"
   inkscape:pageopacity="0"
   inkscape:pageshadow="2"
   inkscape:window-width="1366"
   inkscape:window-height="705"
   id="namedview43"
   showgrid="false"
   inkscape:zoom="32.625"
   inkscape:cx="8"
   inkscape:cy="8"
   inkscape:window-x="0"
   inkscape:window-y="30"
   inkscape:window-maximized="1"
   inkscape:current-layer="Capa_1" />
<g
   id="g859"><g
     transform="matrix(0.02734375,0,0,0.02734375,1,1.0000162)"
     style="fill:#666666;fill-opacity:1"
     id="g10">
	<g
   style="fill:#666666;fill-opacity:1"
   id="g8">
		<g
   style="fill:#666666;fill-opacity:1"
   id="g6">
			<path
   inkscape:connector-curvature="0"
   style="fill:#666666;fill-opacity:1"
   id="path2"
   d="M 396.523,404.991 283.386,334.992 c -9.392,-5.811 -21.72,-2.91 -27.531,6.485 -5.812,9.393 -2.908,21.719 6.484,27.53 l 53.323,32.992 H 80 c -22.056,0 -40,-17.944 -40,-40 V 106.002 c 0,-11.046 -8.954,-20 -20,-20 -11.046,0 -20,8.954 -20,20 v 255.997 c 0,44.112 35.888,79.999 80,79.999 H 315.663 L 262.34,474.99 c -9.393,5.811 -12.296,18.138 -6.484,27.53 5.84,9.439 18.177,12.271 27.531,6.485 l 113.137,-69.999 c 12.725,-7.871 12.502,-26.281 -10e-4,-34.015 z" />
			<path
   inkscape:connector-curvature="0"
   style="fill:#666666;fill-opacity:1"
   id="path4"
   d="M 432,70.002 H 196.337 L 249.66,37.01 c 9.392,-5.811 12.296,-18.137 6.484,-27.53 -5.812,-9.395 -18.138,-12.296 -27.531,-6.485 l -113.136,70 c -12.564,7.771 -12.662,26.183 0,34.015 l 113.136,69.998 c 9.355,5.788 21.695,2.948 27.531,-6.485 5.812,-9.392 2.909,-21.719 -6.484,-27.53 L 196.337,110.001 H 432 c 22.056,0 40,17.944 40,40 v 255.997 c 0,11.046 8.954,20 20,20 11.046,0 20,-8.954 20,-20 V 150.001 C 512,105.89 476.112,70.002 432,70.002 Z" />
		</g>
	</g>
</g></g>
<g
   id="g12"
   transform="translate(0,-496)">
</g>
<g
   id="g14"
   transform="translate(0,-496)">
</g>
<g
   id="g16"
   transform="translate(0,-496)">
</g>
<g
   id="g18"
   transform="translate(0,-496)">
</g>
<g
   id="g20"
   transform="translate(0,-496)">
</g>
<g
   id="g22"
   transform="translate(0,-496)">
</g>
<g
   id="g24"
   transform="translate(0,-496)">
</g>
<g
   id="g26"
   transform="translate(0,-496)">
</g>
<g
   id="g28"
   transform="translate(0,-496)">
</g>
<g
   id="g30"
   transform="translate(0,-496)">
</g>
<g
   id="g32"
   transform="translate(0,-496)">
</g>
<g
   id="g34"
   transform="translate(0,-496)">
</g>
<g
   id="g36"
   transform="translate(0,-496)">
</g>
<g
   id="g38"
   transform="translate(0,-496)">
</g>
<g
   id="g40"
   transform="translate(0,-496)">
</g>
</svg>