<?xml version="1.0" encoding="UTF-8" standalone="no"?>
<!-- Generator: Adobe Illustrator 19.0.0, SVG Export Plug-In . SVG Version: 6.00 Build 0)  -->

<svg
   xmlns:dc="http://purl.org/dc/elements/1.1/"
   xmlns:cc="http://creativecommons.org/ns#"
   xmlns:rdf="http://www.w3.org/1999/02/22-rdf-syntax-ns#"
   xmlns:svg="http://www.w3.org/2000/svg"
   xmlns="http://www.w3.org/2000/svg"
   xmlns:sodipodi="http://sodipodi.sourceforge.net/DTD/sodipodi-0.dtd"
   xmlns:inkscape="http://www.inkscape.org/namespaces/inkscape"
   version="1.1"
   id="Capa_1"
   x="0px"
   y="0px"
   viewBox="0 0 16 16"
   xml:space="preserve"
   sodipodi:docname="planner-flag-symbolic.svg"
   width="16"
   height="16"
   inkscape:version="0.92.3 (2405546, 2018-03-11)"><metadata
   id="metadata39"><rdf:RDF><cc:Work
       rdf:about=""><dc:format>image/svg+xml</dc:format><dc:type
         rdf:resource="http://purl.org/dc/dcmitype/StillImage" /><dc:title></dc:title></cc:Work></rdf:RDF></metadata><defs
   id="defs37" /><sodipodi:namedview
   pagecolor="#ffffff"
   bordercolor="#666666"
   borderopacity="1"
   objecttolerance="10"
   gridtolerance="10"
   guidetolerance="10"
   inkscape:pageopacity="0"
   inkscape:pageshadow="2"
   inkscape:window-width="1366"
   inkscape:window-height="705"
   id="namedview35"
   showgrid="false"
   inkscape:zoom="22.250293"
   inkscape:cx="6.5878114"
   inkscape:cy="7.5744644"
   inkscape:window-x="0"
   inkscape:window-y="30"
   inkscape:window-maximized="1"
   inkscape:current-layer="Capa_1" />
<path
   d="m 12.142452,7.0243552 2.475667,-3.6012666 c 0.049,-0.0714 0.05437,-0.1640334 0.01423,-0.2408 -0.04037,-0.076533 -0.119933,-0.1246 -0.2065,-0.1246 H 7.4258486 V 2.1243552 c 3e-6,-0.1290333 -0.104297,-0.2333333 -0.2333303,-0.2333333 h -4.9 V 1.4243552 c 0,-0.1290333 -0.1043,-0.2333333 -0.2333334,-0.2333333 -0.1290333,0 -0.2333333,0.1043 -0.2333333,0.2333333 v 0.7 6.7666667 6.0666671 c 0,0.129033 0.1043,0.233333 0.2333333,0.233333 0.1290334,0 0.2333334,-0.1043 0.2333334,-0.233333 V 9.1243552 h 2.5727333 c -0.1481667,0.1955337 -0.2394,0.4363337 -0.2394,0.6999997 0,0.6433001 0.5233667,1.1666671 1.1666667,1.1666671 h 8.6333337 c 0.08657,0 0.166133,-0.04807 0.2065,-0.1246 0.04037,-0.07677 0.03477,-0.169633 -0.01423,-0.2408 z M 2.2925183,2.3576886 h 4.6666666 v 0.9333333 5.3666667 h -1.1666666 -3.5 z m 3.5,8.1666664 c -0.3859334,0 -0.7,-0.314066 -0.7,-0.7000001 0,-0.385933 0.3140666,-0.6999997 0.7,-0.6999997 h 1.4 c 0.1290333,0 0.2333333,-0.1043 0.2333333,-0.2333333 V 3.5243552 h 6.5564334 l -2.315366,3.3679334 c -0.0546,0.079567 -0.0546,0.1848 0,0.2643666 l 2.315366,3.3676998 z"
   id="path2"
   inkscape:connector-curvature="0"
   style="stroke-width:0.23333333" />
<g
   id="g4"
   transform="translate(0,-44)">
</g>
<g
   id="g6"
   transform="translate(0,-44)">
</g>
<g
   id="g8"
   transform="translate(0,-44)">
</g>
<g
   id="g10"
   transform="translate(0,-44)">
</g>
<g
   id="g12"
   transform="translate(0,-44)">
</g>
<g
   id="g14"
   transform="translate(0,-44)">
</g>
<g
   id="g16"
   transform="translate(0,-44)">
</g>
<g
   id="g18"
   transform="translate(0,-44)">
</g>
<g
   id="g20"
   transform="translate(0,-44)">
</g>
<g
   id="g22"
   transform="translate(0,-44)">
</g>
<g
   id="g24"
   transform="translate(0,-44)">
</g>
<g
   id="g26"
   transform="translate(0,-44)">
</g>
<g
   id="g28"
   transform="translate(0,-44)">
</g>
<g
   id="g30"
   transform="translate(0,-44)">
</g>
<g
   id="g32"
   transform="translate(0,-44)">
</g>
</svg>