<?xml version="1.0" encoding="UTF-8" standalone="no"?>
<!-- Generator: Adobe Illustrator 19.0.0, SVG Export Plug-In . SVG Version: 6.00 Build 0)  -->

<svg
   xmlns:dc="http://purl.org/dc/elements/1.1/"
   xmlns:cc="http://creativecommons.org/ns#"
   xmlns:rdf="http://www.w3.org/1999/02/22-rdf-syntax-ns#"
   xmlns:svg="http://www.w3.org/2000/svg"
   xmlns="http://www.w3.org/2000/svg"
   xmlns:sodipodi="http://sodipodi.sourceforge.net/DTD/sodipodi-0.dtd"
   xmlns:inkscape="http://www.inkscape.org/namespaces/inkscape"
   version="1.1"
   id="Layer_1"
   x="0px"
   y="0px"
   viewBox="0 0 16 16"
   xml:space="preserve"
   sodipodi:docname="flag (1).svg"
   width="16"
   height="16"
   inkscape:version="0.92.3 (2405546, 2018-03-11)"><metadata
   id="metadata43"><rdf:RDF><cc:Work
       rdf:about=""><dc:format>image/svg+xml</dc:format><dc:type
         rdf:resource="http://purl.org/dc/dcmitype/StillImage" /><dc:title></dc:title></cc:Work></rdf:RDF></metadata><defs
   id="defs41" /><sodipodi:namedview
   pagecolor="#ffffff"
   bordercolor="#666666"
   borderopacity="1"
   objecttolerance="10"
   gridtolerance="10"
   guidetolerance="10"
   inkscape:pageopacity="0"
   inkscape:pageshadow="2"
   inkscape:window-width="1366"
   inkscape:window-height="705"
   id="namedview39"
   showgrid="false"
   inkscape:zoom="23.069359"
   inkscape:cx="5.600418"
   inkscape:cy="9.0791771"
   inkscape:window-x="0"
   inkscape:window-y="30"
   inkscape:window-maximized="1"
   inkscape:current-layer="Layer_1" />
<g
   id="g6"
   transform="matrix(0.02734361,0,0,0.02734375,1.1280503,1.0360682)">
	<g
   id="g4">
		<path
   d="m 361.801,177.594 66.841,-89.629 c 2.669,-3.579 3.091,-8.359 1.088,-12.351 -2.003,-3.992 -6.086,-6.512 -10.553,-6.512 H 131.395 V 54.049 C 141.131,49.565 147.91,39.721 147.91,28.318 147.909,12.704 135.206,0 119.591,0 103.976,0 91.272,12.704 91.272,28.318 c 0,11.402 6.777,21.245 16.511,25.73 V 488.39 H 92.822 c -6.519,0 -11.805,5.285 -11.805,11.805 0,6.52 5.286,11.805 11.805,11.805 h 53.537 c 6.519,0 11.805,-5.285 11.805,-11.805 0,-6.52 -5.286,-11.805 -11.805,-11.805 H 131.394 V 285.645 h 287.354 c 4.464,0 8.546,-2.518 10.549,-6.508 2.003,-3.989 1.585,-8.768 -1.081,-12.348 z M 119.591,35.387 c -3.898,0 -7.068,-3.171 -7.068,-7.069 -10e-4,-3.897 3.17,-7.068 7.068,-7.068 3.898,0 7.069,3.171 7.069,7.068 0,3.898 -3.172,7.069 -7.069,7.069 z m 11.805,226.648 v -0.001 -39.21 h 37.623 c 6.52,0 11.805,-5.285 11.805,-11.805 0,-6.52 -5.285,-11.805 -11.805,-11.805 h -37.623 v -43.676 h 58.871 c 6.52,0 11.805,-5.285 11.805,-11.805 0,-6.52 -5.285,-11.805 -11.805,-11.805 H 131.396 V 92.714 h 264.251 l -58.033,77.819 c -3.12,4.184 -3.122,9.921 -0.005,14.109 l 57.63,77.394 H 131.396 Z"
   id="path2"
   inkscape:connector-curvature="0" />
	</g>
</g>
<g
   id="g8"
   transform="translate(0,-496)">
</g>
<g
   id="g10"
   transform="translate(0,-496)">
</g>
<g
   id="g12"
   transform="translate(0,-496)">
</g>
<g
   id="g14"
   transform="translate(0,-496)">
</g>
<g
   id="g16"
   transform="translate(0,-496)">
</g>
<g
   id="g18"
   transform="translate(0,-496)">
</g>
<g
   id="g20"
   transform="translate(0,-496)">
</g>
<g
   id="g22"
   transform="translate(0,-496)">
</g>
<g
   id="g24"
   transform="translate(0,-496)">
</g>
<g
   id="g26"
   transform="translate(0,-496)">
</g>
<g
   id="g28"
   transform="translate(0,-496)">
</g>
<g
   id="g30"
   transform="translate(0,-496)">
</g>
<g
   id="g32"
   transform="translate(0,-496)">
</g>
<g
   id="g34"
   transform="translate(0,-496)">
</g>
<g
   id="g36"
   transform="translate(0,-496)">
</g>
</svg>