<?xml version="1.0" encoding="UTF-8" standalone="no"?>
<svg
   xmlns:dc="http://purl.org/dc/elements/1.1/"
   xmlns:cc="http://creativecommons.org/ns#"
   xmlns:rdf="http://www.w3.org/1999/02/22-rdf-syntax-ns#"
   xmlns:svg="http://www.w3.org/2000/svg"
   xmlns="http://www.w3.org/2000/svg"
   xmlns:sodipodi="http://sodipodi.sourceforge.net/DTD/sodipodi-0.dtd"
   xmlns:inkscape="http://www.inkscape.org/namespaces/inkscape"
   width="16"
   height="16"
   viewBox="0 0 16 16"
   version="1.1"
   id="svg30"
   sodipodi:docname="calendar-overdue.svg"
   inkscape:version="1.0 (4035a4fb49, 2020-05-01)">
  <metadata
     id="metadata36">
    <rdf:RDF>
      <cc:Work
         rdf:about="">
        <dc:format>image/svg+xml</dc:format>
        <dc:type
           rdf:resource="http://purl.org/dc/dcmitype/StillImage" />
        <dc:title>ionicons-v5-e</dc:title>
      </cc:Work>
    </rdf:RDF>
  </metadata>
  <defs
     id="defs34" />
  <sodipodi:namedview
     inkscape:document-rotation="0"
     pagecolor="#ffffff"
     bordercolor="#666666"
     borderopacity="1"
     objecttolerance="10"
     gridtolerance="10"
     guidetolerance="10"
     inkscape:pageopacity="0"
     inkscape:pageshadow="2"
     inkscape:window-width="1366"
     inkscape:window-height="705"
     id="namedview32"
     showgrid="false"
     inkscape:zoom="11.645165"
     inkscape:cx="3.3752345"
     inkscape:cy="9.6284658"
     inkscape:window-x="0"
     inkscape:window-y="30"
     inkscape:window-maximized="1"
     inkscape:current-layer="svg30" />
  <title
     id="title2">ionicons-v5-e</title>
  <path
     id="path843"
     style="isolation:auto;mix-blend-mode:normal;fill:#fa1955;fill-opacity:1;marker:none"
     overflow="visible"
     fill="#666666"
     d="m 5.5,1.5003163 c -0.277,0 -0.5,0.227 -0.5,0.5 v 0.5 h 1 v -0.5 c 0,-0.277 -0.223,-0.5 -0.5,-0.5 z m 0.5,1 v 0.5 a 0.5,0.50000002 0 1 1 -1,0 v -0.5 H 3.5 c -0.831,0 -1.5,0.6690001 -1.5,1.5000001 v 8.9999996 c 0,0.831 0.669,1.500001 1.5,1.500001 h 9 c 0.831,0 1.5,-0.669001 1.5,-1.500001 V 4.0003164 c 0,-0.831 -0.669,-1.5000001 -1.5,-1.5000001 H 11 v 0.5 a 0.5000001,0.50000012 0 1 1 -1,0 v -0.5 z m 4,0 h 1 v -0.5 a 0.5000001,0.50000012 0 1 0 -1,0 z M 3.5,6.5003164 h 9 c 0.277,0 0.5,0.223 0.5,0.5 v 5.9999996 c 0,0.277 -0.223,0.5 -0.5,0.5 h -9 a 0.49899998,0.499 0 0 1 -0.5,-0.5 V 7.0003164 c 0,-0.277 0.223,-0.5 0.5,-0.5 z"
     color="#bebebe" />
</svg>
