<?xml version="1.0" encoding="UTF-8" standalone="no"?>
<svg
   xmlns:dc="http://purl.org/dc/elements/1.1/"
   xmlns:cc="http://creativecommons.org/ns#"
   xmlns:rdf="http://www.w3.org/1999/02/22-rdf-syntax-ns#"
   xmlns:svg="http://www.w3.org/2000/svg"
   xmlns="http://www.w3.org/2000/svg"
   xmlns:sodipodi="http://sodipodi.sourceforge.net/DTD/sodipodi-0.dtd"
   xmlns:inkscape="http://www.inkscape.org/namespaces/inkscape"
   inkscape:version="1.0 (4035a4fb49, 2020-05-01)"
   sodipodi:docname="calendar-outline-light.svg"
   id="svg30"
   version="1.1"
   viewBox="0 0 16 16"
   height="16"
   width="16">
  <metadata
     id="metadata36">
    <rdf:RDF>
      <cc:Work
         rdf:about="">
        <dc:format>image/svg+xml</dc:format>
        <dc:type
           rdf:resource="http://purl.org/dc/dcmitype/StillImage" />
        <dc:title>ionicons-v5-e</dc:title>
      </cc:Work>
    </rdf:RDF>
  </metadata>
  <defs
     id="defs34" />
  <sodipodi:namedview
     inkscape:current-layer="svg30"
     inkscape:window-maximized="1"
     inkscape:window-y="30"
     inkscape:window-x="0"
     inkscape:cy="13.139284"
     inkscape:cx="5.5143426"
     inkscape:zoom="16.46875"
     showgrid="false"
     id="namedview32"
     inkscape:window-height="705"
     inkscape:window-width="1366"
     inkscape:pageshadow="2"
     inkscape:pageopacity="0"
     guidetolerance="10"
     gridtolerance="10"
     objecttolerance="10"
     borderopacity="1"
     bordercolor="#666666"
     pagecolor="#ffffff"
     inkscape:document-rotation="0" />
  <title
     id="title2">ionicons-v5-e</title>
  <path
     id="path843"
     style="isolation:auto;mix-blend-mode:normal;fill:#666666;fill-opacity:1;marker:none"
     overflow="visible"
     fill="#666666"
     d="m 5.4999998,1.5000001 c -0.277,0 -0.5,0.227 -0.5,0.5 v 0.5 h 1 v -0.5 c 0,-0.277 -0.223,-0.5 -0.5,-0.5 z m 0.5,1 v 0.5 a 0.5,0.50000002 0 1 1 -1,0 v -0.5 H 3.4999999 c -0.831,0 -1.4999999,0.669 -1.4999999,1.5 V 13 c 0,0.831 0.6689999,1.5 1.4999999,1.5 H 12.5 C 13.331,14.5 14,13.831 14,13 V 4.0000001 c 0,-0.831 -0.669,-1.5 -1.5,-1.5 H 11 v 0.5 a 0.5000001,0.50000012 0 1 1 -1.0000002,0 v -0.5 z m 4,0 H 11 v -0.5 a 0.5000001,0.50000012 0 1 0 -1.0000002,0 z M 3.4999999,6.5000002 H 12.5 c 0.277,0 0.5,0.223 0.5,0.5 V 13 c 0,0.277 -0.223,0.5 -0.5,0.5 H 3.4999999 a 0.49899998,0.499 0 0 1 -0.5,-0.5 V 7.0000002 c 0,-0.277 0.223,-0.5 0.5,-0.5 z"
     color="#bebebe" />
</svg>
