<?xml version="1.0" encoding="UTF-8" standalone="no"?>
<svg
   xmlns:dc="http://purl.org/dc/elements/1.1/"
   xmlns:cc="http://creativecommons.org/ns#"
   xmlns:rdf="http://www.w3.org/1999/02/22-rdf-syntax-ns#"
   xmlns:svg="http://www.w3.org/2000/svg"
   xmlns="http://www.w3.org/2000/svg"
   xmlns:sodipodi="http://sodipodi.sourceforge.net/DTD/sodipodi-0.dtd"
   xmlns:inkscape="http://www.inkscape.org/namespaces/inkscape"
   height="16"
   viewBox="1 1 12 12"
   width="16"
   version="1.1"
   id="svg6"
   sodipodi:docname="check.svg"
   inkscape:version="0.92.3 (2405546, 2018-03-11)">
  <metadata
     id="metadata12">
    <rdf:RDF>
      <cc:Work
         rdf:about="">
        <dc:format>image/svg+xml</dc:format>
        <dc:type
           rdf:resource="http://purl.org/dc/dcmitype/StillImage" />
        <dc:title></dc:title>
      </cc:Work>
    </rdf:RDF>
  </metadata>
  <defs
     id="defs10" />
  <sodipodi:namedview
     pagecolor="#ffffff"
     bordercolor="#666666"
     borderopacity="1"
     objecttolerance="10"
     gridtolerance="10"
     guidetolerance="10"
     inkscape:pageopacity="0"
     inkscape:pageshadow="2"
     inkscape:window-width="1366"
     inkscape:window-height="705"
     id="namedview8"
     showgrid="false"
     units="px"
     inkscape:zoom="9.0156115"
     inkscape:cx="13.471397"
     inkscape:cy="11.262258"
     inkscape:window-x="0"
     inkscape:window-y="30"
     inkscape:window-maximized="1"
     inkscape:current-layer="svg6" />
  <g
     id="g829">
    <g
       id="g824">
      <path
         d="M 6.9999994,12.25 C 4.1004674,12.25 1.75,9.8994496 1.75,6.9999996 c 0,-2.8994507 2.3504674,-5.2500007 5.2499994,-5.2500007 2.899532,0 5.2499996,2.35047 5.2499996,5.2500007 C 12.246599,9.8980896 9.8980894,12.24655 6.9999994,12.25 Z m 0,-9.8437511 c -2.5370405,0 -4.5937495,2.05671 -4.5937495,4.5937507 0,2.53704 2.056709,4.5937504 4.5937495,4.5937504 2.5370404,0 4.5937496,-2.0567104 4.5937496,-4.5937504 C 11.591029,4.4640789 9.5359182,2.4089689 6.9999994,2.4062489 Z m 0,0"
         id="path2"
         inkscape:connector-curvature="0"
         style="fill:#666666;fill-opacity:1;stroke-width:0.99999982" />
      <path
         d="m 5.3593746,9.3750326 c -0.086998,0 -0.1704712,-0.0346 -0.2319946,-0.0961 l -1.3124999,-1.3125 c -0.1259308,-0.13034 -0.1222458,-0.33806 0.00809,-0.46399 0.1271324,-0.12281 0.3286858,-0.12281 0.4558982,0 l 1.0805053,1.0805 4.0569415,-4.0569407 c 0.1303367,-0.12585 0.3380583,-0.12224 0.463909,0.008 0.1228069,0.12714 0.1228069,0.32877 0,0.4559 L 5.5913682,9.2788426 c -0.061523,0.0615 -0.1449966,0.0961 -0.2319946,0.0961 z m 0,0"
         id="path4"
         inkscape:connector-curvature="0"
         style="fill:#666666;fill-opacity:1;stroke-width:0.99999982" />
    </g>
  </g>
</svg>
