<?xml version="1.0" encoding="UTF-8" standalone="no"?>
<svg
   width="24"
   height="24"
   fill="none"
   viewBox="0 0 24 24"
   version="1.1"
   id="svg4"
   sodipodi:docname="dots-horizontal-light.svg"
   inkscape:version="1.1.1 (3bf5ae0d25, 2021-09-20)"
   xmlns:inkscape="http://www.inkscape.org/namespaces/inkscape"
   xmlns:sodipodi="http://sodipodi.sourceforge.net/DTD/sodipodi-0.dtd"
   xmlns="http://www.w3.org/2000/svg"
   xmlns:svg="http://www.w3.org/2000/svg">
  <defs
     id="defs8" />
  <sodipodi:namedview
     id="namedview6"
     pagecolor="#ffffff"
     bordercolor="#666666"
     borderopacity="1.0"
     inkscape:pageshadow="2"
     inkscape:pageopacity="0.0"
     inkscape:pagecheckerboard="0"
     showgrid="false"
     inkscape:zoom="16"
     inkscape:cx="9.0625"
     inkscape:cy="5.96875"
     inkscape:window-width="1366"
     inkscape:window-height="707"
     inkscape:window-x="0"
     inkscape:window-y="30"
     inkscape:window-maximized="1"
     inkscape:current-layer="svg4" />
  <path
     stroke="currentColor"
     stroke-linecap="round"
     stroke-linejoin="round"
     stroke-width="1.5"
     d="M 4.75,12 C 4.75,7.99594 7.99594,4.75 12,4.75 v 0 c 4.0041,0 7.25,3.24594 7.25,7.25 v 0 c 0,4.0041 -3.2459,7.25 -7.25,7.25 v 0 C 7.99594,19.25 4.75,16.0041 4.75,12 Z"
     id="path2-3"
     style="stroke:#666666;stroke-opacity:1" />
  <path
     fill="currentColor"
     d="m 13,12 c 0,0.5523 -0.4477,1 -1,1 -0.5523,0 -1,-0.4477 -1,-1 0,-0.5523 0.4477,-1 1,-1 0.5523,0 1,0.4477 1,1 z"
     id="path2"
     style="fill:#666666;fill-opacity:1" />
  <path
     fill="currentColor"
     d="m 9.9999996,12 c 0,0.5523 -0.44772,1 -0.9999996,1 -0.55228,0 -1,-0.4477 -1,-1 0,-0.5523 0.44772,-1 1,-1 0.5522796,0 0.9999996,0.4477 0.9999996,1 z"
     id="path4"
     style="fill:#666666;fill-opacity:1" />
  <path
     fill="currentColor"
     d="m 16,12 c 0,0.5523 -0.4477,1 -1,1 -0.5523,0 -1,-0.4477 -1,-1 0,-0.5523 0.4477,-1 1,-1 0.5523,0 1,0.4477 1,1 z"
     id="path6"
     style="fill:#666666;fill-opacity:1" />
</svg>
