<?xml version="1.0" encoding="UTF-8" standalone="no"?>
<svg
   version="1.1"
   width="48"
   height="48"
   id="svg4389"
   sodipodi:docname="google.svg"
   inkscape:version="1.2.2 (b0a8486541, 2022-12-01)"
   xmlns:inkscape="http://www.inkscape.org/namespaces/inkscape"
   xmlns:sodipodi="http://sodipodi.sourceforge.net/DTD/sodipodi-0.dtd"
   xmlns:xlink="http://www.w3.org/1999/xlink"
   xmlns="http://www.w3.org/2000/svg"
   xmlns:svg="http://www.w3.org/2000/svg">
  <sodipodi:namedview
     id="namedview1461"
     pagecolor="#ffffff"
     bordercolor="#000000"
     borderopacity="0.25"
     inkscape:showpageshadow="2"
     inkscape:pageopacity="0.0"
     inkscape:pagecheckerboard="0"
     inkscape:deskcolor="#d1d1d1"
     showgrid="false"
     inkscape:zoom="17.666667"
     inkscape:cx="22.443396"
     inkscape:cy="33.084906"
     inkscape:window-width="1920"
     inkscape:window-height="1019"
     inkscape:window-x="0"
     inkscape:window-y="30"
     inkscape:window-maximized="1"
     inkscape:current-layer="svg4389" />
  <defs
     id="defs4391">
    <linearGradient
       id="linearGradient3924-1">
      <stop
         id="stop3926-3"
         style="stop-color:#ffffff;stop-opacity:1"
         offset="0" />
      <stop
         id="stop3928-91"
         style="stop-color:#ffffff;stop-opacity:0.23529412"
         offset="0.0632" />
      <stop
         id="stop3930-6"
         style="stop-color:#ffffff;stop-opacity:0.15686275"
         offset="0.9506" />
      <stop
         id="stop3932-6"
         style="stop-color:#ffffff;stop-opacity:0.39215687"
         offset="1" />
    </linearGradient>
    <linearGradient
       id="linearGradient4632-92-3-0-8-1-6">
      <stop
         id="stop4634-68-8-0-2-9-1"
         style="stop-color:#fafafa;stop-opacity:1"
         offset="0" />
      <stop
         id="stop4636-8-21-7-1-4-9"
         style="stop-color:#e1e1e1;stop-opacity:1"
         offset="1" />
    </linearGradient>
    <radialGradient
       cx="4.9929786"
       cy="43.5"
       r="2.5"
       id="radialGradient3013"
       gradientUnits="userSpaceOnUse"
       gradientTransform="matrix(2.003784,0,0,1.4,27.98813,-17.4)"
       xlink:href="#linearGradient3688-166-749" />
    <linearGradient
       id="linearGradient3688-166-749">
      <stop
         id="stop2883"
         style="stop-color:#181818;stop-opacity:1"
         offset="0" />
      <stop
         id="stop2885"
         style="stop-color:#181818;stop-opacity:0"
         offset="1" />
    </linearGradient>
    <radialGradient
       cx="4.9929786"
       cy="43.5"
       r="2.5"
       id="radialGradient3015"
       gradientUnits="userSpaceOnUse"
       gradientTransform="matrix(2.003784,0,0,1.4,-20.01187,-104.4)"
       xlink:href="#linearGradient3688-464-309" />
    <linearGradient
       id="linearGradient3688-464-309">
      <stop
         id="stop2889"
         style="stop-color:#181818;stop-opacity:1"
         offset="0" />
      <stop
         id="stop2891"
         style="stop-color:#181818;stop-opacity:0"
         offset="1" />
    </linearGradient>
    <linearGradient
       id="linearGradient3702-501-757">
      <stop
         id="stop2895"
         style="stop-color:#181818;stop-opacity:0"
         offset="0" />
      <stop
         id="stop2897"
         style="stop-color:#181818;stop-opacity:1"
         offset="0.5" />
      <stop
         id="stop2899"
         style="stop-color:#181818;stop-opacity:0"
         offset="1" />
    </linearGradient>
    <linearGradient
       x1="25.058096"
       y1="47.027729"
       x2="25.058096"
       y2="39.999443"
       id="linearGradient4387"
       gradientUnits="userSpaceOnUse"
       xlink:href="#linearGradient3702-501-757" />
    <linearGradient
       id="linearGradient3104-8-8-97-4-6-2-0-1-4-0-5-8">
      <stop
         id="stop3106-5-4-3-5-0-1-61-9-2-7-3-3"
         style="stop-color:#000000;stop-opacity:0.32173914"
         offset="0" />
      <stop
         id="stop3108-4-3-7-8-2-4-01-9-9-0-6-4"
         style="stop-color:#000000;stop-opacity:0.27826086"
         offset="1" />
    </linearGradient>
    <linearGradient
       id="linearGradient3847"
       gradientUnits="userSpaceOnUse"
       gradientTransform="matrix(0.80749834,0,0,0.83374395,106.87671,-0.0698511)"
       x1="-95.837799"
       y1="54.199703"
       x2="-95.837799"
       y2="5.1757793"
       xlink:href="#linearGradient3104-8-8-97-4-6-2-0-1-4-0-5-8" />
    <linearGradient
       id="linearGradient3850"
       gradientUnits="userSpaceOnUse"
       gradientTransform="translate(4e-6,1.0000062)"
       x1="23.99999"
       y1="4.999989"
       x2="23.99999"
       y2="43"
       xlink:href="#linearGradient3924-1" />
    <radialGradient
       id="radialGradient3857"
       gradientUnits="userSpaceOnUse"
       gradientTransform="matrix(0,1.6257921,-1.625792,0,31.059051,-46.134567)"
       cx="31.999998"
       cy="4.3419166"
       r="27.5"
       xlink:href="#linearGradient4632-92-3-0-8-1-6" />
    <clipPath
       clipPathUnits="userSpaceOnUse"
       id="clipPath16-2">
      <path
         d="M 0,500 500,500 500,0 0,0 0,500 Z"
         id="path18-1" />
    </clipPath>
    <radialGradient
       cx="4.9929786"
       cy="43.5"
       r="2.5"
       fx="4.9929786"
       fy="43.5"
       id="radialGradient3013-6"
       xlink:href="#linearGradient3688-166-749"
       gradientUnits="userSpaceOnUse"
       gradientTransform="matrix(2.003784,0,0,0.89999994,29.98813,4.8500025)" />
    <radialGradient
       cx="4.9929786"
       cy="43.5"
       r="2.5"
       fx="4.9929786"
       fy="43.5"
       id="radialGradient3015-1"
       xlink:href="#linearGradient3688-166-749"
       gradientUnits="userSpaceOnUse"
       gradientTransform="matrix(2.003784,0,0,0.89999994,-18.01187,-83.149997)" />
    <linearGradient
       xlink:href="#linearGradient3702-501-757"
       id="linearGradient1191"
       gradientUnits="userSpaceOnUse"
       x1="25.058096"
       y1="47.027729"
       x2="25.058096"
       y2="39.999443"
       gradientTransform="matrix(1.1428571,0,0,0.6428571,-3.428569,16.035716)" />
    <radialGradient
       cx="4.9929786"
       cy="43.5"
       r="2.5"
       fx="4.9929786"
       fy="43.5"
       id="radialGradient3013-6-2"
       xlink:href="#linearGradient3688-166-749"
       gradientUnits="userSpaceOnUse"
       gradientTransform="matrix(2.003784,0,0,0.89999994,28.431526,-6.0650915)" />
    <radialGradient
       cx="4.9929786"
       cy="43.5"
       r="2.5"
       fx="4.9929786"
       fy="43.5"
       id="radialGradient3015-1-9"
       xlink:href="#linearGradient3688-166-749"
       gradientUnits="userSpaceOnUse"
       gradientTransform="matrix(2.003784,0,0,0.89999994,-16.455266,-72.234903)" />
  </defs>
  <g
     id="g1784">
    <rect
       style="opacity:0.6;fill:url(#radialGradient3013-6);fill-opacity:1;stroke:none;stroke-width:0.862764"
       id="rect2801-3-7"
       y="41.75"
       x="40"
       height="4.4999995"
       width="5" />
    <rect
       style="opacity:0.6;fill:url(#radialGradient3015-1);fill-opacity:1;stroke:none;stroke-width:0.862764"
       id="rect3696-6-3"
       transform="scale(-1)"
       y="-46.25"
       x="-8"
       height="4.4999995"
       width="5" />
    <rect
       style="opacity:0.6;fill:url(#linearGradient1191);fill-opacity:1;stroke:none;stroke-width:0.862764"
       id="rect3700-4-6"
       y="41.75"
       x="8"
       height="4.5"
       width="32" />
  </g>
  <rect
     style="color:#000000;display:inline;overflow:visible;visibility:visible;fill:url(#radialGradient3857);fill-opacity:1;fill-rule:nonzero;stroke:none;stroke-width:1;marker:none;enable-background:accumulate"
     id="rect5505-21"
     y="6"
     x="5"
     ry="3.5"
     rx="3.5"
     height="38"
     width="38" />
  <rect
     style="display:inline;fill:none;stroke:url(#linearGradient3850);stroke-width:1;stroke-linecap:round;stroke-linejoin:round;stroke-miterlimit:4;stroke-dasharray:none;stroke-dashoffset:0;stroke-opacity:1"
     id="rect6741"
     y="6.4999948"
     x="5.5000124"
     ry="2.6921659"
     rx="3"
     height="37"
     width="37" />
  <rect
     style="color:#000000;display:inline;overflow:visible;visibility:visible;opacity:0.8;fill:none;stroke:url(#linearGradient3847);stroke-width:1;stroke-linecap:butt;stroke-linejoin:miter;stroke-miterlimit:4;stroke-dasharray:none;stroke-dashoffset:0;stroke-opacity:1;marker:none;enable-background:accumulate"
     id="rect5505-21-3-2"
     y="5.4999948"
     x="4.5000124"
     ry="3.9999995"
     rx="4"
     height="39"
     width="39" />
  <g
     transform="translate(-2.3495001e-8,0.220703)"
     id="g8109"
     style="display:inline">
    <path
       id="path8116"
       d="m 24.279297,12.220703 c -5.290065,0 -10.006871,3.106407 -12.302735,7.628906 C 11.036699,21.701115 10.5,23.789018 10.5,26 c 0,2.277344 0.569283,4.423782 1.5625,6.316406 2.326288,4.431997 6.991881,7.462891 12.216797,7.462891 3.469535,0 6.571597,-1.336031 8.898437,-3.53125 C 35.850822,33.725982 37.5,30.069544 37.5,26 c 0,-0.89158 -0.08269,-1.763022 -0.234375,-2.607422 h -1.068359 -4.173828 -7.744141 v 5.214844 h 7.859375 c -0.509947,1.804767 -1.581579,3.348421 -3.015625,4.414062 -1.305402,0.969957 -2.909518,1.544922 -4.673828,1.544922 -3.639077,0 -6.831971,-2.42762 -7.94336,-5.785156 -0.270517,-0.817613 -0.419921,-1.689572 -0.419921,-2.595703 0,-0.990792 0.177262,-1.940056 0.498046,-2.822266 1.177971,-3.238702 4.309056,-5.55664 7.865235,-5.55664 1.975961,0 3.756056,0.715162 5.134765,1.90625 l 3.751954,-3.806641 c -2.343705,-2.285942 -5.507186,-3.685547 -9.056641,-3.685547 z"
       style="fill:#ffffff;fill-opacity:1;fill-rule:nonzero;stroke:none" />
    <g
       id="g12"
       transform="matrix(0.11023495,0,0,-0.11023495,-3.5587485,52.558726)"
       style="display:inline;enable-background:new">
      <g
         clip-path="url(#clipPath16-2)"
         id="g14">
        <g
           transform="translate(372.4658,250)"
           id="g20">
          <path
             id="path22"
             style="fill:#3284ff;fill-opacity:1;fill-rule:nonzero;stroke:none"
             d="m 0,0 c 0,8.088 -0.745,15.988 -2.121,23.648 h -9.703 -37.852 -70.256 v -47.296 h 71.299 c -4.626,-16.372 -14.354,-30.373 -27.363,-40.04 l 36.789,-29.273 C -14.958,-70.082 0,-36.917 0,0" />
        </g>
        <g
           transform="translate(254.0713,324.3242)"
           id="g24">
          <path
             id="path26"
             style="fill:#ff3424;fill-opacity:1;fill-rule:nonzero;stroke:none"
             d="M 0,0 C 17.925,0 34.071,-6.489 46.578,-17.294 L 80.626,17.24 C 59.365,37.977 30.662,50.676 -1.537,50.676 c -47.989,0 -90.779,-28.187 -111.606,-69.213 l 41.798,-31.867 C -60.659,-21.024 -32.26,0 0,0" />
        </g>
        <g
           transform="translate(141.7104,192.7031)"
           id="g28">
          <path
             id="path30"
             style="fill:#ffbb00;fill-opacity:1;fill-rule:nonzero;stroke:none"
             d="M 0,0 40.305,32.064 C 37.851,39.481 36.5,47.387 36.5,55.607 c 0,8.988 1.606,17.607 4.516,25.61 L -0.782,113.084 C -9.308,96.288 -14.176,77.354 -14.176,57.297 -14.176,36.638 -9.01,17.169 0,0" />
        </g>
        <g
           transform="translate(182.0156,224.7676)"
           id="g32">
          <path
             id="path34"
             style="fill:#26b14c;fill-opacity:1;fill-rule:nonzero;stroke:none"
             d="m 0,0 -40.305,-32.064 c 21.103,-40.205 63.426,-67.704 110.824,-67.704 31.474,0 59.616,12.125 80.724,32.039 l -36.789,29.274 C 102.612,-47.254 88.061,-52.47 72.056,-52.47 39.044,-52.47 10.082,-30.458 0,0" />
        </g>
      </g>
    </g>
  </g>
</svg>
