<?xml version="1.0" encoding="UTF-8" standalone="no"?>
<svg
   xmlns:dc="http://purl.org/dc/elements/1.1/"
   xmlns:cc="http://creativecommons.org/ns#"
   xmlns:rdf="http://www.w3.org/1999/02/22-rdf-syntax-ns#"
   xmlns:svg="http://www.w3.org/2000/svg"
   xmlns="http://www.w3.org/2000/svg"
   xmlns:sodipodi="http://sodipodi.sourceforge.net/DTD/sodipodi-0.dtd"
   xmlns:inkscape="http://www.inkscape.org/namespaces/inkscape"
   height="42"
   viewBox="0 0 89.999998 39.375001"
   width="96"
   version="1.1"
   id="svg32"
   sodipodi:docname="liberapay_logo_black-on-yellow.svg"
   inkscape:version="0.92.5 (2060ec1f9f, 2020-04-08)">
  <metadata
     id="metadata38">
    <rdf:RDF>
      <cc:Work
         rdf:about="">
        <dc:format>image/svg+xml</dc:format>
        <dc:type
           rdf:resource="http://purl.org/dc/dcmitype/StillImage" />
        <dc:title></dc:title>
      </cc:Work>
    </rdf:RDF>
  </metadata>
  <defs
     id="defs36" />
  <sodipodi:namedview
     pagecolor="#ffffff"
     bordercolor="#666666"
     borderopacity="1"
     objecttolerance="10"
     gridtolerance="10"
     guidetolerance="10"
     inkscape:pageopacity="0"
     inkscape:pageshadow="2"
     inkscape:window-width="1366"
     inkscape:window-height="704"
     id="namedview34"
     showgrid="false"
     units="px"
     inkscape:zoom="5.0932292"
     inkscape:cx="45.510778"
     inkscape:cy="30.715109"
     inkscape:window-x="0"
     inkscape:window-y="27"
     inkscape:window-maximized="1"
     inkscape:current-layer="svg32" />
  <rect
     style="fill:#f6c915;fill-opacity:1;stroke:#ffffff;stroke-width:0.47571957;stroke-opacity:1"
     id="rect847"
     width="93.274284"
     height="40.539902"
     x="-0.31434393"
     y="-0.85055858" />
  <g
     id="g30"
     style="fill:#1a171b"
     transform="matrix(0.31724726,0,0,0.31724726,0.5254082,0.10387951)">
    <g
       transform="matrix(1.5451665,0,0,1.5451665,-536.71663,-207.66593)"
       id="g22">
      <path
         d="m 410.269,182.212 -0.664,2.814 h -11.498 l 4.408,-18.401 h 3.346 l -3.733,15.587 z"
         id="path4"
         inkscape:connector-curvature="0" />
      <path
         d="m 415.393,185.026 h -3.213 l 3.347,-13.887 h 3.212 z m 2.391,-15.984 c -0.479,0 -0.896,-0.141 -1.249,-0.425 -0.354,-0.283 -0.531,-0.708 -0.531,-1.274 0,-0.655 0.226,-1.195 0.677,-1.62 0.451,-0.425 0.97,-0.637 1.554,-0.637 0.479,0 0.898,0.146 1.262,0.438 0.362,0.292 0.545,0.722 0.545,1.288 0,0.656 -0.23,1.191 -0.69,1.606 -0.461,0.415 -0.985,0.624 -1.568,0.624 z"
         id="path6"
         inkscape:connector-curvature="0" />
      <path
         d="m 428.489,170.821 c 0.813,0 1.516,0.137 2.106,0.411 0.593,0.275 1.084,0.65 1.474,1.128 0.389,0.478 0.681,1.04 0.875,1.687 0.194,0.647 0.291,1.34 0.291,2.084 0,1.221 -0.211,2.39 -0.638,3.505 -0.424,1.115 -1.03,2.098 -1.817,2.947 -0.787,0.85 -1.749,1.527 -2.882,2.032 -1.133,0.504 -2.407,0.757 -3.823,0.757 -0.212,0 -0.496,-0.01 -0.849,-0.027 -0.355,-0.018 -0.743,-0.063 -1.17,-0.133 -0.424,-0.07 -0.858,-0.168 -1.301,-0.292 -0.443,-0.124 -0.85,-0.283 -1.221,-0.478 l 4.647,-19.49 3.362,-0.531 -1.707,7.117 c 0.388,-0.195 0.803,-0.363 1.246,-0.505 0.443,-0.141 0.911,-0.212 1.407,-0.212 z m -3.988,11.843 c 0.813,0 1.562,-0.173 2.243,-0.518 0.681,-0.345 1.265,-0.81 1.752,-1.394 0.485,-0.585 0.862,-1.252 1.129,-2.005 0.266,-0.751 0.398,-1.536 0.398,-2.35 0,-0.407 -0.037,-0.783 -0.105,-1.128 -0.071,-0.345 -0.194,-0.646 -0.371,-0.902 -0.178,-0.257 -0.416,-0.461 -0.717,-0.61 -0.3,-0.15 -0.679,-0.227 -1.138,-0.227 -0.389,0 -0.813,0.071 -1.272,0.213 -0.459,0.142 -0.882,0.363 -1.271,0.664 l -1.95,8.125 c 0.159,0.035 0.339,0.066 0.544,0.093 0.203,0.025 0.456,0.039 0.758,0.039 z"
         id="path8"
         inkscape:connector-curvature="0" />
      <path
         d="m 435.147,180.007 c 0,-1.185 0.19,-2.331 0.571,-3.438 0.38,-1.106 0.929,-2.088 1.646,-2.948 0.716,-0.858 1.58,-1.543 2.588,-2.058 1.01,-0.513 2.142,-0.77 3.399,-0.77 1.345,0 2.39,0.345 3.134,1.036 0.743,0.689 1.114,1.575 1.114,2.655 0,1.115 -0.274,2.018 -0.822,2.708 -0.549,0.69 -1.261,1.23 -2.138,1.62 -0.876,0.39 -1.868,0.655 -2.975,0.797 -1.106,0.142 -2.227,0.23 -3.358,0.265 -0.018,0.036 -0.027,0.071 -0.027,0.107 v 0.265 c 0,1.61 1.02,2.417 3.055,2.417 1.204,0 2.406,-0.248 3.609,-0.744 l 0.268,2.603 c -0.426,0.195 -1.028,0.389 -1.806,0.585 -0.78,0.194 -1.665,0.292 -2.655,0.292 -0.991,0 -1.843,-0.143 -2.549,-0.425 -0.709,-0.283 -1.289,-0.672 -1.74,-1.167 -0.451,-0.496 -0.783,-1.067 -0.995,-1.714 -0.212,-0.647 -0.319,-1.341 -0.319,-2.086 z m 7.728,-6.584 c -0.53,0 -1.035,0.105 -1.514,0.318 -0.479,0.212 -0.903,0.505 -1.274,0.876 -0.372,0.372 -0.695,0.81 -0.97,1.314 -0.275,0.504 -0.474,1.048 -0.597,1.633 2.124,-0.071 3.668,-0.328 4.633,-0.77 0.965,-0.443 1.447,-1.106 1.447,-1.992 0,-0.354 -0.128,-0.672 -0.386,-0.956 -0.254,-0.282 -0.702,-0.423 -1.339,-0.423 z"
         id="path10"
         inkscape:connector-curvature="0" />
      <path
         d="m 458.673,173.98 c -0.354,-0.124 -0.735,-0.221 -1.146,-0.292 -0.406,-0.07 -0.887,-0.106 -1.438,-0.106 -0.303,0 -0.621,0.022 -0.96,0.066 -0.337,0.045 -0.621,0.102 -0.853,0.172 l -2.667,11.206 h -3.212 l 3.187,-13.25 c 0.743,-0.248 1.548,-0.464 2.416,-0.65 0.866,-0.186 1.805,-0.279 2.813,-0.279 0.213,0 0.452,0.014 0.719,0.041 0.264,0.025 0.524,0.057 0.783,0.092 0.255,0.036 0.494,0.08 0.716,0.132 0.222,0.054 0.412,0.116 0.57,0.186 z"
         id="path12"
         inkscape:connector-curvature="0" />
      <path
         d="m 470.941,179.637 c -0.054,0.195 -0.107,0.513 -0.159,0.956 -0.054,0.443 -0.079,0.858 -0.079,1.248 0,0.514 0.044,1.013 0.131,1.5 0.091,0.487 0.23,0.978 0.427,1.473 l -2.869,0.425 c -0.212,-0.425 -0.381,-0.877 -0.504,-1.354 -0.442,0.389 -0.986,0.74 -1.633,1.049 -0.647,0.309 -1.377,0.464 -2.191,0.464 -0.832,0 -1.545,-0.137 -2.138,-0.412 -0.592,-0.274 -1.075,-0.654 -1.446,-1.142 -0.372,-0.486 -0.647,-1.057 -0.823,-1.712 -0.178,-0.655 -0.265,-1.363 -0.265,-2.125 0,-1.291 0.23,-2.496 0.69,-3.611 0.459,-1.115 1.101,-2.079 1.924,-2.894 0.824,-0.814 1.802,-1.456 2.935,-1.925 1.132,-0.469 2.372,-0.703 3.718,-0.703 0.69,0 1.384,0.058 2.083,0.173 0.699,0.115 1.404,0.332 2.111,0.65 z m -1.747,-6.002 c -0.337,-0.07 -0.716,-0.106 -1.143,-0.106 -0.797,0 -1.532,0.173 -2.207,0.518 -0.674,0.346 -1.253,0.806 -1.74,1.38 -0.486,0.576 -0.863,1.234 -1.128,1.979 -0.267,0.743 -0.399,1.522 -0.399,2.336 0,0.408 0.034,0.789 0.107,1.142 0.07,0.354 0.188,0.664 0.356,0.929 0.168,0.265 0.395,0.478 0.678,0.637 0.282,0.159 0.646,0.24 1.088,0.24 0.567,0 1.066,-0.121 1.502,-0.359 0.433,-0.24 0.837,-0.562 1.208,-0.969 0.017,-0.461 0.057,-0.894 0.12,-1.301 0.062,-0.407 0.146,-0.814 0.251,-1.221 z"
         id="path14"
         inkscape:connector-curvature="0" />
      <path
         d="m 483.023,166.439 c 2.213,0 3.906,0.435 5.084,1.301 1.176,0.868 1.766,2.107 1.766,3.718 0,1.274 -0.244,2.359 -0.73,3.253 -0.487,0.894 -1.161,1.624 -2.021,2.19 -0.858,0.566 -1.886,0.978 -3.082,1.234 -1.196,0.257 -2.512,0.386 -3.945,0.386 h -1.437 l -1.553,6.505 h -3.349 l 4.327,-18.135 c 0.85,-0.177 1.7,-0.296 2.549,-0.359 0.85,-0.061 1.647,-0.093 2.391,-0.093 z m -0.319,2.815 c -0.336,0 -0.654,0.009 -0.955,0.026 -0.302,0.018 -0.604,0.044 -0.903,0.079 l -1.487,6.346 h 1.349 c 0.741,0 1.454,-0.062 2.143,-0.185 0.688,-0.124 1.297,-0.332 1.826,-0.625 0.529,-0.292 0.952,-0.689 1.271,-1.194 0.317,-0.505 0.476,-1.146 0.476,-1.925 0,-0.902 -0.332,-1.549 -0.995,-1.938 -0.667,-0.389 -1.575,-0.584 -2.725,-0.584 z"
         id="path16"
         inkscape:connector-curvature="0" />
      <path
         d="m 501.822,179.637 c -0.054,0.195 -0.107,0.513 -0.16,0.956 -0.052,0.443 -0.079,0.858 -0.079,1.248 0,0.514 0.045,1.013 0.132,1.5 0.09,0.487 0.23,0.978 0.427,1.473 l -2.869,0.425 c -0.212,-0.425 -0.381,-0.877 -0.505,-1.354 -0.44,0.389 -0.985,0.74 -1.632,1.049 -0.647,0.309 -1.377,0.464 -2.191,0.464 -0.832,0 -1.545,-0.137 -2.137,-0.412 -0.593,-0.274 -1.075,-0.654 -1.447,-1.142 -0.372,-0.486 -0.647,-1.057 -0.823,-1.712 -0.179,-0.655 -0.266,-1.363 -0.266,-2.125 0,-1.291 0.231,-2.496 0.691,-3.611 0.459,-1.115 1.101,-2.079 1.924,-2.894 0.824,-0.814 1.802,-1.456 2.935,-1.925 1.132,-0.469 2.372,-0.703 3.718,-0.703 0.69,0 1.384,0.058 2.083,0.173 0.699,0.115 1.404,0.332 2.111,0.65 z m -1.747,-6.002 c -0.337,-0.07 -0.716,-0.106 -1.143,-0.106 -0.798,0 -1.532,0.173 -2.207,0.518 -0.673,0.346 -1.253,0.806 -1.74,1.38 -0.486,0.576 -0.863,1.234 -1.128,1.979 -0.267,0.743 -0.399,1.522 -0.399,2.336 0,0.408 0.033,0.789 0.107,1.142 0.07,0.354 0.188,0.664 0.356,0.929 0.168,0.265 0.395,0.478 0.679,0.637 0.281,0.159 0.646,0.24 1.087,0.24 0.567,0 1.066,-0.121 1.502,-0.359 0.433,-0.24 0.837,-0.562 1.208,-0.969 0.017,-0.461 0.057,-0.894 0.12,-1.301 0.062,-0.407 0.146,-0.814 0.25,-1.221 z"
         id="path18"
         inkscape:connector-curvature="0" />
      <path
         d="m 518.073,171.139 c -0.354,1.009 -0.745,2.058 -1.171,3.146 -0.427,1.088 -0.901,2.182 -1.425,3.28 -0.523,1.097 -1.088,2.19 -1.691,3.279 -0.602,1.088 -1.249,2.147 -1.941,3.173 -0.515,0.78 -1.046,1.527 -1.596,2.244 -0.551,0.718 -1.147,1.35 -1.794,1.898 -0.647,0.549 -1.36,0.992 -2.139,1.328 -0.781,0.336 -1.668,0.505 -2.658,0.505 -0.551,0 -1.042,-0.063 -1.478,-0.186 -0.433,-0.125 -0.801,-0.265 -1.104,-0.425 l 1.036,-2.576 c 0.249,0.141 0.528,0.256 0.837,0.346 0.31,0.088 0.65,0.132 1.022,0.132 0.833,0 1.563,-0.217 2.192,-0.65 0.628,-0.434 1.198,-1.023 1.712,-1.766 -0.567,-1.965 -1.044,-4.098 -1.435,-6.399 -0.391,-2.301 -0.646,-4.744 -0.772,-7.329 h 3.242 c 0.018,0.743 0.057,1.566 0.12,2.47 0.063,0.902 0.143,1.828 0.243,2.774 0.098,0.948 0.218,1.881 0.362,2.802 0.143,0.919 0.303,1.77 0.481,2.549 0.534,-0.85 1.031,-1.744 1.491,-2.683 0.462,-0.938 0.888,-1.872 1.279,-2.801 0.39,-0.929 0.732,-1.833 1.025,-2.708 0.292,-0.877 0.545,-1.677 0.759,-2.403 z"
         id="path20"
         inkscape:connector-curvature="0" />
    </g>
    <g
       transform="matrix(1.1557619,0,0,1.1557619,-378.15733,-140.79545)"
       id="g28">
      <path
         d="m 354.338,189.396 c -2.479,0 -4.424,-0.322 -5.837,-0.969 -1.415,-0.646 -2.427,-1.526 -3.037,-2.644 -0.61,-1.116 -0.906,-2.399 -0.89,-3.848 0.017,-1.448 0.217,-2.992 0.602,-4.632 l 6.649,-27.8 8.114,-1.257 -7.278,30.156 c -0.138,0.628 -0.217,1.205 -0.233,1.728 -0.019,0.523 0.078,0.986 0.287,1.387 0.209,0.402 0.566,0.725 1.072,0.969 0.505,0.245 1.214,0.402 2.122,0.471 z"
         id="path24"
         inkscape:connector-curvature="0" />
      <path
         d="m 383.654,172.067 c 0,2.548 -0.418,4.877 -1.256,6.989 -0.838,2.112 -1.997,3.936 -3.481,5.471 -1.483,1.537 -3.263,2.731 -5.341,3.586 -2.075,0.855 -4.337,1.283 -6.779,1.283 -1.187,0 -2.372,-0.104 -3.56,-0.314 l -2.355,9.476 h -7.748 l 8.69,-36.229 c 1.396,-0.418 2.992,-0.793 4.79,-1.125 1.797,-0.332 3.743,-0.498 5.837,-0.498 1.955,0 3.64,0.297 5.053,0.89 1.413,0.594 2.574,1.405 3.481,2.435 0.906,1.029 1.578,2.234 2.015,3.612 0.438,1.379 0.654,2.854 0.654,4.424 z m -19.002,10.732 c 0.592,0.14 1.324,0.209 2.198,0.209 1.361,0 2.599,-0.253 3.717,-0.759 1.117,-0.506 2.068,-1.212 2.852,-2.12 0.787,-0.908 1.397,-1.998 1.834,-3.272 0.435,-1.273 0.654,-2.678 0.654,-4.214 0,-1.5 -0.332,-2.775 -0.994,-3.822 -0.664,-1.047 -1.817,-1.571 -3.456,-1.571 -1.117,0 -2.164,0.104 -3.142,0.314 z"
         id="path26"
         inkscape:connector-curvature="0" />
    </g>
  </g>
</svg>
