<?xml version="1.0" encoding="UTF-8" standalone="no"?>
<!-- Generator: Adobe Illustrator 19.0.0, SVG Export Plug-In . SVG Version: 6.00 Build 0)  -->

<svg
   xmlns:dc="http://purl.org/dc/elements/1.1/"
   xmlns:cc="http://creativecommons.org/ns#"
   xmlns:rdf="http://www.w3.org/1999/02/22-rdf-syntax-ns#"
   xmlns:svg="http://www.w3.org/2000/svg"
   xmlns="http://www.w3.org/2000/svg"
   xmlns:sodipodi="http://sodipodi.sourceforge.net/DTD/sodipodi-0.dtd"
   xmlns:inkscape="http://www.inkscape.org/namespaces/inkscape"
   version="1.1"
   id="Capa_1"
   x="0px"
   y="0px"
   viewBox="0 0 93.913002 24"
   xml:space="preserve"
   sodipodi:docname="paypal.svg"
   width="93.913002"
   height="24"
   inkscape:version="0.92.3 (2405546, 2018-03-11)"><metadata
   id="metadata57"><rdf:RDF><cc:Work
       rdf:about=""><dc:format>image/svg+xml</dc:format><dc:type
         rdf:resource="http://purl.org/dc/dcmitype/StillImage" /><dc:title></dc:title></cc:Work></rdf:RDF></metadata><defs
   id="defs55" /><sodipodi:namedview
   pagecolor="#ffffff"
   bordercolor="#666666"
   borderopacity="1"
   objecttolerance="10"
   gridtolerance="10"
   guidetolerance="10"
   inkscape:pageopacity="0"
   inkscape:pageshadow="2"
   inkscape:window-width="1366"
   inkscape:window-height="705"
   id="namedview53"
   showgrid="false"
   inkscape:zoom="2.6488444"
   inkscape:cx="21.844092"
   inkscape:cy="10.770686"
   inkscape:window-x="0"
   inkscape:window-y="30"
   inkscape:window-maximized="1"
   inkscape:current-layer="Capa_1" />







<g
   id="g874"
   transform="matrix(0.18633483,0,0,0.1863354,0,52.993788)"><path
     inkscape:connector-curvature="0"
     id="path2"
     d="m 389.6,-250.8 h -27.2 c -1.6,0 -3.2,1.6 -4,3.2 l -11.2,70.4 c 0,1.6 0.8,2.4 2.4,2.4 H 364 c 1.6,0 2.4,-0.8 2.4,-2.4 l 3.2,-20 c 0,-1.6 1.6,-3.2 4,-3.2 h 8.8 c 18.4,0 28.8,-8.8 31.2,-26.4 1.6,-7.2 0,-13.6 -3.2,-17.6 -4.8,-4 -12,-6.4 -20.8,-6.4 m 3.2,26.4 c -1.6,9.6 -8.8,9.6 -16,9.6 H 372 l 3.2,-18.4 c 0,-0.8 0.8,-1.6 2.4,-1.6 h 1.6 c 4.8,0 9.6,0 12,3.2 1.6,0.8 1.6,3.2 1.6,7.2"
     style="fill:#139ad6" /><g
     transform="translate(0,-472)"
     id="g8">
	<path
   inkscape:connector-curvature="0"
   id="path4"
   d="m 193.6,221.2 h -27.2 c -1.6,0 -3.2,1.6 -4,3.2 l -11.2,70.4 c 0,1.6 0.8,2.4 2.4,2.4 h 12.8 c 1.6,0 3.2,-1.6 4,-3.2 l 3.2,-19.2 c 0,-1.6 1.6,-3.2 4,-3.2 h 8.8 c 18.4,0 28.8,-8.8 31.2,-26.4 1.6,-7.2 0,-13.6 -3.2,-17.6 -4.8,-4 -11.2,-6.4 -20.8,-6.4 m 3.2,26.4 c -1.6,9.6 -8.8,9.6 -16,9.6 h -4 l 3.2,-18.4 c 0,-0.8 0.8,-1.6 2.4,-1.6 h 1.6 c 4.8,0 9.6,0 12,3.2 0.8,0.8 1.6,3.2 0.8,7.2"
   style="fill:#263b80" />
	<path
   inkscape:connector-curvature="0"
   id="path6"
   d="m 276,246.8 h -12.8 c -0.8,0 -2.4,0.8 -2.4,1.6 l -0.8,4 -0.8,-1.6 c -3.2,-4 -8.8,-5.6 -15.2,-5.6 -14.4,0 -27.2,11.2 -29.6,26.4 -1.6,8 0.8,15.2 4.8,20 4,4.8 9.6,6.4 16.8,6.4 12,0 18.4,-7.2 18.4,-7.2 l -0.8,4 c 0,1.6 0.8,2.4 2.4,2.4 h 12 c 1.6,0 3.2,-1.6 4,-3.2 l 7.2,-44.8 c -0.8,-0.8 -2.4,-2.4 -3.2,-2.4 m -18.4,25.6 c -1.6,7.2 -7.2,12.8 -15.2,12.8 -4,0 -7.2,-1.6 -8.8,-3.2 -1.6,-2.4 -2.4,-5.6 -2.4,-9.6 0.8,-7.2 7.2,-12.8 14.4,-12.8 4,0 6.4,1.6 8.8,3.2 2.4,2.4 3.2,6.4 3.2,9.6"
   style="fill:#263b80" />
</g><path
     inkscape:connector-curvature="0"
     id="path10"
     d="m 471.2,-225.2 h -12.8 c -0.8,0 -2.4,0.8 -2.4,1.6 l -0.8,4 -0.8,-1.6 c -3.2,-4 -8.8,-5.6 -15.2,-5.6 -14.4,0 -27.2,11.2 -29.6,26.4 -1.6,8 0.8,15.2 4.8,20 4,4.8 9.6,6.4 16.8,6.4 12,0 18.4,-7.2 18.4,-7.2 l -0.8,4 c 0,1.6 0.8,2.4 2.4,2.4 h 12 c 1.6,0 3.2,-1.6 4,-3.2 l 7.2,-44.8 c -0.8,-0.8 -1.6,-2.4 -3.2,-2.4 m -18.4,25.6 c -1.6,7.2 -7.2,12.8 -15.2,12.8 -4,0 -7.2,-1.6 -8.8,-3.2 -1.6,-2.4 -2.4,-5.6 -2.4,-9.6 0.8,-7.2 7.2,-12.8 14.4,-12.8 4,0 6.4,1.6 8.8,3.2 3.2,2.4 4,6.4 3.2,9.6"
     style="fill:#139ad6" /><path
     inkscape:connector-curvature="0"
     id="path12"
     d="M 345.6,-225.2 H 332 c -1.6,0 -2.4,0.8 -3.2,1.6 l -17.6,27.2 -8,-25.6 c -0.8,-1.6 -1.6,-2.4 -4,-2.4 h -12.8 c -1.6,0 -2.4,1.6 -2.4,3.2 l 14.4,42.4 -13.6,19.2 c -0.8,1.6 0,4 1.6,4 h 12.8 c 1.6,0 2.4,-0.8 3.2,-1.6 l 44,-63.2 c 2.4,-2.4 0.8,-4.8 -0.8,-4.8"
     style="fill:#263b80" /><path
     inkscape:connector-curvature="0"
     id="path14"
     d="m 486.4,-248.4 -11.2,72 c 0,1.6 0.8,2.4 2.4,2.4 h 11.2 c 1.6,0 3.2,-1.6 4,-3.2 l 11.2,-70.4 c 0,-1.6 -0.8,-2.4 -2.4,-2.4 h -12.8 c -0.8,-0.8 -1.6,0 -2.4,1.6"
     style="fill:#139ad6" /><path
     inkscape:connector-curvature="0"
     id="path16"
     d="m 92,-274.8 c -5.6,-6.4 -16,-9.6 -30.4,-9.6 h -40 c -2.4,0 -4.8,2.4 -5.6,4.8 L 0,-174.8 c 0,2.4 1.6,4 3.2,4 H 28 l 6.4,-39.2 v 1.6 c 0.8,-2.4 3.2,-4.8 5.6,-4.8 h 12 c 23.2,0 40.8,-9.6 46.4,-36 0,-0.8 0,-1.6 0,-2.4 -0.8,0 -0.8,0 0,0 0.8,-10.4 -0.8,-16.8 -6.4,-23.2"
     style="fill:#263b80" /><path
     inkscape:connector-curvature="0"
     id="path18"
     d="m 97.6,-251.6 v 0 c 0,0.8 0,1.6 0,2.4 -5.6,27.2 -23.2,36 -46.4,36 h -12 c -2.4,0 -4.8,2.4 -5.6,4.8 l -8,48.8 c 0,1.6 0.8,3.2 3.2,3.2 h 20.8 c 2.4,0 4.8,-1.6 4.8,-4 v -0.8 l 4,-24.8 v -1.6 c 0,-2.4 2.4,-4 4.8,-4 h 3.2 c 20,0 36,-8 40,-32 1.6,-9.6 0.8,-18.4 -4,-24 -0.8,-1.6 -2.4,-3.2 -4.8,-4"
     style="fill:#139ad6" /><path
     inkscape:connector-curvature="0"
     id="path20"
     d="m 92,-254 c -0.8,0 -1.6,-0.8 -2.4,-0.8 -0.8,0 -1.6,0 -2.4,-0.8 -3.2,-0.8 -6.4,-0.8 -10.4,-0.8 H 45.6 c -0.8,0 -1.6,0 -2.4,0.8 -1.6,0.8 -2.4,2.4 -2.4,4 l -6.4,41.6 v 1.6 c 0.8,-2.4 3.2,-4.8 5.6,-4.8 h 12 c 23.2,0 40.8,-9.6 46.4,-36 0,-0.8 0,-1.6 0.8,-2.4 -1.6,-0.8 -2.4,-1.6 -4,-1.6 -2.4,-0.8 -2.4,-0.8 -3.2,-0.8"
     style="fill:#232c65" /></g>
<g
   id="g22"
   transform="translate(0,-480)">
</g>
<g
   id="g24"
   transform="translate(0,-480)">
</g>
<g
   id="g26"
   transform="translate(0,-480)">
</g>
<g
   id="g28"
   transform="translate(0,-480)">
</g>
<g
   id="g30"
   transform="translate(0,-480)">
</g>
<g
   id="g32"
   transform="translate(0,-480)">
</g>
<g
   id="g34"
   transform="translate(0,-480)">
</g>
<g
   id="g36"
   transform="translate(0,-480)">
</g>
<g
   id="g38"
   transform="translate(0,-480)">
</g>
<g
   id="g40"
   transform="translate(0,-480)">
</g>
<g
   id="g42"
   transform="translate(0,-480)">
</g>
<g
   id="g44"
   transform="translate(0,-480)">
</g>
<g
   id="g46"
   transform="translate(0,-480)">
</g>
<g
   id="g48"
   transform="translate(0,-480)">
</g>
<g
   id="g50"
   transform="translate(0,-480)">
</g>
</svg>