<?xml version="1.0" encoding="UTF-8" standalone="no"?>
<svg
   xmlns:dc="http://purl.org/dc/elements/1.1/"
   xmlns:cc="http://creativecommons.org/ns#"
   xmlns:rdf="http://www.w3.org/1999/02/22-rdf-syntax-ns#"
   xmlns:svg="http://www.w3.org/2000/svg"
   xmlns="http://www.w3.org/2000/svg"
   xmlns:sodipodi="http://sodipodi.sourceforge.net/DTD/sodipodi-0.dtd"
   xmlns:inkscape="http://www.inkscape.org/namespaces/inkscape"
   viewBox="0 0 16 16"
   version="1.1"
   id="svg4"
   sodipodi:docname="_ionicons_svg_ios-calendar.svg"
   width="16"
   height="16"
   inkscape:version="0.92.3 (2405546, 2018-03-11)">
  <metadata
     id="metadata10">
    <rdf:RDF>
      <cc:Work
         rdf:about="">
        <dc:format>image/svg+xml</dc:format>
        <dc:type
           rdf:resource="http://purl.org/dc/dcmitype/StillImage" />
        <dc:title></dc:title>
      </cc:Work>
    </rdf:RDF>
  </metadata>
  <defs
     id="defs8" />
  <sodipodi:namedview
     pagecolor="#ffffff"
     bordercolor="#666666"
     borderopacity="1"
     objecttolerance="10"
     gridtolerance="10"
     guidetolerance="10"
     inkscape:pageopacity="0"
     inkscape:pageshadow="2"
     inkscape:window-width="975"
     inkscape:window-height="480"
     id="namedview6"
     showgrid="false"
     inkscape:zoom="3.6875"
     inkscape:cx="8.349979"
     inkscape:cy="7.9889941"
     inkscape:window-x="0"
     inkscape:window-y="30"
     inkscape:window-maximized="0"
     inkscape:current-layer="svg4" />
  <path
     d="m 13.653847,2.6154165 h -1.346154 v 0.8076871 c 0,0.1480761 -0.121153,0.2692294 -0.26923,0.2692294 h -0.538462 c -0.148077,0 -0.269231,-0.1211533 -0.269231,-0.2692294 V 2.6154165 H 4.769231 V 3.4231036 C 4.769231,3.5711797 4.648077,3.692333 4.5,3.692333 H 3.961539 c -0.148077,0 -0.269231,-0.1211533 -0.269231,-0.2692294 V 2.6154165 H 2.346154 C 1.605769,2.6154165 1,3.2211819 1,3.9615624 V 13.115354 C 1,13.855735 1.605769,14.4615 2.346154,14.4615 h 11.307693 c 0.740385,0 1.346154,-0.605765 1.346154,-1.346146 V 3.9615624 c 0,-0.7403805 -0.605769,-1.3461459 -1.346154,-1.3461459 z m 0.269231,10.0960945 c 0,0.370189 -0.302884,0.673072 -0.673077,0.673072 H 2.75 c -0.370192,0 -0.673077,-0.302883 -0.673077,-0.673072 V 6.6538541 c 0,-0.1480761 0.121154,-0.2692294 0.269231,-0.2692294 h 11.307693 c 0.148077,0 0.269231,0.1211533 0.269231,0.2692294 z M 4.769231,1.8077294 C 4.769231,1.6596533 4.648077,1.5385 4.5,1.5385 H 3.961539 c -0.148077,0 -0.269231,0.1211533 -0.269231,0.2692294 v 0.8076871 h 1.076923 z m 7.538462,0 C 12.307693,1.6596533 12.18654,1.5385 12.038463,1.5385 h -0.538462 c -0.148077,0 -0.269231,0.1211533 -0.269231,0.2692294 v 0.8076871 h 1.076923 z"
     id="path2"
     inkscape:connector-curvature="0"
     style="fill:#666666;fill-opacity:1;stroke-width:1.00000012" />
</svg>
