<?xml version="1.0" encoding="UTF-8" standalone="no"?>
<!-- Generator: Adobe Illustrator 16.0.0, SVG Export Plug-In . SVG Version: 6.00 Build 0)  -->

<svg
   xmlns:dc="http://purl.org/dc/elements/1.1/"
   xmlns:cc="http://creativecommons.org/ns#"
   xmlns:rdf="http://www.w3.org/1999/02/22-rdf-syntax-ns#"
   xmlns:svg="http://www.w3.org/2000/svg"
   xmlns="http://www.w3.org/2000/svg"
   xmlns:sodipodi="http://sodipodi.sourceforge.net/DTD/sodipodi-0.dtd"
   xmlns:inkscape="http://www.inkscape.org/namespaces/inkscape"
   version="1.1"
   id="Capa_1"
   x="0px"
   y="0px"
   width="16"
   height="16"
   viewBox="0 0 14.705813 14.705813"
   xml:space="preserve"
   sodipodi:docname="text-document.svg"
   inkscape:version="0.92.3 (2405546, 2018-03-11)"><metadata
   id="metadata41"><rdf:RDF><cc:Work
       rdf:about=""><dc:format>image/svg+xml</dc:format><dc:type
         rdf:resource="http://purl.org/dc/dcmitype/StillImage" /><dc:title /></cc:Work></rdf:RDF></metadata><defs
   id="defs39">
	
</defs><sodipodi:namedview
   pagecolor="#ffffff"
   bordercolor="#666666"
   borderopacity="1"
   objecttolerance="10"
   gridtolerance="10"
   guidetolerance="10"
   inkscape:pageopacity="0"
   inkscape:pageshadow="2"
   inkscape:window-width="1366"
   inkscape:window-height="705"
   id="namedview37"
   showgrid="false"
   inkscape:zoom="32.625"
   inkscape:cx="3.2950192"
   inkscape:cy="8"
   inkscape:window-x="0"
   inkscape:window-y="30"
   inkscape:window-maximized="1"
   inkscape:current-layer="Capa_1" />
<path
   style="fill:#696969;stroke-width:0.02734381"
   inkscape:connector-curvature="0"
   id="path2"
   d="M 9.9032228,0.84328978 H 3.4269235 c -0.4348486,0 -0.788951,0.35434842 -0.788951,0.78911502 V 12.921652 c 0,0.435423 0.3541024,0.789225 0.788951,0.789225 H 11.3598 c 0.435232,0 0.789006,-0.353802 0.789006,-0.789225 V 3.2832873 Z M 10.089434,2.0241049 11.073702,3.0938221 H 10.089434 Z M 11.486183,12.92168 c 0,0.06951 -0.0569,0.126574 -0.126738,0.126574 H 3.4269235 c -0.069727,0 -0.1263011,-0.05707 -0.1263011,-0.126574 V 1.6324048 c 0,-0.069672 0.056574,-0.126137 0.1263011,-0.126137 h 5.9995327 v 1.9190159 c 0,0.1827114 0.1488323,0.3308328 0.331653,0.3308328 h 1.7280738 z"
   sodipodi:nodetypes="cssssssccccccsssssscsscs" />
<g
   id="g6"
   transform="translate(0,-455.8802)">
</g>
<g
   id="g8"
   transform="translate(0,-455.8802)">
</g>
<g
   id="g10"
   transform="translate(0,-455.8802)">
</g>
<g
   id="g12"
   transform="translate(0,-455.8802)">
</g>
<g
   id="g14"
   transform="translate(0,-455.8802)">
</g>
<g
   id="g16"
   transform="translate(0,-455.8802)">
</g>
<g
   id="g18"
   transform="translate(0,-455.8802)">
</g>
<g
   id="g20"
   transform="translate(0,-455.8802)">
</g>
<g
   id="g22"
   transform="translate(0,-455.8802)">
</g>
<g
   id="g24"
   transform="translate(0,-455.8802)">
</g>
<g
   id="g26"
   transform="translate(0,-455.8802)">
</g>
<g
   id="g28"
   transform="translate(0,-455.8802)">
</g>
<g
   id="g30"
   transform="translate(0,-455.8802)">
</g>
<g
   id="g32"
   transform="translate(0,-455.8802)">
</g>
<g
   id="g34"
   transform="translate(0,-455.8802)">
</g>
</svg>