<?xml version="1.0" encoding="UTF-8" standalone="no"?>
<!-- Created with Inkscape (http://www.inkscape.org/) -->

<svg
   xmlns:dc="http://purl.org/dc/elements/1.1/"
   xmlns:cc="http://creativecommons.org/ns#"
   xmlns:rdf="http://www.w3.org/1999/02/22-rdf-syntax-ns#"
   xmlns:svg="http://www.w3.org/2000/svg"
   xmlns="http://www.w3.org/2000/svg"
   xmlns:sodipodi="http://sodipodi.sourceforge.net/DTD/sodipodi-0.dtd"
   xmlns:inkscape="http://www.inkscape.org/namespaces/inkscape"
   width="24"
   height="24"
   id="svg2"
   version="1.1"
   inkscape:version="0.92.3 (2405546, 2018-03-11)"
   sodipodi:docname="planner-todoist.svg">
  <defs
     id="defs4" />
  <sodipodi:namedview
     id="base"
     pagecolor="#ffffff"
     bordercolor="#666666"
     borderopacity="1.0"
     inkscape:pageopacity="0.0"
     inkscape:pageshadow="2"
     inkscape:zoom="21.75"
     inkscape:cx="12"
     inkscape:cy="12"
     inkscape:document-units="px"
     inkscape:current-layer="layer1"
     showgrid="false"
     fit-margin-left="0.5"
     fit-margin-bottom="0.5"
     fit-margin-top="0.5"
     fit-margin-right="0.5"
     inkscape:window-width="1366"
     inkscape:window-height="705"
     inkscape:window-x="0"
     inkscape:window-y="30"
     inkscape:window-maximized="1" />
  <metadata
     id="metadata7">
    <rdf:RDF>
      <cc:Work
         rdf:about="">
        <dc:format>image/svg+xml</dc:format>
        <dc:type
           rdf:resource="http://purl.org/dc/dcmitype/StillImage" />
        <dc:title></dc:title>
      </cc:Work>
    </rdf:RDF>
  </metadata>
  <g
     inkscape:label="Layer 1"
     inkscape:groupmode="layer"
     id="layer1"
     transform="translate(-343.34936,-509.58861)">
    <path
       style="fill:#e44332;stroke-width:0.07871521"
       inkscape:connector-curvature="0"
       d="m 363.4104,511.71739 h -15.83015 c -1.4526,0 -2.63947,1.15196 -2.63947,2.56139 v 3.3039 l 0.007,-0.005 3.5979,2.03067 c 0.27244,0.15282 0.61046,0.15116 0.8829,0 0.22838,-0.12458 7.05377,-3.93843 7.15593,-3.9949 0.24584,-0.13787 0.51076,-0.0914 0.65777,-0.008 0.14451,0.0831 0.53321,0.29734 0.73919,0.41027 0.2035,0.1138 0.19435,0.42857 0.0116,0.53157 l -8.54295,4.77561 c -0.30398,0.17025 -0.60629,0.1744 -0.92192,8.9e-4 -0.52904,-0.2907 -2.71004,-1.52487 -3.58793,-2.02154 v 1.73334 l 0.008,-0.004 3.5979,2.02901 c 0.27241,0.15365 0.61044,0.15199 0.88285,0 0.22842,-0.12459 7.05379,-3.93843 7.15595,-3.99491 0.24585,-0.13703 0.51079,-0.0914 0.6578,-0.008 0.14451,0.0831 0.5332,0.29733 0.73918,0.41111 0.20346,0.11296 0.19434,0.42774 0.0116,0.53155 l -8.54297,4.77561 c -0.30398,0.17027 -0.60629,0.17442 -0.9219,8.9e-4 -0.52906,-0.29068 -2.71005,-1.52486 -3.58793,-2.0207 v 1.73334 l 0.008,-0.005 c 0,0 3.38362,1.91024 3.5979,2.02984 0.27243,0.15282 0.61046,0.15116 0.88285,0 0.22842,-0.12458 7.05381,-3.93843 7.15597,-3.9949 0.24584,-0.13788 0.51078,-0.0914 0.65779,-0.008 0.14451,0.0831 0.5332,0.29733 0.73918,0.41029 0.20347,0.11295 0.19433,0.42773 0.0116,0.53154 l -8.54296,4.77561 c -0.30396,0.17027 -0.60628,0.17442 -0.92188,8.9e-4 -0.52906,-0.29068 -2.71007,-1.52404 -3.58794,-2.0207 v 3.44343 c 0,1.41026 1.18768,2.56388 2.63863,2.56388 h 15.83177 c 1.45097,0 2.63947,-1.15445 2.63947,-2.56388 v -15.37614 c 0,-1.40945 -1.18767,-2.56307 -2.63947,-2.56307 m 16.12,11.92908 c 0,-0.62125 0.11129,-1.18435 0.33219,-1.69099 0.22178,-0.50663 0.52325,-0.93852 0.90281,-1.29897 0.37791,-0.35878 0.82806,-0.63619 1.34798,-0.83302 0.52075,-0.19603 1.07139,-0.29485 1.65776,-0.29485 0.5847,0 1.13785,0.0997 1.65694,0.29401 0.51906,0.19601 0.9684,0.47342 1.34796,0.83221 0.37956,0.36045 0.68103,0.79233 0.90197,1.29897 0.22092,0.50662 0.3322,1.06973 0.3322,1.69097 0,0.62125 -0.11128,1.18435 -0.3322,1.69099 -0.22259,0.50663 -0.52325,0.93852 -0.90282,1.29896 -0.37955,0.3588 -0.82886,0.63704 -1.34877,0.83221 -0.51994,0.19684 -1.07306,0.29401 -1.65777,0.29401 -0.58553,0 -1.13785,-0.0972 -1.65776,-0.29401 -0.51993,-0.19517 -0.97008,-0.47341 -1.34797,-0.83221 -0.37955,-0.36044 -0.68105,-0.79233 -0.90198,-1.29896 -0.22257,-0.50664 -0.33388,-1.06974 -0.33388,-1.69099 m 1.94929,0 c 0,0.30481 0.0515,0.59966 0.15449,0.88037 0.1038,0.28572 0.25496,0.53571 0.45678,0.7533 0.19935,0.2176 0.44019,0.39036 0.72258,0.52159 0.2824,0.13041 0.60131,0.19602 0.95845,0.19602 0.35714,0 0.67688,-0.0666 0.95926,-0.19602 0.28073,-0.13039 0.5216,-0.30399 0.72258,-0.52324 0.19934,-0.21594 0.35133,-0.46676 0.45432,-0.75165 0.10214,-0.28237 0.15364,-0.57638 0.15364,-0.88037 0,-0.3048 -0.0515,-0.60048 -0.15364,-0.8837 -0.10299,-0.28405 -0.25498,-0.5332 -0.45432,-0.75164 -0.20098,-0.21843 -0.44185,-0.39201 -0.72258,-0.52323 -0.28238,-0.12957 -0.60296,-0.19602 -0.96009,-0.19602 -0.35713,0 -0.6769,0.0665 -0.95846,0.19602 -0.28237,0.13039 -0.52323,0.30399 -0.72255,0.52323 -0.20183,0.21761 -0.35298,0.46678 -0.45681,0.74999 -0.10217,0.28239 -0.15365,0.57806 -0.15365,0.88204 z m 13.98051,2.74411 h -0.0332 c -0.2824,0.48005 -0.65946,0.82805 -1.13784,1.04649 -0.47507,0.21593 -0.98837,0.32557 -1.54232,0.32557 -0.6063,0 -1.14448,-0.10547 -1.61624,-0.3181 -0.47092,-0.21261 -0.87456,-0.50413 -1.2101,-0.87456 -0.33636,-0.36959 -0.59134,-0.80562 -0.76409,-1.30727 -0.17442,-0.49832 -0.25914,-1.03818 -0.25914,-1.61624 0,-0.57723 0.0914,-1.11624 0.27575,-1.61789 0.18439,-0.49999 0.44019,-0.93602 0.77239,-1.30644 0.32974,-0.36875 0.72756,-0.66028 1.19267,-0.87206 0.46675,-0.21346 0.97588,-0.31977 1.5282,-0.31977 0.36876,0 0.69349,0.0382 0.97504,0.11379 0.2824,0.0773 0.53155,0.1744 0.7475,0.29567 0.21595,0.1196 0.40034,0.24749 0.55231,0.38205 0.15116,0.13787 0.27656,0.27075 0.37375,0.40114 h 0.0482 v -4.31817 c 0,-0.19602 0.15448,-0.4269 0.42523,-0.4269 h 1.10129 c 0.25498,0 0.42358,0.21595 0.42358,0.4269 v 10.73723 c 0,0.27243 -0.22923,0.42691 -0.42358,0.42691 h -1.00079 c -0.23755,0 -0.42524,-0.20182 -0.42524,-0.42607 v -0.7508 z m -4.6153,-2.74411 c 0,0.30481 0.0531,0.59966 0.15615,0.88037 0.10299,0.28572 0.25413,0.53571 0.4543,0.7533 0.20099,0.2176 0.44186,0.39036 0.72257,0.52159 0.28239,0.13041 0.60297,0.19602 0.96011,0.19602 0.35712,0 0.67772,-0.0666 0.95928,-0.19602 0.28239,-0.13039 0.52323,-0.30399 0.72257,-0.52324 0.19934,-0.21594 0.35296,-0.46676 0.45679,-0.75165 0.0997,-0.28237 0.15199,-0.57638 0.15199,-0.88037 0,-0.3048 -0.0516,-0.60048 -0.15282,-0.8837 -0.103,-0.28405 -0.2558,-0.5332 -0.45514,-0.75164 -0.201,-0.21843 -0.44184,-0.39201 -0.72256,-0.52323 -0.28239,-0.12957 -0.60214,-0.19602 -0.95927,-0.19602 -0.35714,0 -0.67691,0.0665 -0.95846,0.19602 -0.28237,0.13039 -0.52324,0.30399 -0.72258,0.52323 -0.20097,0.21761 -0.35214,0.46678 -0.45512,0.74999 -0.10301,0.28239 -0.15532,0.57806 -0.15532,0.88204 z m 7.74399,0 c 0,-0.62124 0.11127,-1.18435 0.33385,-1.69097 0.22009,-0.50664 0.52159,-0.93852 0.90114,-1.29897 0.37874,-0.35879 0.82888,-0.6362 1.34881,-0.83304 0.52073,-0.19601 1.0714,-0.29484 1.65776,-0.29484 0.5847,0 1.13784,0.0997 1.65692,0.29402 0.51994,0.196 0.97007,0.4734 1.34881,0.83219 0.37955,0.36045 0.67938,0.79234 0.90114,1.29897 0.22259,0.50663 0.33388,1.06974 0.33388,1.69098 0,0.62125 -0.11129,1.18436 -0.33388,1.69099 -0.22176,0.50663 -0.52159,0.9385 -0.90198,1.29896 -0.37955,0.35879 -0.83055,0.63704 -1.34962,0.8322 -0.51908,0.19684 -1.07142,0.29401 -1.65695,0.29401 -0.58551,0 -1.13781,-0.0972 -1.65774,-0.29401 -0.51993,-0.19516 -0.97009,-0.47341 -1.34797,-0.8322 -0.37873,-0.36046 -0.68105,-0.79233 -0.90032,-1.29896 -0.22258,-0.50663 -0.33385,-1.06974 -0.33385,-1.69099 z m 1.94927,0 c 0,0.30481 0.0524,0.59966 0.1553,0.88037 0.10299,0.28572 0.25415,0.53571 0.45515,0.7533 0.20097,0.2176 0.44184,0.39036 0.72256,0.52159 0.28237,0.13041 0.60298,0.19602 0.95928,0.19602 0.35713,0 0.67771,-0.0666 0.95928,-0.19602 0.28239,-0.13039 0.52322,-0.30399 0.72257,-0.52324 0.19932,-0.21594 0.35214,-0.46676 0.45513,-0.75165 0.10216,-0.28237 0.15365,-0.57638 0.15365,-0.88037 0,-0.3048 -0.0515,-0.60048 -0.15365,-0.8837 -0.10299,-0.28405 -0.25499,-0.5332 -0.45431,-0.75164 -0.20097,-0.21843 -0.44184,-0.39201 -0.72258,-0.52323 -0.28238,-0.12957 -0.60296,-0.19602 -0.96009,-0.19602 -0.35714,0 -0.67691,0.0665 -0.95846,0.19602 -0.28237,0.13039 -0.52323,0.30399 -0.72256,0.52323 -0.20182,0.21761 -0.35298,0.46678 -0.45681,0.74999 -0.10214,0.28239 -0.15363,0.57806 -0.15363,0.88204 z m 7.5164,-6.58287 c 0,-0.3156 0.11626,-0.58968 0.34882,-0.82555 0.23423,-0.23422 0.52905,-0.35133 0.88619,-0.35133 0.35713,0 0.65862,0.11129 0.90197,0.3347 0.24334,0.22426 0.36543,0.50332 0.36543,0.84136 0,0.3372 -0.12209,0.61791 -0.36543,0.84132 -0.24335,0.2226 -0.54484,0.33389 -0.90197,0.33389 -0.35714,0 -0.65196,-0.11627 -0.88619,-0.35215 -0.23256,-0.23421 -0.34882,-0.50664 -0.34882,-0.8239 z m 7.90509,4.76316 c -0.19435,0 -0.3347,-0.14783 -0.36211,-0.2118 -0.17193,-0.40031 -0.54651,-0.51493 -1.09881,-0.51493 -0.25996,0 -0.40532,0.0639 -0.65364,0.19434 -0.24917,0.13041 -0.37375,0.34219 -0.37375,0.63703 0,0.2392 0.10217,0.41362 0.30731,0.52325 0.20598,0.10797 0.51328,0.20181 0.8264,0.2774 0.31558,0.0764 0.65362,0.15447 1.01573,0.23753 0.36545,0.0806 0.70264,0.20764 1.01659,0.37624 0.3156,0.16777 0.62042,0.39865 0.8264,0.69268 0.20595,0.294 0.35546,0.69764 0.35546,1.20843 0,0.46676 -0.0997,0.8621 -0.30148,1.18352 -0.19933,0.32224 -0.46013,0.57971 -0.77906,0.77656 -0.31976,0.19517 -0.68104,0.33803 -1.08135,0.42356 -0.40117,0.088 -0.80148,0.1329 -1.20263,0.13124 -0.84134,-0.004 -1.51326,-0.19601 -1.99081,-0.48835 -0.41776,-0.25748 -0.93186,-0.74751 -1.07722,-1.57306 -0.0307,-0.1877 0.12458,-0.47092 0.42358,-0.47092 h 1.07721 c 0.2118,0 0.35464,0.15448 0.39617,0.27574 0.13869,0.38372 0.57806,0.67275 1.32057,0.67275 0.79399,0 1.26407,-0.31561 1.26407,-0.73753 0,-0.27241 -0.1495,-0.52157 -0.35464,-0.65197 -0.20762,-0.13123 -0.51495,-0.23753 -0.82721,-0.31975 -0.31561,-0.0813 -0.69932,-0.15782 -1.06311,-0.22925 -0.36293,-0.0715 -0.70096,-0.18521 -1.01326,-0.34384 -0.3156,-0.15779 -0.57555,-0.37706 -0.7807,-0.66027 -0.20763,-0.28239 -0.30897,-0.67524 -0.30897,-1.17605 0,-0.43604 0.0888,-0.81394 0.26744,-1.13535 0.17857,-0.32143 0.41526,-0.5847 0.70597,-0.79234 0.29318,-0.20763 0.62955,-0.35879 1.00911,-0.45679 0.37789,-0.0997 0.76243,-0.14783 1.1528,-0.14783 0.72423,0 1.41771,0.25746 1.77901,0.52988 0.37789,0.28487 0.74417,0.70928 0.90694,1.2159 0.0715,0.24253 -0.10298,0.55149 -0.40697,0.55149 h -0.9767 z m 1.91521,-0.86376 v -0.80979 c 0,-0.19351 0.152,-0.42605 0.42111,-0.42605 h 1.18931 v -1.99 c 0,-0.21344 0.1437,-0.34299 0.25249,-0.39034 0.0639,-0.0283 0.64534,-0.28238 1.11045,-0.48753 0.32391,-0.13288 0.58719,0.13454 0.58719,0.39367 v 2.47501 h 1.72089 c 0.26577,0 0.42357,0.23255 0.42357,0.42607 v 0.81228 c 0,0.23504 -0.20763,0.42689 -0.42357,0.42689 h -1.72007 v 3.4318 c 0,0.39036 -0.0108,0.69765 0.13787,0.92357 0.13704,0.20764 0.3372,0.28487 0.73918,0.28487 0.11461,0 0.21762,-0.0192 0.30483,-0.0499 0.25414,-0.0872 0.44516,0.0631 0.50995,0.18854 0.12708,0.24668 0.27243,0.51825 0.37375,0.7126 0.11212,0.21345 0.0223,0.4867 -0.18272,0.58637 -0.32974,0.16112 -0.78653,0.29234 -1.41359,0.29234 -0.51993,0 -0.81393,-0.0581 -1.14366,-0.17191 -0.33056,-0.11381 -0.64367,-0.35714 -0.83305,-0.5897 -0.19102,-0.23421 -0.28403,-0.54816 -0.35463,-0.89698 -0.0715,-0.34716 -0.0881,-0.76991 -0.0881,-1.22919 v -3.48248 h -1.1852 c -0.2724,0 -0.42356,-0.23669 -0.42356,-0.42855 z m -44.34923,0 c 3.38994,-1.10795 3.4179,-7.56501 3.55969,-1.23503 h 1.72047 c 0.26577,0 0.42358,0.23255 0.42358,0.42607 v 0.81228 c 0,0.23504 -0.20931,0.42689 -0.42358,0.42689 H 377.082 v 3.4318 c 0,0.39036 -0.0108,0.69765 0.13871,0.92357 0.13537,0.20764 0.33553,0.28487 0.73752,0.28487 0.11628,0 0.21843,-0.0192 0.30481,-0.0499 0.25498,-0.0872 0.44516,0.0631 0.50995,0.18854 0.12624,0.24668 0.27157,0.51825 0.37375,0.7126 0.11128,0.21345 0.0217,0.4867 -0.18274,0.58637 -0.33054,0.16112 -0.78734,0.29234 -1.4144,0.29234 -0.51992,0 -0.81392,-0.0581 -1.14283,-0.17191 -0.32972,-0.11381 -0.64367,-0.35714 -0.8322,-0.5897 -0.19103,-0.23421 -0.28487,-0.54816 -0.35548,-0.89698 -0.0715,-0.34716 -0.0881,-0.76991 -0.0881,-1.22919 -0.29825,-2.37528 1.19031,-3.48248 -1.18515,-3.48248 13.73213,0.56229 -0.42358,-0.23669 -0.42358,-0.42855 z m 35.22907,6.60447 h 1.10212 c 0.23255,0 0.42358,-0.19103 0.42358,-0.42608 v -6.989 c 0,-0.23421 -0.19103,-0.42608 -0.42358,-0.42608 h -1.10212 c -0.23256,0 -0.42357,0.19102 -0.42357,0.42608 v 6.98881 c 0,0.23256 0.19101,0.42523 0.42357,0.42523 z"
       id="path8"
       sodipodi:nodetypes="csscccccccccccccccccccccccccccccccccssssscccccscccscccsccccscccscccscccscccsscccscccscccscccccssssssssccccccscccscccscccccccccscccscccscccccccccscccscccscccccccscscscccccscscccccsccccccsscsscccccscccsccscccsscsccscsssscscsccccscccscsccccsssscscsccccscccccsccssssssscc" />
  </g>
</svg>
