<?xml version="1.0" encoding="UTF-8" standalone="no"?>
<!-- Generator: Adobe Illustrator 21.0.2, SVG Export Plug-In . SVG Version: 6.00 Build 0)  -->

<svg
   xmlns:dc="http://purl.org/dc/elements/1.1/"
   xmlns:cc="http://creativecommons.org/ns#"
   xmlns:rdf="http://www.w3.org/1999/02/22-rdf-syntax-ns#"
   xmlns:svg="http://www.w3.org/2000/svg"
   xmlns="http://www.w3.org/2000/svg"
   xmlns:sodipodi="http://sodipodi.sourceforge.net/DTD/sodipodi-0.dtd"
   xmlns:inkscape="http://www.inkscape.org/namespaces/inkscape"
   version="1.1"
   id="Layer_1"
   x="0px"
   y="0px"
   viewBox="0 0 24 24"
   xml:space="preserve"
   sodipodi:docname="planner-repository.svg"
   width="24"
   height="24"
   inkscape:version="0.92.3 (2405546, 2018-03-11)"><metadata
   id="metadata61"><rdf:RDF><cc:Work
       rdf:about=""><dc:format>image/svg+xml</dc:format><dc:type
         rdf:resource="http://purl.org/dc/dcmitype/StillImage" /><dc:title /></cc:Work></rdf:RDF></metadata><defs
   id="defs59">
	
	

	
	

	

		
	
	
	

		
	
		
	
	
	

		
	
	

	

	
</defs><sodipodi:namedview
   pagecolor="#ffffff"
   bordercolor="#666666"
   borderopacity="1"
   objecttolerance="10"
   gridtolerance="10"
   guidetolerance="10"
   inkscape:pageopacity="0"
   inkscape:pageshadow="2"
   inkscape:window-width="1366"
   inkscape:window-height="705"
   id="namedview57"
   showgrid="false"
   inkscape:zoom="7.6897863"
   inkscape:cx="-2.299381"
   inkscape:cy="5.6633125"
   inkscape:window-x="0"
   inkscape:window-y="30"
   inkscape:window-maximized="1"
   inkscape:current-layer="Layer_1" />










<g
   id="g841"
   transform="translate(0.13004263,0.39012788)"><path
     style="fill:#dff0fe;stroke-width:0.57894737"
     d="M 5.2463833,1.6392606 H 20.518436 V 18.040261 c 0,0.25821 -0.210158,0.468947 -0.468947,0.469526 L 5.2458043,18.521366 V 1.6392606 Z"
     id="path2"
     inkscape:connector-curvature="0" /><path
     inkscape:connector-curvature="0"
     id="path4"
     d="M 20.228962,1.9287342 V 18.040261 c 0,0.099 -0.08047,0.179473 -0.179473,0.179473 l -14.513632,0.011 V 1.9287342 H 20.228962 M 20.80791,1.3497869 H 4.9569096 V 18.810261 l 15.0931584,-0.01158 c 0.418578,-5.79e-4 0.757842,-0.339842 0.757842,-0.758421 z"
     style="fill:#333333;fill-opacity:1;stroke-width:0.57894737" /><path
     style="fill:#dff0fe;stroke-width:0.57894737"
     d="M 3.7289622,19.26705 V 3.086629 c 0,-0.7977895 0.649579,-1.4473684 1.4473684,-1.4473684 H 5.425857 V 19.26705 Z"
     id="path10"
     inkscape:connector-curvature="0" /><path
     inkscape:connector-curvature="0"
     id="path12"
     d="M 5.1363833,1.9293132 V 18.977576 H 4.0184359 V 3.086629 c 0,-0.6252632 0.4978947,-1.1358948 1.1179474,-1.1573158 M 5.7153306,1.3497869 h -0.539 c -0.9593158,0 -1.7368421,0.7775263 -1.7368421,1.7368421 v 16.469895 h 2.2758421 z"
     style="fill:#333333;fill-opacity:1;stroke-width:0.57894737" /><path
     style="fill:#666666;fill-opacity:1;stroke-width:0.57894737"
     d="M 5.755278,1.9287342 H 5.1763306 c -0.6397368,0 -1.1578947,0.5181579 -1.1578947,1.1578948 V 19.297155 H 5.755278 Z"
     id="path18"
     inkscape:connector-curvature="0" /><circle
     style="fill:#666666;fill-opacity:1;stroke-width:0.57894737"
     cx="9.80791"
     cy="5.4024186"
     r="1.1578947"
     id="circle22" /><circle
     style="fill:#666666;fill-opacity:1;stroke-width:0.57894737"
     cx="9.80791"
     cy="10.033998"
     r="1.1578947"
     id="circle26" /><circle
     style="fill:#666666;fill-opacity:1;stroke-width:0.57894737"
     cx="9.80791"
     cy="14.665576"
     r="1.1578947"
     id="circle30" /><path
     style="fill:#ffffff;stroke-width:0.57894737"
     d="m 4.886857,20.744524 c -0.638579,0 -1.1578948,-0.519316 -1.1578948,-1.157895 0,-0.638579 0.5193158,-1.157895 1.1578948,-1.157895 h 15.631579 v 0.158632 c -0.353158,0.204368 -0.578947,0.583579 -0.578947,0.999263 0,0.415684 0.225789,0.794895 0.578947,0.999263 v 0.158632 z"
     id="path34"
     inkscape:connector-curvature="0" /><path
     inkscape:connector-curvature="0"
     id="path36"
     d="m 19.942383,18.718208 c -0.185263,0.244895 -0.292368,0.548263 -0.292368,0.868421 0,0.320158 0.107105,0.623526 0.292368,0.868421 H 4.886857 c -0.4787895,0 -0.8684211,-0.389632 -0.8684211,-0.868421 0,-0.478789 0.3896316,-0.868421 0.8684211,-0.868421 H 19.942383 M 20.80791,18.139261 H 4.886857 c -0.7995264,0 -1.4473685,0.647842 -1.4473685,1.447368 0,0.799526 0.6478421,1.447368 1.4473685,1.447368 H 20.80791 v -0.63221 c -0.336369,-0.119842 -0.578948,-0.437684 -0.578948,-0.815158 0,-0.377474 0.242579,-0.695895 0.578948,-0.815158 z"
     style="fill:#333333;fill-opacity:1;stroke-width:0.57894737" /><polygon
     transform="matrix(0.57894737,0,0,0.57894737,0.54475168,0.19189213)"
     style="fill:#666666;fill-opacity:1"
     points="12.5,39 12.5,33.5 19.5,33.5 19.5,39 16,36.375 "
     id="polygon42" /><path
     inkscape:connector-curvature="0"
     id="path44"
     d="m 11.544752,19.876103 v 2.315789 L 10.155278,21.149787 9.8079096,20.889261 9.4605412,21.149787 8.0710675,22.191892 v -2.315789 h 3.4736845 m 0.578947,-0.578948 H 7.4921201 v 4.052632 l 2.3157895,-1.736842 2.3157894,1.736842 z"
     style="fill:#333333;fill-opacity:1;stroke-width:0.57894737" /><rect
     id="rect50"
     height="1.1578947"
     width="4.6315789"
     style="fill:#666666;fill-opacity:1;stroke-width:0.57894737"
     y="19.297155"
     x="7.4921198" /><path
     inkscape:connector-curvature="0"
     id="path52"
     d="m 11.834225,21.033998 v 0 c 0.15921,0 0.289474,-0.130264 0.289474,-0.289474 v -1.157895 c 0,-0.15921 -0.130264,-0.289474 -0.289474,-0.289474 v 0 c -0.159211,0 -0.289474,0.130264 -0.289474,0.289474 v 1.157895 c 0,0.15921 0.130263,0.289474 0.289474,0.289474 z"
     style="fill:#333333;fill-opacity:1;stroke-width:0.57894737" /><path
     inkscape:connector-curvature="0"
     id="path54"
     d="m 7.7815938,21.612945 v 0 c 0.1592105,0 0.2894736,-0.130263 0.2894736,-0.289474 v -1.736842 c 0,-0.15921 -0.1302631,-0.289474 -0.2894736,-0.289474 v 0 c -0.1592106,0 -0.2894737,0.130264 -0.2894737,0.289474 v 1.736842 c 0,0.159211 0.1302631,0.289474 0.2894737,0.289474 z"
     style="fill:#333333;fill-opacity:1;stroke-width:0.57894737" /></g>
</svg>