<?xml version="1.0" encoding="UTF-8" standalone="no"?>
<svg
   xmlns:dc="http://purl.org/dc/elements/1.1/"
   xmlns:cc="http://creativecommons.org/ns#"
   xmlns:rdf="http://www.w3.org/1999/02/22-rdf-syntax-ns#"
   xmlns:svg="http://www.w3.org/2000/svg"
   xmlns="http://www.w3.org/2000/svg"
   xmlns:sodipodi="http://sodipodi.sourceforge.net/DTD/sodipodi-0.dtd"
   xmlns:inkscape="http://www.inkscape.org/namespaces/inkscape"
   viewBox="0 0 16 16"
   version="1.1"
   id="svg4"
   sodipodi:docname="planner-today-day-symbolic.svg"
   width="16"
   height="16"
   inkscape:version="0.92.3 (2405546, 2018-03-11)">
  <metadata
     id="metadata10">
    <rdf:RDF>
      <cc:Work
         rdf:about="">
        <dc:format>image/svg+xml</dc:format>
        <dc:type
           rdf:resource="http://purl.org/dc/dcmitype/StillImage" />
        <dc:title />
      </cc:Work>
    </rdf:RDF>
  </metadata>
  <defs
     id="defs8" />
  <sodipodi:namedview
     pagecolor="#ffffff"
     bordercolor="#666666"
     borderopacity="1"
     objecttolerance="10"
     gridtolerance="10"
     guidetolerance="10"
     inkscape:pageopacity="0"
     inkscape:pageshadow="2"
     inkscape:window-width="1366"
     inkscape:window-height="705"
     id="namedview6"
     showgrid="false"
     inkscape:zoom="10.429825"
     inkscape:cx="-4.2473368"
     inkscape:cy="8.9365764"
     inkscape:window-x="0"
     inkscape:window-y="30"
     inkscape:window-maximized="1"
     inkscape:current-layer="svg4" />
  <g
     id="g813">
    <path
       style="fill:#666666;fill-opacity:1;stroke-width:1.00000012"
       inkscape:connector-curvature="0"
       id="path2"
       d="m 8.0000005,11.778846 c -0.2451926,0 -0.4442314,0.199039 -0.4442314,0.444231 V 13.55577 C 7.5557691,13.800961 7.7548079,14 8.0000005,14 8.2451922,14 8.444231,13.800961 8.444231,13.55577 v -1.332693 c 0,-0.245192 -0.1990388,-0.444231 -0.4442305,-0.444231 z m 0,-9.7788468 c -0.2451926,0 -0.4442314,0.1990388 -0.4442314,0.4442305 v 1.3326925 c 0,0.2451926 0.1990388,0.4442314 0.4442314,0.4442314 0.2451917,0 0.4442305,-0.1990388 0.4442305,-0.4442314 V 2.4442297 c 0,-0.2451917 -0.1990388,-0.4442305 -0.4442305,-0.4442305 z M 4.2211536,7.9999996 c 0,-0.2451925 -0.199038,-0.4442305 -0.4442306,-0.4442305 H 2.4442305 C 2.199038,7.5557691 2,7.7548071 2,7.9999996 2,8.2451922 2.199038,8.4442302 2.4442305,8.4442302 H 3.776923 c 0.2451926,0 0.4442306,-0.199038 0.4442306,-0.4442306 z M 13.55577,7.5557691 h -1.332693 c -0.245192,0 -0.444231,0.199038 -0.444231,0.4442305 0,0.2451926 0.199039,0.4442306 0.444231,0.4442306 H 13.55577 C 13.800962,8.4442302 14,8.2451922 14,7.9999996 14,7.7548071 13.800962,7.5557691 13.55577,7.5557691 Z M 5.0144229,10.541346 c -0.1182694,0 -0.2307694,0.04616 -0.3144231,0.129808 l -0.9432693,0.943269 c -0.083657,0.08366 -0.1298075,0.196154 -0.1298075,0.314423 0,0.118269 0.046157,0.230769 0.1298075,0.314423 0.083657,0.08366 0.1961537,0.129808 0.3144231,0.129808 0.1182694,0 0.2307694,-0.04616 0.3144231,-0.129808 l 0.9432694,-0.94327 c 0.1730768,-0.173076 0.1730768,-0.455768 0,-0.628845 -0.083657,-0.08366 -0.1961537,-0.129808 -0.3144232,-0.129808 z M 10.985577,5.4586535 c 0.11827,0 0.23077,-0.046157 0.314423,-0.1298083 l 0.94327,-0.9432685 c 0.08366,-0.083657 0.129807,-0.1961545 0.129807,-0.3144231 0,-0.1182694 -0.04616,-0.2307694 -0.129807,-0.3144231 -0.08366,-0.083657 -0.196154,-0.1298083 -0.314424,-0.1298083 -0.118269,0 -0.230769,0.046157 -0.314423,0.1298083 l -0.943269,0.9432694 c -0.08366,0.083657 -0.129807,0.1961537 -0.129807,0.3144231 0,0.1182685 0.04616,0.2307685 0.129807,0.3144222 0.08366,0.083657 0.196154,0.1298083 0.314423,0.1298083 z M 4.3855767,3.7567305 C 4.3019196,3.6730734 4.189423,3.6269222 4.0711536,3.6269222 c -0.1182694,0 -0.2307694,0.046157 -0.3144231,0.1298083 -0.083657,0.083657 -0.1298075,0.1961537 -0.1298075,0.3144231 0,0.1182686 0.046157,0.2307686 0.1298075,0.3144231 l 0.9432693,0.9432685 c 0.083657,0.083657 0.1961537,0.1298083 0.3144231,0.1298083 0.1182695,0 0.2307695,-0.046157 0.3144232,-0.1298083 0.083657,-0.083657 0.1298074,-0.1961537 0.1298074,-0.3144222 0,-0.1182694 -0.046157,-0.2307694 -0.1298074,-0.3144231 z M 11.3,10.671154 c -0.08366,-0.08366 -0.196153,-0.129808 -0.314423,-0.129808 -0.118269,0 -0.230769,0.04616 -0.314423,0.129808 -0.173077,0.173077 -0.173077,0.455769 0,0.628845 l 0.943269,0.94327 c 0.08366,0.08366 0.196154,0.129808 0.314423,0.129808 0.11827,0 0.23077,-0.04616 0.314424,-0.129808 0.08366,-0.08366 0.129807,-0.196154 0.129807,-0.314423 0,-0.118269 -0.04616,-0.230769 -0.129807,-0.314423 z M 8.0000005,5.2307684 c -1.5259619,0 -2.7692313,1.2432693 -2.7692313,2.7692312 0,1.5259624 1.2432694,2.7692314 2.7692313,2.7692314 1.525961,0 2.7692305,-1.243269 2.7692305,-2.7692314 0,-1.5259619 -1.2432695,-2.7692312 -2.7692305,-2.7692312 z" />
  </g>
</svg>
