<?xml version="1.0" encoding="UTF-8" standalone="no"?>
<svg
   xmlns:dc="http://purl.org/dc/elements/1.1/"
   xmlns:cc="http://creativecommons.org/ns#"
   xmlns:rdf="http://www.w3.org/1999/02/22-rdf-syntax-ns#"
   xmlns:svg="http://www.w3.org/2000/svg"
   xmlns="http://www.w3.org/2000/svg"
   xmlns:sodipodi="http://sodipodi.sourceforge.net/DTD/sodipodi-0.dtd"
   xmlns:inkscape="http://www.inkscape.org/namespaces/inkscape"
   viewBox="-36 1 24 24"
   version="1.1"
   id="svg20"
   sodipodi:docname="planner-notification.svg"
   width="24"
   height="24"
   inkscape:version="0.92.3 (2405546, 2018-03-11)">
  <metadata
     id="metadata26">
    <rdf:RDF>
      <cc:Work
         rdf:about="">
        <dc:format>image/svg+xml</dc:format>
        <dc:type
           rdf:resource="http://purl.org/dc/dcmitype/StillImage" />
        <dc:title></dc:title>
      </cc:Work>
    </rdf:RDF>
  </metadata>
  <defs
     id="defs24" />
  <sodipodi:namedview
     pagecolor="#ffffff"
     bordercolor="#666666"
     borderopacity="1"
     objecttolerance="10"
     gridtolerance="10"
     guidetolerance="10"
     inkscape:pageopacity="0"
     inkscape:pageshadow="2"
     inkscape:window-width="1366"
     inkscape:window-height="705"
     id="namedview22"
     showgrid="false"
     inkscape:zoom="3.8448931"
     inkscape:cx="-57.200723"
     inkscape:cy="25.527724"
     inkscape:window-x="0"
     inkscape:window-y="30"
     inkscape:window-maximized="1"
     inkscape:current-layer="svg20" />
  <path
     d="m -21.173177,21.256047 c 0,-1.516705 -1.231462,-2.746194 -2.750675,-2.746194 -1.519213,0 -2.750674,1.229489 -2.750674,2.746194 0,1.516705 1.231461,2.746195 2.750674,2.746195 1.519213,0 2.750675,-1.22949 2.750675,-2.746195 z m 0,0"
     id="path2"
     inkscape:connector-curvature="0"
     style="fill:#4d4d4d;stroke-width:0.04586846;fill-opacity:1" />
  <path
     d="m -23.923852,18.509853 c -0.278077,0 -0.54648,0.04157 -0.799473,0.118254 1.129152,0.341863 1.951201,1.388775 1.951201,2.62794 0,1.238986 -0.822049,2.286077 -1.951201,2.62794 0.252993,0.07669 0.521396,0.118255 0.799473,0.118255 1.519213,0 2.750675,-1.22949 2.750675,-2.746195 0,-1.516705 -1.231462,-2.746194 -2.750675,-2.746194 z m 0,0"
     id="path4"
     inkscape:connector-curvature="0"
     style="fill:#333333;stroke-width:0.04586846;fill-opacity:1" />
  <path
     d="m -23.602414,5.2282472 c -0.883506,0.1772027 -1.74336,-0.3940027 -1.920922,-1.2760747 -0.17756,-0.8818932 0.39472,-1.7404934 1.278046,-1.917696 0.883326,-0.1772027 1.74336,0.3940031 1.920922,1.2760752 0.177381,0.8818925 -0.39472,1.7404927 -1.278046,1.9176955 z m 0,0"
     id="path6"
     inkscape:connector-curvature="0"
     style="fill:#666666;stroke-width:0.04586846;fill-opacity:1" />
  <path
     d="m -22.324368,3.3105517 c -0.177562,-0.8820721 -1.037596,-1.4532779 -1.920922,-1.2760752 -0.08224,0.016484 -0.161614,0.03906 -0.238122,0.066653 0.515662,0.1884905 0.924,0.6324829 1.040104,1.2094224 0.161077,0.7998312 -0.294741,1.5804908 -1.039924,1.8510427 0.272702,0.099621 0.575327,0.1279303 0.880818,0.066653 0.883326,-0.1772028 1.455427,-1.035803 1.278046,-1.9176959 z m 0,0"
     id="path8"
     inkscape:connector-curvature="0"
     style="fill:#333333;stroke-width:0.04586846;fill-opacity:1" />
  <path
     d="m -17.110953,20.796467 h -13.625798 c -1.219277,0 -2.207599,-0.98671 -2.207599,-2.203836 0,-0.673873 0.305491,-1.311551 0.830828,-1.734581 l 0.437721,-0.352613 c 1.012511,-0.81524 1.601276,-2.044192 1.601276,-3.342843 v -2.316178 c 0,-3.4173786 2.774683,-6.1875827 6.197616,-6.1875827 3.422755,0 6.197617,2.7702041 6.197617,6.1875827 v 2.359 c 0,1.274104 0.566727,2.482631 1.546986,3.298587 l 0.426254,0.354764 c 0.508674,0.423388 0.802698,1.050495 0.802698,1.711646 v 0.02221 c 0,1.217127 -0.988322,2.203836 -2.207599,2.203836 z m 0,0"
     id="path10"
     inkscape:connector-curvature="0"
     style="fill:#666666;stroke-width:0.04586846;fill-opacity:1" />
  <path
     d="m -15.706052,16.858767 -0.426254,-0.354764 c -0.980259,-0.816136 -1.546986,-2.024483 -1.546986,-3.298766 v -2.359 c 0,-3.4171996 -2.774862,-6.187583 -6.197617,-6.187583 -0.606503,0 -1.1924,0.087437 -1.746226,0.2495891 2.572575,0.7527084 4.451391,3.1262223 4.451391,5.9379939 v 2.359 c 0,1.274283 0.566726,2.48263 1.546985,3.298766 l 0.426433,0.354764 c 0.508495,0.423388 0.802698,1.050495 0.802698,1.711646 v 0.02221 c 0,1.217127 -0.988321,2.203836 -2.207598,2.203836 h 3.492453 c 1.219097,0 2.207419,-0.986709 2.207419,-2.203836 v -0.02221 c 0,-0.661151 -0.294024,-1.288258 -0.802698,-1.711646 z m 0,0"
     id="path12"
     inkscape:connector-curvature="0"
     style="fill:#333333;stroke-width:0.04586846;fill-opacity:1" />
</svg>
