<?xml version="1.0" encoding="UTF-8" standalone="no"?>
<!-- Generator: Adobe Illustrator 19.0.0, SVG Export Plug-In . SVG Version: 6.00 Build 0)  -->

<svg
   xmlns:dc="http://purl.org/dc/elements/1.1/"
   xmlns:cc="http://creativecommons.org/ns#"
   xmlns:rdf="http://www.w3.org/1999/02/22-rdf-syntax-ns#"
   xmlns:svg="http://www.w3.org/2000/svg"
   xmlns="http://www.w3.org/2000/svg"
   xmlns:sodipodi="http://sodipodi.sourceforge.net/DTD/sodipodi-0.dtd"
   xmlns:inkscape="http://www.inkscape.org/namespaces/inkscape"
   version="1.1"
   id="Capa_1"
   x="0px"
   y="0px"
   viewBox="0 0 16 16"
   xml:space="preserve"
   width="16"
   height="16"
   sodipodi:docname="planner-notification-symbolic.svg"
   inkscape:version="0.92.3 (2405546, 2018-03-11)"><metadata
   id="metadata55"><rdf:RDF><cc:Work
       rdf:about=""><dc:format>image/svg+xml</dc:format><dc:type
         rdf:resource="http://purl.org/dc/dcmitype/StillImage" /><dc:title></dc:title></cc:Work></rdf:RDF></metadata><defs
   id="defs53" /><sodipodi:namedview
   pagecolor="#ffffff"
   bordercolor="#666666"
   borderopacity="1"
   objecttolerance="10"
   gridtolerance="10"
   guidetolerance="10"
   inkscape:pageopacity="0"
   inkscape:pageshadow="2"
   inkscape:window-width="1366"
   inkscape:window-height="705"
   id="namedview51"
   showgrid="false"
   inkscape:zoom="32.625"
   inkscape:cx="8"
   inkscape:cy="8"
   inkscape:window-x="0"
   inkscape:window-y="30"
   inkscape:window-maximized="1"
   inkscape:current-layer="Capa_1" />


<g
   id="g871"
   transform="matrix(0.02734375,0,0,0.02734375,0.83358795,1)"><g
     id="g6">
	<g
   id="g4">
		<path
   id="path2"
   d="M 467.819,431.851 431.168,370.795 C 414.272,342.614 405.333,310.358 405.333,277.483 V 224 C 405.333,141.675 338.325,74.667 256,74.667 173.675,74.667 106.667,141.675 106.667,224 v 53.483 c 0,32.875 -8.939,65.131 -25.835,93.312 l -36.651,61.056 c -1.984,3.285 -2.027,7.403 -0.149,10.731 1.899,3.349 5.461,5.419 9.301,5.419 h 405.333 c 3.84,0 7.403,-2.069 9.301,-5.419 1.878,-3.329 1.836,-7.446 -0.148,-10.731 z M 72.171,426.667 99.115,381.76 C 118.016,350.272 128,314.219 128,277.483 V 224 c 0,-70.592 57.408,-128 128,-128 70.592,0 128,57.408 128,128 v 53.483 c 0,36.736 9.984,72.789 28.864,104.277 l 26.965,44.907 z"
   inkscape:connector-curvature="0"
   style="fill:#696969" />
	</g>
</g><g
     id="g12">
	<g
   id="g10">
		<path
   id="path8"
   d="m 256,0 c -23.531,0 -42.667,19.136 -42.667,42.667 v 42.667 c 0,5.887 4.779,10.666 10.667,10.666 5.888,0 10.667,-4.779 10.667,-10.667 V 42.667 c 0,-11.776 9.557,-21.333 21.333,-21.333 11.776,0 21.333,9.557 21.333,21.333 v 42.667 c 0,5.887 4.779,10.666 10.667,10.666 5.888,0 10.667,-4.779 10.667,-10.667 V 42.667 C 298.667,19.136 279.531,0 256,0 Z"
   inkscape:connector-curvature="0"
   style="fill:#696969" />
	</g>
</g><g
     id="g18">
	<g
   id="g16">
		<path
   id="path14"
   d="m 302.165,431.936 c -3.008,-5.077 -9.515,-6.741 -14.613,-3.819 -5.099,2.987 -6.805,9.536 -3.819,14.613 2.773,4.715 4.288,10.368 4.288,15.936 0,17.643 -14.357,32 -32,32 -17.643,0 -32,-14.357 -32,-32 0,-5.568 1.515,-11.221 4.288,-15.936 2.965,-5.099 1.259,-11.627 -3.819,-14.613 -5.141,-2.923 -11.627,-1.259 -14.613,3.819 -4.715,8.064 -7.211,17.301 -7.211,26.731 C 202.667,488.085 226.581,512 256,512 c 29.419,0 53.333,-23.915 53.376,-53.333 0,-9.43 -2.496,-18.667 -7.211,-26.731 z"
   inkscape:connector-curvature="0"
   style="fill:#696969" />
	</g>
</g></g>
<g
   id="g20"
   transform="translate(0,-496)">
</g>
<g
   id="g22"
   transform="translate(0,-496)">
</g>
<g
   id="g24"
   transform="translate(0,-496)">
</g>
<g
   id="g26"
   transform="translate(0,-496)">
</g>
<g
   id="g28"
   transform="translate(0,-496)">
</g>
<g
   id="g30"
   transform="translate(0,-496)">
</g>
<g
   id="g32"
   transform="translate(0,-496)">
</g>
<g
   id="g34"
   transform="translate(0,-496)">
</g>
<g
   id="g36"
   transform="translate(0,-496)">
</g>
<g
   id="g38"
   transform="translate(0,-496)">
</g>
<g
   id="g40"
   transform="translate(0,-496)">
</g>
<g
   id="g42"
   transform="translate(0,-496)">
</g>
<g
   id="g44"
   transform="translate(0,-496)">
</g>
<g
   id="g46"
   transform="translate(0,-496)">
</g>
<g
   id="g48"
   transform="translate(0,-496)">
</g>
</svg>