<?xml version="1.0" encoding="UTF-8" standalone="no"?>
<!-- Generator: Adobe Illustrator 19.0.0, SVG Export Plug-In . SVG Version: 6.00 Build 0)  -->

<svg
   xmlns:dc="http://purl.org/dc/elements/1.1/"
   xmlns:cc="http://creativecommons.org/ns#"
   xmlns:rdf="http://www.w3.org/1999/02/22-rdf-syntax-ns#"
   xmlns:svg="http://www.w3.org/2000/svg"
   xmlns="http://www.w3.org/2000/svg"
   xmlns:sodipodi="http://sodipodi.sourceforge.net/DTD/sodipodi-0.dtd"
   xmlns:inkscape="http://www.inkscape.org/namespaces/inkscape"
   version="1.1"
   id="Capa_1"
   x="0px"
   y="0px"
   viewBox="0 0 32.000001 32.000001"
   xml:space="preserve"
   sodipodi:docname="planner-inbox.svg"
   inkscape:version="0.92.3 (2405546, 2018-03-11)"
   width="32"
   height="32"><metadata
   id="metadata47"><rdf:RDF><cc:Work
       rdf:about=""><dc:format>image/svg+xml</dc:format><dc:type
         rdf:resource="http://purl.org/dc/dcmitype/StillImage" /><dc:title /></cc:Work></rdf:RDF></metadata><defs
   id="defs45">
	
	
</defs><sodipodi:namedview
   pagecolor="#ffffff"
   bordercolor="#666666"
   borderopacity="1"
   objecttolerance="10"
   gridtolerance="10"
   guidetolerance="10"
   inkscape:pageopacity="0"
   inkscape:pageshadow="2"
   inkscape:window-width="1366"
   inkscape:window-height="705"
   id="namedview43"
   showgrid="false"
   inkscape:zoom="16.3125"
   inkscape:cx="19.279445"
   inkscape:cy="21.136565"
   inkscape:window-x="0"
   inkscape:window-y="30"
   inkscape:window-maximized="1"
   inkscape:current-layer="Capa_1"
   showguides="false" />


<polygon
   style="fill:#fafafa;fill-opacity:1"
   points="362.057,52.767 420.049,205.845 420.049,206.367 317.127,206.367 285.78,279.51 149.943,279.51 118.596,206.367 15.673,206.367 15.673,205.845 73.665,52.767 "
   id="polygon2"
   transform="matrix(0.06426116,0,0,0.06426116,2.1115622,2.1254052)" /><path
   style="fill:#3689e6;fill-opacity:1;stroke-width:0.06426116"
   d="m 29.104398,15.386788 v 10.676285 c 0,0.369308 -0.302156,0.671464 -0.671465,0.671464 H 3.7901922 c -0.3693089,0 -0.6714648,-0.302156 -0.6714648,-0.671464 V 15.386788 h 6.6138871 l 2.0143945,4.700254 h 8.729108 l 2.014394,-4.700254 z"
   id="path4"
   inkscape:connector-curvature="0" /><path
   inkscape:connector-curvature="0"
   id="path6"
   d="M 30.044475,15.017479 27.218,5.1469649 C 27.083694,4.7441117 26.680917,4.5090444 26.278,4.5090444 H 5.945 c -0.4028533,0 -0.9056941,0.2686117 -1.04,0.6379205 L 2.1787151,14.983935 c -0.033609,0.100697 -0.067153,0.268611 -0.067153,0.402853 v 10.676285 c 0,0.940076 0.7386178,1.67863 1.67863,1.67863 H 28.432933 c 0.940077,0 1.67863,-0.738618 1.67863,-1.67863 V 15.386788 c 0,-0.134242 -0.03354,-0.235003 -0.06709,-0.369309 z M 6.15,5.924 h 19.956 l 2.455,9.056 h -5.47 c -0.402853,0 -0.773085,0.234691 -0.941,0.604 l -1.845,3.996 -8.486,0.1 -1.48341,-3.526652 C 9.9531813,15.201664 9.7359175,14.98 9.333,14.98 H 3.562 Z M 3.526,26.327 v -9.932983 h 5.5352139 l 1.7457831,4.095943 c 0.16785,0.369308 0.537159,0.604311 0.940076,0.604311 h 8.729044 c 0.402853,0 0.772162,-0.235003 0.940076,-0.604311 l 1.745783,-4.095943 H 28.697 V 26.327 Z"
   style="fill:#485a6c;fill-opacity:1;stroke-width:0.06426116"
   sodipodi:nodetypes="ccssccssssssccccsccccsccccccsscccccc" /><path
   inkscape:connector-curvature="0"
   id="path8"
   d="m 14.802242,14.95039 c -0.268612,0 -0.503615,-0.100697 -0.70501,-0.268611 l -2.820165,-2.719404 c -0.402853,-0.402853 -0.402853,-1.007165 -0.03354,-1.410083 0.402853,-0.402853 1.007165,-0.402853 1.410082,-0.03354 L 14.80231,12.6003 19.536108,8.5379661 c 0.436462,-0.3693089 1.074318,-0.302156 1.410083,0.1006972 0.369309,0.4364618 0.302156,1.0743181 -0.100697,1.4100827 l -5.371719,4.666645 c -0.201523,0.167851 -0.436526,0.235003 -0.671529,0.235003 z"
   style="fill:#485a6c;fill-opacity:1;stroke-width:0.06426116" />
<g
   id="g12"
   transform="translate(0,-403.72198)">
</g>
<g
   id="g14"
   transform="translate(0,-403.72198)">
</g>
<g
   id="g16"
   transform="translate(0,-403.72198)">
</g>
<g
   id="g18"
   transform="translate(0,-403.72198)">
</g>
<g
   id="g20"
   transform="translate(0,-403.72198)">
</g>
<g
   id="g22"
   transform="translate(0,-403.72198)">
</g>
<g
   id="g24"
   transform="translate(0,-403.72198)">
</g>
<g
   id="g26"
   transform="translate(0,-403.72198)">
</g>
<g
   id="g28"
   transform="translate(0,-403.72198)">
</g>
<g
   id="g30"
   transform="translate(0,-403.72198)">
</g>
<g
   id="g32"
   transform="translate(0,-403.72198)">
</g>
<g
   id="g34"
   transform="translate(0,-403.72198)">
</g>
<g
   id="g36"
   transform="translate(0,-403.72198)">
</g>
<g
   id="g38"
   transform="translate(0,-403.72198)">
</g>
<g
   id="g40"
   transform="translate(0,-403.72198)">
</g>
</svg>