<?xml version="1.0" encoding="UTF-8" standalone="no"?>
<!-- Generator: Adobe Illustrator 19.1.0, SVG Export Plug-In . SVG Version: 6.00 Build 0)  -->

<svg
   xmlns:dc="http://purl.org/dc/elements/1.1/"
   xmlns:cc="http://creativecommons.org/ns#"
   xmlns:rdf="http://www.w3.org/1999/02/22-rdf-syntax-ns#"
   xmlns:svg="http://www.w3.org/2000/svg"
   xmlns="http://www.w3.org/2000/svg"
   xmlns:sodipodi="http://sodipodi.sourceforge.net/DTD/sodipodi-0.dtd"
   xmlns:inkscape="http://www.inkscape.org/namespaces/inkscape"
   version="1.1"
   id="Capa_1"
   x="0px"
   y="0px"
   viewBox="0 0 16 16"
   xml:space="preserve"
   sodipodi:docname="planner-header-symbolic.svg"
   width="16"
   height="16"
   inkscape:version="0.92.3 (2405546, 2018-03-11)"><metadata
   id="metadata41"><rdf:RDF><cc:Work
       rdf:about=""><dc:format>image/svg+xml</dc:format><dc:type
         rdf:resource="http://purl.org/dc/dcmitype/StillImage" /><dc:title></dc:title></cc:Work></rdf:RDF></metadata><defs
   id="defs39" /><sodipodi:namedview
   pagecolor="#ffffff"
   bordercolor="#666666"
   borderopacity="1"
   objecttolerance="10"
   gridtolerance="10"
   guidetolerance="10"
   inkscape:pageopacity="0"
   inkscape:pageshadow="2"
   inkscape:window-width="1366"
   inkscape:window-height="705"
   id="namedview37"
   showgrid="false"
   showguides="false"
   inkscape:zoom="17.84155"
   inkscape:cx="10.989079"
   inkscape:cy="3.6825288"
   inkscape:window-x="0"
   inkscape:window-y="30"
   inkscape:window-maximized="1"
   inkscape:current-layer="Capa_1" />

<g
   id="g6"
   transform="translate(0,-471.85001)">
</g>
<g
   id="g8"
   transform="translate(0,-471.85001)">
</g>
<g
   id="g10"
   transform="translate(0,-471.85001)">
</g>
<g
   id="g12"
   transform="translate(0,-471.85001)">
</g>
<g
   id="g14"
   transform="translate(0,-471.85001)">
</g>
<g
   id="g16"
   transform="translate(0,-471.85001)">
</g>
<g
   id="g18"
   transform="translate(0,-471.85001)">
</g>
<g
   id="g20"
   transform="translate(0,-471.85001)">
</g>
<g
   id="g22"
   transform="translate(0,-471.85001)">
</g>
<g
   id="g24"
   transform="translate(0,-471.85001)">
</g>
<g
   id="g26"
   transform="translate(0,-471.85001)">
</g>
<g
   id="g28"
   transform="translate(0,-471.85001)">
</g>
<g
   id="g30"
   transform="translate(0,-471.85001)">
</g>
<g
   id="g32"
   transform="translate(0,-471.85001)">
</g>
<g
   id="g34"
   transform="translate(0,-471.85001)">
</g>
<g
   id="g836"
   transform="translate(-0.05604894,-0.28024471)"><g
     style="fill:#666666;fill-opacity:1;stroke-width:34.84642792"
     transform="matrix(0.02869735,0,0,0.02869735,1.8559318,0.82531399)"
     id="g4">
	<path
   style="fill:#666666;fill-opacity:1;stroke-width:34.84642792"
   inkscape:connector-curvature="0"
   id="path2"
   d="m 479,215.275 -83.5,-113.9 c -11,-15 -33.3,-26.3 -51.8,-26.3 H 39.2 c -21.6,0 -39.2,17.6 -39.2,39.2 v 259.3 c 0,21.6 17.6,39.2 39.2,39.2 h 304.5 c 18.6,0 40.9,-11.3 51.8,-26.3 l 83.5,-113.9 c 11.8,-16 11.8,-41.2 0,-57.3 z m -21.8,41.5 -83.5,113.9 c -5.8,8 -20.2,15.2 -30.1,15.2 H 39.2 c -6.7,0 -12.2,-5.5 -12.2,-12.2 v -259.4 c 0,-6.7 5.5,-12.2 12.2,-12.2 h 304.5 c 9.9,0 24.2,7.3 30.1,15.2 l 83.5,113.9 c 4.8,6.7 4.8,18.9 -0.1,25.6 z" />
</g><path
     style="fill:#666666;fill-opacity:1;stroke-width:1.00000012"
     inkscape:connector-curvature="0"
     d="m 4.437568,5.3282961 c -2.3564629,0 -4.26583433,1.8884191 -4.26583433,4.219025 0,2.3306039 1.90937143,4.2190259 4.26583433,4.2190259 2.3564629,0 4.2658346,-1.888422 4.2658346,-4.2190259 0,-2.3306059 -1.9093717,-4.219025 -4.2658346,-4.219025 z m 1.8560489,4.543565 H 4.7657086 v 1.5111429 c 0,0.178498 -0.1476699,0.32454 -0.3281406,0.32454 -0.090243,0 -0.1722734,-0.03651 -0.2317489,-0.09534 -0.059471,-0.05881 -0.09639,-0.139951 -0.09639,-0.229206 V 9.8718571 H 2.5815208 c -0.090243,0 -0.1722751,-0.03651 -0.2317506,-0.09532 -0.05947,-0.05881 -0.096388,-0.139952 -0.096388,-0.229206 0,-0.178497 0.1476701,-0.324541 0.3281421,-0.324541 h 1.5279059 v -1.511145 c 0,-0.1784966 0.14767,-0.3245412 0.3281405,-0.3245412 0.1804775,0 0.3281406,0.1460587 0.3281406,0.3245412 v 1.511142 h 1.5279081 c 0.1804775,0 0.3281407,0.146058 0.3281407,0.324539 0,0.178497 -0.1476701,0.324542 -0.3281407,0.324542 z"
     id="path924" /></g></svg>