<?xml version="1.0" encoding="UTF-8" standalone="no"?>
<!-- Generator: Adobe Illustrator 19.1.0, SVG Export Plug-In . SVG Version: 6.00 Build 0)  -->

<svg
   xmlns:dc="http://purl.org/dc/elements/1.1/"
   xmlns:cc="http://creativecommons.org/ns#"
   xmlns:rdf="http://www.w3.org/1999/02/22-rdf-syntax-ns#"
   xmlns:svg="http://www.w3.org/2000/svg"
   xmlns="http://www.w3.org/2000/svg"
   xmlns:sodipodi="http://sodipodi.sourceforge.net/DTD/sodipodi-0.dtd"
   xmlns:inkscape="http://www.inkscape.org/namespaces/inkscape"
   version="1.1"
   id="Capa_1"
   x="0px"
   y="0px"
   viewBox="0 0 16 16"
   xml:space="preserve"
   sodipodi:docname="planner-share-symbolic.svg"
   width="16"
   height="16"
   inkscape:version="0.92.3 (2405546, 2018-03-11)"><metadata
   id="metadata41"><rdf:RDF><cc:Work
       rdf:about=""><dc:format>image/svg+xml</dc:format><dc:type
         rdf:resource="http://purl.org/dc/dcmitype/StillImage" /><dc:title /></cc:Work></rdf:RDF></metadata><defs
   id="defs39" /><sodipodi:namedview
   pagecolor="#ffffff"
   bordercolor="#666666"
   borderopacity="1"
   objecttolerance="10"
   gridtolerance="10"
   guidetolerance="10"
   inkscape:pageopacity="0"
   inkscape:pageshadow="2"
   inkscape:window-width="1366"
   inkscape:window-height="705"
   id="namedview37"
   showgrid="false"
   inkscape:zoom="32.625"
   inkscape:cx="8"
   inkscape:cy="8"
   inkscape:window-x="0"
   inkscape:window-y="30"
   inkscape:window-maximized="1"
   inkscape:current-layer="Capa_1" />
<g
   id="g4"
   transform="matrix(0.02615006,0,0,0.02615006,1.5612416,1.5966417)">
	<path
   d="m 381.6,309.4 c -27.7,0 -52.4,13.2 -68.2,33.6 L 181.1,269.1 c 3.1,-8.9 4.8,-18.5 4.8,-28.4 0,-10 -1.7,-19.5 -4.9,-28.5 l 132.2,-73.8 c 15.7,20.5 40.5,33.8 68.3,33.8 47.4,0 86.1,-38.6 86.1,-86.1 C 467.6,38.6 429,0 381.5,0 334,0 295.4,38.6 295.4,86.1 c 0,10 1.7,19.6 4.9,28.5 l -132.1,73.8 c -15.7,-20.6 -40.5,-33.8 -68.3,-33.8 -47.4,0 -86.1,38.6 -86.1,86.1 0,47.5 38.7,86.1 86.2,86.1 27.8,0 52.6,-13.3 68.4,-33.9 l 132.2,73.9 c -3.2,9 -5,18.7 -5,28.7 0,47.4 38.6,86.1 86.1,86.1 47.5,0 86.1,-38.6 86.1,-86.1 0,-47.5 -38.7,-86.1 -86.2,-86.1 z m 0,-282.3 c 32.6,0 59.1,26.5 59.1,59.1 0,32.6 -26.5,59.1 -59.1,59.1 -32.6,0 -59.1,-26.5 -59.1,-59.1 0,-32.6 26.6,-59.1 59.1,-59.1 z M 100,299.8 c -32.6,0 -59.1,-26.5 -59.1,-59.1 0,-32.6 26.5,-59.1 59.1,-59.1 32.6,0 59.1,26.5 59.1,59.1 0,32.6 -26.6,59.1 -59.1,59.1 z m 281.6,154.7 c -32.6,0 -59.1,-26.5 -59.1,-59.1 0,-32.6 26.5,-59.1 59.1,-59.1 32.6,0 59.1,26.5 59.1,59.1 0,32.6 -26.5,59.1 -59.1,59.1 z"
   id="path2"
   inkscape:connector-curvature="0" />
</g>
<g
   id="g6"
   transform="translate(0,-465.60001)">
</g>
<g
   id="g8"
   transform="translate(0,-465.60001)">
</g>
<g
   id="g10"
   transform="translate(0,-465.60001)">
</g>
<g
   id="g12"
   transform="translate(0,-465.60001)">
</g>
<g
   id="g14"
   transform="translate(0,-465.60001)">
</g>
<g
   id="g16"
   transform="translate(0,-465.60001)">
</g>
<g
   id="g18"
   transform="translate(0,-465.60001)">
</g>
<g
   id="g20"
   transform="translate(0,-465.60001)">
</g>
<g
   id="g22"
   transform="translate(0,-465.60001)">
</g>
<g
   id="g24"
   transform="translate(0,-465.60001)">
</g>
<g
   id="g26"
   transform="translate(0,-465.60001)">
</g>
<g
   id="g28"
   transform="translate(0,-465.60001)">
</g>
<g
   id="g30"
   transform="translate(0,-465.60001)">
</g>
<g
   id="g32"
   transform="translate(0,-465.60001)">
</g>
<g
   id="g34"
   transform="translate(0,-465.60001)">
</g>
</svg>