<?xml version="1.0" encoding="UTF-8" standalone="no"?>
<!-- Generator: Adobe Illustrator 16.0.0, SVG Export Plug-In . SVG Version: 6.00 Build 0)  -->

<svg
   xmlns:dc="http://purl.org/dc/elements/1.1/"
   xmlns:cc="http://creativecommons.org/ns#"
   xmlns:rdf="http://www.w3.org/1999/02/22-rdf-syntax-ns#"
   xmlns:svg="http://www.w3.org/2000/svg"
   xmlns="http://www.w3.org/2000/svg"
   xmlns:sodipodi="http://sodipodi.sourceforge.net/DTD/sodipodi-0.dtd"
   xmlns:inkscape="http://www.inkscape.org/namespaces/inkscape"
   version="1.1"
   id="Capa_1"
   x="0px"
   y="0px"
   width="16"
   height="16"
   viewBox="0 0 16 16"
   xml:space="preserve"
   sodipodi:docname="recycling-bin.svg"
   inkscape:version="0.92.3 (2405546, 2018-03-11)"><metadata
   id="metadata44"><rdf:RDF><cc:Work
       rdf:about=""><dc:format>image/svg+xml</dc:format><dc:type
         rdf:resource="http://purl.org/dc/dcmitype/StillImage" /><dc:title></dc:title></cc:Work></rdf:RDF></metadata><defs
   id="defs42">
	
</defs><sodipodi:namedview
   pagecolor="#ffffff"
   bordercolor="#666666"
   borderopacity="1"
   objecttolerance="10"
   gridtolerance="10"
   guidetolerance="10"
   inkscape:pageopacity="0"
   inkscape:pageshadow="2"
   inkscape:window-width="1366"
   inkscape:window-height="705"
   id="namedview40"
   showgrid="false"
   inkscape:zoom="24.041631"
   inkscape:cx="1.6642158"
   inkscape:cy="7.8489857"
   inkscape:window-x="0"
   inkscape:window-y="30"
   inkscape:window-maximized="1"
   inkscape:current-layer="Capa_1" />
<g
   style="stroke-width:53.8021431;fill:#666666;fill-opacity:1"
   id="_x34__19_"
   transform="matrix(0.0185866,0,0,0.01858662,0.99998856,1.0000002)">
		<g
   style="stroke-width:53.8021431;fill:#666666;fill-opacity:1"
   id="g4">
			<path
   style="stroke-width:53.8021431;fill:#666666;fill-opacity:1"
   inkscape:connector-curvature="0"
   id="path2"
   d="m 494.308,659.077 c 12.993,0 23.538,-10.546 23.538,-23.539 V 353.077 c 0,-12.993 -10.545,-23.539 -23.538,-23.539 -12.993,0 -23.538,10.545 -23.538,23.539 v 282.461 c 0,12.993 10.544,23.539 23.538,23.539 z M 635.538,94.154 H 494.308 V 47.077 C 494.308,21.067 473.24,0 447.23,0 H 306 c -26.01,0 -47.077,21.067 -47.077,47.077 v 47.077 h -141.23 c -26.01,0 -47.077,21.067 -47.077,47.077 v 47.077 c 0,25.986 21.067,47.077 47.077,47.077 v 423.692 c 0,51.996 42.157,94.153 94.154,94.153 h 329.539 c 51.996,0 94.153,-42.157 94.153,-94.153 V 235.385 c 26.01,0 47.077,-21.091 47.077,-47.077 V 141.23 C 682.615,115.221 661.548,94.154 635.538,94.154 Z M 306,70.615 c 0,-12.993 10.545,-23.539 23.538,-23.539 h 94.154 c 12.993,0 23.538,10.545 23.538,23.539 v 23.539 c -22.809,0 -141.23,0 -141.23,0 z m 282.461,588.462 c 0,25.986 -21.066,47.076 -47.076,47.076 H 211.846 c -26.01,0 -47.077,-21.09 -47.077,-47.076 V 235.385 H 588.461 Z M 612,188.308 H 141.23 c -12.993,0 -23.538,-10.545 -23.538,-23.539 0,-12.994 10.545,-23.539 23.538,-23.539 H 612 c 12.993,0 23.538,10.545 23.538,23.539 0,12.994 -10.545,23.539 -23.538,23.539 z M 258.923,659.077 c 12.993,0 23.539,-10.546 23.539,-23.539 V 353.077 c 0,-12.993 -10.545,-23.539 -23.539,-23.539 -12.994,0 -23.539,10.545 -23.539,23.539 v 282.461 c 0,12.993 10.546,23.539 23.539,23.539 z m 117.692,0 c 12.993,0 23.538,-10.546 23.538,-23.539 V 353.077 c 0,-12.993 -10.545,-23.539 -23.538,-23.539 -12.993,0 -23.539,10.545 -23.539,23.539 v 282.461 c 10e-4,12.993 10.546,23.539 23.539,23.539 z" />
		</g>
	</g>
<g
   id="g9"
   transform="translate(0,-737.22998)">
</g>
<g
   id="g11"
   transform="translate(0,-737.22998)">
</g>
<g
   id="g13"
   transform="translate(0,-737.22998)">
</g>
<g
   id="g15"
   transform="translate(0,-737.22998)">
</g>
<g
   id="g17"
   transform="translate(0,-737.22998)">
</g>
<g
   id="g19"
   transform="translate(0,-737.22998)">
</g>
<g
   id="g21"
   transform="translate(0,-737.22998)">
</g>
<g
   id="g23"
   transform="translate(0,-737.22998)">
</g>
<g
   id="g25"
   transform="translate(0,-737.22998)">
</g>
<g
   id="g27"
   transform="translate(0,-737.22998)">
</g>
<g
   id="g29"
   transform="translate(0,-737.22998)">
</g>
<g
   id="g31"
   transform="translate(0,-737.22998)">
</g>
<g
   id="g33"
   transform="translate(0,-737.22998)">
</g>
<g
   id="g35"
   transform="translate(0,-737.22998)">
</g>
<g
   id="g37"
   transform="translate(0,-737.22998)">
</g>
</svg>