<?xml version="1.0" encoding="UTF-8" standalone="no"?>
<svg
   xmlns:dc="http://purl.org/dc/elements/1.1/"
   xmlns:cc="http://creativecommons.org/ns#"
   xmlns:rdf="http://www.w3.org/1999/02/22-rdf-syntax-ns#"
   xmlns:svg="http://www.w3.org/2000/svg"
   xmlns="http://www.w3.org/2000/svg"
   xmlns:sodipodi="http://sodipodi.sourceforge.net/DTD/sodipodi-0.dtd"
   xmlns:inkscape="http://www.inkscape.org/namespaces/inkscape"
   height="16"
   viewBox="0 -24 12.014571 12"
   width="16"
   version="1.1"
   id="svg14"
   sodipodi:docname="planner-repeat-symbolic.svg"
   inkscape:version="0.92.3 (2405546, 2018-03-11)">
  <metadata
     id="metadata20">
    <rdf:RDF>
      <cc:Work
         rdf:about="">
        <dc:format>image/svg+xml</dc:format>
        <dc:type
           rdf:resource="http://purl.org/dc/dcmitype/StillImage" />
        <dc:title />
      </cc:Work>
    </rdf:RDF>
  </metadata>
  <defs
     id="defs18" />
  <sodipodi:namedview
     pagecolor="#ffffff"
     bordercolor="#666666"
     borderopacity="1"
     objecttolerance="10"
     gridtolerance="10"
     guidetolerance="10"
     inkscape:pageopacity="0"
     inkscape:pageshadow="2"
     inkscape:window-width="1366"
     inkscape:window-height="705"
     id="namedview16"
     showgrid="false"
     units="px"
     inkscape:zoom="32.625"
     inkscape:cx="3.2950192"
     inkscape:cy="6.7739464"
     inkscape:window-x="0"
     inkscape:window-y="30"
     inkscape:window-maximized="1"
     inkscape:current-layer="svg14" />
  <g
     id="g837">
    <path
       inkscape:connector-curvature="0"
       style="fill:#666666;fill-opacity:1;stroke-width:0.02121197"
       id="path2"
       d="m 1.3990018,-16.334666 c -0.72252424,-2.915106 1.3853904,-5.652974 4.1968548,-5.894263 l 0.058415,0.676057 c -2.2250764,0.191407 -3.9362655,2.207065 -3.6973023,4.482075 0.2134429,2.033639 1.9715301,3.631516 4.0159753,3.648502 2.2613681,0.01864 4.1069534,-1.815468 4.1069534,-4.072746 0,-0.10457 -0.0041,-0.209471 -0.01193,-0.313626 -0.01317,-0.174089 0.10117,-0.331938 0.273929,-0.358039 l 0.02709,-0.0041 c 0.187011,-0.0285 0.360102,0.107967 0.375099,0.29664 0.0094,0.125947 0.01458,0.252889 0.01458,0.379168 0,2.849563 -2.5213773,5.121094 -5.450252,4.701241 -1.8852743,-0.270124 -3.451213,-1.692172 -3.9094194,-3.540866 z m 0,0" />
    <path
       inkscape:connector-curvature="0"
       style="fill:#666666;fill-opacity:1;stroke-width:0.02121197"
       id="path12"
       d="m 6.4870804,-21.937758 -1.2186797,-1.219123 c -0.1324074,-0.132659 -0.3475905,-0.132659 -0.4799152,0 -0.1324074,0.132411 -0.1324074,0.347185 0,0.479927 l 0.7388473,0.739196 -0.7388473,0.738864 c -0.1324074,0.132328 -0.1324074,0.347516 0,0.479927 0.1323247,0.132328 0.3475078,0.132328 0.4799152,0 z m 0,0" />
  </g>
</svg>
