<?xml version="1.0" encoding="UTF-8" standalone="no"?>
<svg
   xmlns:dc="http://purl.org/dc/elements/1.1/"
   xmlns:cc="http://creativecommons.org/ns#"
   xmlns:rdf="http://www.w3.org/1999/02/22-rdf-syntax-ns#"
   xmlns:svg="http://www.w3.org/2000/svg"
   xmlns="http://www.w3.org/2000/svg"
   xmlns:sodipodi="http://sodipodi.sourceforge.net/DTD/sodipodi-0.dtd"
   xmlns:inkscape="http://www.inkscape.org/namespaces/inkscape"
   viewBox="0 0 16 16"
   version="1.1"
   id="svg4"
   sodipodi:docname="planner-offline-symbolic.svg"
   inkscape:version="0.92.3 (2405546, 2018-03-11)"
   width="16"
   height="16">
  <metadata
     id="metadata10">
    <rdf:RDF>
      <cc:Work
         rdf:about="">
        <dc:format>image/svg+xml</dc:format>
        <dc:type
           rdf:resource="http://purl.org/dc/dcmitype/StillImage" />
        <dc:title />
      </cc:Work>
    </rdf:RDF>
  </metadata>
  <defs
     id="defs8" />
  <sodipodi:namedview
     pagecolor="#ffffff"
     bordercolor="#666666"
     borderopacity="1"
     objecttolerance="10"
     gridtolerance="10"
     guidetolerance="10"
     inkscape:pageopacity="0"
     inkscape:pageshadow="2"
     inkscape:window-width="1366"
     inkscape:window-height="705"
     id="namedview6"
     showgrid="false"
     inkscape:zoom="14.75"
     inkscape:cx="0.85696853"
     inkscape:cy="4.688181"
     inkscape:window-x="0"
     inkscape:window-y="30"
     inkscape:window-maximized="1"
     inkscape:current-layer="svg4" />
  <g
     id="g818">
    <path
       style="fill:#666666;fill-opacity:1;stroke-width:1"
       id="path2"
       d="m 8.9582081,4.3914498 c 0.8283539,0 1.6211669,0.3061803 2.2362809,0.8611314 0.609647,0.5494834 0.992385,1.3012654 1.079868,2.1131893 l 0.0328,0.303446 c 0.01641,0.158557 0.136692,0.2870438 0.292522,0.3143814 l 0.300722,0.054677 c 0.382737,0.068344 0.738137,0.2843103 1.00332,0.6041593 0.267916,0.3280491 0.415543,0.7353786 0.415543,1.1509077 0,0.4647371 -0.188635,0.9322101 -0.516696,1.2793951 -0.333528,0.344454 -0.760007,0.535815 -1.205624,0.535815 H 3.5698073 c -0.4456162,0 -0.8720953,-0.191361 -1.2001563,-0.538549 -0.3280609,-0.347186 -0.5166959,-0.811924 -0.5166959,-1.279395 0,-0.3936589 0.1257566,-0.7900527 0.3581332,-1.1181028 C 2.4461985,8.3389874 2.7633242,8.1011511 3.1323927,7.9863339 L 3.4139784,7.8961201 C 3.558872,7.8496503 3.6600241,7.7156923 3.6627579,7.562603 l 0.00547,-0.2952458 C 3.6736954,6.9447748 3.8076525,6.6221923 4.0372952,6.3816225 4.264204,6.1437862 4.5539911,6.0153002 4.8547137,6.0153002 c 0.1530951,0 0.3034563,0.030073 0.4456161,0.08748 l 0.3034564,0.1230192 c 0.1558289,0.062875 0.3335285,0.010937 0.429213,-0.128486 L 6.2189004,5.8294048 C 6.8367485,4.9300014 7.8646727,4.3914524 8.9582092,4.3914524 m 0,-0.7654498 c -1.3997267,0 -2.632689,0.6998401 -3.37356,1.768736 C 5.3577405,5.3017917 5.1089609,5.2498504 4.849246,5.2498504 c -1.0689319,0 -1.9355595,0.9404099 -1.9519626,2.0065724 -1.0908036,0.3471831 -1.8125377,1.4133464 -1.8125377,2.5341824 0,1.3723428 1.1126733,2.5833948 2.4850616,2.5833948 h 9.0298767 c 1.372388,0 2.485061,-1.211052 2.485061,-2.5833948 0,-1.2219852 -0.88303,-2.299083 -2.047647,-2.5068475 C 12.812923,5.2279779 11.0742,3.626 8.9582081,3.626 Z"
       inkscape:connector-curvature="0" />
    <rect
       transform="matrix(-0.71250422,-0.70166782,0.70526678,-0.70894201,0,0)"
       ry="0.1568114"
       y="-8.4866905"
       x="-11.963465"
       height="15.994894"
       width="0.74423701"
       id="rect823"
       style="opacity:1;fill:#666666;fill-opacity:1;fill-rule:evenodd;stroke:#666666;stroke-width:0;stroke-miterlimit:4;stroke-dasharray:none;stroke-opacity:1" />
  </g>
</svg>
