<?xml version="1.0" encoding="UTF-8" standalone="no"?>
<!-- Generator: Adobe Illustrator 19.0.0, SVG Export Plug-In . SVG Version: 6.00 Build 0)  -->

<svg
   xmlns:dc="http://purl.org/dc/elements/1.1/"
   xmlns:cc="http://creativecommons.org/ns#"
   xmlns:rdf="http://www.w3.org/1999/02/22-rdf-syntax-ns#"
   xmlns:svg="http://www.w3.org/2000/svg"
   xmlns="http://www.w3.org/2000/svg"
   xmlns:sodipodi="http://sodipodi.sourceforge.net/DTD/sodipodi-0.dtd"
   xmlns:inkscape="http://www.inkscape.org/namespaces/inkscape"
   version="1.1"
   id="Capa_1"
   x="0px"
   y="0px"
   viewBox="0 0 16 16"
   xml:space="preserve"
   width="16"
   height="16"
   sodipodi:docname="verified.svg"
   inkscape:version="0.92.3 (2405546, 2018-03-11)"><metadata
   id="metadata49"><rdf:RDF><cc:Work
       rdf:about=""><dc:format>image/svg+xml</dc:format><dc:type
         rdf:resource="http://purl.org/dc/dcmitype/StillImage" /><dc:title></dc:title></cc:Work></rdf:RDF></metadata><defs
   id="defs47" /><sodipodi:namedview
   pagecolor="#ffffff"
   bordercolor="#666666"
   borderopacity="1"
   objecttolerance="10"
   gridtolerance="10"
   guidetolerance="10"
   inkscape:pageopacity="0"
   inkscape:pageshadow="2"
   inkscape:window-width="1366"
   inkscape:window-height="705"
   id="namedview45"
   showgrid="false"
   inkscape:zoom="32.625"
   inkscape:cx="8"
   inkscape:cy="8"
   inkscape:window-x="0"
   inkscape:window-y="30"
   inkscape:window-maximized="1"
   inkscape:current-layer="Capa_1" />

<g
   id="g862"
   transform="translate(1,-0.9999936)"><g
     transform="matrix(0.02734375,0,0,0.02734375,0,1.9999936)"
     id="g6">
	<g
   id="g4">
		<path
   style="fill:#696969"
   inkscape:connector-curvature="0"
   id="path2"
   d="M 437.019,74.98 C 388.667,26.629 324.38,0 256,0 187.619,0 123.331,26.629 74.98,74.98 26.628,123.332 0,187.62 0,256 0,324.38 26.628,388.667 74.98,437.019 123.332,485.371 187.619,512 256,512 324.38,512 388.667,485.371 437.019,437.019 485.371,388.667 512,324.38 512,256 512,187.62 485.371,123.333 437.019,74.98 Z M 256,482 C 131.383,482 30,380.617 30,256 30,131.383 131.383,30 256,30 380.617,30 482,131.383 482,256 482,380.617 380.617,482 256,482 Z" />
	</g>
</g><g
     transform="matrix(0.02734375,0,0,0.02734375,0,1.9999936)"
     id="g12">
	<g
   id="g10">
		<path
   style="fill:#696969"
   inkscape:connector-curvature="0"
   id="path8"
   d="m 378.305,173.859 c -5.857,-5.856 -15.355,-5.856 -21.212,0.001 L 224.634,306.319 154.907,236.592 c -5.857,-5.857 -15.355,-5.857 -21.213,0 -5.858,5.857 -5.858,15.355 0,21.213 l 80.333,80.333 c 2.929,2.929 6.768,4.393 10.606,4.393 3.838,0 7.678,-1.465 10.606,-4.393 L 378.305,195.072 c 5.858,-5.857 5.858,-15.355 0,-21.213 z" />
	</g>
</g></g>
<g
   id="g14"
   transform="translate(0,-496)">
</g>
<g
   id="g16"
   transform="translate(0,-496)">
</g>
<g
   id="g18"
   transform="translate(0,-496)">
</g>
<g
   id="g20"
   transform="translate(0,-496)">
</g>
<g
   id="g22"
   transform="translate(0,-496)">
</g>
<g
   id="g24"
   transform="translate(0,-496)">
</g>
<g
   id="g26"
   transform="translate(0,-496)">
</g>
<g
   id="g28"
   transform="translate(0,-496)">
</g>
<g
   id="g30"
   transform="translate(0,-496)">
</g>
<g
   id="g32"
   transform="translate(0,-496)">
</g>
<g
   id="g34"
   transform="translate(0,-496)">
</g>
<g
   id="g36"
   transform="translate(0,-496)">
</g>
<g
   id="g38"
   transform="translate(0,-496)">
</g>
<g
   id="g40"
   transform="translate(0,-496)">
</g>
<g
   id="g42"
   transform="translate(0,-496)">
</g>
</svg>