<?xml version="1.0" encoding="UTF-8" standalone="no"?>
<!-- Generator: Adobe Illustrator 19.0.0, SVG Export Plug-In . SVG Version: 6.00 Build 0)  -->

<svg
   xmlns:dc="http://purl.org/dc/elements/1.1/"
   xmlns:cc="http://creativecommons.org/ns#"
   xmlns:rdf="http://www.w3.org/1999/02/22-rdf-syntax-ns#"
   xmlns:svg="http://www.w3.org/2000/svg"
   xmlns="http://www.w3.org/2000/svg"
   xmlns:sodipodi="http://sodipodi.sourceforge.net/DTD/sodipodi-0.dtd"
   xmlns:inkscape="http://www.inkscape.org/namespaces/inkscape"
   version="1.1"
   id="Capa_1"
   x="0px"
   y="0px"
   viewBox="0 0 16 16"
   xml:space="preserve"
   sodipodi:docname="calendar (6).svg"
   width="16"
   height="16"
   inkscape:version="0.92.3 (2405546, 2018-03-11)"><metadata
   id="metadata49"><rdf:RDF><cc:Work
       rdf:about=""><dc:format>image/svg+xml</dc:format><dc:type
         rdf:resource="http://purl.org/dc/dcmitype/StillImage" /><dc:title></dc:title></cc:Work></rdf:RDF></metadata><defs
   id="defs47" /><sodipodi:namedview
   pagecolor="#ffffff"
   bordercolor="#666666"
   borderopacity="1"
   objecttolerance="10"
   gridtolerance="10"
   guidetolerance="10"
   inkscape:pageopacity="0"
   inkscape:pageshadow="2"
   inkscape:window-width="1366"
   inkscape:window-height="705"
   id="namedview45"
   showgrid="false"
   inkscape:zoom="26.357701"
   inkscape:cx="8.0441947"
   inkscape:cy="8.5674186"
   inkscape:window-x="0"
   inkscape:window-y="30"
   inkscape:window-maximized="1"
   inkscape:current-layer="Capa_1" />
<g
   id="g6"
   transform="matrix(0.03455084,0,0,0.03455084,0.96929311,0.97368949)">
	<g
   id="g4">
		<path
   d="m 374.08,66.747 v 0 c -10.312,-5.164 -21.668,-7.901 -33.2,-8 v -24.56 c 0,-16 -15.52,-28.96 -34.64,-28.96 -19.12,0 -34.64,12.96 -34.64,28.96 v 24 H 133.68 v -24 c 0,-16 -15.52,-28.96 -34.64,-28.96 -19.12,0 -34.64,12.96 -34.64,28.96 v 24.56 c -11.56,0.082 -22.946,2.819 -33.28,8 -14.24,7.52 -31.12,24 -31.12,58.8 v 207.6 c 0,34.88 16.96,51.2 31.12,58.8 11.162,5.579 23.526,8.326 36,8 h 270.96 c 12.474,0.326 24.838,-2.421 36,-8 14.24,-7.52 31.12,-24 31.12,-58.8 v -207.44 c 0,-34.96 -16.88,-50.96 -31.12,-58.96 z m -86.4,-32.56 c 0,-7.04 8.48,-12.96 18.64,-12.96 10.16,0 18.64,5.92 18.64,12.96 v 64.56 c 0,7.04 -8.56,12.96 -18.64,12.96 -10.08,0 -18.64,-5.76 -18.64,-12.96 z m -207.2,0 c 0,-7.04 8.56,-12.96 18.64,-12.96 10.08,0 18.64,5.92 18.64,12.96 v 64.56 c 0,7.04 -8.56,12.96 -18.64,12.96 -10.08,0 -18.72,-5.76 -18.72,-12.96 z m 308.72,298.96 c 0,21.68 -8,36.64 -22.64,44.64 -8.817,4.467 -18.599,6.692 -28.48,6.48 H 67.2 c -9.882,0.212 -19.663,-2.013 -28.48,-6.48 -15.04,-8 -22.64,-23.04 -22.64,-44.64 v -163.6 H 389.2 Z m 0,-179.6 H 16.08 v -27.84 c 0,-21.68 8,-36.64 22.64,-44.64 7.985,-3.985 16.757,-6.144 25.68,-6.32 v 24 c 0,16 15.52,28.96 34.64,28.96 19.12,0 34.64,-12.96 34.64,-28.96 v -24 h 138 v 24 c 0,16 15.52,28.96 34.64,28.96 19.12,0 34.56,-12.96 34.56,-28.96 v -24 c 8.923,0.173 17.696,2.332 25.68,6.32 15.04,8 22.64,23.04 22.64,44.64 z"
   id="path2"
   inkscape:connector-curvature="0" />
	</g>
</g>

<g
   id="g14"
   transform="translate(0,-389.20001)">
</g>
<g
   id="g16"
   transform="translate(0,-389.20001)">
</g>
<g
   id="g18"
   transform="translate(0,-389.20001)">
</g>
<g
   id="g20"
   transform="translate(0,-389.20001)">
</g>
<g
   id="g22"
   transform="translate(0,-389.20001)">
</g>
<g
   id="g24"
   transform="translate(0,-389.20001)">
</g>
<g
   id="g26"
   transform="translate(0,-389.20001)">
</g>
<g
   id="g28"
   transform="translate(0,-389.20001)">
</g>
<g
   id="g30"
   transform="translate(0,-389.20001)">
</g>
<g
   id="g32"
   transform="translate(0,-389.20001)">
</g>
<g
   id="g34"
   transform="translate(0,-389.20001)">
</g>
<g
   id="g36"
   transform="translate(0,-389.20001)">
</g>
<g
   id="g38"
   transform="translate(0,-389.20001)">
</g>
<g
   id="g40"
   transform="translate(0,-389.20001)">
</g>
<g
   id="g42"
   transform="translate(0,-389.20001)">
</g>
</svg>