<?xml version="1.0" encoding="UTF-8" standalone="no"?>
<!-- Generator: Adobe Illustrator 19.1.0, SVG Export Plug-In . SVG Version: 6.00 Build 0)  -->

<svg
   xmlns:dc="http://purl.org/dc/elements/1.1/"
   xmlns:cc="http://creativecommons.org/ns#"
   xmlns:rdf="http://www.w3.org/1999/02/22-rdf-syntax-ns#"
   xmlns:svg="http://www.w3.org/2000/svg"
   xmlns="http://www.w3.org/2000/svg"
   xmlns:sodipodi="http://sodipodi.sourceforge.net/DTD/sodipodi-0.dtd"
   xmlns:inkscape="http://www.inkscape.org/namespaces/inkscape"
   version="1.1"
   id="Capa_1"
   x="0px"
   y="0px"
   viewBox="0 0 16 16"
   xml:space="preserve"
   sodipodi:docname="planner-header-symbolic.svg"
   width="16"
   height="16"
   inkscape:version="0.92.3 (2405546, 2018-03-11)"><metadata
   id="metadata41"><rdf:RDF><cc:Work
       rdf:about=""><dc:format>image/svg+xml</dc:format><dc:type
         rdf:resource="http://purl.org/dc/dcmitype/StillImage" /><dc:title /></cc:Work></rdf:RDF></metadata><defs
   id="defs39" /><sodipodi:namedview
   pagecolor="#ffffff"
   bordercolor="#666666"
   borderopacity="1"
   objecttolerance="10"
   gridtolerance="10"
   guidetolerance="10"
   inkscape:pageopacity="0"
   inkscape:pageshadow="2"
   inkscape:window-width="1366"
   inkscape:window-height="705"
   id="namedview37"
   showgrid="false"
   showguides="false"
   inkscape:zoom="17.84155"
   inkscape:cx="0.14360874"
   inkscape:cy="6.1445654"
   inkscape:window-x="0"
   inkscape:window-y="30"
   inkscape:window-maximized="1"
   inkscape:current-layer="Capa_1" />

<g
   id="g6"
   transform="translate(0,-471.85001)">
</g>
<g
   id="g8"
   transform="translate(0,-471.85001)">
</g>
<g
   id="g10"
   transform="translate(0,-471.85001)">
</g>
<g
   id="g12"
   transform="translate(0,-471.85001)">
</g>
<g
   id="g14"
   transform="translate(0,-471.85001)">
</g>
<g
   id="g16"
   transform="translate(0,-471.85001)">
</g>
<g
   id="g18"
   transform="translate(0,-471.85001)">
</g>
<g
   id="g20"
   transform="translate(0,-471.85001)">
</g>
<g
   id="g22"
   transform="translate(0,-471.85001)">
</g>
<g
   id="g24"
   transform="translate(0,-471.85001)">
</g>
<g
   id="g26"
   transform="translate(0,-471.85001)">
</g>
<g
   id="g28"
   transform="translate(0,-471.85001)">
</g>
<g
   id="g30"
   transform="translate(0,-471.85001)">
</g>
<g
   id="g32"
   transform="translate(0,-471.85001)">
</g>
<g
   id="g34"
   transform="translate(0,-471.85001)">
</g>
<g
   id="g836"><g
     style="fill:#666666;fill-opacity:1;stroke-width:34.84642792"
     transform="matrix(0.02869735,0,0,0.02869735,1.3003172,1.044967)"
     id="g4">
	<path
   style="fill:#666666;fill-opacity:1;stroke-width:34.84642792"
   inkscape:connector-curvature="0"
   id="path2"
   d="m 479,215.275 -83.5,-113.9 c -11,-15 -33.3,-26.3 -51.8,-26.3 H 39.2 c -21.6,0 -39.2,17.6 -39.2,39.2 v 259.3 c 0,21.6 17.6,39.2 39.2,39.2 h 304.5 c 18.6,0 40.9,-11.3 51.8,-26.3 l 83.5,-113.9 c 11.8,-16 11.8,-41.2 0,-57.3 z m -21.8,41.5 -83.5,113.9 c -5.8,8 -20.2,15.2 -30.1,15.2 H 39.2 c -6.7,0 -12.2,-5.5 -12.2,-12.2 v -259.4 c 0,-6.7 5.5,-12.2 12.2,-12.2 h 304.5 c 9.9,0 24.2,7.3 30.1,15.2 l 83.5,113.9 c 4.8,6.7 4.8,18.9 -0.1,25.6 z" />
</g><path
     style="fill:#666666;fill-opacity:1;stroke-width:1.00000012"
     inkscape:connector-curvature="0"
     d="m 4.2107849,6.5568301 c -1.980801,0 -3.5857849,1.5873717 -3.5857849,3.5464379 0,1.959064 1.6049839,3.546438 3.5857849,3.546438 1.9808011,0 3.5857851,-1.587374 3.5857851,-3.546438 0,-1.9590662 -1.604984,-3.5464379 -3.5857851,-3.5464379 z M 5.7709468,10.37607 H 4.4866141 v 1.27024 c 0,0.150043 -0.1241287,0.272803 -0.2758292,0.272803 -0.075857,0 -0.1448099,-0.03069 -0.194804,-0.08014 -0.04999,-0.04943 -0.081024,-0.11764 -0.081024,-0.192667 V 10.376067 H 2.6506245 c -0.075857,0 -0.1448114,-0.03069 -0.1948055,-0.08012 -0.049989,-0.04943 -0.081022,-0.117641 -0.081022,-0.192667 0,-0.1500409 0.1241289,-0.2728029 0.2758304,-0.2728029 H 3.9349581 V 8.560231 c 0,-0.150041 0.1241288,-0.2728035 0.2758291,-0.2728035 0.1517062,0 0.2758292,0.1227743 0.2758292,0.2728035 v 1.2702393 h 1.2843325 c 0.1517062,0 0.2758293,0.1227737 0.2758293,0.2728017 0,0.150041 -0.1241289,0.272804 -0.2758293,0.272804 z"
     id="path924" /></g></svg>