<?xml version="1.0" encoding="UTF-8" standalone="no"?>
<!-- Generator: Adobe Illustrator 19.0.0, SVG Export Plug-In . SVG Version: 6.00 Build 0)  -->

<svg
   xmlns:dc="http://purl.org/dc/elements/1.1/"
   xmlns:cc="http://creativecommons.org/ns#"
   xmlns:rdf="http://www.w3.org/1999/02/22-rdf-syntax-ns#"
   xmlns:svg="http://www.w3.org/2000/svg"
   xmlns="http://www.w3.org/2000/svg"
   xmlns:sodipodi="http://sodipodi.sourceforge.net/DTD/sodipodi-0.dtd"
   xmlns:inkscape="http://www.inkscape.org/namespaces/inkscape"
   version="1.1"
   id="Capa_1"
   x="0px"
   y="0px"
   viewBox="0 0 48.000002 48.000002"
   xml:space="preserve"
   sodipodi:docname="planner-inbox.svg"
   inkscape:version="0.92.3 (2405546, 2018-03-11)"
   width="48"
   height="48"><metadata
   id="metadata47"><rdf:RDF><cc:Work
       rdf:about=""><dc:format>image/svg+xml</dc:format><dc:type
         rdf:resource="http://purl.org/dc/dcmitype/StillImage" /><dc:title></dc:title></cc:Work></rdf:RDF></metadata><defs
   id="defs45">
	
	
</defs><sodipodi:namedview
   pagecolor="#ffffff"
   bordercolor="#666666"
   borderopacity="1"
   objecttolerance="10"
   gridtolerance="10"
   guidetolerance="10"
   inkscape:pageopacity="0"
   inkscape:pageshadow="2"
   inkscape:window-width="1366"
   inkscape:window-height="705"
   id="namedview43"
   showgrid="false"
   inkscape:zoom="10.875"
   inkscape:cx="24"
   inkscape:cy="24"
   inkscape:window-x="0"
   inkscape:window-y="30"
   inkscape:window-maximized="1"
   inkscape:current-layer="Capa_1"
   showguides="false" />


<path
   style="fill:#ffffff;fill-opacity:1;stroke-width:0.10416731"
   d="m 45.229386,22.604683 v 17.306259 c 0,0.598647 -0.489798,1.08844 -1.088448,1.08844 H 4.1950598 c -0.5986498,0 -1.0884445,-0.489793 -1.0884445,-1.08844 V 22.604683 H 13.827725 l 3.265333,7.619113 h 14.149883 l 3.265333,-7.619113 z"
   id="path4"
   inkscape:connector-curvature="0" /><path
   inkscape:connector-curvature="0"
   id="path6"
   d="M 46.753251,22.006035 42.171534,6.0059326 C 41.953824,5.3529074 41.300922,4.9718643 40.647792,4.9718643 H 7.6880023 c -0.6530246,0 -1.46813,0.4354179 -1.6858394,1.0340683 L 1.5828555,21.95166 C 1.5283754,22.114884 1.474,22.387079 1.474,22.604683 v 17.306259 c 0,1.523861 1.1972993,2.721058 2.7210589,2.721058 H 44.140938 c 1.523867,0 2.721061,-1.197302 2.721061,-2.721058 V 22.604683 c 0,-0.217609 -0.05436,-0.380936 -0.10876,-0.598648 z M 8.0203074,7.2655058 H 40.368981 L 44.348536,21.94528 h -8.866869 c -0.653023,0 -1.253169,0.380433 -1.525361,0.979084 l -2.990746,6.477516 -13.755805,0.162099 -2.404607,-5.7167 C 14.185263,22.304599 13.833079,21.94528 13.179949,21.94528 H 3.8251602 Z M 3.7668041,40.338766 V 24.237402 h 8.9725809 l 2.829915,6.639523 c 0.272082,0.598649 0.870733,0.979588 1.523863,0.979588 h 14.149778 c 0.653027,0 1.251677,-0.380939 1.523863,-0.979588 l 2.829915,-6.639523 h 8.972273 v 16.101364 z"
   style="fill:#666666;fill-opacity:1;stroke-width:0.10416731"
   sodipodi:nodetypes="ccssccssssssccccsccccsccccccsscccccc" /><path
   inkscape:connector-curvature="0"
   id="path8"
   d="m 22.045591,21.897282 c -0.43542,0 -0.816359,-0.163224 -1.142821,-0.435416 l -4.571488,-4.408155 c -0.653024,-0.653024 -0.653024,-1.632614 -0.05436,-2.285745 0.653026,-0.653023 1.632615,-0.653023 2.285744,-0.05438 l 3.483044,3.374189 7.673485,-6.58504 c 0.707507,-0.598651 1.741472,-0.489795 2.285747,0.163223 0.598649,0.707503 0.489792,1.741468 -0.163225,2.285744 l -8.707561,7.564628 c -0.32667,0.272089 -0.707611,0.380942 -1.08855,0.380942 z"
   style="fill:#666666;fill-opacity:1;stroke-width:0.10416731" />
<g
   id="g12"
   transform="translate(0,-387.72198)">
</g>
<g
   id="g14"
   transform="translate(0,-387.72198)">
</g>
<g
   id="g16"
   transform="translate(0,-387.72198)">
</g>
<g
   id="g18"
   transform="translate(0,-387.72198)">
</g>
<g
   id="g20"
   transform="translate(0,-387.72198)">
</g>
<g
   id="g22"
   transform="translate(0,-387.72198)">
</g>
<g
   id="g24"
   transform="translate(0,-387.72198)">
</g>
<g
   id="g26"
   transform="translate(0,-387.72198)">
</g>
<g
   id="g28"
   transform="translate(0,-387.72198)">
</g>
<g
   id="g30"
   transform="translate(0,-387.72198)">
</g>
<g
   id="g32"
   transform="translate(0,-387.72198)">
</g>
<g
   id="g34"
   transform="translate(0,-387.72198)">
</g>
<g
   id="g36"
   transform="translate(0,-387.72198)">
</g>
<g
   id="g38"
   transform="translate(0,-387.72198)">
</g>
<g
   id="g40"
   transform="translate(0,-387.72198)">
</g>
</svg>