<?xml version="1.0" encoding="UTF-8" standalone="no"?>
<!-- Generator: Adobe Illustrator 18.1.1, SVG Export Plug-In . SVG Version: 6.00 Build 0)  -->

<svg
   xmlns:dc="http://purl.org/dc/elements/1.1/"
   xmlns:cc="http://creativecommons.org/ns#"
   xmlns:rdf="http://www.w3.org/1999/02/22-rdf-syntax-ns#"
   xmlns:svg="http://www.w3.org/2000/svg"
   xmlns="http://www.w3.org/2000/svg"
   xmlns:sodipodi="http://sodipodi.sourceforge.net/DTD/sodipodi-0.dtd"
   xmlns:inkscape="http://www.inkscape.org/namespaces/inkscape"
   version="1.1"
   id="Capa_1"
   x="0px"
   y="0px"
   viewBox="0 0 16 16"
   xml:space="preserve"
   sodipodi:docname="planner-checklist-symbolic.svg"
   width="16"
   height="16"
   inkscape:version="0.92.3 (2405546, 2018-03-11)"><metadata
   id="metadata39"><rdf:RDF><cc:Work
       rdf:about=""><dc:format>image/svg+xml</dc:format><dc:type
         rdf:resource="http://purl.org/dc/dcmitype/StillImage" /><dc:title></dc:title></cc:Work></rdf:RDF></metadata><defs
   id="defs37" /><sodipodi:namedview
   pagecolor="#ffffff"
   bordercolor="#666666"
   borderopacity="1"
   objecttolerance="10"
   gridtolerance="10"
   guidetolerance="10"
   inkscape:pageopacity="0"
   inkscape:pageshadow="2"
   inkscape:window-width="1366"
   inkscape:window-height="705"
   id="namedview35"
   showgrid="false"
   inkscape:zoom="32.625"
   inkscape:cx="8"
   inkscape:cy="8"
   inkscape:window-x="0"
   inkscape:window-y="30"
   inkscape:window-maximized="1"
   inkscape:current-layer="Capa_1" />
<g
   id="_x37_7_Essential_Icons_65_"
   transform="matrix(0.18421053,0,0,0.18421053,0.98084291,1.1417625)">
	<path
   id="Tick"
   d="M 38,0 C 17,0 0,17 0,38 0,59 17,76 38,76 59,76 76,59 76,38 76,17 59,0 38,0 Z m 0,72 C 19.2,72 4,56.8 4,38 4,19.2 19.2,4 38,4 56.8,4 72,19.2 72,38 72,56.8 56.8,72 38,72 Z M 60.9,25.1 c -0.8,-0.8 -2,-0.8 -2.8,0 L 32.6,50.7 21.9,40 c -0.8,-0.8 -2.1,-0.8 -2.8,0 -0.8,0.8 -0.8,2.1 0,2.8 l 12.1,12.1 c 0.4,0.4 0.9,0.6 1.4,0.6 0.5,0 1,-0.2 1.4,-0.6 l 26.9,-27 c 0.8,-0.8 0.8,-2 0,-2.8 z"
   inkscape:connector-curvature="0" />
</g>
<g
   id="g4"
   transform="translate(0,-60)">
</g>
<g
   id="g6"
   transform="translate(0,-60)">
</g>
<g
   id="g8"
   transform="translate(0,-60)">
</g>
<g
   id="g10"
   transform="translate(0,-60)">
</g>
<g
   id="g12"
   transform="translate(0,-60)">
</g>
<g
   id="g14"
   transform="translate(0,-60)">
</g>
<g
   id="g16"
   transform="translate(0,-60)">
</g>
<g
   id="g18"
   transform="translate(0,-60)">
</g>
<g
   id="g20"
   transform="translate(0,-60)">
</g>
<g
   id="g22"
   transform="translate(0,-60)">
</g>
<g
   id="g24"
   transform="translate(0,-60)">
</g>
<g
   id="g26"
   transform="translate(0,-60)">
</g>
<g
   id="g28"
   transform="translate(0,-60)">
</g>
<g
   id="g30"
   transform="translate(0,-60)">
</g>
<g
   id="g32"
   transform="translate(0,-60)">
</g>
</svg>