<?xml version="1.0" encoding="UTF-8" standalone="no"?>
<svg
   xmlns:dc="http://purl.org/dc/elements/1.1/"
   xmlns:cc="http://creativecommons.org/ns#"
   xmlns:rdf="http://www.w3.org/1999/02/22-rdf-syntax-ns#"
   xmlns:svg="http://www.w3.org/2000/svg"
   xmlns="http://www.w3.org/2000/svg"
   xmlns:sodipodi="http://sodipodi.sourceforge.net/DTD/sodipodi-0.dtd"
   xmlns:inkscape="http://www.inkscape.org/namespaces/inkscape"
   viewBox="0 0 16 16"
   version="1.1"
   id="svg10"
   sodipodi:docname="planner-checklist-symbolic.svg"
   width="16"
   height="16"
   inkscape:version="0.92.3 (2405546, 2018-03-11)">
  <metadata
     id="metadata16">
    <rdf:RDF>
      <cc:Work
         rdf:about="">
        <dc:format>image/svg+xml</dc:format>
        <dc:type
           rdf:resource="http://purl.org/dc/dcmitype/StillImage" />
        <dc:title />
      </cc:Work>
    </rdf:RDF>
  </metadata>
  <defs
     id="defs14" />
  <sodipodi:namedview
     pagecolor="#ffffff"
     bordercolor="#666666"
     borderopacity="1"
     objecttolerance="10"
     gridtolerance="10"
     guidetolerance="10"
     inkscape:pageopacity="0"
     inkscape:pageshadow="2"
     inkscape:window-width="1366"
     inkscape:window-height="705"
     id="namedview12"
     showgrid="false"
     inkscape:zoom="10.429825"
     inkscape:cx="2.972103"
     inkscape:cy="1.5587547"
     inkscape:window-x="0"
     inkscape:window-y="30"
     inkscape:window-maximized="1"
     inkscape:current-layer="svg10" />
  <g
     id="g843">
    <g
       id="g827">
      <ellipse
         style="fill:#666666;fill-opacity:1;stroke-width:1"
         cx="2.0208333"
         cy="7.9999995"
         id="circle2"
         rx="1.0208333"
         ry="1.0208027" />
    </g>
    <g
       id="g824">
      <ellipse
         style="fill:#666666;fill-opacity:1;stroke-width:1"
         cx="2.0208333"
         cy="3.4793017"
         id="circle4"
         rx="1.0208333"
         ry="1.0208027" />
    </g>
    <g
       id="g830">
      <ellipse
         style="fill:#666666;fill-opacity:1;stroke-width:1"
         cx="2.0208333"
         cy="12.520698"
         id="circle6"
         rx="1.0208333"
         ry="1.0208027" />
    </g>
    <g
       id="g833">
      <path
         style="fill:#666666;fill-opacity:1;stroke-width:1"
         d="M 14.416665,7.4166836 H 5.6484371 c -0.3208333,0 -0.5833333,0.2624921 -0.5833333,0.5833158 0,0.3208237 0.2625,0.5833158 0.5833333,0.5833158 h 8.7682279 c 0.320834,0 0.583334,-0.2624921 0.583334,-0.5833158 0,-0.3208237 -0.2625,-0.5833158 -0.583334,-0.5833158 z m 0,4.5206974 H 5.6484371 c -0.3208333,0 -0.5833333,0.262492 -0.5833333,0.583316 0,0.320824 0.2625,0.583316 0.5833333,0.583316 h 8.7682279 c 0.320834,0 0.583334,-0.262492 0.583334,-0.583316 0,-0.320824 -0.2625,-0.583316 -0.583334,-0.583316 z M 5.6484371,4.0626175 h 8.7682279 c 0.320834,0 0.583334,-0.2624921 0.583334,-0.5833159 0,-0.3208237 -0.2625,-0.5833158 -0.583334,-0.5833158 H 5.6484371 c -0.3208333,0 -0.5833333,0.2624921 -0.5833333,0.5833158 0,0.3208238 0.2625,0.5833159 0.5833333,0.5833159 z"
         id="path8"
         inkscape:connector-curvature="0" />
    </g>
  </g>
</svg>
