<?xml version="1.0" encoding="UTF-8" standalone="no"?>
<!-- Generator: Adobe Illustrator 16.0.0, SVG Export Plug-In . SVG Version: 6.00 Build 0)  -->

<svg
   xmlns:dc="http://purl.org/dc/elements/1.1/"
   xmlns:cc="http://creativecommons.org/ns#"
   xmlns:rdf="http://www.w3.org/1999/02/22-rdf-syntax-ns#"
   xmlns:svg="http://www.w3.org/2000/svg"
   xmlns="http://www.w3.org/2000/svg"
   xmlns:sodipodi="http://sodipodi.sourceforge.net/DTD/sodipodi-0.dtd"
   xmlns:inkscape="http://www.inkscape.org/namespaces/inkscape"
   version="1.1"
   id="Capa_1"
   x="0px"
   y="0px"
   width="16"
   height="16"
   viewBox="0 0 15.999999 15.999999"
   xml:space="preserve"
   sodipodi:docname="planner-calendar-symbolic.svg"
   inkscape:version="0.92.3 (2405546, 2018-03-11)"><metadata
   id="metadata44"><rdf:RDF><cc:Work
       rdf:about=""><dc:format>image/svg+xml</dc:format><dc:type
         rdf:resource="http://purl.org/dc/dcmitype/StillImage" /><dc:title></dc:title></cc:Work></rdf:RDF></metadata><defs
   id="defs42">
	

		
	
			
		</defs><sodipodi:namedview
   pagecolor="#ffffff"
   bordercolor="#666666"
   borderopacity="1"
   objecttolerance="10"
   gridtolerance="10"
   guidetolerance="10"
   inkscape:pageopacity="0"
   inkscape:pageshadow="2"
   inkscape:window-width="1366"
   inkscape:window-height="705"
   id="namedview40"
   showgrid="false"
   inkscape:zoom="24.041631"
   inkscape:cx="12.391056"
   inkscape:cy="11.12612"
   inkscape:window-x="0"
   inkscape:window-y="30"
   inkscape:window-maximized="1"
   inkscape:current-layer="Capa_1" />
<path
   inkscape:connector-curvature="0"
   style="fill:#666666;fill-opacity:1;stroke-width:1.00000095"
   id="path2"
   d="M 12.812522,1.8749961 H 11.062501 V 1.4374967 c 0,-0.241504 -0.195996,-0.43749943 -0.437479,-0.43749943 -0.241483,0 -0.4375,0.19599543 -0.4375,0.43749943 V 1.8749961 H 5.8125218 V 1.4374967 C 5.8125004,1.1959927 5.6165046,0.99999727 5.3750003,0.99999727 c -0.2415043,0 -0.4375,0.19599543 -0.4375,0.43749943 V 1.8749961 H 3.1875002 C 2.2210755,1.8749961 1.4375,2.6585704 1.4375,3.6249938 V 13.24996 C 1.4375,14.216404 2.2210755,15 3.1875002,15 h 9.6250008 c 0.966425,0 1.75,-0.783574 1.75,-1.75004 V 3.6249938 c 0,-0.9664448 -0.783554,-1.7499977 -1.749979,-1.7499977 z m 0.875,11.3749639 c 0,0.483458 -0.391562,0.87502 -0.875,0.87502 H 3.1875002 c -0.4834376,0 -0.8750001,-0.392012 -0.8750001,-0.87502 V 5.3749915 H 13.687501 V 13.24996 Z m 0,-8.7499674 H 2.3125001 V 3.6249938 c 0,-0.4834369 0.3915625,-0.8749988 0.8750001,-0.8749988 h 1.7500001 v 0.4374994 c 0,0.2415039 0.1959957,0.4374994 0.4375,0.4374994 0.2415043,0 0.4375001,-0.1959955 0.4375001,-0.4374994 V 2.749995 h 4.3750006 v 0.4374994 c 0,0.2415039 0.196017,0.4374994 0.4375,0.4374994 0.241483,0 0.4375,-0.1959955 0.4375,-0.4374994 V 2.749995 h 1.750021 c 0.483438,0 0.875,0.3915619 0.875,0.8749988 z"
   sodipodi:nodetypes="scssscccsscsssssssscsssccccccsscsssccssscssc" />
<g
   id="g9"
   transform="translate(0,-636.80103)">
</g>
<g
   id="g11"
   transform="translate(0,-636.80103)">
</g>
<g
   id="g13"
   transform="translate(0,-636.80103)">
</g>
<g
   id="g15"
   transform="translate(0,-636.80103)">
</g>
<g
   id="g17"
   transform="translate(0,-636.80103)">
</g>
<g
   id="g19"
   transform="translate(0,-636.80103)">
</g>
<g
   id="g21"
   transform="translate(0,-636.80103)">
</g>
<g
   id="g23"
   transform="translate(0,-636.80103)">
</g>
<g
   id="g25"
   transform="translate(0,-636.80103)">
</g>
<g
   id="g27"
   transform="translate(0,-636.80103)">
</g>
<g
   id="g29"
   transform="translate(0,-636.80103)">
</g>
<g
   id="g31"
   transform="translate(0,-636.80103)">
</g>
<g
   id="g33"
   transform="translate(0,-636.80103)">
</g>
<g
   id="g35"
   transform="translate(0,-636.80103)">
</g>
<g
   id="g37"
   transform="translate(0,-636.80103)">
</g>
</svg>