<?xml version="1.0" encoding="UTF-8" standalone="no"?>
<svg
   xmlns:dc="http://purl.org/dc/elements/1.1/"
   xmlns:cc="http://creativecommons.org/ns#"
   xmlns:rdf="http://www.w3.org/1999/02/22-rdf-syntax-ns#"
   xmlns:svg="http://www.w3.org/2000/svg"
   xmlns="http://www.w3.org/2000/svg"
   xmlns:sodipodi="http://sodipodi.sourceforge.net/DTD/sodipodi-0.dtd"
   xmlns:inkscape="http://www.inkscape.org/namespaces/inkscape"
   viewBox="0 0 16 16"
   version="1.1"
   id="svg4"
   sodipodi:docname="_ionicons_svg_ios-pricetag.svg"
   width="16"
   height="16"
   inkscape:version="0.92.3 (2405546, 2018-03-11)">
  <metadata
     id="metadata10">
    <rdf:RDF>
      <cc:Work
         rdf:about="">
        <dc:format>image/svg+xml</dc:format>
        <dc:type
           rdf:resource="http://purl.org/dc/dcmitype/StillImage" />
        <dc:title></dc:title>
      </cc:Work>
    </rdf:RDF>
  </metadata>
  <defs
     id="defs8" />
  <sodipodi:namedview
     pagecolor="#ffffff"
     bordercolor="#666666"
     borderopacity="1"
     objecttolerance="10"
     gridtolerance="10"
     guidetolerance="10"
     inkscape:pageopacity="0"
     inkscape:pageshadow="2"
     inkscape:window-width="975"
     inkscape:window-height="513"
     id="namedview6"
     showgrid="false"
     inkscape:zoom="2.6074563"
     inkscape:cx="57.865686"
     inkscape:cy="11.399321"
     inkscape:window-x="172"
     inkscape:window-y="147"
     inkscape:window-maximized="0"
     inkscape:current-layer="svg4" />
  <g
     id="g813">
    <path
       inkscape:connector-curvature="0"
       style="fill:#666666;fill-opacity:1;stroke-width:1.00000012"
       id="path2"
       d="M 14.032591,1 H 9.896431 C 9.7685439,1 9.6440208,1.0505 9.5531536,1.14135 L 1.2841992,9.4101 c -0.37693227,0.37692 -0.37693227,0.99278 0,1.36971 l 3.9375978,3.9375 c 0.3769323,0.37692 0.9928124,0.37692 1.3697447,0 L 14.857131,6.45192 C 14.948003,6.36102 14.99848,6.23654 14.99848,6.10865 V 1.96923 C 15.001845,1.43413 14.5677,1 14.032591,1 Z m -1.605328,3.7625 c -0.686556,0.074 -1.258685,-0.50144 -1.18801,-1.18798 0.05385,-0.49808 0.454338,-0.90192 0.952427,-0.95241 0.686555,-0.074 1.258685,0.50145 1.18801,1.18799 -0.05385,0.49807 -0.454339,0.89855 -0.952427,0.9524 z" />
  </g>
</svg>
