<?xml version="1.0" encoding="UTF-8" standalone="no"?>
<svg
   xmlns:osb="http://www.openswatchbook.org/uri/2009/osb"
   xmlns:dc="http://purl.org/dc/elements/1.1/"
   xmlns:cc="http://creativecommons.org/ns#"
   xmlns:rdf="http://www.w3.org/1999/02/22-rdf-syntax-ns#"
   xmlns:svg="http://www.w3.org/2000/svg"
   xmlns="http://www.w3.org/2000/svg"
   xmlns:xlink="http://www.w3.org/1999/xlink"
   xmlns:sodipodi="http://sodipodi.sourceforge.net/DTD/sodipodi-0.dtd"
   xmlns:inkscape="http://www.inkscape.org/namespaces/inkscape"
   height="24"
   id="svg11300"
   style="display:inline;enable-background:new"
   version="1.0"
   viewBox="0 0 24 24"
   width="24"
   sodipodi:docname="planner-github.svg"
   inkscape:version="0.92.3 (2405546, 2018-03-11)">
  <sodipodi:namedview
     pagecolor="#ffffff"
     bordercolor="#666666"
     borderopacity="1"
     objecttolerance="10"
     gridtolerance="10"
     guidetolerance="10"
     inkscape:pageopacity="0"
     inkscape:pageshadow="2"
     inkscape:window-width="1366"
     inkscape:window-height="705"
     id="namedview43"
     showgrid="false"
     inkscape:zoom="21.75"
     inkscape:cx="12"
     inkscape:cy="12"
     inkscape:window-x="0"
     inkscape:window-y="30"
     inkscape:window-maximized="1"
     inkscape:current-layer="svg11300" />
  <metadata
     id="metadata93">
    <rdf:RDF>
      <cc:Work
         rdf:about="">
        <dc:format>image/svg+xml</dc:format>
        <dc:type
           rdf:resource="http://purl.org/dc/dcmitype/StillImage" />
        <dc:title>elementary Icon Template</dc:title>
      </cc:Work>
    </rdf:RDF>
  </metadata>
  <title
     id="title4162">elementary Icon Template</title>
  <defs
     id="defs3">
    <linearGradient
       id="linearGradient7258">
      <stop
         id="stop7254"
         offset="0"
         style="stop-color:#ffffff;stop-opacity:1;" />
      <stop
         id="stop7256"
         offset="1"
         style="stop-color:#eef8fe;stop-opacity:1" />
    </linearGradient>
    <linearGradient
       id="linearGradient3924-4-8">
      <stop
         id="stop3926-0-4"
         offset="0"
         style="stop-color:#ffffff;stop-opacity:1" />
      <stop
         id="stop3928-6-8"
         offset="0.06316455"
         style="stop-color:#ffffff;stop-opacity:0.23529412" />
      <stop
         id="stop3930-2-1"
         offset="0.95056331"
         style="stop-color:#ffffff;stop-opacity:0.15686275" />
      <stop
         id="stop3932-9-0"
         offset="1"
         style="stop-color:#ffffff;stop-opacity:0.39215687" />
    </linearGradient>
    <linearGradient
       id="linearGradient3702-501-757-6-946">
      <stop
         id="stop3228"
         offset="0"
         style="stop-color:#181818;stop-opacity:0" />
      <stop
         id="stop3230"
         offset="0.5"
         style="stop-color:#181818;stop-opacity:1" />
      <stop
         id="stop3232"
         offset="1"
         style="stop-color:#181818;stop-opacity:0" />
    </linearGradient>
    <linearGradient
       gradientTransform="matrix(0.51258152,0,0,0.51258152,-0.68126565,-0.68126247)"
       gradientUnits="userSpaceOnUse"
       xlink:href="#linearGradient3702-501-757-6-946"
       id="linearGradient4161"
       x1="23.99999"
       x2="23.99999"
       y1="4.999989"
       y2="43" />
    <radialGradient
       cx="7.9001698"
       cy="10.028383"
       fx="6.6329827"
       fy="10.028382"
       gradientTransform="matrix(6.0103372e-7,3.1565973,-2.8409371,5.4093024e-7,44.49,-26.93766)"
       gradientUnits="userSpaceOnUse"
       xlink:href="#linearGradient3688-166-749-6"
       id="radialGradient5600-7"
       r="12.671875" />
    <radialGradient
       cx="4.9929786"
       cy="43.5"
       fx="4.9929786"
       fy="43.5"
       gradientTransform="matrix(1.1200825,0,0,0.45517231,13.849992,2.0620765)"
       gradientUnits="userSpaceOnUse"
       xlink:href="#linearGradient3688-166-749-6"
       id="radialGradient2976"
       r="2.5" />
    <linearGradient
       id="linearGradient3688-166-749-6">
      <stop
         id="stop2883-8"
         offset="0"
         style="stop-color:#181818;stop-opacity:1" />
      <stop
         id="stop2885-3"
         offset="1"
         style="stop-color:#181818;stop-opacity:0" />
    </linearGradient>
    <radialGradient
       cx="4.9929786"
       cy="43.5"
       fx="4.9929786"
       fy="43.5"
       gradientTransform="matrix(1.1200825,0,0,0.45517231,-9.3913965,-41.662067)"
       gradientUnits="userSpaceOnUse"
       xlink:href="#linearGradient3688-166-749-6"
       id="radialGradient2978"
       r="2.5" />
    <linearGradient
       gradientTransform="matrix(0.55898362,0,0,0.32512307,-1.7949132,7.7192168)"
       gradientUnits="userSpaceOnUse"
       xlink:href="#linearGradient3702-501-757-6-946"
       id="linearGradient2980"
       x1="25.058096"
       x2="25.058096"
       y1="47.027729"
       y2="39.999443" />
    <linearGradient
       id="linearGradient2867-449-88-871-390-598-476-591-434-148-57-177-8-3-3-6-4-8-8-8-5-6">
      <stop
         id="stop3750-1-0-7-6-6-1-3-9-5-1"
         offset="0"
         style="stop-color:#74c5f7;stop-opacity:1" />
      <stop
         id="stop7287"
         offset="0.609375"
         style="stop-color:#1da1f2;stop-opacity:1" />
      <stop
         id="stop3756-1-6-2-6-6-1-96-6-2-3"
         offset="1"
         style="stop-color:#0d8cdb;stop-opacity:1" />
    </linearGradient>
    <linearGradient
       gradientTransform="matrix(0.94444444,0,0,0.94444444,-59.096045,-137.53467)"
       gradientUnits="userSpaceOnUse"
       xlink:href="#linearGradient7258"
       id="linearGradient7260"
       x1="129"
       x2="129"
       y1="141"
       y2="164" />
    <linearGradient
       id="linearGradient4526"
       osb:paint="solid">
      <stop
         id="stop4528"
         offset="0"
         style="stop-color:#ffffff;stop-opacity:1;" />
    </linearGradient>
  </defs>
  <g
     id="g890"
     transform="translate(0.30080333,0.27976757)">
    <rect
       height="2.2758615"
       id="rect2801-0-3"
       style="opacity:0.4;fill:url(#radialGradient2976);fill-opacity:1;stroke:none;stroke-width:0.42630798"
       width="2.7949181"
       x="19.446472"
       y="20.724138" />
    <rect
       height="2.2758615"
       id="rect3696-2-6"
       style="opacity:0.4;fill:url(#radialGradient2978);fill-opacity:1;stroke:none;stroke-width:0.42630798"
       transform="scale(-1)"
       width="2.7949181"
       x="-3.7949181"
       y="-23" />
    <rect
       height="2.2758615"
       id="rect3700-1-7"
       style="opacity:0.4;fill:url(#linearGradient2980);fill-opacity:1;stroke:none;stroke-width:0.42630798"
       width="15.651543"
       x="3.7949181"
       y="20.724138" />
    <rect
       height="20.482759"
       id="rect5505-5"
       rx="1.6386207"
       ry="1.6386207"
       style="color:#000000;display:inline;overflow:visible;visibility:visible;fill:#211f1f;fill-opacity:1;fill-rule:nonzero;stroke:none;stroke-width:0.75862068;marker:none;enable-background:accumulate"
       width="20.482759"
       x="1.3793151"
       y="1.3793104" />
    <rect
       height="18.965517"
       id="rect6741-7-4-3"
       rx="0.8245877"
       ry="0.8245877"
       style="opacity:0.5;fill:none;stroke:url(#linearGradient4161);stroke-width:0.75862068;stroke-linecap:round;stroke-linejoin:round;stroke-miterlimit:4;stroke-dasharray:none;stroke-dashoffset:0;stroke-opacity:1"
       width="18.965517"
       x="2.1379359"
       y="2.1379316" />
    <rect
       height="20.482759"
       id="rect5505-6"
       rx="1.6386207"
       ry="1.6386207"
       style="color:#000000;clip-rule:nonzero;display:inline;overflow:visible;visibility:visible;opacity:1;isolation:auto;mix-blend-mode:normal;color-interpolation:sRGB;color-interpolation-filters:linearRGB;solid-color:#000000;solid-opacity:1;fill:none;fill-opacity:1;fill-rule:nonzero;stroke:#211f1f;stroke-width:0.75862068;stroke-linecap:round;stroke-linejoin:round;stroke-miterlimit:4;stroke-dasharray:none;stroke-dashoffset:0;stroke-opacity:0.65;marker:none;color-rendering:auto;image-rendering:auto;shape-rendering:auto;text-rendering:auto;enable-background:accumulate"
       width="20.482759"
       x="1.3793151"
       y="1.3793104" />
    <g
       style="fill:#ffffff;fill-opacity:1"
       transform="matrix(0.25733422,0,0,0.25733422,3.3514638,3.0178162)"
       id="g897">
      <g
         style="fill:#ffffff;fill-opacity:1"
         id="g3"
         transform="matrix(0.14137626,0,0,0.14137626,0.99999988,0.99963165)">
        <path
           style="fill:#ffffff;fill-opacity:1"
           d="M 409.132,114.573 C 389.524,80.977 362.927,54.379 329.334,34.773 295.736,15.166 259.057,5.365 219.271,5.365 c -39.781,0 -76.472,9.804 -110.063,29.408 -33.596,19.605 -60.192,46.204 -79.8,79.8 C 9.803,148.168 0,184.854 0,224.63 c 0,47.78 13.94,90.745 41.827,128.906 27.884,38.164 63.906,64.572 108.063,79.227 5.14,0.954 8.945,0.283 11.419,-1.996 2.475,-2.282 3.711,-5.14 3.711,-8.562 0,-0.571 -0.049,-5.708 -0.144,-15.417 -0.098,-9.709 -0.144,-18.179 -0.144,-25.406 l -6.567,1.136 c -4.187,0.767 -9.469,1.092 -15.846,1 -6.374,-0.089 -12.991,-0.757 -19.842,-1.999 -6.854,-1.231 -13.229,-4.086 -19.13,-8.559 -5.898,-4.473 -10.085,-10.328 -12.56,-17.556 l -2.855,-6.57 c -1.903,-4.374 -4.899,-9.233 -8.992,-14.559 -4.093,-5.331 -8.232,-8.945 -12.419,-10.848 l -1.999,-1.431 c -1.332,-0.951 -2.568,-2.098 -3.711,-3.429 -1.142,-1.331 -1.997,-2.663 -2.568,-3.997 -0.572,-1.335 -0.098,-2.43 1.427,-3.289 1.525,-0.859 4.281,-1.276 8.28,-1.276 l 5.708,0.853 c 3.807,0.763 8.516,3.042 14.133,6.851 5.614,3.806 10.229,8.754 13.846,14.842 4.38,7.806 9.657,13.754 15.846,17.847 6.184,4.093 12.419,6.136 18.699,6.136 6.28,0 11.704,-0.476 16.274,-1.423 4.565,-0.952 8.848,-2.383 12.847,-4.285 1.713,-12.758 6.377,-22.559 13.988,-29.41 -10.848,-1.14 -20.601,-2.857 -29.264,-5.14 -8.658,-2.286 -17.605,-5.996 -26.835,-11.14 -9.235,-5.137 -16.896,-11.516 -22.985,-19.126 -6.09,-7.614 -11.088,-17.61 -14.987,-29.979 -3.901,-12.374 -5.852,-26.648 -5.852,-42.826 0,-23.035 7.52,-42.637 22.557,-58.817 -7.044,-17.318 -6.379,-36.732 1.997,-58.24 5.52,-1.715 13.706,-0.428 24.554,3.853 10.85,4.283 18.794,7.952 23.84,10.994 5.046,3.041 9.089,5.618 12.135,7.708 17.705,-4.947 35.976,-7.421 54.818,-7.421 18.842,0 37.117,2.474 54.823,7.421 l 10.849,-6.849 c 7.419,-4.57 16.18,-8.758 26.262,-12.565 10.088,-3.805 17.802,-4.853 23.134,-3.138 8.562,21.509 9.325,40.922 2.279,58.24 15.036,16.18 22.559,35.787 22.559,58.817 0,16.178 -1.958,30.497 -5.853,42.966 -3.9,12.471 -8.941,22.457 -15.125,29.979 -6.191,7.521 -13.901,13.85 -23.131,18.986 -9.232,5.14 -18.182,8.85 -26.84,11.136 -8.662,2.286 -18.415,4.004 -29.263,5.146 9.894,8.562 14.842,22.077 14.842,40.539 v 60.237 c 0,3.422 1.19,6.279 3.572,8.562 2.379,2.279 6.136,2.95 11.276,1.995 44.163,-14.653 80.185,-41.062 108.068,-79.226 27.88,-38.161 41.825,-81.126 41.825,-128.906 -0.01,-39.771 -9.818,-76.454 -29.414,-110.049 z"
           id="path5"
           inkscape:connector-curvature="0" />
      </g>
      <g
         style="fill:#ffffff;fill-opacity:1"
         id="g7"
         transform="translate(0,-374.54901)" />
      <g
         style="fill:#ffffff;fill-opacity:1"
         id="g9"
         transform="translate(0,-374.54901)" />
      <g
         style="fill:#ffffff;fill-opacity:1"
         id="g11"
         transform="translate(0,-374.54901)" />
      <g
         style="fill:#ffffff;fill-opacity:1"
         id="g13"
         transform="translate(0,-374.54901)" />
      <g
         style="fill:#ffffff;fill-opacity:1"
         id="g15"
         transform="translate(0,-374.54901)" />
      <g
         style="fill:#ffffff;fill-opacity:1"
         id="g17"
         transform="translate(0,-374.54901)" />
      <g
         style="fill:#ffffff;fill-opacity:1"
         id="g19"
         transform="translate(0,-374.54901)" />
      <g
         style="fill:#ffffff;fill-opacity:1"
         id="g21"
         transform="translate(0,-374.54901)" />
      <g
         style="fill:#ffffff;fill-opacity:1"
         id="g23"
         transform="translate(0,-374.54901)" />
      <g
         style="fill:#ffffff;fill-opacity:1"
         id="g25"
         transform="translate(0,-374.54901)" />
      <g
         style="fill:#ffffff;fill-opacity:1"
         id="g27"
         transform="translate(0,-374.54901)" />
      <g
         style="fill:#ffffff;fill-opacity:1"
         id="g29"
         transform="translate(0,-374.54901)" />
      <g
         style="fill:#ffffff;fill-opacity:1"
         id="g31"
         transform="translate(0,-374.54901)" />
      <g
         style="fill:#ffffff;fill-opacity:1"
         id="g33"
         transform="translate(0,-374.54901)" />
      <g
         style="fill:#ffffff;fill-opacity:1"
         id="g35"
         transform="translate(0,-374.54901)" />
    </g>
  </g>
</svg>
