<?xml version="1.0" encoding="UTF-8" standalone="no"?>
<svg
   xmlns:dc="http://purl.org/dc/elements/1.1/"
   xmlns:cc="http://creativecommons.org/ns#"
   xmlns:rdf="http://www.w3.org/1999/02/22-rdf-syntax-ns#"
   xmlns:svg="http://www.w3.org/2000/svg"
   xmlns="http://www.w3.org/2000/svg"
   xmlns:sodipodi="http://sodipodi.sourceforge.net/DTD/sodipodi-0.dtd"
   xmlns:inkscape="http://www.inkscape.org/namespaces/inkscape"
   height="16pt"
   viewBox="0 -110 16.000011 16"
   width="16pt"
   version="1.1"
   id="svg4"
   sodipodi:docname="planner-label-symbolic.svg"
   inkscape:version="0.92.3 (2405546, 2018-03-11)">
  <metadata
     id="metadata10">
    <rdf:RDF>
      <cc:Work
         rdf:about="">
        <dc:format>image/svg+xml</dc:format>
        <dc:type
           rdf:resource="http://purl.org/dc/dcmitype/StillImage" />
        <dc:title></dc:title>
      </cc:Work>
    </rdf:RDF>
  </metadata>
  <defs
     id="defs8" />
  <sodipodi:namedview
     pagecolor="#ffffff"
     bordercolor="#666666"
     borderopacity="1"
     objecttolerance="10"
     gridtolerance="10"
     guidetolerance="10"
     inkscape:pageopacity="0"
     inkscape:pageshadow="2"
     inkscape:window-width="1366"
     inkscape:window-height="705"
     id="namedview6"
     showgrid="false"
     inkscape:zoom="7.8223687"
     inkscape:cx="14.02465"
     inkscape:cy="12.95202"
     inkscape:window-x="0"
     inkscape:window-y="30"
     inkscape:window-maximized="1"
     inkscape:current-layer="svg4" />
  <g
     id="g818"
     transform="matrix(-0.02116787,0.02116787,-0.02116787,-0.02116787,17.547184,-105.2912)"
     style="stroke-width:33.40471268">
    <path
       style="fill:#666666;fill-opacity:1;stroke-width:33.40471268"
       id="path2"
       d="M 463.5,291.01172 H 131.32422 c -9.32813,0.004 -18.20313,-4.02344 -24.34766,-11.04297 L 7.953125,166.79687 c -10.605469,-12.21484 -10.605469,-30.36718 0,-42.58203 L 106.97656,11.042969 C 113.12109,4.023438 121.99609,-0.00390625 131.32422,0 H 463.5 C 490.28516,0 512,21.714844 512,48.503906 V 242.50781 c 0,26.78906 -21.71484,48.50391 -48.5,48.50391 z M 131.32422,32.335938 32.300781,145.50391 131.32422,258.67578 H 463.5 c 8.92969,0 16.16797,-7.23828 16.16797,-16.16797 V 48.503906 c 0,-8.929687 -7.23828,-16.167968 -16.16797,-16.167968 z m 0,0"
       inkscape:connector-curvature="0" />
  </g>
</svg>
