<?xml version="1.0" encoding="UTF-8" standalone="no"?>
<svg
   xmlns:dc="http://purl.org/dc/elements/1.1/"
   xmlns:cc="http://creativecommons.org/ns#"
   xmlns:rdf="http://www.w3.org/1999/02/22-rdf-syntax-ns#"
   xmlns:svg="http://www.w3.org/2000/svg"
   xmlns="http://www.w3.org/2000/svg"
   xmlns:sodipodi="http://sodipodi.sourceforge.net/DTD/sodipodi-0.dtd"
   xmlns:inkscape="http://www.inkscape.org/namespaces/inkscape"
   viewBox="0 0 16 16"
   version="1.1"
   id="svg8"
   sodipodi:docname="_ionicons_svg_ios-alarm (1).svg"
   inkscape:version="0.92.3 (2405546, 2018-03-11)"
   width="16"
   height="16">
  <metadata
     id="metadata14">
    <rdf:RDF>
      <cc:Work
         rdf:about="">
        <dc:format>image/svg+xml</dc:format>
        <dc:type
           rdf:resource="http://purl.org/dc/dcmitype/StillImage" />
        <dc:title />
      </cc:Work>
    </rdf:RDF>
  </metadata>
  <defs
     id="defs12" />
  <sodipodi:namedview
     pagecolor="#ffffff"
     bordercolor="#666666"
     borderopacity="1"
     objecttolerance="10"
     gridtolerance="10"
     guidetolerance="10"
     inkscape:pageopacity="0"
     inkscape:pageshadow="2"
     inkscape:window-width="1366"
     inkscape:window-height="705"
     id="namedview10"
     showgrid="false"
     inkscape:zoom="7.375"
     inkscape:cx="-25.879739"
     inkscape:cy="10.186011"
     inkscape:window-x="0"
     inkscape:window-y="30"
     inkscape:window-maximized="1"
     inkscape:current-layer="svg8" />
  <g
     id="g825">
    <g
       style="stroke-width:27.42860794"
       transform="matrix(0.03645828,0,0,0.03645828,-1.3333206,16.753643)"
       id="g830">
      <g
         style="stroke-width:27.42860794"
         id="g824"
         transform="translate(0,-496)">
        <path
           style="fill:#666666;fill-opacity:1;stroke-width:27.42860794"
           id="path2"
           d="M 381.2,64.1 C 379.9,64 378.6,64 377.3,64 h -0.2 c -16.2,0 -32,5.4 -44.6,15.1 -1.6,1.3 -2.6,3.2 -2.7,5.2 -0.1,2 0.8,4 2.3,5.4 l 89.8,80.5 c 1.3,1.1 2.9,1.8 4.6,1.8 h 0.4 c 1.9,-0.1 3.6,-1 4.8,-2.4 C 440.9,159 448,150.8 448,133 448.1,96.6 418.9,66.2 381.2,64.1 Z M 64,133 c 0,17.8 7.1,26 16.3,36.6 1.2,1.4 2.9,2.3 4.8,2.4 h 0.4 c 1.7,0 3.3,-0.6 4.6,-1.8 L 180,89.7 c 1.5,-1.4 2.4,-3.3 2.3,-5.4 -0.1,-2 -1,-3.9 -2.7,-5.2 C 167,69.4 151.2,64 135,64 h -0.2 c -1.3,0 -2.6,0 -3.9,0.1 C 93.2,66.2 63.9,96.6 64,133 Z"
           inkscape:connector-curvature="0" />
        <g
           style="fill:#666666;fill-opacity:1;stroke-width:27.42860794"
           id="g6">
          <path
             style="fill:#666666;fill-opacity:1;stroke-width:27.42860794"
             id="path4"
             d="M 390,386 C 416.2,355.3 432,315.5 432,272 432,174.8 353.2,96 256,96 158.8,96 80,174.8 80,272 c 0,43.5 15.8,83.3 42,114 l -34.7,35.5 c -6.2,6.3 -6,15.5 0.3,21.6 3.1,3 7.4,4.8 11.4,4.8 4.2,0 8.1,-1.9 11.2,-5.1 l 34.6,-34.5 c 30.3,24.7 69,39.6 111.2,39.6 42.2,0 80.9,-14.8 111.2,-39.6 l 33.6,34.5 c 3.1,3.2 7.3,5.1 11.5,5.1 4,0 8.1,-1.8 11.2,-4.8 6.3,-6.2 7.5,-15.3 1.3,-21.6 z M 270,274 c 0,7.7 -6.3,14 -14,14 h -82 c -7.7,0 -14,-6.3 -14,-14 0,-7.7 6.3,-14 14,-14 h 68 V 158 c 0,-7.7 6.3,-14 14,-14 7.7,0 14,6.3 14,14 z"
             inkscape:connector-curvature="0" />
        </g>
      </g>
    </g>
  </g>
</svg>
