<?xml version="1.0" encoding="UTF-8" standalone="no"?>
<!-- Generator: Adobe Illustrator 16.0.0, SVG Export Plug-In . SVG Version: 6.00 Build 0)  -->

<svg
   xmlns:dc="http://purl.org/dc/elements/1.1/"
   xmlns:cc="http://creativecommons.org/ns#"
   xmlns:rdf="http://www.w3.org/1999/02/22-rdf-syntax-ns#"
   xmlns:svg="http://www.w3.org/2000/svg"
   xmlns="http://www.w3.org/2000/svg"
   xmlns:sodipodi="http://sodipodi.sourceforge.net/DTD/sodipodi-0.dtd"
   xmlns:inkscape="http://www.inkscape.org/namespaces/inkscape"
   version="1.1"
   id="Capa_1"
   x="0px"
   y="0px"
   width="16"
   height="16"
   viewBox="0 0 14.34375 14.34375"
   xml:space="preserve"
   sodipodi:docname="planner-settings.svg"
   inkscape:version="0.92.3 (2405546, 2018-03-11)"><metadata
   id="metadata42"><rdf:RDF><cc:Work
       rdf:about=""><dc:format>image/svg+xml</dc:format><dc:type
         rdf:resource="http://purl.org/dc/dcmitype/StillImage" /><dc:title /></cc:Work></rdf:RDF></metadata><defs
   id="defs40" /><sodipodi:namedview
   pagecolor="#ffffff"
   bordercolor="#666666"
   borderopacity="1"
   objecttolerance="10"
   gridtolerance="10"
   guidetolerance="10"
   inkscape:pageopacity="0"
   inkscape:pageshadow="2"
   inkscape:window-width="1366"
   inkscape:window-height="705"
   id="namedview38"
   showgrid="false"
   inkscape:snap-text-baseline="true"
   inkscape:zoom="32.625"
   inkscape:cx="8"
   inkscape:cy="8"
   inkscape:window-x="0"
   inkscape:window-y="30"
   inkscape:window-maximized="1"
   inkscape:current-layer="Capa_1" />
<g
   id="g5"
   transform="matrix(0.02734375,0,0,0.02734375,0.89648437,0.89648437)"
   style="fill:#485a6c;fill-opacity:1">
	<g
   id="settings-applications"
   style="fill:#485a6c;fill-opacity:1">
		<path
   d="m 229.5,178.5 c -28.05,0 -51,22.95 -51,51 0,28.05 22.95,51 51,51 28.05,0 51,-22.95 51,-51 0,-28.05 -22.95,-51 -51,-51 z M 408,0 H 51 C 22.95,0 0,22.95 0,51 v 357 c 0,28.05 22.95,51 51,51 h 357 c 28.05,0 51,-22.95 51,-51 V 51 C 459,22.95 436.05,0 408,0 Z m -45.9,229.5 c 0,5.1 0,12.75 0,17.85 l 38.25,30.601 c 2.551,2.55 5.101,7.649 2.551,10.2 l -35.7,61.199 c -2.55,5.101 -7.65,5.101 -10.2,5.101 L 313.65,336.6 c -10.2,7.65 -20.4,12.75 -30.601,17.851 L 275.4,402.9 c 0,5.1 -5.101,7.649 -7.65,7.649 h -71.4 c -5.1,0 -7.65,-2.55 -7.65,-7.649 l -10.2,-48.45 c -10.2,-5.101 -20.4,-10.2 -30.6,-17.851 l -43.35,17.851 c -5.1,2.55 -7.65,0 -10.2,-5.101 L 58.65,288.15 c -2.55,-5.101 0,-7.65 2.55,-10.2 l 38.25,-30.601 c 0,-5.1 0,-12.75 0,-17.85 0,-5.1 0,-12.75 0,-17.85 l -38.25,-30.6 c -2.55,-2.55 -5.1,-7.65 -2.55,-10.2 l 35.7,-61.2 c 2.55,-5.1 7.65,-5.1 10.2,-5.1 l 43.35,17.85 c 10.2,-5.1 20.4,-12.75 30.6,-17.85 l 7.65,-48.45 c 0,-5.1 5.1,-7.65 7.65,-7.65 h 71.4 c 5.1,0 7.649,2.55 7.649,7.65 l 7.65,48.45 c 10.2,5.1 20.4,10.2 30.6,17.85 l 43.351,-17.85 c 5.1,-2.55 7.649,0 10.2,5.1 l 35.699,61.2 c 2.551,5.1 0,7.65 -2.55,10.2 l -38.25,30.6 C 362.1,216.75 362.1,224.4 362.1,229.5 Z"
   id="path2"
   inkscape:connector-curvature="0"
   style="fill:#485a6c;fill-opacity:1" />
	</g>
</g>
<g
   id="g7"
   transform="translate(0,-444.65625)">
</g>
<g
   id="g9"
   transform="translate(0,-444.65625)">
</g>
<g
   id="g11"
   transform="translate(0,-444.65625)">
</g>
<g
   id="g13"
   transform="translate(0,-444.65625)">
</g>
<g
   id="g15"
   transform="translate(0,-444.65625)">
</g>
<g
   id="g17"
   transform="translate(0,-444.65625)">
</g>
<g
   id="g19"
   transform="translate(0,-444.65625)">
</g>
<g
   id="g21"
   transform="translate(0,-444.65625)">
</g>
<g
   id="g23"
   transform="translate(0,-444.65625)">
</g>
<g
   id="g25"
   transform="translate(0,-444.65625)">
</g>
<g
   id="g27"
   transform="translate(0,-444.65625)">
</g>
<g
   id="g29"
   transform="translate(0,-444.65625)">
</g>
<g
   id="g31"
   transform="translate(0,-444.65625)">
</g>
<g
   id="g33"
   transform="translate(0,-444.65625)">
</g>
<g
   id="g35"
   transform="translate(0,-444.65625)">
</g>
</svg>