<?xml version="1.0" encoding="UTF-8" standalone="no"?>
<!-- Generator: Adobe Illustrator 19.0.0, SVG Export Plug-In . SVG Version: 6.00 Build 0)  -->

<svg
   xmlns:dc="http://purl.org/dc/elements/1.1/"
   xmlns:cc="http://creativecommons.org/ns#"
   xmlns:rdf="http://www.w3.org/1999/02/22-rdf-syntax-ns#"
   xmlns:svg="http://www.w3.org/2000/svg"
   xmlns="http://www.w3.org/2000/svg"
   xmlns:sodipodi="http://sodipodi.sourceforge.net/DTD/sodipodi-0.dtd"
   xmlns:inkscape="http://www.inkscape.org/namespaces/inkscape"
   version="1.1"
   id="Capa_1"
   x="0px"
   y="0px"
   viewBox="0 0 23.999999 23.999999"
   xml:space="preserve"
   sodipodi:docname="planner-today-19.svg"
   width="24"
   height="24"
   inkscape:version="0.92.3 (2405546, 2018-03-11)"><metadata
   id="metadata65"><rdf:RDF><cc:Work
       rdf:about=""><dc:format>image/svg+xml</dc:format><dc:type
         rdf:resource="http://purl.org/dc/dcmitype/StillImage" /><dc:title /></cc:Work></rdf:RDF></metadata><defs
   id="defs63">
	
	
</defs><sodipodi:namedview
   pagecolor="#ffffff"
   bordercolor="#666666"
   borderopacity="1"
   objecttolerance="10"
   gridtolerance="10"
   guidetolerance="10"
   inkscape:pageopacity="0"
   inkscape:pageshadow="2"
   inkscape:window-width="1366"
   inkscape:window-height="705"
   id="namedview61"
   showgrid="false"
   inkscape:zoom="21.75"
   inkscape:cx="4.5936707"
   inkscape:cy="13.353612"
   inkscape:window-x="0"
   inkscape:window-y="30"
   inkscape:window-maximized="1"
   inkscape:current-layer="Capa_1"
   showguides="true"
   inkscape:guide-bbox="true"><sodipodi:guide
     position="11.999999,11.999999"
     orientation="1,0"
     id="guide843"
     inkscape:locked="false"
     inkscape:label=""
     inkscape:color="rgb(0,0,255)" /><sodipodi:guide
     position="11.999999,11.999999"
     orientation="0,1"
     id="guide845"
     inkscape:locked="false"
     inkscape:label=""
     inkscape:color="rgb(0,0,255)" /></sodipodi:namedview>

<g
   id="g22"
   transform="matrix(0.05966723,0,0,0.05966723,1.1285827,1.0513079)">
	<path
   style="fill:#ffffff"
   d="m 28.365,128.531 v 199.16 c 0.022,11.92 9.68,21.578 21.6,21.6 h 261.52 c 11.92,-0.022 21.578,-9.68 21.6,-21.6 v -199.16 z"
   id="path2"
   inkscape:connector-curvature="0" />
	<path
   style="fill:#eb6b75"
   d="m 329.285,54.011 0.4,-0.4 -3.04,-2.84 c -4.015,-4.025 -9.475,-6.273 -15.16,-6.24 h -17.08 v 7.6 c -0.048,10.109 -6.17,19.197 -15.52,23.04 -2.938,1.237 -6.093,1.876 -9.28,1.88 -6.472,-0.049 -12.682,-2.567 -17.36,-7.04 -4.848,-4.663 -7.566,-11.114 -7.52,-17.84 v -7.6 h -128 v 7.6 c 0.011,6.609 -2.625,12.948 -7.32,17.6 -4.775,4.658 -11.17,7.282 -17.84,7.32 -3.108,0.021 -6.187,-0.606 -9.04,-1.84 -9.438,-3.77 -15.62,-12.917 -15.6,-23.08 v -7.6 h -16.96 c -11.92,0.022 -21.578,9.68 -21.6,21.6 v 54.2 h 304.68 v -54.2 c 0.012,-4.341 -1.3,-8.583 -3.76,-12.16 z"
   id="path4"
   inkscape:connector-curvature="0" />
	<g
   id="g10">
		<path
   style="fill:#fde9cc"
   d="m 98.326,13.411 c -8.498,-3.557 -18.27,0.449 -21.827,8.947 -0.861,2.056 -1.3,4.264 -1.293,6.493 v 23.36 c 0.014,5.949 3.181,11.444 8.32,14.44 2.497,1.514 5.36,2.317 8.28,2.32 2.916,-0.011 5.78,-0.769 8.32,-2.2 5.341,-2.907 8.646,-8.519 8.6,-14.6 v -23.36 c 0.033,-6.785 -4.094,-12.897 -10.4,-15.4 z"
   id="path6"
   inkscape:connector-curvature="0" />
		<path
   style="fill:#fde9cc"
   d="m 275.885,13.411 c -8.489,-3.579 -18.271,0.401 -21.85,8.89 -0.869,2.06 -1.314,4.274 -1.31,6.51 v 23.36 c 0.107,7.461 5.1,13.967 12.28,16 1.451,0.368 2.943,0.556 4.44,0.56 3.767,0.01 7.429,-1.243 10.4,-3.56 4.025,-3.159 6.359,-8.004 6.32,-13.12 v -23.24 c 0.054,-6.755 -4.02,-12.859 -10.28,-15.4 z"
   id="path8"
   inkscape:connector-curvature="0" />
	</g>
	<g
   id="g16">
		<path
   style="fill:#f8d6a5"
   d="m 91.965,16.091 v 48.84 c 7.047,0 12.76,-5.713 12.76,-12.76 v -23.36 c -0.022,-7.016 -5.704,-12.698 -12.72,-12.72"
   id="path12"
   inkscape:connector-curvature="0" />
		<path
   style="fill:#f8d6a5"
   d="m 269.486,16.091 v 48.84 c 7.032,-0.022 12.72,-5.728 12.72,-12.76 v -23.36 c -0.022,-7.016 -5.705,-12.698 -12.72,-12.72"
   id="path14"
   inkscape:connector-curvature="0" />
	</g>
	<path
   style="fill:#eeeeee"
   d="m 269.326,132.531 v 212.88 h 42.16 c 9.72,0 17.6,-7.88 17.6,-17.6 v 0 -195.28 z"
   id="path18"
   inkscape:connector-curvature="0" />
	<path
   style="fill:#e6454f"
   d="m 269.326,116.371 h 59.72 v -50.2 c 0.002,-4.668 -1.855,-9.144 -5.16,-12.44 -3.288,-3.316 -7.77,-5.175 -12.44,-5.16 h -13.04 v 3.6 c -0.017,11.724 -7.111,22.277 -17.96,26.72 -3.506,1.478 -7.276,2.227 -11.08,2.2 z"
   id="path20"
   inkscape:connector-curvature="0" />
</g><path
   inkscape:connector-curvature="0"
   id="path26"
   d="M 20.764173,8.9590656 H 3.0597126 V 20.603722 c 7.16e-4,0.266474 0.1031646,0.522566 0.2864027,0.716007 l 0.02148,0.01909 c 0.1942765,0.202451 0.461705,0.318504 0.7422603,0.322203 H 19.71403 c 0.278586,3.58e-4 0.545716,-0.110444 0.74226,-0.307882 0.197439,-0.196544 0.308241,-0.463674 0.307883,-0.742261 z M 6.6373597,5.8897832 c -1.4153067,0 -1.7470565,-1.2506251 -1.7470565,-1.7231896 V 3.9517916 H 4.1098558 C 3.5309644,3.954417 3.062338,4.4230434 3.0597126,5.0019349 V 7.9948431 H 20.761786 V 4.9995482 C 20.761906,4.7210215 20.651104,4.453951 20.453903,4.2572878 20.25736,4.059849 19.990229,3.9490469 19.711643,3.9494049 H 18.933582 V 4.164207 c 0,0.4773378 -0.238668,1.7255762 -1.723189,1.7255762 -1.432014,0 -1.72319,-1.2506251 -1.72319,-1.7255762 V 3.9494049 H 8.331909 V 4.164207 c 0,0.4749511 -0.2983361,1.7255762 -1.6945493,1.7255762 z M 16.446652,3.4672937 V 4.164207 c -5.9e-5,0.4154629 0.334017,0.7537164 0.749421,0.7589671 0.411047,0.013246 0.755029,-0.3091956 0.768275,-0.7202431 4.18e-4,-0.012888 4.77e-4,-0.025836 2.39e-4,-0.038724 V 2.7703805 c 3.58e-4,-0.1920688 -0.07214,-0.3771566 -0.202869,-0.5179116 l -0.01909,-0.019094 c -0.293146,-0.2959495 -0.770662,-0.2981572 -1.066552,-0.00507 -0.0017,0.00167 -0.0033,0.00334 -0.0051,0.00507 -0.143142,0.1420677 -0.223871,0.3353298 -0.224349,0.5370051 z m -10.594513,0 V 4.164207 c -0.024165,0.3946987 0.2761399,0.7342649 0.6708386,0.7584898 0.026134,0.00161 0.052388,0.00179 0.078582,4.773e-4 0.3939827,0.033772 0.7407686,-0.2582994 0.7745403,-0.6522821 0.00304,-0.035502 0.0034,-0.071123 0.00113,-0.106685 V 2.7703805 C 7.3775914,2.5783117 7.3050957,2.3932239 7.1743648,2.2524689 L 7.1552713,2.2333754 C 6.8621262,1.9374259 6.3846093,1.9352182 6.0887195,2.2283037 c -0.00167,0.00167 -0.00334,0.00334 -0.00507,0.00507 -0.142308,0.142487 -0.2221428,0.3356299 -0.2219638,0.5370068 z M 4.1074692,2.9899559 H 4.8879165 V 2.7751538 C 4.8880359,2.3182819 5.0701402,1.8802647 5.3938946,1.5579423 6.063182,0.88501533 7.1512139,0.88209164 7.8241409,1.5513193 c 0.00221,0.00221 0.00442,0.00442 0.00662,0.00662 l 0.02864,0.031027 c 0.307704,0.32095 0.4788296,0.7487641 0.4773379,1.1933446 v 0.214802 h 7.1552942 v -0.214802 c 1.2e-4,-0.456872 0.182224,-0.8948891 0.505978,-1.2172115 0.669228,-0.672927 1.75726,-0.6758507 2.430187,-0.00662 0.0022,0.00221 0.0044,0.00442 0.0066,0.00662 l 0.02864,0.031027 c 0.307704,0.32095 0.47883,0.748764 0.477338,1.1933446 v 0.214802 h 0.780448 c 0.537243,-0.00209 1.053007,0.2111027 1.432013,0.5918989 0.380796,0.3790063 0.593987,0.8947698 0.591899,1.4320135 V 20.603722 c 0.0021,0.537244 -0.211103,1.053007 -0.591899,1.432014 -0.379424,0.379901 -0.895068,0.592197 -1.432013,0.589512 H 4.1098558 c -0.5372437,0.0021 -1.0530072,-0.211103 -1.4320135,-0.591899 l -0.02864,-0.03103 C 2.2882153,21.628089 2.0863014,21.128495 2.0859434,20.608496 V 4.9995482 C 2.0885688,3.8881267 2.9888876,2.9878078 4.1003091,2.9851825 Z"
   style="fill:#56231d;stroke-width:0.05966723" />
<g
   id="g30"
   transform="translate(0,-337.57101)">
</g>
<g
   id="g32"
   transform="translate(0,-337.57101)">
</g>
<g
   id="g34"
   transform="translate(0,-337.57101)">
</g>
<g
   id="g36"
   transform="translate(0,-337.57101)">
</g>
<g
   id="g38"
   transform="translate(0,-337.57101)">
</g>
<g
   id="g40"
   transform="translate(0,-337.57101)">
</g>
<g
   id="g42"
   transform="translate(0,-337.57101)">
</g>
<g
   id="g44"
   transform="translate(0,-337.57101)">
</g>
<g
   id="g46"
   transform="translate(0,-337.57101)">
</g>
<g
   id="g48"
   transform="translate(0,-337.57101)">
</g>
<g
   id="g50"
   transform="translate(0,-337.57101)">
</g>
<g
   id="g52"
   transform="translate(0,-337.57101)">
</g>
<g
   id="g54"
   transform="translate(0,-337.57101)">
</g>
<g
   id="g56"
   transform="translate(0,-337.57101)">
</g>
<g
   id="g58"
   transform="translate(0,-337.57101)">
</g>
<text
   xml:space="preserve"
   style="font-style:normal;font-variant:normal;font-weight:500;font-stretch:normal;font-size:18.66666603px;line-height:1.25;font-family:Raleway;-inkscape-font-specification:'Raleway Medium';letter-spacing:0px;word-spacing:0px;fill:#56231d;fill-opacity:1;stroke:none"
   x="6.0884089"
   y="18.609838"
   id="text859"><tspan
     sodipodi:role="line"
     id="tspan857"
     x="6.0884089"
     y="18.609838"
     style="font-style:normal;font-variant:normal;font-weight:normal;font-stretch:normal;font-size:9.33333302px;line-height:8.14999485;font-family:'Droid Sans Fallback';-inkscape-font-specification:'Droid Sans Fallback';fill:#56231d;fill-opacity:1">19</tspan></text>





</svg>