<?xml version="1.0" encoding="UTF-8" standalone="no"?>
<svg
   width="24"
   height="24"
   fill="none"
   viewBox="0 0 24 24"
   version="1.1"
   id="svg10"
   sodipodi:docname="planner-clipboard-light.svg"
   inkscape:version="1.2.1 (9c6d41e410, 2022-07-14)"
   xmlns:inkscape="http://www.inkscape.org/namespaces/inkscape"
   xmlns:sodipodi="http://sodipodi.sourceforge.net/DTD/sodipodi-0.dtd"
   xmlns="http://www.w3.org/2000/svg"
   xmlns:svg="http://www.w3.org/2000/svg">
  <defs
     id="defs14" />
  <sodipodi:namedview
     id="namedview12"
     pagecolor="#ffffff"
     bordercolor="#000000"
     borderopacity="0.25"
     inkscape:showpageshadow="2"
     inkscape:pageopacity="0.0"
     inkscape:pagecheckerboard="0"
     inkscape:deskcolor="#d1d1d1"
     showgrid="false"
     inkscape:zoom="19.583333"
     inkscape:cx="12"
     inkscape:cy="12"
     inkscape:window-width="1366"
     inkscape:window-height="699"
     inkscape:window-x="0"
     inkscape:window-y="0"
     inkscape:window-maximized="1"
     inkscape:current-layer="svg10" />
  <path
     stroke="currentColor"
     stroke-linecap="round"
     stroke-linejoin="round"
     stroke-width="1.5"
     d="M9 6.75H7.75C6.64543 6.75 5.75 7.64543 5.75 8.75V17.25C5.75 18.3546 6.64543 19.25 7.75 19.25H16.25C17.3546 19.25 18.25 18.3546 18.25 17.25V8.75C18.25 7.64543 17.3546 6.75 16.25 6.75H15"
     id="path2"
     style="stroke:#666666;stroke-opacity:1" />
  <path
     stroke="currentColor"
     stroke-linecap="round"
     stroke-linejoin="round"
     stroke-width="1.5"
     d="M14 8.25H10C9.44772 8.25 9 7.80228 9 7.25V5.75C9 5.19772 9.44772 4.75 10 4.75H14C14.5523 4.75 15 5.19772 15 5.75V7.25C15 7.80228 14.5523 8.25 14 8.25Z"
     id="path4"
     style="stroke:#666666;stroke-opacity:1" />
  <path
     stroke="currentColor"
     stroke-linecap="round"
     stroke-linejoin="round"
     stroke-width="1.5"
     d="M9.75 12.25H14.25"
     id="path6"
     style="stroke:#666666;stroke-opacity:1" />
  <path
     stroke="currentColor"
     stroke-linecap="round"
     stroke-linejoin="round"
     stroke-width="1.5"
     d="M9.75 15.25H14.25"
     id="path8"
     style="stroke:#666666;stroke-opacity:1" />
</svg>
