<?xml version="1.0" encoding="UTF-8" standalone="no"?>
<!-- Generator: Adobe Illustrator 19.0.0, SVG Export Plug-In . SVG Version: 6.00 Build 0)  -->

<svg
   xmlns:dc="http://purl.org/dc/elements/1.1/"
   xmlns:cc="http://creativecommons.org/ns#"
   xmlns:rdf="http://www.w3.org/1999/02/22-rdf-syntax-ns#"
   xmlns:svg="http://www.w3.org/2000/svg"
   xmlns="http://www.w3.org/2000/svg"
   xmlns:sodipodi="http://sodipodi.sourceforge.net/DTD/sodipodi-0.dtd"
   xmlns:inkscape="http://www.inkscape.org/namespaces/inkscape"
   version="1.1"
   id="Capa_1"
   x="0px"
   y="0px"
   viewBox="0 0 16 16"
   xml:space="preserve"
   sodipodi:docname="planner-alarm-symbolic.svg"
   width="16"
   height="16"
   inkscape:version="0.92.3 (2405546, 2018-03-11)"><metadata
   id="metadata61"><rdf:RDF><cc:Work
       rdf:about=""><dc:format>image/svg+xml</dc:format><dc:type
         rdf:resource="http://purl.org/dc/dcmitype/StillImage" /><dc:title></dc:title></cc:Work></rdf:RDF></metadata><defs
   id="defs59" /><sodipodi:namedview
   pagecolor="#ffffff"
   bordercolor="#666666"
   borderopacity="1"
   objecttolerance="10"
   gridtolerance="10"
   guidetolerance="10"
   inkscape:pageopacity="0"
   inkscape:pageshadow="2"
   inkscape:window-width="1366"
   inkscape:window-height="705"
   id="namedview57"
   showgrid="false"
   inkscape:zoom="34"
   inkscape:cx="8"
   inkscape:cy="8"
   inkscape:window-x="0"
   inkscape:window-y="30"
   inkscape:window-maximized="1"
   inkscape:current-layer="Capa_1" />



<g
   id="g898"
   transform="matrix(0.02929829,0,0,0.02929786,0.99992525,1.0000218)"
   style="stroke-width:34.13193893"><g
     id="g883"
     style="stroke-width:34.13193893"><g
       id="g6"
       style="fill:#666666;fill-opacity:1;stroke-width:34.13193893">
	<g
   id="g4"
   style="fill:#666666;fill-opacity:1;stroke-width:34.13193893">
		<path
   d="M 374.099,385.518 C 445.781,310.803 443.323,192.124 368.607,120.442 333.633,86.888 287.023,68.182 238.555,68.249 135.015,68.105 50.962,151.925 50.819,255.466 c -0.067,48.467 18.639,95.077 52.193,130.052 l -48.777,65.024 c -5.655,7.541 -4.127,18.238 3.413,23.893 7.54,5.655 18.238,4.127 23.893,-3.413 l 47.275,-63.044 c 65.4,47.651 154.078,47.651 219.477,0 l 47.275,63.044 c 5.655,7.541 16.353,9.069 23.893,3.413 7.541,-5.655 9.069,-16.353 3.413,-23.893 z m -135.543,24.064 c -84.792,-0.094 -153.506,-68.808 -153.6,-153.6 0,-84.831 68.769,-153.6 153.6,-153.6 84.831,0 153.6,68.769 153.6,153.6 0,84.831 -68.769,153.6 -153.6,153.6 z"
   id="path2"
   style="fill:#666666;fill-opacity:1;stroke-width:34.13193893"
   inkscape:connector-curvature="0" />
	</g>
</g><g
       id="g12"
       style="fill:#666666;fill-opacity:1;stroke-width:34.13193893">
	<g
   id="g10"
   style="fill:#666666;fill-opacity:1;stroke-width:34.13193893">
		<path
   d="M 145.286,24.984 C 111.544,-7.918 57.519,-7.237 24.616,26.505 -7.698,59.644 -7.702,112.502 24.608,145.646 c 6.665,6.663 17.468,6.663 24.132,0 l 96.546,-96.529 c 6.663,-6.665 6.663,-17.468 0,-24.133 z M 38.739,107.382 c -12.186,-25.516 -1.38,-56.08 24.136,-68.267 13.955,-6.665 30.175,-6.665 44.131,0 z"
   id="path8"
   style="fill:#666666;fill-opacity:1;stroke-width:34.13193893"
   inkscape:connector-curvature="0" />
	</g>
</g><g
       id="g18"
       style="fill:#666666;fill-opacity:1;stroke-width:34.13193893">
	<g
   id="g16"
   style="fill:#666666;fill-opacity:1;stroke-width:34.13193893">
		<path
   d="m 452.486,24.984 c -33.323,-33.313 -87.339,-33.313 -120.661,0 -6.663,6.665 -6.663,17.468 0,24.132 l 96.529,96.529 c 6.665,6.663 17.468,6.663 24.132,0 33.313,-33.322 33.313,-87.338 0,-120.661 z m -14.08,82.449 -0.034,-0.034 -68.267,-68.267 c 19.632,-9.021 42.79,-5.041 58.283,10.018 15.356,15.341 19.371,38.696 10.018,58.283 z"
   id="path14"
   style="fill:#666666;fill-opacity:1;stroke-width:34.13193893"
   inkscape:connector-curvature="0" />
	</g>
</g><g
       id="g24"
       style="fill:#666666;fill-opacity:1;stroke-width:34.13193893">
	<g
   id="g22"
   style="fill:#666666;fill-opacity:1;stroke-width:34.13193893">
		<path
   d="m 238.556,136.515 c -9.426,0 -17.067,7.641 -17.067,17.067 v 96.717 l -47.787,63.71 c -5.655,7.541 -4.127,18.238 3.413,23.893 7.54,5.655 18.238,4.127 23.893,-3.413 l 51.2,-68.267 c 2.216,-2.954 3.413,-6.547 3.413,-10.24 v -102.4 c 0.001,-9.426 -7.64,-17.067 -17.065,-17.067 z"
   id="path20"
   style="fill:#666666;fill-opacity:1;stroke-width:34.13193893"
   inkscape:connector-curvature="0" />
	</g>
</g></g></g>
<g
   id="g26"
   transform="translate(0,-461.849)">
</g>
<g
   id="g28"
   transform="translate(0,-461.849)">
</g>
<g
   id="g30"
   transform="translate(0,-461.849)">
</g>
<g
   id="g32"
   transform="translate(0,-461.849)">
</g>
<g
   id="g34"
   transform="translate(0,-461.849)">
</g>
<g
   id="g36"
   transform="translate(0,-461.849)">
</g>
<g
   id="g38"
   transform="translate(0,-461.849)">
</g>
<g
   id="g40"
   transform="translate(0,-461.849)">
</g>
<g
   id="g42"
   transform="translate(0,-461.849)">
</g>
<g
   id="g44"
   transform="translate(0,-461.849)">
</g>
<g
   id="g46"
   transform="translate(0,-461.849)">
</g>
<g
   id="g48"
   transform="translate(0,-461.849)">
</g>
<g
   id="g50"
   transform="translate(0,-461.849)">
</g>
<g
   id="g52"
   transform="translate(0,-461.849)">
</g>
<g
   id="g54"
   transform="translate(0,-461.849)">
</g>
</svg>