<?xml version="1.0" encoding="UTF-8" standalone="no"?>
<!-- Generator: Adobe Illustrator 19.1.0, SVG Export Plug-In . SVG Version: 6.00 Build 0)  -->

<svg
   xmlns:dc="http://purl.org/dc/elements/1.1/"
   xmlns:cc="http://creativecommons.org/ns#"
   xmlns:rdf="http://www.w3.org/1999/02/22-rdf-syntax-ns#"
   xmlns:svg="http://www.w3.org/2000/svg"
   xmlns="http://www.w3.org/2000/svg"
   xmlns:sodipodi="http://sodipodi.sourceforge.net/DTD/sodipodi-0.dtd"
   xmlns:inkscape="http://www.inkscape.org/namespaces/inkscape"
   version="1.1"
   id="Capa_1"
   x="0px"
   y="0px"
   viewBox="0 0 16 16"
   xml:space="preserve"
   sodipodi:docname="planner-label-symbolic.svg"
   width="16"
   height="16"
   inkscape:version="0.92.3 (2405546, 2018-03-11)"><metadata
   id="metadata41"><rdf:RDF><cc:Work
       rdf:about=""><dc:format>image/svg+xml</dc:format><dc:type
         rdf:resource="http://purl.org/dc/dcmitype/StillImage" /><dc:title /></cc:Work></rdf:RDF></metadata><defs
   id="defs39" /><sodipodi:namedview
   pagecolor="#ffffff"
   bordercolor="#666666"
   borderopacity="1"
   objecttolerance="10"
   gridtolerance="10"
   guidetolerance="10"
   inkscape:pageopacity="0"
   inkscape:pageshadow="2"
   inkscape:window-width="1366"
   inkscape:window-height="705"
   id="namedview37"
   showgrid="false"
   inkscape:zoom="32.625"
   inkscape:cx="3.2950192"
   inkscape:cy="8"
   inkscape:window-x="0"
   inkscape:window-y="30"
   inkscape:window-maximized="1"
   inkscape:current-layer="Capa_1" />
<g
   id="g4"
   transform="matrix(-0.03020155,0,0,0.03020155,14.98046,1.0083237)">
	<path
   d="m 445.752,256.346 -179.9,-180 c -9.5,-9.5 -22.2,-14.8 -35.6,-14.8 -1.1,0 -2.2,0 -3.3,0.1 l -130.1,8.6 c -14.1,0.9 -25.5,12.3 -26.4,26.4 l -3.1,46.2 c -6.6,-3.8 -12.9,-8.6 -18.6,-14.3 -13.9,-13.9 -22.5,-31.2 -24.3,-48.8 -1.7,-16.7 3.1,-31.6 13.5,-42 22.1,-22.1 62.8,-17.2 90.9,10.8 4.7,4.7 12.3,4.7 17,0 4.7,-4.7 4.7,-12.3 0,-17 -37.6,-37.3 -93.6,-42.1 -125,-10.7 -15.6,15.6 -22.8,37.3 -20.4,61.4 2.3,23.1 13.4,45.6 31.2,63.4 10,10 21.6,17.9 33.9,23.3 l -3.8,57.9 c -1,14.5 4.4,28.7 14.7,39 l 180,180 c 11.4,11.4 26.5,17.6 42.6,17.6 v 0 c 16.1,0 31.2,-6.3 42.6,-17.6 l 104.3,-104.3 c 11.4,-11.4 17.6,-26.5 17.6,-42.6 -0.1,-16.2 -6.4,-31.3 -17.8,-42.6 z m -16.9,68.1 -104.4,104.4 c -6.8,6.8 -15.9,10.6 -25.6,10.6 v 0 c -9.7,0 -18.8,-3.8 -25.6,-10.6 l -180,-180 c -5.4,-5.4 -8.2,-12.8 -7.7,-20.4 l 3.5,-52.4 c 2,0.3 4,0.6 6,0.8 3,0.3 6,0.5 8.9,0.5 20.5,0 38.8,-7.2 52.4,-20.8 4.7,-4.7 4.7,-12.3 0,-17 -4.7,-4.7 -12.3,-4.7 -17,0 -10.4,10.4 -25.3,15.2 -42,13.5 -2.3,-0.2 -4.5,-0.6 -6.7,-1 l 3.6,-53.6 c 0.1,-2.2 1.9,-3.9 4.1,-4.1 l 130.1,-8.6 c 0.6,0 1.2,-0.1 1.8,-0.1 7,0 13.8,2.8 18.7,7.7 l 179.9,179.9 c 6.8,6.8 10.6,15.9 10.6,25.6 0,9.7 -3.8,18.8 -10.6,25.6 z"
   id="path2"
   inkscape:connector-curvature="0" />
</g>
<g
   id="g6"
   transform="translate(0,-447.552)">
</g>
<g
   id="g8"
   transform="translate(0,-447.552)">
</g>
<g
   id="g10"
   transform="translate(0,-447.552)">
</g>
<g
   id="g12"
   transform="translate(0,-447.552)">
</g>
<g
   id="g14"
   transform="translate(0,-447.552)">
</g>
<g
   id="g16"
   transform="translate(0,-447.552)">
</g>
<g
   id="g18"
   transform="translate(0,-447.552)">
</g>
<g
   id="g20"
   transform="translate(0,-447.552)">
</g>
<g
   id="g22"
   transform="translate(0,-447.552)">
</g>
<g
   id="g24"
   transform="translate(0,-447.552)">
</g>
<g
   id="g26"
   transform="translate(0,-447.552)">
</g>
<g
   id="g28"
   transform="translate(0,-447.552)">
</g>
<g
   id="g30"
   transform="translate(0,-447.552)">
</g>
<g
   id="g32"
   transform="translate(0,-447.552)">
</g>
<g
   id="g34"
   transform="translate(0,-447.552)">
</g>
</svg>