<?xml version="1.0" encoding="UTF-8" standalone="no"?>
<!-- Generator: Adobe Illustrator 19.0.0, SVG Export Plug-In . SVG Version: 6.00 Build 0)  -->

<svg
   xmlns:dc="http://purl.org/dc/elements/1.1/"
   xmlns:cc="http://creativecommons.org/ns#"
   xmlns:rdf="http://www.w3.org/1999/02/22-rdf-syntax-ns#"
   xmlns:svg="http://www.w3.org/2000/svg"
   xmlns="http://www.w3.org/2000/svg"
   xmlns:sodipodi="http://sodipodi.sourceforge.net/DTD/sodipodi-0.dtd"
   xmlns:inkscape="http://www.inkscape.org/namespaces/inkscape"
   version="1.1"
   id="Capa_1"
   x="0px"
   y="0px"
   viewBox="0 0 16 16"
   xml:space="preserve"
   width="16"
   height="16"
   sodipodi:docname="planner-startup-symbolic.svg"
   inkscape:version="0.92.3 (2405546, 2018-03-11)"><metadata
   id="metadata61"><rdf:RDF><cc:Work
       rdf:about=""><dc:format>image/svg+xml</dc:format><dc:type
         rdf:resource="http://purl.org/dc/dcmitype/StillImage" /><dc:title></dc:title></cc:Work></rdf:RDF></metadata><defs
   id="defs59" /><sodipodi:namedview
   pagecolor="#ffffff"
   bordercolor="#666666"
   borderopacity="1"
   objecttolerance="10"
   gridtolerance="10"
   guidetolerance="10"
   inkscape:pageopacity="0"
   inkscape:pageshadow="2"
   inkscape:window-width="1366"
   inkscape:window-height="705"
   id="namedview57"
   showgrid="false"
   inkscape:zoom="7.6897862"
   inkscape:cx="38.62211"
   inkscape:cy="10.487848"
   inkscape:window-x="0"
   inkscape:window-y="30"
   inkscape:window-maximized="1"
   inkscape:current-layer="Capa_1" />



<g
   id="g883"
   transform="matrix(-0.02929687,0,0,0.02929687,15.479826,0.52017307)"><g
     id="g6">
	<g
   id="g4">
		<path
   id="path2"
   d="M 496.64,232.96 C 468.48,158.72 394.24,120.32 312.32,135.68 232.96,56.32 122.88,2.56 12.8,0 5.12,0 0,5.12 0,12.8 c 2.56,110.08 56.32,220.16 133.12,299.52 -12.8,79.36 23.04,156.16 97.28,184.32 -12.8,-33.28 -15.36,-71.68 -5.12,-110.08 12.8,7.68 25.6,15.36 38.4,20.48 5.12,2.56 10.24,2.56 15.36,-2.56 l 128,-128 c 2.56,-2.56 2.56,-7.68 0,-12.8 -5.12,-12.8 -12.8,-25.6 -20.48,-35.84 38.4,-10.24 76.8,-7.68 110.08,5.12 z m -281.6,-17.92 c -20.48,20.48 -51.2,20.48 -71.68,0 -20.48,-20.48 -20.48,-51.2 0,-71.68 20.48,-20.48 51.2,-20.48 71.68,0 20.48,20.48 20.48,51.2 0,71.68 z"
   inkscape:connector-curvature="0"
   style="fill:#424242" />
	</g>
</g><g
     id="g12">
	<g
   id="g10">
		<path
   id="path8"
   d="m 504.32,368.64 -53.76,-53.76 c -10.24,-10.24 -25.6,-10.24 -35.84,0 -10.24,10.24 -10.24,25.6 0,35.84 l 53.76,53.76 c 10.24,10.24 25.6,10.24 35.84,0 10.24,-10.24 10.24,-25.6 0,-35.84 z"
   inkscape:connector-curvature="0"
   style="fill:#424242" />
	</g>
</g><g
     id="g18">
	<g
   id="g16">
		<path
   id="path14"
   d="m 404.48,468.48 -53.76,-53.76 c -10.24,-10.24 -25.6,-10.24 -35.84,0 -10.24,10.24 -10.24,25.6 0,35.84 l 53.76,53.76 c 10.24,10.24 25.6,10.24 35.84,0 10.24,-10.24 10.24,-25.6 0,-35.84 z"
   inkscape:connector-curvature="0"
   style="fill:#424242" />
	</g>
</g><g
     id="g24">
	<g
   id="g22">
		<path
   id="path20"
   d="m 473.6,440.32 -74.24,-74.24 c -10.24,-10.24 -25.6,-10.24 -35.84,0 -10.24,10.24 -10.24,25.6 0,35.84 l 74.24,74.24 c 10.24,10.24 25.6,10.24 35.84,0 10.24,-10.24 10.24,-25.6 0,-35.84 z"
   inkscape:connector-curvature="0"
   style="fill:#424242" />
	</g>
</g></g>
<g
   id="g26"
   transform="translate(0,-496)">
</g>
<g
   id="g28"
   transform="translate(0,-496)">
</g>
<g
   id="g30"
   transform="translate(0,-496)">
</g>
<g
   id="g32"
   transform="translate(0,-496)">
</g>
<g
   id="g34"
   transform="translate(0,-496)">
</g>
<g
   id="g36"
   transform="translate(0,-496)">
</g>
<g
   id="g38"
   transform="translate(0,-496)">
</g>
<g
   id="g40"
   transform="translate(0,-496)">
</g>
<g
   id="g42"
   transform="translate(0,-496)">
</g>
<g
   id="g44"
   transform="translate(0,-496)">
</g>
<g
   id="g46"
   transform="translate(0,-496)">
</g>
<g
   id="g48"
   transform="translate(0,-496)">
</g>
<g
   id="g50"
   transform="translate(0,-496)">
</g>
<g
   id="g52"
   transform="translate(0,-496)">
</g>
<g
   id="g54"
   transform="translate(0,-496)">
</g>
</svg>