<?xml version="1.0" encoding="UTF-8" standalone="no"?>
<!-- Generator: Adobe Illustrator 18.0.0, SVG Export Plug-In . SVG Version: 6.00 Build 0)  -->

<svg
   xmlns:dc="http://purl.org/dc/elements/1.1/"
   xmlns:cc="http://creativecommons.org/ns#"
   xmlns:rdf="http://www.w3.org/1999/02/22-rdf-syntax-ns#"
   xmlns:svg="http://www.w3.org/2000/svg"
   xmlns="http://www.w3.org/2000/svg"
   xmlns:sodipodi="http://sodipodi.sourceforge.net/DTD/sodipodi-0.dtd"
   xmlns:inkscape="http://www.inkscape.org/namespaces/inkscape"
   version="1.1"
   id="Capa_1"
   x="0px"
   y="0px"
   viewBox="0 0 16 16"
   xml:space="preserve"
   sodipodi:docname="planner-paste-symbolic.svg"
   width="16"
   height="16"
   inkscape:version="0.92.3 (2405546, 2018-03-11)"><metadata
   id="metadata39"><rdf:RDF><cc:Work
       rdf:about=""><dc:format>image/svg+xml</dc:format><dc:type
         rdf:resource="http://purl.org/dc/dcmitype/StillImage" /><dc:title /></cc:Work></rdf:RDF></metadata><defs
   id="defs37" /><sodipodi:namedview
   pagecolor="#ffffff"
   bordercolor="#666666"
   borderopacity="1"
   objecttolerance="10"
   gridtolerance="10"
   guidetolerance="10"
   inkscape:pageopacity="0"
   inkscape:pageshadow="2"
   inkscape:window-width="1366"
   inkscape:window-height="705"
   id="namedview35"
   showgrid="false"
   inkscape:zoom="32.625"
   inkscape:cx="8"
   inkscape:cy="8"
   inkscape:window-x="0"
   inkscape:window-y="30"
   inkscape:window-maximized="1"
   inkscape:current-layer="Capa_1" />
<path
   d="M 14.400428,7.6377577 13.224878,6.3549144 V 3.6060872 c 0,-0.6512641 -0.561047,-1.181218 -1.250521,-1.181218 H 10.549653 V 1.7117747 c 0,-0.1180999 -0.101473,-0.2139499 -0.226503,-0.2139499 H 4.6143752 c -0.1250296,0 -0.2265028,0.09585 -0.2265028,0.2139499 V 2.4248692 H 2.9631698 c -0.6894743,0 -1.2505218,0.5299539 -1.2505218,1.181218 v 8.9632168 c 0,0.651263 0.5610475,1.181217 1.2505218,1.181217 h 2.7402308 c 0.2077031,0.598632 0.8038584,1.032523 1.506017,1.032523 h 5.6609844 c 0.874074,0 1.585293,-0.671803 1.585293,-1.497436 V 7.7778949 c 0,-0.051566 -0.01947,-0.1011988 -0.05526,-0.1401372 z m -2.860277,-2.4674833 2.193454,2.3936707 h -1.061167 c -0.624241,0 -1.132287,-0.4796751 -1.132287,-1.069535 z M 4.840878,1.9257245 h 5.25577 V 3.1178536 H 4.840878 Z M 2.9631698,13.322408 c -0.4396419,0 -0.7975162,-0.338042 -0.7975162,-0.753317 V 3.6060872 c 0,-0.4152769 0.3578743,-0.7533183 0.7975162,-0.7533183 H 4.3878724 V 3.332017 c 0,0.1181008 0.1014728,0.2139499 0.2265028,0.2139499 H 10.32315 c 0.12503,0 0.226503,-0.095849 0.226503,-0.2139499 V 2.8527689 h 1.424704 c 0.439642,0 0.797516,0.3380414 0.797516,0.7533183 V 5.8606901 L 11.484884,4.456324 c -0.04304,-0.047068 -0.105551,-0.074027 -0.171237,-0.074027 H 7.2094176 c -0.8740742,0 -1.585293,0.6715886 -1.585293,1.4972212 v 7.4060899 c 0,0.01241 0.00159,0.0246 0.00204,0.0368 z M 12.870402,14.35493 H 7.2094176 c -0.6242415,0 -1.1322873,-0.479676 -1.1322873,-1.069536 V 5.8793046 c 0,-0.5896464 0.5078192,-1.0693215 1.1322873,-1.0693215 h 3.8777274 v 1.684427 c 0,0.8256327 0.71122,1.4974347 1.585293,1.4974347 h 1.330251 v 5.2937632 c 0,0.589646 -0.507819,1.069322 -1.132287,1.069322 z"
   id="path2"
   inkscape:connector-curvature="0"
   style="stroke:none;stroke-width:0.22013688;stroke-opacity:1" />
<g
   id="g4"
   transform="translate(0,-46.094002)">
</g>
<g
   id="g6"
   transform="translate(0,-46.094002)">
</g>
<g
   id="g8"
   transform="translate(0,-46.094002)">
</g>
<g
   id="g10"
   transform="translate(0,-46.094002)">
</g>
<g
   id="g12"
   transform="translate(0,-46.094002)">
</g>
<g
   id="g14"
   transform="translate(0,-46.094002)">
</g>
<g
   id="g16"
   transform="translate(0,-46.094002)">
</g>
<g
   id="g18"
   transform="translate(0,-46.094002)">
</g>
<g
   id="g20"
   transform="translate(0,-46.094002)">
</g>
<g
   id="g22"
   transform="translate(0,-46.094002)">
</g>
<g
   id="g24"
   transform="translate(0,-46.094002)">
</g>
<g
   id="g26"
   transform="translate(0,-46.094002)">
</g>
<g
   id="g28"
   transform="translate(0,-46.094002)">
</g>
<g
   id="g30"
   transform="translate(0,-46.094002)">
</g>
<g
   id="g32"
   transform="translate(0,-46.094002)">
</g>
</svg>