<?xml version="1.0" encoding="UTF-8" standalone="no"?>
<!-- Generator: Adobe Illustrator 19.1.0, SVG Export Plug-In . SVG Version: 6.00 Build 0)  -->

<svg
   xmlns:dc="http://purl.org/dc/elements/1.1/"
   xmlns:cc="http://creativecommons.org/ns#"
   xmlns:rdf="http://www.w3.org/1999/02/22-rdf-syntax-ns#"
   xmlns:svg="http://www.w3.org/2000/svg"
   xmlns="http://www.w3.org/2000/svg"
   xmlns:sodipodi="http://sodipodi.sourceforge.net/DTD/sodipodi-0.dtd"
   xmlns:inkscape="http://www.inkscape.org/namespaces/inkscape"
   version="1.1"
   id="Capa_1"
   x="0px"
   y="0px"
   viewBox="0 0 16 16"
   xml:space="preserve"
   sodipodi:docname="planner-copy-symbolic.svg"
   width="16"
   height="16"
   inkscape:version="0.92.3 (2405546, 2018-03-11)"><metadata
   id="metadata45"><rdf:RDF><cc:Work
       rdf:about=""><dc:format>image/svg+xml</dc:format><dc:type
         rdf:resource="http://purl.org/dc/dcmitype/StillImage" /><dc:title /></cc:Work></rdf:RDF></metadata><defs
   id="defs43" /><sodipodi:namedview
   pagecolor="#ffffff"
   bordercolor="#666666"
   borderopacity="1"
   objecttolerance="10"
   gridtolerance="10"
   guidetolerance="10"
   inkscape:pageopacity="0"
   inkscape:pageshadow="2"
   inkscape:window-width="1366"
   inkscape:window-height="705"
   id="namedview41"
   showgrid="false"
   inkscape:zoom="32.625"
   inkscape:cx="8"
   inkscape:cy="8"
   inkscape:window-x="0"
   inkscape:window-y="30"
   inkscape:window-maximized="1"
   inkscape:current-layer="g8" />
<g
   id="g8"
   transform="matrix(0.0286709,0,0,0.0286709,1.1537454,1.1594555)">
	<g
   id="g6"
   style="stroke:#000000;stroke-width:3.48785496;stroke-miterlimit:4;stroke-dasharray:none;stroke-opacity:1"
   transform="matrix(0.98275859,0,0,0.98275859,-11.913742,-1.6608748)">
		<path
   d="m 314.25,85.4 h -227 c -21.3,0 -38.6,17.3 -38.6,38.6 v 325.7 c 0,21.3 17.3,38.6 38.6,38.6 h 227 c 21.3,0 38.6,-17.3 38.6,-38.6 V 124 c -0.1,-21.3 -17.4,-38.6 -38.6,-38.6 z m 11.5,364.2 c 0,6.4 -5.2,11.6 -11.6,11.6 h -227 c -6.4,0 -11.6,-5.2 -11.6,-11.6 V 124 c 0,-6.4 5.2,-11.6 11.6,-11.6 h 227 c 6.4,0 11.6,5.2 11.6,11.6 z"
   id="path2"
   inkscape:connector-curvature="0"
   style="stroke:#000000;stroke-width:0;stroke-miterlimit:4;stroke-dasharray:none;stroke-opacity:1" />
		<path
   d="m 401.05,0 h -227 c -21.3,0 -38.6,17.3 -38.6,38.6 0,7.5 6,13.5 13.5,13.5 7.5,0 13.5,-6 13.5,-13.5 0,-6.4 5.2,-11.6 11.6,-11.6 h 227 c 6.4,0 11.6,5.2 11.6,11.6 v 325.7 c 0,6.4 -5.2,11.6 -11.6,11.6 -7.5,0 -13.5,6 -13.5,13.5 0,7.5 6,13.5 13.5,13.5 21.3,0 38.6,-17.3 38.6,-38.6 V 38.6 C 439.65,17.3 422.35,0 401.05,0 Z"
   id="path4"
   inkscape:connector-curvature="0"
   style="stroke:#000000;stroke-width:0;stroke-miterlimit:4;stroke-dasharray:none;stroke-opacity:1" />
	</g>
</g>
<g
   id="g10"
   transform="translate(0,-472.29999)">
</g>
<g
   id="g12"
   transform="translate(0,-472.29999)">
</g>
<g
   id="g14"
   transform="translate(0,-472.29999)">
</g>
<g
   id="g16"
   transform="translate(0,-472.29999)">
</g>
<g
   id="g18"
   transform="translate(0,-472.29999)">
</g>
<g
   id="g20"
   transform="translate(0,-472.29999)">
</g>
<g
   id="g22"
   transform="translate(0,-472.29999)">
</g>
<g
   id="g24"
   transform="translate(0,-472.29999)">
</g>
<g
   id="g26"
   transform="translate(0,-472.29999)">
</g>
<g
   id="g28"
   transform="translate(0,-472.29999)">
</g>
<g
   id="g30"
   transform="translate(0,-472.29999)">
</g>
<g
   id="g32"
   transform="translate(0,-472.29999)">
</g>
<g
   id="g34"
   transform="translate(0,-472.29999)">
</g>
<g
   id="g36"
   transform="translate(0,-472.29999)">
</g>
<g
   id="g38"
   transform="translate(0,-472.29999)">
</g>
</svg>