<?xml version="1.0" encoding="UTF-8" standalone="no"?>
<svg
   xmlns:dc="http://purl.org/dc/elements/1.1/"
   xmlns:cc="http://creativecommons.org/ns#"
   xmlns:rdf="http://www.w3.org/1999/02/22-rdf-syntax-ns#"
   xmlns:svg="http://www.w3.org/2000/svg"
   xmlns="http://www.w3.org/2000/svg"
   xmlns:sodipodi="http://sodipodi.sourceforge.net/DTD/sodipodi-0.dtd"
   xmlns:inkscape="http://www.inkscape.org/namespaces/inkscape"
   viewBox="0 0 16 16"
   version="1.1"
   id="svg4"
   sodipodi:docname="planner-archive-symbolic.svg"
   inkscape:version="0.92.3 (2405546, 2018-03-11)"
   width="16"
   height="16">
  <metadata
     id="metadata10">
    <rdf:RDF>
      <cc:Work
         rdf:about="">
        <dc:format>image/svg+xml</dc:format>
        <dc:type
           rdf:resource="http://purl.org/dc/dcmitype/StillImage" />
        <dc:title></dc:title>
      </cc:Work>
    </rdf:RDF>
  </metadata>
  <defs
     id="defs8" />
  <sodipodi:namedview
     pagecolor="#ffffff"
     bordercolor="#666666"
     borderopacity="1"
     objecttolerance="10"
     gridtolerance="10"
     guidetolerance="10"
     inkscape:pageopacity="0"
     inkscape:pageshadow="2"
     inkscape:window-width="1366"
     inkscape:window-height="705"
     id="namedview6"
     showgrid="false"
     inkscape:zoom="10.429825"
     inkscape:cx="1.1865531"
     inkscape:cy="1.492577"
     inkscape:window-x="0"
     inkscape:window-y="30"
     inkscape:window-maximized="1"
     inkscape:current-layer="svg4" />
  <g
     id="g818"
     transform="matrix(0.03365385,0,0,0.03365365,-0.6153848,-0.61533333)"
     style="stroke-width:29.71437645">
    <path
       style="fill:#666666;fill-opacity:1;stroke-width:29.71437645"
       id="path2"
       d="M 460,120 H 52 c -2.2,0 -4,-1.8 -4,-4 V 96 C 48,78.3 62.3,64 80,64 h 352 c 17.7,0 32,14.3 32,32 v 20 c 0,2.2 -1.8,4 -4,4 z m -20,26 H 72 c -4.4,0 -8,3.6 -8,8 v 262 c 0,17.6 14.4,32 32,32 h 320 c 17.6,0 32,-14.4 32,-32 V 154 c 0,-4.4 -3.6,-8 -8,-8 z M 306,288 h -99.6 c -7.1,0 -13.4,-5.2 -14.3,-12.3 -1,-8.5 5.6,-15.7 13.9,-15.7 h 99.6 c 7.1,0 13.4,5.2 14.3,12.3 1,8.4 -5.6,15.7 -13.9,15.7 z"
       inkscape:connector-curvature="0" />
  </g>
</svg>
