<?xml version="1.0" encoding="UTF-8" standalone="no"?>
<svg
   xmlns:dc="http://purl.org/dc/elements/1.1/"
   xmlns:cc="http://creativecommons.org/ns#"
   xmlns:rdf="http://www.w3.org/1999/02/22-rdf-syntax-ns#"
   xmlns:svg="http://www.w3.org/2000/svg"
   xmlns="http://www.w3.org/2000/svg"
   xmlns:sodipodi="http://sodipodi.sourceforge.net/DTD/sodipodi-0.dtd"
   xmlns:inkscape="http://www.inkscape.org/namespaces/inkscape"
   viewBox="0 0 16 16"
   version="1.1"
   id="svg8"
   sodipodi:docname="planner-alarm-symbolic.svg"
   width="16"
   height="16"
   inkscape:version="0.92.3 (2405546, 2018-03-11)">
  <metadata
     id="metadata14">
    <rdf:RDF>
      <cc:Work
         rdf:about="">
        <dc:format>image/svg+xml</dc:format>
        <dc:type
           rdf:resource="http://purl.org/dc/dcmitype/StillImage" />
        <dc:title />
      </cc:Work>
    </rdf:RDF>
  </metadata>
  <defs
     id="defs12" />
  <sodipodi:namedview
     pagecolor="#ffffff"
     bordercolor="#666666"
     borderopacity="1"
     objecttolerance="10"
     gridtolerance="10"
     guidetolerance="10"
     inkscape:pageopacity="0"
     inkscape:pageshadow="2"
     inkscape:window-width="975"
     inkscape:window-height="597"
     id="namedview10"
     showgrid="false"
     inkscape:zoom="10.429825"
     inkscape:cx="14.839818"
     inkscape:cy="6.3271798"
     inkscape:window-x="127"
     inkscape:window-y="61"
     inkscape:window-maximized="0"
     inkscape:current-layer="svg8" />
  <g
     id="g821">
    <path
       inkscape:connector-curvature="0"
       style="fill:#666666;fill-opacity:1;stroke-width:0.99999982"
       id="path2"
       d="m 12.564576,1.0056456 c -0.0474,-0.00365 -0.09479,-0.00365 -0.142188,-0.00365 h -0.0073 c -0.590624,0 -1.166665,0.19687 -1.626039,0.5505069 -0.05833,0.047395 -0.09479,0.1166637 -0.09844,0.1895785 -0.0036,0.072915 0.02917,0.1458296 0.08385,0.19687 l 3.273954,2.9348215 c 0.04739,0.040103 0.105729,0.065623 0.167708,0.065623 h 0.01458 c 0.06927,-0.00365 0.13125,-0.036458 0.175,-0.087498 0.335416,-0.3864486 0.59427,-0.6853993 0.59427,-1.3343412 0.0036,-1.3270498 -1.060936,-2.435355 -2.435413,-2.5119156 z M 1.0000093,3.5175612 c 0,0.6489419 0.2588538,0.9478926 0.59427,1.3343412 0.04375,0.05104 0.105729,0.083852 0.1749997,0.087498 h 0.014583 c 0.061979,0 0.1203124,-0.021875 0.1677081,-0.065623 L 5.2291698,1.9389553 c 0.054687,-0.05104 0.0875,-0.1203094 0.083854,-0.19687 C 5.309378,1.6691705 5.2765656,1.5999014 5.2145865,1.5525068 4.7552122,1.1988699 4.1791713,1.0019999 3.5885472,1.0019999 h -0.00729 c -0.047396,0 -0.094792,0 -0.1421872,0.00365 -1.3744772,0.076561 -2.44270481,1.1848658 -2.439059,2.5119156 z" />
    <g
       transform="matrix(0.03645828,0,0,0.03645741,-1.3333206,-1.3312744)"
       style="fill:#666666;fill-opacity:1;stroke-width:27.4289341"
       id="g6">
      <path
         inkscape:connector-curvature="0"
         style="fill:#666666;fill-opacity:1;stroke-width:27.4289341"
         id="path4"
         d="M 390,386 C 416.2,355.3 432,315.5 432,272 432,174.8 353.2,96 256,96 158.8,96 80,174.8 80,272 c 0,43.5 15.8,83.3 42,114 l -34.7,35.5 c -6.2,6.3 -6,15.5 0.3,21.6 3.1,3 7.4,4.8 11.4,4.8 4.2,0 8.1,-1.9 11.2,-5.1 l 34.6,-34.5 c 30.3,24.7 69,39.6 111.2,39.6 42.2,0 80.9,-14.8 111.2,-39.6 l 33.6,34.5 c 3.1,3.2 7.3,5.1 11.5,5.1 4,0 8.1,-1.8 11.2,-4.8 6.3,-6.2 7.5,-15.3 1.3,-21.6 z M 270,274 c 0,7.7 -6.3,14 -14,14 h -82 c -7.7,0 -14,-6.3 -14,-14 0,-7.7 6.3,-14 14,-14 h 68 V 158 c 0,-7.7 6.3,-14 14,-14 7.7,0 14,6.3 14,14 z" />
    </g>
  </g>
</svg>
