<?xml version="1.0" encoding="UTF-8" standalone="no"?>
<svg
   xmlns:dc="http://purl.org/dc/elements/1.1/"
   xmlns:cc="http://creativecommons.org/ns#"
   xmlns:rdf="http://www.w3.org/1999/02/22-rdf-syntax-ns#"
   xmlns:svg="http://www.w3.org/2000/svg"
   xmlns="http://www.w3.org/2000/svg"
   xmlns:sodipodi="http://sodipodi.sourceforge.net/DTD/sodipodi-0.dtd"
   xmlns:inkscape="http://www.inkscape.org/namespaces/inkscape"
   height="16"
   width="16"
   version="1.1"
   id="svg6"
   sodipodi:docname="planner-calendar-symbolic.svg"
   inkscape:version="0.92.3 (2405546, 2018-03-11)">
  <metadata
     id="metadata12">
    <rdf:RDF>
      <cc:Work
         rdf:about="">
        <dc:format>image/svg+xml</dc:format>
        <dc:type
           rdf:resource="http://purl.org/dc/dcmitype/StillImage" />
      </cc:Work>
    </rdf:RDF>
  </metadata>
  <defs
     id="defs10" />
  <sodipodi:namedview
     pagecolor="#ffffff"
     bordercolor="#666666"
     borderopacity="1"
     objecttolerance="10"
     gridtolerance="10"
     guidetolerance="10"
     inkscape:pageopacity="0"
     inkscape:pageshadow="2"
     inkscape:window-width="1366"
     inkscape:window-height="705"
     id="namedview8"
     showgrid="false"
     inkscape:zoom="14.75"
     inkscape:cx="-2.4067797"
     inkscape:cy="8"
     inkscape:window-x="0"
     inkscape:window-y="30"
     inkscape:window-maximized="1"
     inkscape:current-layer="svg6"
     showguides="false" />
  <g
     transform="matrix(1.17075,0,0,1.1707471,-975.38,-614.30643)"
     id="g4">
    <path
       d="m 837.5,525 c -0.277,0 -0.5,0.227 -0.5,0.5 v 0.5 h 1 v -0.5 c 0,-0.277 -0.223,-0.5 -0.5,-0.5 z m 0.5,1 v 0.5 a 0.5,0.5 0 1 1 -1,0 V 526 h -1.5 c -0.831,0 -1.5,0.669 -1.5,1.5 v 9 c 0,0.831 0.669,1.5 1.5,1.5 h 9 c 0.831,0 1.5,-0.669 1.5,-1.5 v -9 c 0,-0.831 -0.669,-1.5 -1.5,-1.5 H 843 v 0.5 a 0.5,0.5 0 1 1 -1,0 V 526 Z m 4,0 h 1 v -0.5 a 0.5,0.5 0 1 0 -1,0 z m -6.5,4 h 9 c 0.277,0 0.5,0.223 0.5,0.5 v 6 c 0,0.277 -0.223,0.5 -0.5,0.5 h -9 a 0.499,0.499 0 0 1 -0.5,-0.5 v -6 c 0,-0.277 0.223,-0.5 0.5,-0.5 z"
       overflow="visible"
       style="color:#bebebe;overflow:visible;isolation:auto;mix-blend-mode:normal;fill:#666666;marker:none"
       id="path2"
       inkscape:connector-curvature="0" />
  </g>
</svg>
