<?xml version="1.0" encoding="UTF-8" standalone="no"?>
<svg
   xmlns:dc="http://purl.org/dc/elements/1.1/"
   xmlns:cc="http://creativecommons.org/ns#"
   xmlns:rdf="http://www.w3.org/1999/02/22-rdf-syntax-ns#"
   xmlns:svg="http://www.w3.org/2000/svg"
   xmlns="http://www.w3.org/2000/svg"
   xmlns:sodipodi="http://sodipodi.sourceforge.net/DTD/sodipodi-0.dtd"
   xmlns:inkscape="http://www.inkscape.org/namespaces/inkscape"
   inkscape:version="1.0 (4035a4fb49, 2020-05-01)"
   sodipodi:docname="pricetag-outline.svg"
   id="svg8"
   version="1.1"
   viewBox="0 0 16 16"
   height="16"
   width="16">
  <metadata
     id="metadata14">
    <rdf:RDF>
      <cc:Work
         rdf:about="">
        <dc:format>image/svg+xml</dc:format>
        <dc:type
           rdf:resource="http://purl.org/dc/dcmitype/StillImage" />
        <dc:title>ionicons-v5-p</dc:title>
      </cc:Work>
    </rdf:RDF>
  </metadata>
  <defs
     id="defs12" />
  <sodipodi:namedview
     inkscape:current-layer="svg8"
     inkscape:window-maximized="1"
     inkscape:window-y="30"
     inkscape:window-x="0"
     inkscape:cy="8"
     inkscape:cx="8"
     inkscape:zoom="32.9375"
     showgrid="false"
     id="namedview10"
     inkscape:window-height="705"
     inkscape:window-width="1366"
     inkscape:pageshadow="2"
     inkscape:pageopacity="0"
     guidetolerance="10"
     gridtolerance="10"
     objecttolerance="10"
     borderopacity="1"
     bordercolor="#666666"
     pagecolor="#ffffff" />
  <title
     id="title2">ionicons-v5-p</title>
  <path
     id="path4"
     style="fill:none;stroke:#666666;stroke-width:1.00044px;stroke-linecap:round;stroke-linejoin:round;stroke-opacity:1"
     d="M 13.602494,1.5002209 H 9.7601678 a 0.45207515,0.45207515 0 0 0 -0.318891,0.131308 l -7.681526,7.681526 a 0.90196183,0.90196183 0 0 0 0,1.2724381 l 3.657869,3.65787 a 0.90196183,0.90196183 0 0 0 1.272439,0 L 14.368458,6.5649629 a 0.45207515,0.45207515 0 0 0 0.131308,-0.318891 v -3.845452 a 0.8960217,0.8960217 0 0 0 -0.897272,-0.900399 z" />
  <path
     style="fill:#666666;fill-opacity:1;stroke-width:0.0312638"
     id="path6"
     d="m 12.000222,5.0017709 a 1.0004429,1.0004429 0 1 1 1.000443,-1.000443 1.0004429,1.0004429 0 0 1 -1.000443,1.000443 z" />
</svg>
