<?xml version="1.0" encoding="UTF-8" standalone="no"?>
<svg
   xmlns:dc="http://purl.org/dc/elements/1.1/"
   xmlns:cc="http://creativecommons.org/ns#"
   xmlns:rdf="http://www.w3.org/1999/02/22-rdf-syntax-ns#"
   xmlns:svg="http://www.w3.org/2000/svg"
   xmlns="http://www.w3.org/2000/svg"
   xmlns:sodipodi="http://sodipodi.sourceforge.net/DTD/sodipodi-0.dtd"
   xmlns:inkscape="http://www.inkscape.org/namespaces/inkscape"
   inkscape:version="1.0 (4035a4fb49, 2020-05-01)"
   height="16"
   width="16"
   sodipodi:docname="pricetag-outline.svg"
   id="svg8"
   version="1.1"
   viewBox="0 0 16 16"
   class="ionicon">
  <metadata
     id="metadata14">
    <rdf:RDF>
      <cc:Work
         rdf:about="">
        <dc:format>image/svg+xml</dc:format>
        <dc:type
           rdf:resource="http://purl.org/dc/dcmitype/StillImage" />
        <dc:title>Pricetag</dc:title>
      </cc:Work>
    </rdf:RDF>
  </metadata>
  <defs
     id="defs12" />
  <sodipodi:namedview
     inkscape:current-layer="svg8"
     inkscape:window-maximized="1"
     inkscape:window-y="30"
     inkscape:window-x="0"
     inkscape:cy="6.6247923"
     inkscape:cx="8.6106563"
     inkscape:zoom="23.0625"
     showgrid="false"
     id="namedview10"
     inkscape:window-height="705"
     inkscape:window-width="1366"
     inkscape:pageshadow="2"
     inkscape:pageopacity="0"
     guidetolerance="10"
     gridtolerance="10"
     objecttolerance="10"
     borderopacity="1"
     bordercolor="#666666"
     pagecolor="#ffffff" />
  <title
     id="title2">Pricetag</title>
  <g
     transform="matrix(0.03125688,0,0,0.03125688,-0.00486764,-2.1927703e-4)"
     id="g841">
    <path
       d="m 435.25,48 h -122.9 a 14.46,14.46 0 0 0 -10.2,4.2 L 56.45,297.9 a 28.85,28.85 0 0 0 0,40.7 l 117,117 a 28.85,28.85 0 0 0 40.7,0 L 459.75,210 a 14.46,14.46 0 0 0 4.2,-10.2 V 76.8 A 28.66,28.66 0 0 0 435.25,48 Z"
       fill="none"
       stroke="currentColor"
       stroke-linecap="round"
       stroke-linejoin="round"
       stroke-width="32"
       id="path4"
       style="stroke:#3689e6;stroke-opacity:1" />
    <path
       d="m 384,160 a 32,32 0 1 1 32,-32 32,32 0 0 1 -32,32 z"
       id="path6"
       style="fill:#3689e6;fill-opacity:1" />
  </g>
</svg>
