<?xml version="1.0" encoding="UTF-8" standalone="no"?>
<svg
   xmlns:dc="http://purl.org/dc/elements/1.1/"
   xmlns:cc="http://creativecommons.org/ns#"
   xmlns:rdf="http://www.w3.org/1999/02/22-rdf-syntax-ns#"
   xmlns:svg="http://www.w3.org/2000/svg"
   xmlns="http://www.w3.org/2000/svg"
   xmlns:sodipodi="http://sodipodi.sourceforge.net/DTD/sodipodi-0.dtd"
   xmlns:inkscape="http://www.inkscape.org/namespaces/inkscape"
   width="16"
   height="16"
   viewBox="0 0 16 16"
   version="1.1"
   id="svg6"
   sodipodi:docname="priority-3.svg"
   inkscape:version="1.0 (4035a4fb49, 2020-05-01)">
  <metadata
     id="metadata12">
    <rdf:RDF>
      <cc:Work
         rdf:about="">
        <dc:format>image/svg+xml</dc:format>
        <dc:type
           rdf:resource="http://purl.org/dc/dcmitype/StillImage" />
        <dc:title>ionicons-v5-m</dc:title>
      </cc:Work>
    </rdf:RDF>
  </metadata>
  <defs
     id="defs10" />
  <sodipodi:namedview
     inkscape:document-rotation="0"
     pagecolor="#ffffff"
     bordercolor="#666666"
     borderopacity="1"
     objecttolerance="10"
     gridtolerance="10"
     guidetolerance="10"
     inkscape:pageopacity="0"
     inkscape:pageshadow="2"
     inkscape:window-width="1366"
     inkscape:window-height="705"
     id="namedview8"
     showgrid="false"
     inkscape:zoom="32.9375"
     inkscape:cx="7.9240987"
     inkscape:cy="8"
     inkscape:window-x="0"
     inkscape:window-y="30"
     inkscape:window-maximized="1"
     inkscape:current-layer="svg6" />
  <title
     id="title2">ionicons-v5-m</title>
  <path
     d="M 2.500005,14.5 V 2.129375 a 0.25,0.25 0 0 1 0.125,-0.215625 C 2.869068,1.770625 3.528755,1.5 5.000005,1.5 c 2,0 4.53125,1.5 6,1.5 a 6.2353126,6.2353126 0 0 0 2.413438,-0.492812 0.0625,0.0625 0 0 1 0.08656,0.05781 v 6.855 a 0.125,0.125 0 0 1 -0.07469,0.114062 c -0.2575,0.112813 -1.165,0.465938 -2.425313,0.465938 -1.5,0 -4,-1 -6,-1 -2,0 -2.5,0.5 -2.5,0.5"
     style="fill:none;stroke:#5297ff;stroke-width:1px;stroke-linecap:round;stroke-miterlimit:10;stroke-opacity:1"
     id="path4" />
</svg>
