<?xml version="1.0" encoding="UTF-8" standalone="no"?>
<svg
   xmlns:dc="http://purl.org/dc/elements/1.1/"
   xmlns:cc="http://creativecommons.org/ns#"
   xmlns:rdf="http://www.w3.org/1999/02/22-rdf-syntax-ns#"
   xmlns:svg="http://www.w3.org/2000/svg"
   xmlns="http://www.w3.org/2000/svg"
   xmlns:sodipodi="http://sodipodi.sourceforge.net/DTD/sodipodi-0.dtd"
   xmlns:inkscape="http://www.inkscape.org/namespaces/inkscape"
   id="svg8"
   version="1.1"
   width="16"
   height="16"
   sodipodi:docname="edit-flag-symbolic.svg"
   inkscape:version="0.92.3 (2405546, 2018-03-11)">
  <sodipodi:namedview
     pagecolor="#ffffff"
     bordercolor="#666666"
     borderopacity="1"
     objecttolerance="10"
     gridtolerance="10"
     guidetolerance="10"
     inkscape:pageopacity="0"
     inkscape:pageshadow="2"
     inkscape:window-width="1366"
     inkscape:window-height="705"
     id="namedview6"
     showgrid="false"
     inkscape:zoom="34"
     inkscape:cx="8"
     inkscape:cy="8"
     inkscape:window-x="0"
     inkscape:window-y="30"
     inkscape:window-maximized="1"
     inkscape:current-layer="svg8" />
  <metadata
     id="metadata14">
    <rdf:RDF>
      <cc:Work
         rdf:about="">
        <dc:format>image/svg+xml</dc:format>
        <dc:type
           rdf:resource="http://purl.org/dc/dcmitype/StillImage" />
        <dc:title />
      </cc:Work>
    </rdf:RDF>
  </metadata>
  <defs
     id="defs12" />
  <path
     id="rect2"
     d="M 5.2871094,1.0078125 C 4.4766934,1.0540498 3.595938,1.2979613 2.578125,1.7714844 2.2256515,1.935521 2.0001818,2.28896 2,2.6777344 V 9.3261719 15.5 C 2,15.777 2.223,16 2.5,16 2.777,16 3,15.777 3,15.5 v -5.179688 c 0.1397015,5.4e-5 0.282732,-0.02317 0.421875,-0.08789 2.268881,-1.0550032 2.90625,-0.5812352 4.15625,0 1.25,0.581235 3.112631,1.269938 5.84375,0 C 13.774348,10.068385 13.999818,9.7149463 14,9.3261719 V 2.6777344 C 13.99959,1.9468362 13.240845,1.4632405 12.578125,1.7714844 10.735082,2.628372 9.9945925,2.4303094 9.0820312,2.0625 8.1694702,1.6946907 7.0245857,0.907718 5.2871094,1.0078125 Z"
     style="color:#000000;overflow:visible;fill:#666666;stroke-width:0.70710677;marker:none"
     inkscape:connector-curvature="0"
     sodipodi:nodetypes="ccccsssccsccccsc" />
</svg>
