<?xml version="1.0" encoding="UTF-8"?>
<svg height="16px" viewBox="0 0 16 16" width="16px" xmlns="http://www.w3.org/2000/svg">
    <path d="m 12.773438 1.070312 c 0.144531 0.277344 0.226562 0.59375 0.226562 0.929688 v 12 v 0.011719 l 2.703125 -10.085938 c 0.285156 -1.070312 -0.347656 -2.164062 -1.417969 -2.449219 z m 0 0"/>
    <path d="m 4 0 c -1.644531 0 -3 1.355469 -3 3 v 10 c 0 1.644531 1.355469 3 3 3 h 5 c 1.644531 0 3 -1.355469 3 -3 v -10 c 0 -1.644531 -1.355469 -3 -3 -3 z m 0 2 h 5 c 0.570312 0 1 0.429688 1 1 v 10 c 0 0.570312 -0.429688 1 -1 1 h -5 c -0.570312 0 -1 -0.429688 -1 -1 v -10 c 0 -0.570312 0.429688 -1 1 -1 z m 0 0"/>
    <path d="m 9.230469 4.960938 c -0.03125 0.003906 -0.0625 0.007812 -0.089844 0.015624 c -0.121094 0.027344 -0.226563 0.101563 -0.296875 0.210938 l 0.003906 -0.007812 l -3.148437 3.84375 c -0.007813 0.011718 -0.019531 0.011718 -0.027344 0.003906 l -1.597656 -1.457032 c -0.171875 -0.15625 -0.441407 -0.152343 -0.605469 0.015626 l -0.046875 0.042968 c -0.171875 0.171875 -0.191406 0.449219 -0.046875 0.640625 l 1.878906 2.523438 c 0.25 0.335937 0.769532 0.324219 1.003906 -0.023438 l 3.375 -5.023437 c 0.152344 -0.230469 0.101563 -0.539063 -0.117187 -0.707032 l -0.003906 -0.003906 l -0.007813 -0.003906 c -0.085937 -0.050781 -0.179687 -0.074219 -0.273437 -0.066406 z m 0 0"/>
</svg>
