<?xml version="1.0" encoding="UTF-8"?>
<svg height="128px" viewBox="0 0 128 128" width="128px" xmlns="http://www.w3.org/2000/svg" xmlns:xlink="http://www.w3.org/1999/xlink">
    <radialGradient id="a" cx="99.156998" cy="186.169998" gradientTransform="matrix(0.814318 0 0 0.189569 -14.778311 77.500771)" gradientUnits="userSpaceOnUse" r="62.769001">
        <stop offset="0" stop-color="#3d3d3d"/>
        <stop offset="0.5" stop-color="#686868" stop-opacity="0.498039"/>
        <stop offset="1" stop-color="#686868" stop-opacity="0"/>
    </radialGradient>
    <linearGradient id="b" gradientTransform="matrix(1.962866 0 0 1.962867 -78.372284 -0.706389)" gradientUnits="userSpaceOnUse" x1="52.954121" x2="100.701332" y1="27.332319" y2="27.332319">
        <stop offset="0" stop-color="#64baff"/>
        <stop offset="1" stop-color="#3689e6"/>
    </linearGradient>
    <clipPath id="c">
        <path d="m 9 0 h 70 v 74 h -70 z m 0 0"/>
    </clipPath>
    <clipPath id="d">
        <path d="m 11.046875 -5.195312 h 64.261719 c 1.769531 0 3.199218 1.464843 3.199218 3.273437 v 71.964844 c 0 1.808593 -1.429687 3.273437 -3.199218 3.273437 h -64.261719 c -1.769531 0 -3.199219 -1.464844 -3.199219 -3.273437 v -71.964844 c 0 -1.808594 1.429688 -3.273437 3.199219 -3.273437 z m 0 0"/>
    </clipPath>
    <linearGradient id="e" gradientUnits="userSpaceOnUse">
        <stop offset="0" stop-color="#ffffff" stop-opacity="0.156863"/>
        <stop offset="1" stop-color="#ffffff" stop-opacity="0"/>
    </linearGradient>
    <linearGradient id="f" x1="88.451149" x2="88.01178" xlink:href="#e" y1="-1.538505" y2="20.662321"/>
    <clipPath id="g">
        <path d="m 78 0 h 44 v 48 h -44 z m 0 0"/>
    </clipPath>
    <clipPath id="h">
        <path d="m 157.25 -19.953125 l -0.453125 64.261719 c -0.011719 1.765625 -1.488281 3.1875 -3.296875 3.175781 l -71.960938 -0.503906 c -1.808593 -0.015625 -3.265624 -1.457031 -3.253906 -3.222657 l 0.453125 -64.265624 c 0.011719 -1.765626 1.488281 -3.1875 3.296875 -3.175782 l 71.960938 0.507813 c 1.808594 0.011719 3.265625 1.453125 3.253906 3.222656 z m 0 0"/>
    </clipPath>
    <linearGradient id="i" x1="85.508156" x2="104.116249" xlink:href="#e" y1="24.46133" y2="24.46133"/>
    <clipPath id="j">
        <path d="m 53 49 h 69 v 74 h -69 z m 0 0"/>
    </clipPath>
    <clipPath id="k">
        <path d="m 120.53125 127.628906 h -64.261719 c -1.769531 0 -3.199219 -1.464844 -3.199219 -3.273437 v -71.964844 c 0 -1.808594 1.429688 -3.277344 3.199219 -3.277344 h 64.261719 c 1.769531 0 3.203125 1.46875 3.203125 3.277344 v 71.964844 c 0 1.808593 -1.433594 3.273437 -3.203125 3.273437 z m 0 0"/>
    </clipPath>
    <clipPath id="l">
        <path d="m 10 74 h 44 v 48 h -44 z m 0 0"/>
    </clipPath>
    <clipPath id="m">
        <path d="m -25.671875 142.386719 l 0.453125 -64.261719 c 0.011719 -1.765625 1.488281 -3.1875 3.296875 -3.175781 l 71.960937 0.503906 c 1.808594 0.015625 3.265626 1.457031 3.253907 3.222656 l -0.453125 64.261719 c -0.011719 1.769531 -1.488282 3.191406 -3.296875 3.179688 l -71.960938 -0.507813 c -1.808593 -0.011719 -3.265625 -1.453125 -3.253906 -3.222656 z m 0 0"/>
    </clipPath>
    <clipPath id="n">
        <path d="m 9 0 h 70 v 74 h -70 z m 0 0"/>
    </clipPath>
    <clipPath id="o">
        <path d="m 11.046875 -5.195312 h 64.261719 c 1.769531 0 3.199218 1.464843 3.199218 3.273437 v 71.964844 c 0 1.808593 -1.429687 3.273437 -3.199218 3.273437 h -64.261719 c -1.769531 0 -3.199219 -1.464844 -3.199219 -3.273437 v -71.964844 c 0 -1.808594 1.429688 -3.273437 3.199219 -3.273437 z m 0 0"/>
    </clipPath>
    <clipPath id="p">
        <path d="m 78 0 h 44 v 48 h -44 z m 0 0"/>
    </clipPath>
    <clipPath id="q">
        <path d="m 157.25 -19.953125 l -0.453125 64.261719 c -0.011719 1.765625 -1.488281 3.1875 -3.296875 3.175781 l -71.960938 -0.503906 c -1.808593 -0.015625 -3.265624 -1.457031 -3.253906 -3.222657 l 0.453125 -64.265624 c 0.011719 -1.765626 1.488281 -3.1875 3.296875 -3.175782 l 71.960938 0.507813 c 1.808594 0.011719 3.265625 1.453125 3.253906 3.222656 z m 0 0"/>
    </clipPath>
    <clipPath id="r">
        <path d="m 53 49 h 69 v 74 h -69 z m 0 0"/>
    </clipPath>
    <clipPath id="s">
        <path d="m 120.53125 127.628906 h -64.261719 c -1.769531 0 -3.199219 -1.464844 -3.199219 -3.273437 v -71.964844 c 0 -1.808594 1.429688 -3.277344 3.199219 -3.277344 h 64.261719 c 1.769531 0 3.203125 1.46875 3.203125 3.277344 v 71.964844 c 0 1.808593 -1.433594 3.273437 -3.203125 3.273437 z m 0 0"/>
    </clipPath>
    <clipPath id="t">
        <path d="m 10 74 h 44 v 48 h -44 z m 0 0"/>
    </clipPath>
    <clipPath id="u">
        <path d="m -25.671875 142.386719 l 0.453125 -64.261719 c 0.011719 -1.765625 1.488281 -3.1875 3.296875 -3.175781 l 71.960937 0.503906 c 1.808594 0.015625 3.265626 1.457031 3.253907 3.222656 l -0.453125 64.261719 c -0.011719 1.769531 -1.488282 3.191406 -3.296875 3.179688 l -71.960938 -0.507813 c -1.808593 -0.011719 -3.265625 -1.453125 -3.253906 -3.222656 z m 0 0"/>
    </clipPath>
    <clipPath id="v">
        <rect height="128" width="128"/>
    </clipPath>
    <clipPath id="w">
        <rect height="128" width="128"/>
    </clipPath>
    <filter id="x" height="100%" width="100%" x="0%" y="0%">
        <feColorMatrix in="SourceGraphic" type="matrix" values="0 0 0 0 1 0 0 0 0 1 0 0 0 0 1 0 0 0 1 0"/>
    </filter>
    <mask id="y">
        <g clip-path="url(#w)" filter="url(#x)">
            <g clip-path="url(#v)">
                <path d="m 117.085938 112.792969 c 0 6.574219 -22.886719 11.902343 -51.117188 11.902343 s -51.113281 -5.328124 -51.113281 -11.902343 c 0 -6.570313 22.882812 -11.898438 51.113281 -11.898438 s 51.117188 5.328125 51.117188 11.898438 z m 0 0" fill="url(#a)"/>
                <path d="m 13.897533 -121.419651 l 81.434665 0.002278 c 2.852347 0.000335 5.163143 2.346449 5.161007 5.237136 l -0.000507 94.302841 c 0.002196 2.894101 -2.309779 5.239672 -5.158247 5.238872 l -81.438093 0.002066 c -2.848468 -0.000801 -5.159263 -2.346915 -5.161459 -5.241015 l 0.000507 -94.302841 c 0.002136 -2.890687 2.30978 -5.239672 5.162127 -5.239337 z m 0 0" fill="#fafafa" stroke="#555761" stroke-opacity="0.741176" stroke-width="1.000003" transform="matrix(0.992891 -0.119029 -0.11548 -0.99331 0 0)"/>
                <path d="m 31.71122 0.55338 l 81.438093 -0.002066 c 2.848468 0.0008 5.159263 2.346915 5.161459 5.241015 l -0.000507 94.302841 c -0.001684 2.894566 -2.309779 5.239672 -5.162127 5.239336 l -81.434664 -0.002277 c -2.852348 -0.000335 -5.162692 -2.342571 -5.161008 -5.237136 l 0.000507 -94.302841 c -0.002196 -2.894101 2.309779 -5.239672 5.158247 -5.238872 z m 0 0" fill="url(#b)" stroke="#0d52bf" stroke-opacity="0.741176" stroke-width="1.000003" transform="matrix(0.992891 0.119029 -0.11548 0.99331 0 0)"/>
                <g clip-path="url(#n)">
                    <g clip-path="url(#o)">
                        <path d="m 76.45847 -0.743708 l 42.46957 -0.000305 c 1.180636 0.000771 2.139947 0.90759 2.139694 2.025561 l -0.000975 49.329748 c -0.000023 1.119947 -0.956935 2.025988 -2.139548 2.025454 l -42.467593 0.000068 c -1.182383 0.001442 -2.139717 -0.905615 -2.139694 -2.025561 l -0.001002 -49.329512 c 0.000253 -1.117971 0.958912 -2.026224 2.139548 -2.025453 z m 0 0" fill="none" stroke="url(#f)" stroke-width="0.509461" transform="matrix(1.948912 0.233637 -0.226672 1.949735 -117.77708 -11.085382)"/>
                    </g>
                </g>
                <g clip-path="url(#p)">
                    <g clip-path="url(#q)">
                        <path d="m 88.330542 13.555863 l 30.443865 -0.001134 c 1.26579 -0.000289 2.292996 0.861856 2.2918 1.924745 l 0.000267 35.234734 c 0.000779 1.062639 -1.026451 1.922934 -2.292241 1.923223 l -30.442133 -0.001091 c -1.26579 0.000289 -2.292753 -0.859882 -2.293532 -1.92252 l 0.001708 -35.234985 c -0.000779 -1.062639 1.024232 -1.924657 2.290266 -1.922972 z m 0 0" fill="none" stroke="url(#i)" stroke-width="0.509461" transform="matrix(-0.247326 1.947222 -1.948094 -0.240367 164.043575 -148.733017)"/>
                    </g>
                </g>
                <path d="m 82.734375 40.742188 l 8.660156 7.386718 l -27.800781 38.019532 l -22.5 -18.367188 l 7.113281 -9.761719 l 13.15625 10.828125 z m 0 0" fill-opacity="0.156863"/>
                <path d="m 82.292969 38.503906 l 8.660156 7.390625 l -27.800781 38.019531 l -22.503906 -18.367187 l 7.117187 -9.761719 l 13.15625 10.828125 z m 0 0" fill="#ffffff"/>
                <g clip-path="url(#r)">
                    <g clip-path="url(#s)">
                        <path d="m 76.458823 -0.744037 l 42.46957 -0.000305 c 1.180636 0.000771 2.13797 0.907827 2.137717 2.025798 l 0.001003 49.329512 c -0.000024 1.119946 -0.956936 2.025987 -2.139549 2.025453 l -42.469569 0.000305 c -1.180406 0.001205 -2.137741 -0.905851 -2.137718 -2.025798 l -0.001002 -49.329511 c 0.000253 -1.117971 0.958912 -2.026225 2.139548 -2.025454 z m 0 0" fill="none" stroke="url(#f)" stroke-width="0.509461" transform="matrix(-1.948912 -0.233637 0.226672 -1.949735 249.355968 133.518417)"/>
                    </g>
                </g>
                <g clip-path="url(#t)">
                    <g clip-path="url(#u)">
                        <path d="m 88.332187 13.555262 l 30.44189 -0.000883 c 1.266034 0.001685 2.292997 0.861856 2.293776 1.924495 l -0.001709 35.234985 c 0.000779 1.062638 -1.024475 1.922683 -2.290265 1.922971 l -30.443865 0.001135 c -1.266034 -0.001686 -2.292997 -0.861856 -2.291801 -1.924746 l -0.000266 -35.234734 c -0.000779 -1.062639 1.02645 -1.922934 2.29224 -1.923223 z m 0 0" fill="none" stroke="url(#i)" stroke-width="0.509461" transform="matrix(0.247326 -1.947222 1.948094 0.240367 -32.464687 271.166053)"/>
                    </g>
                </g>
            </g>
        </g>
    </mask>
    <mask id="z">
        <g filter="url(#x)">
            <rect fill-opacity="0.8" height="128" width="128"/>
        </g>
    </mask>
    <linearGradient id="A" gradientTransform="matrix(0 0.37 -0.98462 0 295.38501 -30.360001)" gradientUnits="userSpaceOnUse" x1="300" x2="428" y1="235" y2="235">
        <stop offset="0" stop-color="#f9f06b"/>
        <stop offset="1" stop-color="#f5c211"/>
    </linearGradient>
    <clipPath id="B">
        <rect height="128" width="128"/>
    </clipPath>
    <clipPath id="C">
        <rect height="128" width="128"/>
    </clipPath>
    <path d="m 117.085938 112.792969 c 0 6.574219 -22.886719 11.902343 -51.117188 11.902343 s -51.113281 -5.328124 -51.113281 -11.902343 c 0 -6.570313 22.882812 -11.898438 51.113281 -11.898438 s 51.117188 5.328125 51.117188 11.898438 z m 0 0" fill="url(#a)"/>
    <path d="m 13.897533 -121.419651 l 81.434665 0.002278 c 2.852347 0.000335 5.163143 2.346449 5.161007 5.237136 l -0.000507 94.302841 c 0.002196 2.894101 -2.309779 5.239672 -5.158247 5.238872 l -81.438093 0.002066 c -2.848468 -0.000801 -5.159263 -2.346915 -5.161459 -5.241015 l 0.000507 -94.302841 c 0.002136 -2.890687 2.30978 -5.239672 5.162127 -5.239337 z m 0 0" fill="#fafafa" stroke="#555761" stroke-opacity="0.741176" stroke-width="1.000003" transform="matrix(0.992891 -0.119029 -0.11548 -0.99331 0 0)"/>
    <path d="m 31.71122 0.55338 l 81.438093 -0.002066 c 2.848468 0.0008 5.159263 2.346915 5.161459 5.241015 l -0.000507 94.302841 c -0.001684 2.894566 -2.309779 5.239672 -5.162127 5.239336 l -81.434664 -0.002277 c -2.852348 -0.000335 -5.162692 -2.342571 -5.161008 -5.237136 l 0.000507 -94.302841 c -0.002196 -2.894101 2.309779 -5.239672 5.158247 -5.238872 z m 0 0" fill="url(#b)" stroke="#0d52bf" stroke-opacity="0.741176" stroke-width="1.000003" transform="matrix(0.992891 0.119029 -0.11548 0.99331 0 0)"/>
    <g clip-path="url(#c)">
        <g clip-path="url(#d)">
            <path d="m 76.45847 -0.743708 l 42.46957 -0.000305 c 1.180636 0.000771 2.139947 0.90759 2.139694 2.025561 l -0.000975 49.329748 c -0.000023 1.119947 -0.956935 2.025988 -2.139548 2.025454 l -42.467593 0.000068 c -1.182383 0.001442 -2.139717 -0.905615 -2.139694 -2.025561 l -0.001002 -49.329512 c 0.000253 -1.117971 0.958912 -2.026224 2.139548 -2.025453 z m 0 0" fill="none" stroke="url(#f)" stroke-width="0.509461" transform="matrix(1.948912 0.233637 -0.226672 1.949735 -117.77708 -11.085382)"/>
        </g>
    </g>
    <g clip-path="url(#g)">
        <g clip-path="url(#h)">
            <path d="m 88.330542 13.555863 l 30.443865 -0.001134 c 1.26579 -0.000289 2.292996 0.861856 2.2918 1.924745 l 0.000267 35.234734 c 0.000779 1.062639 -1.026451 1.922934 -2.292241 1.923223 l -30.442133 -0.001091 c -1.26579 0.000289 -2.292753 -0.859882 -2.293532 -1.92252 l 0.001708 -35.234985 c -0.000779 -1.062639 1.024232 -1.924657 2.290266 -1.922972 z m 0 0" fill="none" stroke="url(#i)" stroke-width="0.509461" transform="matrix(-0.247326 1.947222 -1.948094 -0.240367 164.043575 -148.733017)"/>
        </g>
    </g>
    <path d="m 82.734375 40.742188 l 8.660156 7.386718 l -27.800781 38.019532 l -22.5 -18.367188 l 7.113281 -9.761719 l 13.15625 10.828125 z m 0 0" fill-opacity="0.156863"/>
    <path d="m 82.292969 38.503906 l 8.660156 7.390625 l -27.800781 38.019531 l -22.503906 -18.367187 l 7.117187 -9.761719 l 13.15625 10.828125 z m 0 0" fill="#ffffff"/>
    <g clip-path="url(#j)">
        <g clip-path="url(#k)">
            <path d="m 76.458823 -0.744037 l 42.46957 -0.000305 c 1.180636 0.000771 2.13797 0.907827 2.137717 2.025798 l 0.001003 49.329512 c -0.000024 1.119946 -0.956936 2.025987 -2.139549 2.025453 l -42.469569 0.000305 c -1.180406 0.001205 -2.137741 -0.905851 -2.137718 -2.025798 l -0.001002 -49.329511 c 0.000253 -1.117971 0.958912 -2.026225 2.139548 -2.025454 z m 0 0" fill="none" stroke="url(#f)" stroke-width="0.509461" transform="matrix(-1.948912 -0.233637 0.226672 -1.949735 249.355968 133.518417)"/>
        </g>
    </g>
    <g clip-path="url(#l)">
        <g clip-path="url(#m)">
            <path d="m 88.332187 13.555262 l 30.44189 -0.000883 c 1.266034 0.001685 2.292997 0.861856 2.293776 1.924495 l -0.001709 35.234985 c 0.000779 1.062638 -1.024475 1.922683 -2.290265 1.922971 l -30.443865 0.001135 c -1.266034 -0.001686 -2.292997 -0.861856 -2.291801 -1.924746 l -0.000266 -35.234734 c -0.000779 -1.062639 1.02645 -1.922934 2.29224 -1.923223 z m 0 0" fill="none" stroke="url(#i)" stroke-width="0.509461" transform="matrix(0.247326 -1.947222 1.948094 0.240367 -32.464687 271.166053)"/>
        </g>
    </g>
    <g clip-path="url(#C)" mask="url(#y)">
        <g clip-path="url(#B)" mask="url(#z)">
            <path d="m 128 80.640625 v 47.359375 h -128 v -47.359375 z m 0 0" fill="url(#A)"/>
            <path d="m 13.308594 80.640625 l 47.355468 47.359375 h 21.214844 l -47.359375 -47.359375 z m 42.421875 0 l 47.363281 47.359375 h 21.214844 l -47.363282 -47.359375 z m 42.429687 0 l 29.839844 29.839844 v -21.210938 l -8.628906 -8.628906 z m -98.160156 7.90625 v 21.214844 l 18.238281 18.238281 h 21.214844 z m 0 0"/>
        </g>
    </g>
</svg>
