<?xml version="1.0" encoding="UTF-8"?>
<svg height="128px" viewBox="0 0 128 128" width="128px" xmlns="http://www.w3.org/2000/svg" xmlns:xlink="http://www.w3.org/1999/xlink">
    <linearGradient id="a" gradientTransform="matrix(0.939693 0.34202 -0.34202 0.939693 0 -172)" gradientUnits="userSpaceOnUse" x1="159.093781" x2="181.901184" y1="154.929825" y2="210.821457">
        <stop offset="0" stop-color="#ffab45"/>
        <stop offset="1" stop-color="#dd6d9f"/>
    </linearGradient>
    <linearGradient id="b" gradientTransform="matrix(0.984808 0.173648 -0.173648 0.984808 0 -172)" gradientUnits="userSpaceOnUse" x1="128.219681" x2="125.685921" y1="243.433182" y2="181.426102">
        <stop offset="0" stop-color="#3571e4"/>
        <stop offset="1" stop-color="#4bcdf0"/>
    </linearGradient>
    <linearGradient id="c" gradientUnits="userSpaceOnUse" x1="24" x2="24" y1="22" y2="104">
        <stop offset="0" stop-color="#ec8878" stop-opacity="0.54902"/>
        <stop offset="1" stop-color="#3571e4" stop-opacity="0.501961"/>
    </linearGradient>
    <path d="m 63.472656 5.558594 l 52.625 19.152344 c 4.152344 1.511718 6.292969 6.101562 4.78125 10.253906 l -30.097656 82.695312 c -1.511719 4.152344 -6.101562 6.292969 -10.253906 4.78125 l -52.625 -19.152344 c -4.152344 -1.511718 -6.292969 -6.101562 -4.78125 -10.253906 l 30.097656 -82.695312 c 1.511719 -4.152344 6.101562 -6.292969 10.253906 -4.78125 z m 0 0" fill="url(#a)"/>
    <path d="m 41.457031 6.929688 l 55.148438 9.722656 c 4.351562 0.765625 7.253906 4.917968 6.488281 9.265625 l -15.28125 86.664062 c -0.765625 4.351563 -4.917969 7.257813 -9.269531 6.488281 l -55.148438 -9.722656 c -4.351562 -0.765625 -7.253906 -4.917968 -6.488281 -9.265625 l 15.28125 -86.664062 c 0.765625 -4.351563 4.917969 -7.257813 9.269531 -6.488281 z m 0 0" fill="url(#b)"/>
    <path d="m 101.808594 19.992188 c 0.40625 1.226562 0.527344 2.5625 0.285156 3.925781 l -15.28125 86.664062 c -0.769531 4.363281 -4.902344 7.261719 -9.269531 6.488281 l -55.148438 -9.722656 c -2.203125 -0.390625 -4.03125 -1.636718 -5.203125 -3.339844 c 0.898438 2.691407 3.203125 4.8125 6.203125 5.339844 l 55.152344 9.722656 c 4.363281 0.773438 8.496094 -2.125 9.265625 -6.488281 l 15.28125 -86.664062 c 0.378906 -2.15625 -0.140625 -4.257813 -1.285156 -5.925781 z m 0 0" fill-opacity="0.25098"/>
    <path d="m 119.949219 27.695312 c 0.554687 1.652344 0.574219 3.496094 -0.074219 5.269532 l -30.097656 82.695312 c -1.515625 4.164063 -6.085938 6.296875 -10.253906 4.78125 l -52.617188 -19.152344 c -1.632812 -0.59375 -2.945312 -1.660156 -3.855469 -2.984374 c 0.746094 2.230468 2.460938 4.113281 4.855469 4.980468 l 52.621094 19.15625 c 4.164062 1.515625 8.734375 -0.617187 10.25 -4.78125 l 30.097656 -82.695312 c 0.925781 -2.53125 0.492188 -5.214844 -0.925781 -7.269532 z m 0 0" fill-opacity="0.101961"/>
    <path d="m 20 12 h 56 c 4.417969 0 8 3.582031 8 8 v 88 c 0 4.417969 -3.582031 8 -8 8 h -56 c -4.417969 0 -8 -3.582031 -8 -8 v -88 c 0 -4.417969 3.582031 -8 8 -8 z m 0 0" fill="#ffffff"/>
    <g fill="#5e5c64" fill-opacity="0.2">
        <path d="m 84 20 v 2 h -72 v -2 z m 0 0"/>
        <path d="m 84 34 v 2 h -72 v -2 z m 0 0"/>
        <path d="m 84 48 v 2 h -72 v -2 z m 0 0"/>
        <path d="m 84 62 v 2 h -72 v -2 z m 0 0"/>
        <path d="m 84 76 v 2 h -72 v -2 z m 0 0"/>
        <path d="m 84 90 v 2 h -72 v -2 z m 0 0"/>
        <path d="m 84 104 v 2 h -72 v -2 z m 0 0"/>
    </g>
    <path d="m 20 12 h 4 v 104 h -4 z m 0 0" fill="url(#c)"/>
    <path d="m 63.9375 50.589844 l -18.554688 22.675781 c -0.152343 0.183594 -0.371093 0.300781 -0.609374 0.316406 c -0.238282 0.015625 -0.472657 -0.0625 -0.648438 -0.222656 l -9.414062 -8.589844 c -0.726563 -0.660156 -1.84375 -0.636719 -2.539063 0.058594 l -0.273437 0.273437 c -0.753907 0.753907 -0.839844 1.945313 -0.203126 2.800782 l 11.082032 14.871094 c 0.554687 0.75 1.4375 1.179687 2.367187 1.15625 c 0.933594 -0.023438 1.792969 -0.496094 2.3125 -1.269532 l 19.90625 -29.625 c 0.6875 -1.019531 0.464844 -2.398437 -0.511719 -3.148437 c -1.003906 -0.59375 -2.292968 -0.28125 -2.914062 0.703125 z m 0 0" fill="#3d3846" stroke="#3d3846" stroke-width="1.5"/>
    <path d="m 12 106 v 2 c 0 4.433594 3.566406 8 8 8 h 56 c 4.433594 0 8 -3.566406 8 -8 v -2 c 0 4.433594 -3.566406 8 -8 8 h -56 c -4.433594 0 -8 -3.566406 -8 -8 z m 0 0" fill-opacity="0.14902"/>
</svg>
