<?xml version="1.0" encoding="UTF-8"?>
<svg height="16px" viewBox="0 0 16 16" width="16px" xmlns="http://www.w3.org/2000/svg">
    <g fill="#222222">
        <path d="m 7.292969 5.707031 l 3 3 v -1.414062 l -3 3 c -0.390625 0.390625 -0.390625 1.023437 0 1.414062 s 1.023437 0.390625 1.414062 0 l 3 -3 c 0.390625 -0.390625 0.390625 -1.023437 0 -1.414062 l -3 -3 c -0.390625 -0.390625 -1.023437 -0.390625 -1.414062 0 s -0.390625 1.023437 0 1.414062 z m 0 0"/>
        <path d="m 11 7 h -6 c -0.550781 0 -1 0.449219 -1 1 s 0.449219 1 1 1 h 6 c 0.550781 0 1 -0.449219 1 -1 s -0.449219 -1 -1 -1 z m 0 0"/>
        <path d="m 8 14 c -3.308594 0 -6 -2.691406 -6 -6 s 2.691406 -6 6 -6 s 6 2.691406 6 6 s -2.691406 6 -6 6 z m 0 -14 c -4.421875 0 -8 3.578125 -8 8 s 3.578125 8 8 8 s 8 -3.578125 8 -8 s -3.578125 -8 -8 -8 z m 0 0"/>
    </g>
</svg>
