<?xml version="1.0" encoding="UTF-8"?>
<svg height="16px" viewBox="0 0 16 16" width="16px" xmlns="http://www.w3.org/2000/svg">
    <g fill="#222222">
        <path d="m 10.292969 7.292969 l -3 3 h 1.414062 l -3 -3 c -0.390625 -0.390625 -1.023437 -0.390625 -1.414062 0 s -0.390625 1.023437 0 1.414062 l 3 3 c 0.390625 0.390625 1.023437 0.390625 1.414062 0 l 3 -3 c 0.390625 -0.390625 0.390625 -1.023437 0 -1.414062 s -1.023437 -0.390625 -1.414062 0 z m 0 0"/>
        <path d="m 9 11 v -6 c 0 -0.550781 -0.449219 -1 -1 -1 s -1 0.449219 -1 1 v 6 c 0 0.550781 0.449219 1 1 1 s 1 -0.449219 1 -1 z m 0 0"/>
        <path d="m 2 8 c 0 -3.308594 2.691406 -6 6 -6 s 6 2.691406 6 6 s -2.691406 6 -6 6 s -6 -2.691406 -6 -6 z m 14 0 c 0 -4.421875 -3.578125 -8 -8 -8 s -8 3.578125 -8 8 s 3.578125 8 8 8 s 8 -3.578125 8 -8 z m 0 0"/>
    </g>
</svg>
