<?xml version="1.0" encoding="UTF-8" standalone="no"?>
<svg
   height="16px"
   viewBox="0 0 16 16"
   width="16px"
   version="1.1"
   id="svg1"
   sodipodi:docname="carousel-symbolic.svg"
   inkscape:version="1.3.2 (091e20ef0f, 2023-11-25)"
   xmlns:inkscape="http://www.inkscape.org/namespaces/inkscape"
   xmlns:sodipodi="http://sodipodi.sourceforge.net/DTD/sodipodi-0.dtd"
   xmlns="http://www.w3.org/2000/svg"
   xmlns:svg="http://www.w3.org/2000/svg">
  <defs
     id="defs1" />
  <sodipodi:namedview
     id="namedview1"
     pagecolor="#ffffff"
     bordercolor="#000000"
     borderopacity="0.25"
     inkscape:showpageshadow="2"
     inkscape:pageopacity="0.0"
     inkscape:pagecheckerboard="0"
     inkscape:deskcolor="#d1d1d1"
     inkscape:zoom="35.57631"
     inkscape:cx="4.1179088"
     inkscape:cy="9.1212383"
     inkscape:window-width="1920"
     inkscape:window-height="1011"
     inkscape:window-x="0"
     inkscape:window-y="0"
     inkscape:window-maximized="1"
     inkscape:current-layer="svg1" />
  <g
     id="g1"
     transform="rotate(180,8,7.25)">
    <path
       d="M 5,2 C 3.910156,2 3,2.910156 3,4 v 5 c 0,1.089844 0.910156,2 2,2 h 6 c 1.089844,0 2,-0.910156 2,-2 V 4 C 13,2.910156 12.089844,2 11,2 Z M 2,3 C 0.910156,3 0,3.910156 0,5 v 3 c 0,1.089844 0.910156,2 2,2 z m 12,0 v 7 c 1.089844,0 2,-0.910156 2,-2 V 5 C 16,3.910156 15.089844,3 14,3 Z M 5,4 h 6 V 9 H 5 Z"
       fill="#222222"
       id="path1"
       sodipodi:nodetypes="ssssssssscssccccsscccccc" />
  </g>
</svg>
