<?xml version="1.0" encoding="UTF-8" standalone="no"?>
<svg
   version="1.1"
   width="48"
   height="48"
   id="svg6649"
   sodipodi:docname="onlineaccounts.svg"
   inkscape:version="1.2.2 (b0a8486541, 2022-12-01)"
   xmlns:inkscape="http://www.inkscape.org/namespaces/inkscape"
   xmlns:sodipodi="http://sodipodi.sourceforge.net/DTD/sodipodi-0.dtd"
   xmlns:xlink="http://www.w3.org/1999/xlink"
   xmlns="http://www.w3.org/2000/svg"
   xmlns:svg="http://www.w3.org/2000/svg"
   xmlns:bx="https://boxy-svg.com">
  <sodipodi:namedview
     id="namedview68"
     pagecolor="#ffffff"
     bordercolor="#000000"
     borderopacity="0.25"
     inkscape:showpageshadow="2"
     inkscape:pageopacity="0.0"
     inkscape:pagecheckerboard="0"
     inkscape:deskcolor="#d1d1d1"
     showgrid="false"
     inkscape:zoom="17.666667"
     inkscape:cx="22.443396"
     inkscape:cy="33.084906"
     inkscape:window-width="1920"
     inkscape:window-height="1019"
     inkscape:window-x="0"
     inkscape:window-y="30"
     inkscape:window-maximized="1"
     inkscape:current-layer="svg6649" />
  <defs
     id="defs6651">
    <linearGradient
       x1="38.999996"
       y1="5.9999938"
       x2="38.999996"
       y2="41.945408"
       id="linearGradient3058"
       gradientUnits="userSpaceOnUse"
       gradientTransform="translate(4e-6,1.000006)"
       xlink:href="#linearGradient3924-1" />
    <linearGradient
       id="linearGradient3924-1">
      <stop
         id="stop3926-3"
         style="stop-color:#ffffff;stop-opacity:1"
         offset="0" />
      <stop
         id="stop3928-91"
         style="stop-color:#ffffff;stop-opacity:0.23529412"
         offset="0.0278" />
      <stop
         id="stop3930-6"
         style="stop-color:#ffffff;stop-opacity:0.15686275"
         offset="0.9737" />
      <stop
         id="stop3932-6"
         style="stop-color:#ffffff;stop-opacity:0.39215687"
         offset="1" />
    </linearGradient>
    <radialGradient
       cx="4.9929786"
       cy="43.5"
       r="2.5"
       id="radialGradient3013"
       gradientUnits="userSpaceOnUse"
       gradientTransform="matrix(2.003784,0,0,1.4,27.98813,-17.4)"
       xlink:href="#linearGradient3688-166-749" />
    <linearGradient
       id="linearGradient3688-166-749">
      <stop
         id="stop2883"
         style="stop-color:#181818;stop-opacity:1"
         offset="0" />
      <stop
         id="stop2885"
         style="stop-color:#181818;stop-opacity:0"
         offset="1" />
    </linearGradient>
    <radialGradient
       cx="4.9929786"
       cy="43.5"
       r="2.5"
       id="radialGradient3015"
       gradientUnits="userSpaceOnUse"
       gradientTransform="matrix(2.003784,0,0,1.4,-20.01187,-104.4)"
       xlink:href="#linearGradient3688-464-309" />
    <linearGradient
       id="linearGradient3688-464-309">
      <stop
         id="stop2889"
         style="stop-color:#181818;stop-opacity:1"
         offset="0" />
      <stop
         id="stop2891"
         style="stop-color:#181818;stop-opacity:0"
         offset="1" />
    </linearGradient>
    <linearGradient
       id="linearGradient3702-501-757">
      <stop
         id="stop2895"
         style="stop-color:#181818;stop-opacity:0"
         offset="0" />
      <stop
         id="stop2897"
         style="stop-color:#181818;stop-opacity:1"
         offset="0.5" />
      <stop
         id="stop2899"
         style="stop-color:#181818;stop-opacity:0"
         offset="1" />
    </linearGradient>
    <linearGradient
       x1="25.058096"
       y1="47.027729"
       x2="25.058096"
       y2="39.999443"
       id="linearGradient6647"
       gradientUnits="userSpaceOnUse"
       xlink:href="#linearGradient3702-501-757" />
    <linearGradient
       id="linearGradient856"
       x1="23.528315"
       y1="6.08318"
       x2="23.528315"
       y2="44.23307"
       gradientUnits="userSpaceOnUse"
       xlink:href="#linearGradient1067" />
    <filter
       id="filter3831"
       color-interpolation-filters="sRGB"
       x="-0.076499999"
       y="-0.067999999"
       width="1.153"
       height="1.136">
      <feGaussianBlur
         id="feGaussianBlur3833"
         stdDeviation="0.6375" />
    </filter>
    <clipPath
       id="clipPath3823">
      <path
         style="fill:#ffffff;fill-opacity:1;stroke:none"
         id="path3825"
         d="M 108.8125,58 C 107.25437,58 106,59.254375 106,60.8125 l 0,24.375 C 106,86.745625 107.25437,88 108.8125,88 l 24.375,0 C 134.74562,88 136,86.745625 136,85.1875 l 0,-24.375 C 136,59.254375 134.74562,58 133.1875,58 l -24.375,0 z m 7.1875,4.5 10,0 0,8.75 5,0 -10,13.75 -10,-13.75 5,0 0,-8.75 z" />
    </clipPath>
    <linearGradient
       gradientTransform="matrix(0.625,0,0,0.625,78.5,32.25)"
       gradientUnits="userSpaceOnUse"
       id="linearGradient3812"
       y2="50.068527"
       x2="65.262688"
       y1="64.205269"
       x1="65.262688"
       xlink:href="#linearGradient5010" />
    <filter
       id="filter3806"
       color-interpolation-filters="sRGB"
       x="-0.096000004"
       y="-0.096000004"
       width="1.192"
       height="1.192">
      <feGaussianBlur
         id="feGaussianBlur3808"
         stdDeviation="1.2" />
    </filter>
    <linearGradient
       gradientTransform="translate(0,4)"
       gradientUnits="userSpaceOnUse"
       id="linearGradient3788"
       y2="75.095024"
       x2="70"
       y1="54"
       x1="70"
       xlink:href="#linearGradient3737" />
    <linearGradient
       gradientTransform="matrix(0.9375,0,0,0.9375,-140.5,3.5)"
       gradientUnits="userSpaceOnUse"
       id="linearGradient3773"
       y2="72"
       x2="88"
       y1="72"
       x1="56"
       xlink:href="#linearGradient3778" />
    <linearGradient
       gradientTransform="matrix(0.625,0,0,0.625,28.5,31.25)"
       gradientUnits="userSpaceOnUse"
       id="linearGradient3832"
       y2="50.068527"
       x2="65.262688"
       y1="64.205269"
       x1="65.262688"
       xlink:href="#linearGradient3737" />
    <filter
       id="filter3174"
       color-interpolation-filters="sRGB"
       x="-0.047720931"
       y="-0.047172415"
       width="1.0954419"
       height="1.0943448">
      <feGaussianBlur
         id="feGaussianBlur3176"
         stdDeviation="1.71" />
    </filter>
    <linearGradient
       id="linearGradient3737">
      <stop
         offset="0"
         style="stop-color:#ffffff;stop-opacity:1"
         id="stop3739" />
      <stop
         offset="1"
         style="stop-color:#ffffff;stop-opacity:0"
         id="stop3741" />
    </linearGradient>
    <linearGradient
       gradientTransform="scale(1.0058652,0.994169)"
       gradientUnits="userSpaceOnUse"
       id="ButtonShadow"
       y2="7.0165396"
       x2="45.447727"
       y1="92.539597"
       x1="45.447727">
      <stop
         offset="0"
         style="stop-color:#000000;stop-opacity:1"
         id="stop3750" />
      <stop
         offset="1"
         style="stop-color:#000000;stop-opacity:0.58823532"
         id="stop3752" />
    </linearGradient>
    <linearGradient
       id="linearGradient5010">
      <stop
         offset="0"
         style="stop-color:#000000;stop-opacity:1"
         id="stop5012" />
      <stop
         offset="1"
         style="stop-color:#000000;stop-opacity:0"
         id="stop5014" />
    </linearGradient>
    <linearGradient
       id="linearGradient3778">
      <stop
         offset="0"
         style="stop-color:#499119;stop-opacity:1"
         id="stop3780" />
      <stop
         offset="1"
         style="stop-color:#8fd625;stop-opacity:1"
         id="stop3782" />
    </linearGradient>
    <linearGradient
       id="linearGradient1067">
      <stop
         style="stop-color:#64baff;stop-opacity:1"
         offset="0"
         id="stop1063" />
      <stop
         style="stop-color:#3689e6;stop-opacity:1"
         offset="1"
         id="stop1065" />
    </linearGradient>
    <radialGradient
       cx="4.9929786"
       cy="43.5"
       r="2.5"
       fx="4.9929786"
       fy="43.5"
       id="radialGradient3013-6"
       xlink:href="#linearGradient3688-166-749"
       gradientUnits="userSpaceOnUse"
       gradientTransform="matrix(2.003784,0,0,0.89999994,29.98813,4.8500025)" />
    <radialGradient
       cx="4.9929786"
       cy="43.5"
       r="2.5"
       fx="4.9929786"
       fy="43.5"
       id="radialGradient3015-1"
       xlink:href="#linearGradient3688-166-749"
       gradientUnits="userSpaceOnUse"
       gradientTransform="matrix(2.003784,0,0,0.89999994,-18.01187,-83.149997)" />
    <linearGradient
       xlink:href="#linearGradient3702-501-757"
       id="linearGradient1191"
       gradientUnits="userSpaceOnUse"
       x1="25.058096"
       y1="47.027729"
       x2="25.058096"
       y2="39.999443"
       gradientTransform="matrix(1.1428571,0,0,0.6428571,-3.428569,16.035716)" />
  </defs>
  <g
     id="g1784">
    <rect
       style="opacity:0.6;fill:url(#radialGradient3013-6);fill-opacity:1;stroke:none;stroke-width:0.862764"
       id="rect2801-3-7"
       y="41.75"
       x="40"
       height="4.4999995"
       width="5" />
    <rect
       style="opacity:0.6;fill:url(#radialGradient3015-1);fill-opacity:1;stroke:none;stroke-width:0.862764"
       id="rect3696-6-3"
       transform="scale(-1)"
       y="-46.25"
       x="-8"
       height="4.4999995"
       width="5" />
    <rect
       style="opacity:0.6;fill:url(#linearGradient1191);fill-opacity:1;stroke:none;stroke-width:0.862764"
       id="rect3700-4-6"
       y="41.75"
       x="8"
       height="4.5"
       width="32" />
  </g>
  <rect
     style="color:#000000;display:inline;overflow:visible;visibility:visible;opacity:1;fill:url(#linearGradient856);fill-opacity:1;fill-rule:nonzero;stroke:#002e99;stroke-width:1;stroke-opacity:0.501961;marker:none;enable-background:accumulate"
     id="rect5505-21"
     x="4.5"
     y="5.5"
     width="39"
     height="39"
     rx="4"
     ry="4" />
  <path
     style="opacity:0.5;fill:none;stroke:url(#linearGradient3058);stroke-width:1;stroke-linecap:round;stroke-linejoin:round;stroke-miterlimit:4;stroke-dasharray:none;stroke-dashoffset:0;stroke-opacity:1"
     id="rect6741"
     d="M 8.5 6.5 H 39.5 A 3 3 0 0 1 42.5 9.5 V 40.5 A 3 3 0 0 1 39.5 43.5 H 8.5 A 3 3 0 0 1 5.5 40.5 V 9.5 A 3 3 0 0 1 8.5 6.5 Z"
     bx:shape="rect 5.5 6.5 37 37 3 3 3 3 1@1589c883" />
  <g
     style="display:none"
     id="layer2"
     transform="translate(-245.56881,-26.66562)">
    <path
       style="opacity:0.9;fill:url(#ButtonShadow);fill-opacity:1;fill-rule:nonzero;stroke:none;filter:url(#filter3174)"
       id="rect3745"
       d="M 11,7 48,5 85,7 c 3.324,0 6,2.676 6,6 v 73 c 0,3.324 -2.676,6 -6,6 H 11 C 7.676,92 5,89.324 5,86 V 13 C 5,9.676 7.676,7 11,7 Z" />
  </g>
  <g
     style="display:none"
     id="layer4"
     transform="translate(-245.56881,-26.66562)">
    <rect
       style="opacity:0.6;fill:#000000;fill-opacity:1;stroke:none;filter:url(#filter3806)"
       id="rect3790"
       transform="rotate(-90,2,2)"
       y="56"
       x="-86"
       ry="2.8125"
       rx="2.8125"
       height="30"
       width="30" />
    <rect
       style="fill:url(#linearGradient3773);fill-opacity:1;stroke:none"
       id="rect2993"
       transform="rotate(-90)"
       y="56"
       x="-88"
       ry="2.8125"
       rx="2.8125"
       height="30"
       width="30" />
    <path
       style="opacity:0.5;fill:url(#linearGradient3788);fill-opacity:1;stroke:none"
       id="rect3775"
       d="M 58.8125,58 C 57.254375,58 56,59.254375 56,60.8125 v 24.375 c 0,0.873066 0.410816,1.641163 1.03125,2.15625 C 57.02841,87.289908 57,87.242129 57,87.1875 V 62.8125 C 57,61.254375 58.17075,60 59.625,60 h 22.75 C 83.82925,60 85,61.254375 85,62.8125 v 24.375 c 0,0.05463 -0.02841,0.102408 -0.03125,0.15625 C 85.589184,86.828663 86,86.060566 86,85.1875 V 60.8125 C 86,59.254375 84.745625,58 83.1875,58 Z" />
    <path
       style="display:inline;opacity:0.6;fill:url(#linearGradient3812);fill-opacity:1;fill-rule:nonzero;stroke:none;filter:url(#filter3831)"
       id="path3810"
       clip-path="url(#clipPath3823)"
       transform="translate(-50)"
       d="m 116,63.5 v 8.75 h -5 L 121,86 131,72.25 h -5 V 63.5 Z" />
    <path
       style="display:inline;fill:url(#linearGradient3832);fill-opacity:1;fill-rule:nonzero;stroke:none"
       id="path4278"
       d="m 66,62.5 v 8.75 H 61 L 71,85 81,71.25 H 76 V 62.5 Z" />
  </g>
  <path
     d="m 26.042969,16.027344 c -2.362913,0 -4.402239,1.25303 -5.63086,3.08789 -0.572826,-0.227132 -1.122002,-0.519531 -1.773437,-0.519531 -2.784081,0 -5.058594,2.288712 -5.058594,5.080078 0,0.273385 0.06357,0.508437 0.105469,0.757813 -1.568835,1.310526 -2.658203,3.199353 -2.658203,5.404297 0,3.932344 3.180399,7.134765 7.099609,7.134765 h 11.746094 c 3.919213,0 7.099609,-3.202422 7.099609,-7.134765 0,-2.855323 -1.714085,-5.254905 -4.134765,-6.392579 0.01308,-0.179926 0.04883,-0.358245 0.04883,-0.539062 10e-7,-3.783502 -3.072233,-6.878906 -6.84375,-6.878906 z"
     id="path3483"
     style="color:#000000;clip-rule:nonzero;display:inline;overflow:visible;visibility:visible;opacity:0.15;isolation:auto;mix-blend-mode:normal;color-interpolation:sRGB;color-interpolation-filters:linearRGB;solid-color:#000000;solid-opacity:1;fill:#002e99;fill-opacity:0.963527;fill-rule:nonzero;stroke:none;stroke-width:1;stroke-linecap:butt;stroke-linejoin:miter;stroke-miterlimit:4;stroke-dasharray:none;stroke-dashoffset:0;stroke-opacity:1;marker:none;color-rendering:auto;image-rendering:auto;shape-rendering:auto;text-rendering:auto;enable-background:accumulate;font-variation-settings:normal;vector-effect:none;stop-color:#000000;stop-opacity:1" />
  <path
     d="m 26.04257,17.000002 c -2.273369,0 -4.242191,1.309233 -5.218085,3.209467 -0.632512,-0.404176 -1.381267,-0.641881 -2.186171,-0.641881 -2.256134,0 -4.085101,1.839224 -4.085101,4.108104 0,0.360717 0.05673,0.709701 0.14361,1.043049 -1.629457,1.105216 -2.696811,2.985449 -2.696811,5.119073 0,3.413834 2.732937,6.162186 6.127656,6.162186 H 29.87236 c 3.394722,0 6.127652,-2.748352 6.127652,-6.162186 0,-2.726084 -1.750031,-5.02443 -4.180858,-5.841211 0.06596,-0.354297 0.09575,-0.717625 0.09575,-1.091178 C 31.914904,19.643925 29.28578,17 26.042577,17 Z"
     id="rect4519-8"
     style="color:#000000;clip-rule:nonzero;display:inline;overflow:visible;visibility:visible;opacity:0.3;isolation:auto;mix-blend-mode:normal;color-interpolation:sRGB;color-interpolation-filters:linearRGB;solid-color:#000000;solid-opacity:1;fill:#002e99;fill-opacity:0.963527;fill-rule:nonzero;stroke:none;stroke-width:1;stroke-linecap:butt;stroke-linejoin:miter;stroke-miterlimit:4;stroke-dasharray:none;stroke-dashoffset:0;stroke-opacity:1;marker:none;color-rendering:auto;image-rendering:auto;shape-rendering:auto;text-rendering:auto;enable-background:accumulate;font-variation-settings:normal;vector-effect:none;stop-color:#000000;stop-opacity:1" />
  <path
     d="m 26.04257,16.000002 c -2.273369,0 -4.242191,1.309233 -5.218085,3.209467 -0.632512,-0.404176 -1.381267,-0.641881 -2.186171,-0.641881 -2.256134,0 -4.085101,1.839224 -4.085101,4.108104 0,0.360717 0.05673,0.709701 0.14361,1.043049 -1.629457,1.105216 -2.696811,2.985449 -2.696811,5.119073 0,3.413834 2.732937,6.162186 6.127656,6.162186 H 29.87236 c 3.394722,0 6.127652,-2.748352 6.127652,-6.162186 0,-2.726084 -1.750031,-5.02443 -4.180858,-5.841211 0.06596,-0.354297 0.09575,-0.717625 0.09575,-1.091178 C 31.914904,18.643925 29.28578,16 26.042577,16 Z"
     id="rect4519"
     style="color:#000000;display:inline;overflow:visible;visibility:visible;fill:#ffffff;fill-opacity:1;fill-rule:nonzero;stroke:none;stroke-width:1;stroke-linecap:butt;stroke-linejoin:miter;stroke-miterlimit:4;stroke-dasharray:none;stroke-dashoffset:0;stroke-opacity:1;marker:none;enable-background:accumulate" />
</svg>
