<?xml version="1.0" encoding="UTF-8" standalone="no"?>
<svg
   width="16"
   height="16"
   viewBox="0 0 16 16"
   fill="none"
   version="1.1"
   id="svg8"
   sodipodi:docname="color-swatch-dark.svg"
   inkscape:version="1.3 (0e150ed6c4, 2023-07-21)"
   xmlns:inkscape="http://www.inkscape.org/namespaces/inkscape"
   xmlns:sodipodi="http://sodipodi.sourceforge.net/DTD/sodipodi-0.dtd"
   xmlns="http://www.w3.org/2000/svg"
   xmlns:svg="http://www.w3.org/2000/svg">
  <defs
     id="defs12" />
  <sodipodi:namedview
     id="namedview10"
     pagecolor="#ffffff"
     bordercolor="#000000"
     borderopacity="0.25"
     inkscape:showpageshadow="2"
     inkscape:pageopacity="0.0"
     inkscape:pagecheckerboard="0"
     inkscape:deskcolor="#d1d1d1"
     showgrid="false"
     inkscape:zoom="19.583333"
     inkscape:cx="12"
     inkscape:cy="11.974468"
     inkscape:window-width="1920"
     inkscape:window-height="1011"
     inkscape:window-x="0"
     inkscape:window-y="0"
     inkscape:window-maximized="1"
     inkscape:current-layer="svg8" />
  <path
     d="m 5.8134051,11.502253 c 0,0.24164 -0.1959139,0.437595 -0.4375812,0.437595 -0.2416673,0 -0.4375812,-0.195955 -0.4375812,-0.437595 0,-0.241639 0.1959139,-0.437594 0.4375812,-0.437594 0.2416673,0 0.4375812,0.195955 0.4375812,0.437594 z"
     stroke="currentColor"
     stroke-linecap="round"
     stroke-linejoin="round"
     id="path2"
     style="stroke:#ffffff;stroke-width:0.875176;stroke-opacity:1" />
  <path
     d="m 1.6563839,3.4067607 c 0,-0.9667069 0.7836466,-1.7503769 1.7503247,-1.7503769 h 3.9382306 c 0.9667047,0 1.7503246,0.78367 1.7503246,1.7503769 v 9.1894783 c 0,0.966733 -0.7836199,1.750377 -1.7503246,1.750377 H 3.4067086 c -0.9666781,0 -1.7503247,-0.783644 -1.7503247,-1.750377 z"
     stroke="currentColor"
     stroke-width="1.31277"
     stroke-linecap="round"
     stroke-linejoin="round"
     id="path4"
     style="stroke:#ffffff;stroke-opacity:1" />
  <path
     d="m 11.283082,10.845862 2.564313,-2.6183884 c 0.656897,-0.6708321 0.667574,-1.7403123 0.02424,-2.4241495 L 11.176225,2.9381673 C 10.515565,2.2358899 9.0429289,2.5749728 9.0429289,2.5749728"
     stroke="currentColor"
     stroke-width="1.31277"
     stroke-linecap="round"
     stroke-linejoin="round"
     id="path6"
     style="stroke:#ffffff;stroke-opacity:1" />
</svg>
