<?xml version="1.0" encoding="UTF-8" standalone="no"?>
<svg
   width="16"
   height="16"
   viewBox="0 0 16 16"
   fill="none"
   version="1.1"
   id="svg8"
   sodipodi:docname="color-swatch-light.svg"
   inkscape:version="1.3 (0e150ed6c4, 2023-07-21)"
   xmlns:inkscape="http://www.inkscape.org/namespaces/inkscape"
   xmlns:sodipodi="http://sodipodi.sourceforge.net/DTD/sodipodi-0.dtd"
   xmlns="http://www.w3.org/2000/svg"
   xmlns:svg="http://www.w3.org/2000/svg">
  <defs
     id="defs12" />
  <sodipodi:namedview
     id="namedview10"
     pagecolor="#ffffff"
     bordercolor="#000000"
     borderopacity="0.25"
     inkscape:showpageshadow="2"
     inkscape:pageopacity="0.0"
     inkscape:pagecheckerboard="0"
     inkscape:deskcolor="#d1d1d1"
     showgrid="false"
     inkscape:zoom="19.583333"
     inkscape:cx="12"
     inkscape:cy="11.974468"
     inkscape:window-width="1920"
     inkscape:window-height="1011"
     inkscape:window-x="0"
     inkscape:window-y="0"
     inkscape:window-maximized="1"
     inkscape:current-layer="svg8" />
  <path
     d="m 5.813402,11.501965 c 0,0.241633 -0.1959141,0.437582 -0.4375818,0.437582 -0.2416676,0 -0.4375818,-0.195949 -0.4375818,-0.437582 0,-0.241633 0.1959142,-0.437582 0.4375818,-0.437582 0.2416677,0 0.4375818,0.195949 0.4375818,0.437582 z"
     stroke="currentColor"
     stroke-linecap="round"
     stroke-linejoin="round"
     id="path2"
     style="stroke:#666666;stroke-width:0.875164;stroke-opacity:1" />
  <path
     d="m 1.656375,3.4067022 c 0,-0.9666795 0.7836477,-1.7503272 1.7503272,-1.7503272 h 3.9382361 c 0.966706,0 1.750327,0.7836477 1.750327,1.7503272 V 12.59592 c 0,0.966705 -0.783621,1.750327 -1.750327,1.750327 H 3.4067022 c -0.9666795,0 -1.7503272,-0.783622 -1.7503272,-1.750327 z"
     stroke="currentColor"
     stroke-width="1.31275"
     stroke-linecap="round"
     stroke-linejoin="round"
     id="path4"
     style="stroke:#666666;stroke-opacity:1" />
  <path
     d="m 11.283087,10.845592 2.564316,-2.6183137 c 0.656898,-0.670813 0.667575,-1.7402629 0.02424,-2.4240807 L 11.176229,2.9381221 C 10.515568,2.2358646 9.0429303,2.5749379 9.0429303,2.5749379"
     stroke="currentColor"
     stroke-width="1.31275"
     stroke-linecap="round"
     stroke-linejoin="round"
     id="path6"
     style="stroke:#666666;stroke-opacity:1" />
</svg>
