<?xml version="1.0" encoding="UTF-8" standalone="no"?>
<svg
   width="24"
   height="24"
   viewBox="0 0 24 24"
   fill="none"
   version="1.1"
   id="svg8"
   sodipodi:docname="color-swatch-light.svg"
   inkscape:version="1.2.1 (9c6d41e410, 2022-07-14)"
   xmlns:inkscape="http://www.inkscape.org/namespaces/inkscape"
   xmlns:sodipodi="http://sodipodi.sourceforge.net/DTD/sodipodi-0.dtd"
   xmlns="http://www.w3.org/2000/svg"
   xmlns:svg="http://www.w3.org/2000/svg">
  <defs
     id="defs12" />
  <sodipodi:namedview
     id="namedview10"
     pagecolor="#ffffff"
     bordercolor="#000000"
     borderopacity="0.25"
     inkscape:showpageshadow="2"
     inkscape:pageopacity="0.0"
     inkscape:pagecheckerboard="0"
     inkscape:deskcolor="#d1d1d1"
     showgrid="false"
     inkscape:zoom="19.583333"
     inkscape:cx="12"
     inkscape:cy="12"
     inkscape:window-width="1366"
     inkscape:window-height="699"
     inkscape:window-x="0"
     inkscape:window-y="0"
     inkscape:window-maximized="1"
     inkscape:current-layer="svg8" />
  <path
     d="M9.5 16C9.5 16.2761 9.27614 16.5 9 16.5C8.72386 16.5 8.5 16.2761 8.5 16C8.5 15.7239 8.72386 15.5 9 15.5C9.27614 15.5 9.5 15.7239 9.5 16Z"
     stroke="currentColor"
     stroke-linecap="round"
     stroke-linejoin="round"
     id="path2"
     style="stroke:#666666;stroke-opacity:1" />
  <path
     d="M4.75 6.75C4.75 5.64543 5.64543 4.75 6.75 4.75H11.25C12.3546 4.75 13.25 5.64543 13.25 6.75V17.25C13.25 18.3546 12.3546 19.25 11.25 19.25H6.75C5.64543 19.25 4.75 18.3546 4.75 17.25V6.75Z"
     stroke="currentColor"
     stroke-width="1.5"
     stroke-linecap="round"
     stroke-linejoin="round"
     id="path4"
     style="stroke:#666666;stroke-opacity:1" />
  <path
     d="M15.7499 15.25L18.68 12.2582C19.4306 11.4917 19.4428 10.2697 18.7077 9.48834L15.6278 6.21458C14.8729 5.41215 13.1902 5.79959 13.1902 5.79959"
     stroke="currentColor"
     stroke-width="1.5"
     stroke-linecap="round"
     stroke-linejoin="round"
     id="path6"
     style="stroke:#666666;stroke-opacity:1" />
</svg>
