<?xml version="1.0" encoding="UTF-8"?>
<svg xmlns="http://www.w3.org/2000/svg" height="16px" viewBox="0 0 16 16" width="16px"><g fill="#222222"><path d="m 5 4 c 0.265625 0 0.519531 0.105469 0.707031 0.292969 l 2.292969 2.292969 l 2.292969 -2.292969 c 0.1875 -0.1875 0.441406 -0.292969 0.707031 -0.292969 s 0.519531 0.105469 0.707031 0.292969 c 0.390625 0.390625 0.390625 1.023437 0 1.414062 l -2.292969 2.292969 l 2.292969 2.292969 c 0.390625 0.390625 0.390625 1.023437 0 1.414062 s -1.023437 0.390625 -1.414062 0 l -2.292969 -2.292969 l -2.292969 2.292969 c -0.390625 0.390625 -1.023437 0.390625 -1.414062 0 s -0.390625 -1.023437 0 -1.414062 l 2.292969 -2.292969 l -2.292969 -2.292969 c -0.390625 -0.390625 -0.390625 -1.023437 0 -1.414062 c 0.1875 -0.1875 0.441406 -0.292969 0.707031 -0.292969 z m 0 0"/><path d="m 8 0 c -4.402344 0 -8 3.597656 -8 8 s 3.597656 8 8 8 s 8 -3.597656 8 -8 s -3.597656 -8 -8 -8 z m 0 1.980469 c 3.339844 0 6.015625 2.679687 6.015625 6.019531 s -2.675781 6.019531 -6.015625 6.019531 s -6.019531 -2.679687 -6.019531 -6.019531 s 2.679687 -6.019531 6.019531 -6.019531 z m 0 0"/></g></svg>
