<?xml version="1.0" encoding="UTF-8" standalone="no"?>
<svg
   width="16"
   height="16"
   fill="none"
   viewBox="0 0 16 16"
   version="1.1"
   id="svg3"
   sodipodi:docname="dots-vertical-light.svg"
   inkscape:version="1.3 (0e150ed6c4, 2023-07-21)"
   xmlns:inkscape="http://www.inkscape.org/namespaces/inkscape"
   xmlns:sodipodi="http://sodipodi.sourceforge.net/DTD/sodipodi-0.dtd"
   xmlns="http://www.w3.org/2000/svg"
   xmlns:svg="http://www.w3.org/2000/svg">
  <defs
     id="defs3" />
  <sodipodi:namedview
     id="namedview3"
     pagecolor="#ffffff"
     bordercolor="#000000"
     borderopacity="0.25"
     inkscape:showpageshadow="2"
     inkscape:pageopacity="0.0"
     inkscape:pagecheckerboard="0"
     inkscape:deskcolor="#d1d1d1"
     inkscape:zoom="33.541667"
     inkscape:cx="11.985093"
     inkscape:cy="12"
     inkscape:window-width="1920"
     inkscape:window-height="1011"
     inkscape:window-x="0"
     inkscape:window-y="0"
     inkscape:window-maximized="1"
     inkscape:current-layer="svg3" />
  <g
     id="g3"
     transform="translate(5.6)"
     style="fill:#333333;fill-opacity:1">
    <path
       fill="currentColor"
       d="M 3.8,8 C 3.8,8.77322 3.17322,9.4 2.4,9.4 1.62678,9.4 1,8.77322 1,8 1,7.22678 1.62678,6.6 2.4,6.6 3.17322,6.6 3.8,7.22678 3.8,8 Z"
       id="path1"
       style="stroke-width:1.4;fill:#333333;fill-opacity:1" />
    <path
       fill="currentColor"
       d="M 3.8,2.4 C 3.8,3.173192 3.17322,3.8 2.4,3.8 1.62678,3.8 1,3.173192 1,2.4 1,1.626808 1.62678,1 2.4,1 3.17322,1 3.8,1.626808 3.8,2.4 Z"
       id="path2"
       style="stroke-width:1.4;fill:#333333;fill-opacity:1" />
    <path
       fill="currentColor"
       d="M 3.8,13.6 C 3.8,14.37322 3.17322,15 2.4,15 1.62678,15 1,14.37322 1,13.6 c 0,-0.77322 0.62678,-1.4 1.4,-1.4 0.77322,0 1.4,0.62678 1.4,1.4 z"
       id="path3"
       style="stroke-width:1.4;fill:#333333;fill-opacity:1" />
  </g>
</svg>
