<?xml version="1.0" encoding="UTF-8" standalone="no"?>
<svg
   width="16"
   height="16"
   viewBox="0 0 16 16"
   fill="none"
   version="1.1"
   id="svg143"
   sodipodi:docname="dropdown-light.svg"
   inkscape:version="1.3 (0e150ed6c4, 2023-07-21)"
   xmlns:inkscape="http://www.inkscape.org/namespaces/inkscape"
   xmlns:sodipodi="http://sodipodi.sourceforge.net/DTD/sodipodi-0.dtd"
   xmlns="http://www.w3.org/2000/svg"
   xmlns:svg="http://www.w3.org/2000/svg">
  <defs
     id="defs147" />
  <sodipodi:namedview
     id="namedview145"
     pagecolor="#ffffff"
     bordercolor="#000000"
     borderopacity="0.25"
     inkscape:showpageshadow="2"
     inkscape:pageopacity="0.0"
     inkscape:pagecheckerboard="0"
     inkscape:deskcolor="#d1d1d1"
     showgrid="false"
     inkscape:zoom="19.583333"
     inkscape:cx="11.974468"
     inkscape:cy="11.974468"
     inkscape:window-width="1549"
     inkscape:window-height="991"
     inkscape:window-x="26"
     inkscape:window-y="23"
     inkscape:window-maximized="0"
     inkscape:current-layer="svg143" />
  <path
     d="M 13.46875,5.15625 H 2.53125 c -0.483245,0 -0.875,0.391755 -0.875,0.875 v 7.4375 c 0,0.483262 0.3917462,0.875 0.875,0.875 h 10.9375 c 0.483262,0 0.875,-0.391738 0.875,-0.875 v -7.4375 c 0,-0.483245 -0.391738,-0.875 -0.875,-0.875 z"
     stroke="currentColor"
     stroke-width="1.3125"
     stroke-linecap="round"
     stroke-linejoin="round"
     id="path137"
     style="stroke:#333333;stroke-opacity:1" />
  <path
     d="m 1.875,9.75 h 12.25"
     stroke="currentColor"
     stroke-width="1.3125"
     stroke-linecap="round"
     stroke-linejoin="round"
     id="path139"
     style="stroke:#333333;stroke-opacity:1" />
  <path
     d="m 2.3125,1.875 c 0,0.2416225 -0.1958775,0.4375 -0.4375,0.4375 -0.2416225,0 -0.4375,-0.1958775 -0.4375,-0.4375 0,-0.2416225 0.1958775,-0.4375 0.4375,-0.4375 0.2416225,0 0.4375,0.1958775 0.4375,0.4375 z"
     stroke="currentColor"
     id="path141"
     style="stroke:#333333;stroke-width:0.875;stroke-opacity:1" />
</svg>
