<?xml version="1.0" encoding="UTF-8"?>
<svg xmlns="http://www.w3.org/2000/svg" height="16px" viewBox="0 0 16 16" width="16px"><g fill="#222222"><path d="m 1 6 c -0.550781 0 -1 -0.449219 -1 -1 v -5 h 5 c 0.550781 0 1 0.449219 1 1 s -0.449219 1 -1 1 h -1.585938 l 2.292969 2.292969 c 0.390625 0.390625 0.390625 1.023437 0 1.414062 c -0.1875 0.1875 -0.441406 0.292969 -0.707031 0.292969 s -0.519531 -0.105469 -0.707031 -0.292969 l -2.292969 -2.292969 v 1.585938 c 0 0.550781 -0.449219 1 -1 1 z m 0 0"/><path d="m 15 6 c 0.550781 0 1 -0.449219 1 -1 v -5 h -5 c -0.550781 0 -1 0.449219 -1 1 s 0.449219 1 1 1 h 1.585938 l -2.292969 2.292969 c -0.390625 0.390625 -0.390625 1.023437 0 1.414062 c 0.1875 0.1875 0.441406 0.292969 0.707031 0.292969 s 0.519531 -0.105469 0.707031 -0.292969 l 2.292969 -2.292969 v 1.585938 c 0 0.550781 0.449219 1 1 1 z m 0 0"/><path d="m 1 10 c -0.550781 0 -1 0.449219 -1 1 v 5 h 5 c 0.550781 0 1 -0.449219 1 -1 s -0.449219 -1 -1 -1 h -1.585938 l 2.292969 -2.292969 c 0.390625 -0.390625 0.390625 -1.023437 0 -1.414062 c -0.1875 -0.1875 -0.441406 -0.292969 -0.707031 -0.292969 s -0.519531 0.105469 -0.707031 0.292969 l -2.292969 2.292969 v -1.585938 c 0 -0.550781 -0.449219 -1 -1 -1 z m 0 0"/><path d="m 15 10 c 0.550781 0 1 0.449219 1 1 v 5 h -5 c -0.550781 0 -1 -0.449219 -1 -1 s 0.449219 -1 1 -1 h 1.585938 l -2.292969 -2.292969 c -0.390625 -0.390625 -0.390625 -1.023437 0 -1.414062 c 0.1875 -0.1875 0.441406 -0.292969 0.707031 -0.292969 s 0.519531 0.105469 0.707031 0.292969 l 2.292969 2.292969 v -1.585938 c 0 -0.550781 0.449219 -1 1 -1 z m 0 0"/></g></svg>
