<?xml version="1.0" encoding="UTF-8"?>
<svg height="16px" viewBox="0 0 16 16" width="16px" xmlns="http://www.w3.org/2000/svg">
    <path d="m 2 0 c -1.089844 0 -2 0.910156 -2 2 v 3 c 0 1.089844 0.910156 2 2 2 h 3 c 1.089844 0 2 -0.910156 2 -2 v -3 c 0 -1.089844 -0.910156 -2 -2 -2 z m 8 0 c -1.089844 0 -2 0.910156 -2 2 v 3 c 0 1.089844 0.910156 2 2 2 h 3 c 1.089844 0 2 -0.910156 2 -2 v -3 c 0 -1.089844 -0.910156 -2 -2 -2 z m -8 2 h 3 v 3 h -3 z m 8 0 h 3 v 3 h -3 z m -8 6 c -1.089844 0 -2 0.910156 -2 2 v 3 c 0 1.089844 0.910156 2 2 2 h 3 c 1.089844 0 2 -0.910156 2 -2 v -3 c 0 -1.089844 -0.910156 -2 -2 -2 z m 8 0 c -1.089844 0 -2 0.910156 -2 2 v 3 c 0 1.089844 0.910156 2 2 2 h 3 c 1.089844 0 2 -0.910156 2 -2 v -3 c 0 -1.089844 -0.910156 -2 -2 -2 z m -8 2 h 3 v 3 h -3 z m 8 0 h 3 v 3 h -3 z m 0 0" fill="#222222"/>
</svg>
