<?xml version="1.0" encoding="UTF-8"?>
<svg xmlns="http://www.w3.org/2000/svg" height="16px" viewBox="0 0 16 16" width="16px"><path d="m 5.019531 -0.00390625 c -0.96875 0 -2 1.05078125 -2 2.00000025 v 2.988281 c 0 0.429687 0.222657 0.675781 0.554688 1.007813 l 2.023437 2.003906 l -2.007812 1.992187 c -0.367188 0.363281 -0.570313 0.6875 -0.570313 1 v 3.007813 c 0 1.011718 0.988281 2 2 2 h 6 c 1.007813 0 2 -1.011719 2 -2.003906 v -3.003907 c 0 -0.3125 -0.222656 -0.628906 -0.570312 -0.976562 l -2.015625 -2.015625 l 1.988281 -1.988282 c 0.261719 -0.261718 0.585937 -0.6875 0.597656 -1.015624 v -2.996094 c 0 -1.003906 -1.007812 -2.00000025 -2 -2.00000025 z m 6 5.00000025 h -6 v -3 h 6 m -3.589843 7 h 1.175781 l 2.414062 2.414062 v 1.585938 l -3 -2 l -3 2 v -1.613282 z m 0 0" fill="#222222"/></svg>
