<?xml version="1.0" encoding="UTF-8" standalone="no"?>
<svg
   height="16px"
   viewBox="0 0 16 16"
   width="16px"
   version="1.1"
   id="svg2"
   sodipodi:docname="mailbox-symbolic.svg"
   inkscape:version="1.3.2 (091e20ef0f, 2023-11-25)"
   xmlns:inkscape="http://www.inkscape.org/namespaces/inkscape"
   xmlns:sodipodi="http://sodipodi.sourceforge.net/DTD/sodipodi-0.dtd"
   xmlns="http://www.w3.org/2000/svg"
   xmlns:svg="http://www.w3.org/2000/svg">
  <defs
     id="defs2" />
  <sodipodi:namedview
     id="namedview2"
     pagecolor="#ffffff"
     bordercolor="#000000"
     borderopacity="0.25"
     inkscape:showpageshadow="2"
     inkscape:pageopacity="0.0"
     inkscape:pagecheckerboard="0"
     inkscape:deskcolor="#d1d1d1"
     inkscape:zoom="50.3125"
     inkscape:cx="8"
     inkscape:cy="8"
     inkscape:window-width="1920"
     inkscape:window-height="1011"
     inkscape:window-x="0"
     inkscape:window-y="0"
     inkscape:window-maximized="1"
     inkscape:current-layer="svg2" />
  <g
     fill="#222222"
     id="g2"
     style="fill:#3584e4;fill-opacity:1">
    <path
       d="m 2.1875 2 c -1.207031 0 -2.1875 0.800781 -2.1875 2 v 9.976562 c 0 1.203126 0.980469 2 2.1875 2 h 11.625 c 1.207031 0 2.1875 -1.015624 2.1875 -2.21875 v -9.539062 c 0 -1.199219 -0.980469 -2.21875 -2.1875 -2.21875 z m -0.1875 2 h 12 v 10 h -12 z m 0 0"
       id="path1"
       style="fill:#3584e4;fill-opacity:1" />
    <path
       d="m 1 8 v 1 h 3.625 c 0.023438 0.300781 -0.007812 0.605469 0.300781 1.222656 c 0.4375 0.871094 1.40625 1.777344 3.074219 1.777344 s 2.636719 -0.90625 3.070312 -1.777344 c 0.308594 -0.617187 0.28125 -0.921875 0.304688 -1.222656 h 2.625 v -1 h -3.5 v 0.5 s -0.007812 0.648438 -0.324219 1.277344 c -0.3125 0.628906 -0.84375 1.222656 -2.175781 1.222656 s -1.863281 -0.59375 -2.179688 -1.222656 c -0.3125 -0.628906 -0.320312 -1.277344 -0.320312 -1.277344 v -0.5 z m 0 0"
       id="path2"
       style="fill:#3584e4;fill-opacity:1" />
  </g>
</svg>
