<?xml version="1.0" encoding="UTF-8"?>
<svg xmlns="http://www.w3.org/2000/svg" height="16px" viewBox="0 0 16 16" width="16px"><path d="m 8 0 c -4.410156 0 -8 3.589844 -8 8 s 3.589844 8 8 8 s 8 -3.589844 8 -8 s -3.589844 -8 -8 -8 z m 0 2 c 3.332031 0 6 2.667969 6 6 s -2.667969 6 -6 6 s -6 -2.667969 -6 -6 s 2.667969 -6 6 -6 z m 0 1.875 c -0.621094 0 -1.125 0.503906 -1.125 1.125 s 0.503906 1.125 1.125 1.125 s 1.125 -0.503906 1.125 -1.125 s -0.503906 -1.125 -1.125 -1.125 z m -1.523438 3.125 c -0.265624 0.011719 -0.476562 0.230469 -0.476562 0.5 c 0 0.277344 0.222656 0.5 0.5 0.5 h 0.5 v 3 h -0.5 c -0.277344 0 -0.5 0.222656 -0.5 0.5 s 0.222656 0.5 0.5 0.5 h 3 c 0.277344 0 0.5 -0.222656 0.5 -0.5 s -0.222656 -0.5 -0.5 -0.5 h -0.5 v -4 h -2.5 c -0.007812 0 -0.015625 0 -0.023438 0 z m 0 0" fill="#222222"/></svg>
