<?xml version="1.0" encoding="UTF-8"?>
<svg xmlns="http://www.w3.org/2000/svg" height="16px" viewBox="0 0 16 16" width="16px"><g fill="#222222"><path d="m 3.988281 1 v 3 h -2.980469 v 2 h 2.949219 c -0.089843 0.757812 -0.289062 1.328125 -0.59375 1.871094 c -0.421875 0.753906 -1.101562 1.488281 -2.0625 2.449218 l 1.414063 1.414063 c 0.921875 -0.921875 1.703125 -1.726563 2.285156 -2.695313 c 0.378906 0.632813 0.839844 1.195313 1.375 1.765626 l 0.667969 -2.308594 c -0.15625 -0.210938 -0.292969 -0.417969 -0.410157 -0.625 c -0.304687 -0.542969 -0.503906 -1.113282 -0.589843 -1.871094 h 1.527343 l 0.515626 -2 h -2.078126 v -3 z m 0 0"/><path d="m 9.226562 2 l -3.21875 13 h 2 l 0.78125 -3 h 4.4375 l 0.78125 3 h 2 l -3.21875 -13 z m 1.5625 2 h 0.4375 l 1.5 6 h -3.4375 z m 0 0"/></g></svg>
