<?xml version="1.0" encoding="UTF-8"?>
<svg height="16px" viewBox="0 0 16 16" width="16px" xmlns="http://www.w3.org/2000/svg">
    <path d="m 1.386719 1 c -0.214844 0 -0.386719 0.167969 -0.386719 0.378906 v 3.242188 c 0 0.210937 0.171875 0.378906 0.386719 0.378906 h 3.230469 c 0.210937 0 0.382812 -0.167969 0.382812 -0.378906 v -3.242188 c 0 -0.210937 -0.171875 -0.378906 -0.382812 -0.378906 z m 5.613281 1 v 2 h 8 v -2 z m -5.613281 4.015625 c -0.214844 0 -0.386719 0.167969 -0.386719 0.378906 v 3.21875 c 0 0.210938 0.171875 0.378907 0.386719 0.378907 h 3.230469 c 0.210937 0 0.382812 -0.167969 0.382812 -0.378907 v -3.21875 c 0 -0.210937 -0.171875 -0.378906 -0.382812 -0.378906 z m 5.613281 0.984375 v 2 h 8 v -2 z m -5.613281 4 c -0.214844 0 -0.386719 0.167969 -0.386719 0.378906 v 3.222656 c 0 0.207032 0.171875 0.378907 0.386719 0.378907 h 3.230469 c 0.210937 0 0.382812 -0.171875 0.382812 -0.378907 v -3.222656 c 0 -0.210937 -0.171875 -0.378906 -0.382812 -0.378906 z m 5.613281 0.984375 v 2 h 8 v -2 z m 0 0" fill="#222222"/>
</svg>
