<?xml version="1.0" encoding="UTF-8"?>
<svg height="16px" viewBox="0 0 16 16" width="16px" xmlns="http://www.w3.org/2000/svg">
    <path d="m 9.75 0.277344 c -0.890625 0 -1.78125 0.339844 -2.457031 1.015625 l -3.5 3.5 c -0.019531 0.019531 -0.039063 0.039062 -0.058594 0.0625 c -0.070313 0.082031 -0.574219 0.628906 -0.792969 1.4375 c -0.21875 0.804687 -0.058594 1.972656 0.839844 2.902343 c 0.914062 0.941407 2.128906 1.09375 2.945312 0.867188 c 0.8125 -0.230469 1.222657 -0.585938 1.5 -0.875 l 1.980469 -1.980469 c 0.390625 -0.390625 0.390625 -1.023437 0 -1.414062 s -1.023437 -0.390625 -1.414062 0 l -2 2 c -0.007813 0.003906 -0.011719 0.011719 -0.019531 0.019531 c 0.113281 -0.117188 -0.289063 0.238281 -0.589844 0.324219 c -0.296875 0.082031 -0.5 0.148437 -0.964844 -0.332031 c -0.484375 -0.5 -0.421875 -0.710938 -0.347656 -0.988282 c 0.074218 -0.273437 0.257812 -0.503906 0.386718 -0.660156 l 3.449219 -3.449219 c 0.644531 -0.644531 1.441407 -0.644531 2.085938 0 l 2.5 2.5 c 0.644531 0.644531 0.644531 1.441407 0 2.085938 l -6 6 s -0.183594 0.183593 -0.472657 0.375 c -0.289062 0.191406 -0.652343 0.332031 -0.820312 0.332031 h -3 c -0.167969 0 -0.449219 -0.113281 -0.667969 -0.332031 s -0.332031 -0.5 -0.332031 -0.667969 v -4 c 0 -0.550781 -0.449219 -1 -1 -1 s -1 0.449219 -1 1 v 4 c 0 0.832031 0.386719 1.550781 0.917969 2.082031 s 1.25 0.917969 2.082031 0.917969 h 3 c 0.832031 0 1.46875 -0.359375 1.929688 -0.667969 c 0.460937 -0.308593 0.777343 -0.625 0.777343 -0.625 l 6 -6 c 1.355469 -1.355469 1.355469 -3.558593 0 -4.914062 l -2.5 -2.5 c -0.675781 -0.675781 -1.566406 -1.015625 -2.457031 -1.015625 z m 0 0" fill="#2e3436"/>
</svg>
