<?xml version="1.0" encoding="UTF-8"?>
<svg xmlns="http://www.w3.org/2000/svg" height="16px" viewBox="0 0 16 16" width="16px"><path d="m 7.996094 0 c -3.585938 0 -6.496094 2.910156 -6.496094 6.5 c 0 0.765625 0.136719 1.527344 0.402344 2.25 c 0.132812 0.417969 0.394531 0.882812 0.710937 1.363281 c 0.039063 0.066407 0.082031 0.136719 0.128907 0.203125 c 1.316406 1.917969 3.703124 4.128906 5.253906 5.683594 h 0.003906 v -0.003906 c 1.550781 -1.550782 3.933594 -3.757813 5.253906 -5.675782 c 0.058594 -0.089843 0.117188 -0.179687 0.175782 -0.269531 c 0.292968 -0.457031 0.539062 -0.902343 0.667968 -1.304687 c 0.265625 -0.71875 0.402344 -1.480469 0.398438 -2.246094 c 0.003906 -3.589844 -2.90625 -6.5 -6.5 -6.5 z m 0 4 c 1.382812 0 2.503906 1.117188 2.5 2.5 c 0 1.25 -0.921875 2.304688 -2.15625 2.476562 h -0.003906 l -0.847657 -0.03125 c -1.15625 -0.242187 -1.988281 -1.261718 -1.988281 -2.445312 c 0 -1.378906 1.117188 -2.5 2.496094 -2.5 z m 0 0" fill="#222222"/></svg>
