<?xml version="1.0" encoding="UTF-8" standalone="no"?>
<svg
   width="24"
   height="24"
   viewBox="0 0 24 24"
   fill="none"
   version="1.1"
   id="svg8"
   sodipodi:docname="ordered-list-dark.svg"
   inkscape:version="1.2.2 (b0a8486541, 2022-12-01)"
   xmlns:inkscape="http://www.inkscape.org/namespaces/inkscape"
   xmlns:sodipodi="http://sodipodi.sourceforge.net/DTD/sodipodi-0.dtd"
   xmlns="http://www.w3.org/2000/svg"
   xmlns:svg="http://www.w3.org/2000/svg">
  <defs
     id="defs12" />
  <sodipodi:namedview
     id="namedview10"
     pagecolor="#ffffff"
     bordercolor="#000000"
     borderopacity="0.25"
     inkscape:showpageshadow="2"
     inkscape:pageopacity="0.0"
     inkscape:pagecheckerboard="0"
     inkscape:deskcolor="#d1d1d1"
     showgrid="false"
     inkscape:zoom="19.583333"
     inkscape:cx="12"
     inkscape:cy="12"
     inkscape:window-width="1366"
     inkscape:window-height="699"
     inkscape:window-x="0"
     inkscape:window-y="0"
     inkscape:window-maximized="1"
     inkscape:current-layer="svg8" />
  <path
     d="M4.75 6.25L6.25 4.75V10.25M6.25 10.25H4.75M6.25 10.25H7.25"
     stroke="currentColor"
     stroke-width="1.5"
     stroke-linecap="round"
     stroke-linejoin="round"
     id="path2"
     style="stroke:#ffffff;stroke-opacity:1" />
  <path
     d="M13.25 14.25H11.6562C10.9255 14.25 10.5182 13.4359 10.9058 12.8574C10.9535 12.7861 11.0211 12.7311 11.0925 12.6836L12.8924 11.486C12.9638 11.4384 13.0312 11.3832 13.0799 11.3126C13.5253 10.6678 13.0713 9.75 12.2526 9.75H10.75"
     stroke="currentColor"
     stroke-width="1.5"
     stroke-linecap="round"
     stroke-linejoin="round"
     id="path4"
     style="stroke:#ffffff;stroke-opacity:1" />
  <path
     d="M16.75 14.75H18.1964C19.4308 14.75 19.6499 16.6376 18.5101 16.9556C18.4549 16.971 18.397 16.9772 18.3398 16.9792L17.75 17L18.3398 17.0208C18.397 17.0228 18.4549 17.0289 18.5101 17.0444C19.6499 17.3624 19.4308 19.25 18.1964 19.25H16.75"
     stroke="currentColor"
     stroke-width="1.5"
     stroke-linecap="round"
     stroke-linejoin="round"
     id="path6"
     style="stroke:#ffffff;stroke-opacity:1" />
</svg>
