<?xml version="1.0" encoding="UTF-8" standalone="no"?>
<svg
   height="16px"
   viewBox="0 0 16 16"
   width="16px"
   version="1.1"
   id="svg4"
   sodipodi:docname="pinboard.svg"
   inkscape:version="1.3.2 (091e20ef0f, 2023-11-25)"
   xmlns:inkscape="http://www.inkscape.org/namespaces/inkscape"
   xmlns:sodipodi="http://sodipodi.sourceforge.net/DTD/sodipodi-0.dtd"
   xmlns="http://www.w3.org/2000/svg"
   xmlns:svg="http://www.w3.org/2000/svg">
  <defs
     id="defs4" />
  <sodipodi:namedview
     id="namedview4"
     pagecolor="#ffffff"
     bordercolor="#000000"
     borderopacity="0.25"
     inkscape:showpageshadow="2"
     inkscape:pageopacity="0.0"
     inkscape:pagecheckerboard="0"
     inkscape:deskcolor="#d1d1d1"
     inkscape:zoom="50.3125"
     inkscape:cx="8"
     inkscape:cy="8"
     inkscape:window-width="1920"
     inkscape:window-height="1011"
     inkscape:window-x="0"
     inkscape:window-y="0"
     inkscape:window-maximized="1"
     inkscape:current-layer="svg4" />
  <g
     fill="#222222"
     id="g4"
     style="fill:#e01b24;fill-opacity:1">
    <path
       d="m 9 11 h -2 v 4 l 1 1 l 1 -1 z m 0 0"
       id="path1"
       style="fill:#e01b24;fill-opacity:1" />
    <path
       d="m 12.222656 0.292969 c -0.1875 -0.1875 -0.441406 -0.292969 -0.707031 -0.292969 h -7.015625 c -0.554688 0 -1 0.449219 -1 1 s 0.445312 1 1 1 h 7.015625 c 0.550781 0 1 -0.449219 1 -1 c 0 -0.265625 -0.105469 -0.519531 -0.292969 -0.707031 z m 0 0"
       id="path2"
       style="fill:#e01b24;fill-opacity:1" />
    <path
       d="m 2 10 c 0 -3.3125 2.6875 -6 6 -6 s 6 2.6875 6 6 z m 0 0"
       id="path3"
       style="fill:#e01b24;fill-opacity:1" />
    <path
       d="m 4.441406 0.972656 l 0.894532 7.164063 h 5.375 l 0.847656 -7.109375 z m 0 0"
       id="path4"
       style="fill:#e01b24;fill-opacity:1" />
  </g>
</svg>
