<?xml version="1.0" encoding="UTF-8" standalone="no"?>
<svg
   width="16"
   height="16"
   fill="none"
   viewBox="0 0 16 16"
   version="1.1"
   id="svg10"
   sodipodi:docname="planner-clipboard-dark.svg"
   inkscape:version="1.3 (0e150ed6c4, 2023-07-21)"
   xmlns:inkscape="http://www.inkscape.org/namespaces/inkscape"
   xmlns:sodipodi="http://sodipodi.sourceforge.net/DTD/sodipodi-0.dtd"
   xmlns="http://www.w3.org/2000/svg"
   xmlns:svg="http://www.w3.org/2000/svg">
  <defs
     id="defs14" />
  <sodipodi:namedview
     id="namedview12"
     pagecolor="#ffffff"
     bordercolor="#000000"
     borderopacity="0.25"
     inkscape:showpageshadow="2"
     inkscape:pageopacity="0.0"
     inkscape:pagecheckerboard="0"
     inkscape:deskcolor="#d1d1d1"
     showgrid="false"
     inkscape:zoom="19.583333"
     inkscape:cx="12"
     inkscape:cy="11.974468"
     inkscape:window-width="1920"
     inkscape:window-height="1011"
     inkscape:window-x="0"
     inkscape:window-y="0"
     inkscape:window-maximized="1"
     inkscape:current-layer="svg10" />
  <path
     stroke="currentColor"
     stroke-linecap="round"
     stroke-linejoin="round"
     stroke-width="1.3125"
     d="M 5.375,3.40625 H 4.28125 c -0.9664987,0 -1.75,0.7835013 -1.75,1.75 v 7.4375 c 0,0.966525 0.7835013,1.75 1.75,1.75 h 7.4375 c 0.966525,0 1.75,-0.783475 1.75,-1.75 v -7.4375 c 0,-0.9664987 -0.783475,-1.75 -1.75,-1.75 H 10.625"
     id="path2"
     style="stroke:#ffffff;stroke-opacity:1" />
  <path
     stroke="currentColor"
     stroke-linecap="round"
     stroke-linejoin="round"
     stroke-width="1.3125"
     d="m 9.75,4.71875 h -3.5 c -0.483245,0 -0.875,-0.391755 -0.875,-0.875 v -1.3125 c 0,-0.483245 0.391755,-0.875 0.875,-0.875 h 3.5 c 0.483263,0 0.875,0.391755 0.875,0.875 v 1.3125 c 0,0.483245 -0.391737,0.875 -0.875,0.875 z"
     id="path4"
     style="stroke:#ffffff;stroke-opacity:1" />
  <path
     stroke="currentColor"
     stroke-linecap="round"
     stroke-linejoin="round"
     stroke-width="1.3125"
     d="m 6.03125,8.21875 h 3.9375"
     id="path6"
     style="stroke:#ffffff;stroke-opacity:1" />
  <path
     stroke="currentColor"
     stroke-linecap="round"
     stroke-linejoin="round"
     stroke-width="1.3125"
     d="m 6.03125,10.84375 h 3.9375"
     id="path8"
     style="stroke:#ffffff;stroke-opacity:1" />
</svg>
