<?xml version="1.0" encoding="UTF-8" standalone="no"?>
<svg
   width="16"
   height="16"
   fill="none"
   viewBox="0 0 16 16"
   version="1.1"
   id="svg6"
   sodipodi:docname="planner-settings-light.svg"
   inkscape:version="1.3 (0e150ed6c4, 2023-07-21)"
   xmlns:inkscape="http://www.inkscape.org/namespaces/inkscape"
   xmlns:sodipodi="http://sodipodi.sourceforge.net/DTD/sodipodi-0.dtd"
   xmlns="http://www.w3.org/2000/svg"
   xmlns:svg="http://www.w3.org/2000/svg">
  <defs
     id="defs10" />
  <sodipodi:namedview
     id="namedview8"
     pagecolor="#ffffff"
     bordercolor="#666666"
     borderopacity="1.0"
     inkscape:pageshadow="2"
     inkscape:pageopacity="0.0"
     inkscape:pagecheckerboard="0"
     showgrid="false"
     inkscape:zoom="22.083333"
     inkscape:cx="12"
     inkscape:cy="12.022642"
     inkscape:window-width="1920"
     inkscape:window-height="1011"
     inkscape:window-x="0"
     inkscape:window-y="0"
     inkscape:window-maximized="1"
     inkscape:current-layer="svg6"
     inkscape:showpageshadow="2"
     inkscape:deskcolor="#d1d1d1" />
  <path
     stroke="currentColor"
     stroke-linecap="round"
     stroke-linejoin="round"
     stroke-width="1.3125"
     d="M 8.979212,2.41169 C 8.91945,1.97874 8.549413,1.65625 8.112438,1.65625 H 7.887563 c -0.436975,0 -0.807013,0.32249 -0.866775,0.75544 L 6.944575,2.9644713 C 6.895925,3.3171312 6.6352625,3.5978487 6.304425,3.7293175 6.25525,3.748865 6.2064338,3.769235 6.1580988,3.7904187 5.8318987,3.93335 5.4488325,3.9211 5.163915,3.7074163 L 4.8947913,3.5055712 C 4.5464362,3.244305 4.0589737,3.2789463 3.75107,3.58685 L 3.5868587,3.75107 C 3.278955,4.0589737 3.244305,4.5464275 3.5055712,4.8947825 L 3.7074163,5.163915 C 3.9211087,5.4488237 3.93335,5.83189 3.7904187,6.1580988 3.769235,6.2064338 3.748865,6.25525 3.7293175,6.304425 3.5978487,6.6352625 3.3171312,6.895925 2.9644713,6.944575 L 2.41169,7.020788 C 1.97874,7.08055 1.65625,7.4505 1.65625,7.887563 v 0.224874 c 0,0.436975 0.32249,0.807013 0.75544,0.866775 l 0.5527813,0.07621 c 0.3526599,0.04865 0.6333775,0.309313 0.7648462,0.64015 0.019548,0.04917 0.039918,0.098 0.061101,0.1463 C 3.93335,10.168075 3.9211,10.55115 3.7074163,10.83605 L 3.5055712,11.1052 C 3.244305,11.453537 3.2789462,11.941 3.58685,12.248912 l 0.16422,0.164238 c 0.3079037,0.307912 0.7953575,0.342562 1.1437125,0.08129 L 5.163915,12.292575 C 5.4488237,12.0789 5.83189,12.06665 6.15809,12.209625 c 0.048344,0.02117 0.09716,0.04147 0.146335,0.06107 0.3308375,0.131425 0.5915,0.412213 0.64015,0.764837 l 0.076212,0.552738 c 0.05976,0.43295 0.4298,0.755475 0.866776,0.755475 h 0.224874 c 0.436975,0 0.807013,-0.322525 0.866775,-0.755475 l 0.07621,-0.552738 c 0.04865,-0.352624 0.309313,-0.633412 0.64015,-0.764837 0.04917,-0.0196 0.098,-0.0399 0.1463,-0.06116 0.3262,-0.142888 0.709275,-0.130638 0.994175,0.08304 l 0.26915,0.201862 c 0.348337,0.261275 0.8358,0.226625 1.143712,-0.08129 L 12.41315,12.248912 C 12.721062,11.941 12.755712,11.453537 12.494437,11.1052 l -0.201862,-0.26915 c -0.213675,-0.2849 -0.225925,-0.667975 -0.08295,-0.994175 0.02117,-0.0483 0.04147,-0.09713 0.06107,-0.1463 0.131425,-0.330838 0.412213,-0.5915 0.764837,-0.64015 l 0.552738,-0.07621 c 0.43295,-0.05976 0.755475,-0.429799 0.755475,-0.866774 V 7.887566 c 0,-0.436975 -0.322525,-0.807013 -0.755475,-0.866775 L 13.035537,6.944575 C 12.682913,6.895925 12.402125,6.6352625 12.2707,6.304425 12.2511,6.25525 12.2308,6.2064338 12.209538,6.15809 12.06665,5.83189 12.0789,5.4488237 12.292575,5.1639063 L 12.494438,4.8948 C 12.755712,4.546445 12.721062,4.0589912 12.41315,3.7510875 l -0.164238,-0.16422 C 11.941,3.2789637 11.453537,3.2443225 11.1052,3.5055887 L 10.83605,3.7074163 C 10.55115,3.9211087 10.168075,3.93335 9.841875,3.7904183 9.793575,3.7692343 9.744745,3.7488643 9.695575,3.7293173 9.364738,3.5978485 9.104075,3.317131 9.055425,2.9644711 Z"
     id="path2"
     style="stroke:#666666;stroke-opacity:1" />
  <path
     stroke="currentColor"
     stroke-linecap="round"
     stroke-linejoin="round"
     stroke-width="1.3125"
     d="M 9.09375,8 C 9.09375,8.6041 8.6041,9.09375 8,9.09375 7.3959,9.09375 6.90625,8.6041 6.90625,8 6.90625,7.3959 7.3959,6.90625 8,6.90625 8.6041,6.90625 9.09375,7.3959 9.09375,8 Z"
     id="path4"
     style="stroke:#666666;stroke-opacity:1" />
</svg>
