<?xml version="1.0" encoding="UTF-8"?>
<svg xmlns="http://www.w3.org/2000/svg" xmlns:xlink="http://www.w3.org/1999/xlink" height="16px" viewBox="0 0 16 16" width="16px"><filter id="a" height="100%" width="100%" x="0%" y="0%"><feColorMatrix color-interpolation-filters="sRGB" values="0 0 0 0 1 0 0 0 0 1 0 0 0 0 1 0 0 0 1 0"/></filter><mask id="b"><g filter="url(#a)"><path d="m -1.6 -1.6 h 19.2 v 19.2 h -19.2 z" fill-opacity="0.5"/></g></mask><clipPath id="c"><path d="m 0 0 h 1600 v 1200 h -1600 z"/></clipPath><mask id="d"><g filter="url(#a)"><path d="m -1.6 -1.6 h 19.2 v 19.2 h -19.2 z" fill-opacity="0.7"/></g></mask><clipPath id="e"><path d="m 0 0 h 1600 v 1200 h -1600 z"/></clipPath><mask id="f"><g filter="url(#a)"><path d="m -1.6 -1.6 h 19.2 v 19.2 h -19.2 z" fill-opacity="0.35"/></g></mask><clipPath id="g"><path d="m 0 0 h 1600 v 1200 h -1600 z"/></clipPath><path d="m 8 0 c -4.414062 0 -8 3.585938 -8 8 s 3.585938 8 8 8 s 8 -3.585938 8 -8 s -3.585938 -8 -8 -8 z m 0 2 c 0.972656 0 1.886719 0.226562 2.695312 0.628906 l -1.234374 2.511719 c -0.25 -0.089844 -0.515626 -0.140625 -0.796876 -0.140625 h -1.328124 c -0.277344 0 -0.546876 0.050781 -0.796876 0.140625 l -1.234374 -2.511719 c 0.808593 -0.402344 1.722656 -0.628906 2.695312 -0.628906 z m -5.390625 3.335938 l 2.511719 1.257812 c -0.078125 0.234375 -0.121094 0.484375 -0.121094 0.742188 v 1.328124 c 0 0.277344 0.050781 0.546876 0.140625 0.796876 l -2.503906 1.25 c -0.40625 -0.8125 -0.636719 -1.730469 -0.636719 -2.710938 c 0 -0.960938 0.21875 -1.863281 0.609375 -2.664062 z m 10.777344 0 c 0.390625 0.800781 0.613281 1.703124 0.613281 2.664062 c 0 0.980469 -0.230469 1.898438 -0.640625 2.710938 l -2.5 -1.25 c 0.089844 -0.25 0.140625 -0.519532 0.140625 -0.796876 v -1.328124 c 0 -0.257813 -0.042969 -0.507813 -0.125 -0.742188 z m -6.050781 0.664062 h 1.328124 c 0.75 0 1.335938 0.589844 1.335938 1.335938 v 1.328124 c 0 0.746094 -0.585938 1.335938 -1.335938 1.335938 h -1.328124 c -0.746094 0 -1.335938 -0.589844 -1.335938 -1.335938 v -1.328124 c 0 -0.746094 0.589844 -1.335938 1.335938 -1.335938 z m -0.769532 4.867188 c 0.242188 0.085937 0.5 0.132812 0.769532 0.132812 h 1.328124 c 0.269532 0 0.527344 -0.046875 0.769532 -0.132812 l 1.253906 2.507812 c -0.804688 0.398438 -1.71875 0.625 -2.6875 0.625 s -1.882812 -0.226562 -2.6875 -0.625 z m 0 0"/><g mask="url(#b)"><g clip-path="url(#c)" transform="matrix(1 0 0 1 -600 -140)"><path d="m 550 182 c -0.351562 0.003906 -0.695312 0.101562 -1 0.28125 v 3.4375 c 0.304688 0.179688 0.648438 0.277344 1 0.28125 c 1.105469 0 2 -0.894531 2 -2 s -0.894531 -2 -2 -2 z m 0 5 c -0.339844 0 -0.679688 0.058594 -1 0.175781 v 6.824219 h 4 v -4 c 0 -1.65625 -1.34375 -3 -3 -3 z m 0 0"/></g></g><g mask="url(#d)"><g clip-path="url(#e)" transform="matrix(1 0 0 1 -600 -140)"><path d="m 569 182 v 4 c 1.105469 0 2 -0.894531 2 -2 s -0.894531 -2 -2 -2 z m 0 5 v 7 h 3 v -4 c 0 -1.65625 -1.34375 -3 -3 -3 z m 0 0"/></g></g><g mask="url(#f)"><g clip-path="url(#g)" transform="matrix(1 0 0 1 -600 -140)"><path d="m 573 182.269531 v 3.449219 c 0.613281 -0.355469 0.996094 -1.007812 1 -1.71875 c 0 -0.714844 -0.382812 -1.375 -1 -1.730469 z m 0 4.90625 v 6.824219 h 2 v -4 c 0 -1.269531 -0.800781 -2.402344 -2 -2.824219 z m 0 0"/></g></g></svg>
