<?xml version="1.0" encoding="UTF-8" standalone="no"?>
<svg
   height="16px"
   viewBox="0 0 16 16"
   width="16px"
   version="1.1"
   id="svg3"
   sodipodi:docname="rotation-edit-symbolic.svg"
   inkscape:version="1.3.2 (091e20ef0f, 2023-11-25)"
   xmlns:inkscape="http://www.inkscape.org/namespaces/inkscape"
   xmlns:sodipodi="http://sodipodi.sourceforge.net/DTD/sodipodi-0.dtd"
   xmlns="http://www.w3.org/2000/svg"
   xmlns:svg="http://www.w3.org/2000/svg">
  <defs
     id="defs3" />
  <sodipodi:namedview
     id="namedview3"
     pagecolor="#ffffff"
     bordercolor="#000000"
     borderopacity="0.25"
     inkscape:showpageshadow="2"
     inkscape:pageopacity="0.0"
     inkscape:pagecheckerboard="0"
     inkscape:deskcolor="#d1d1d1"
     inkscape:zoom="25.15625"
     inkscape:cx="2.2459627"
     inkscape:cy="9.4012422"
     inkscape:window-width="1920"
     inkscape:window-height="1011"
     inkscape:window-x="0"
     inkscape:window-y="0"
     inkscape:window-maximized="1"
     inkscape:current-layer="g1" />
  <g
     id="g1">
    <path
       d="M 8.59375,1 C 9.207031,1.007812 9.828125,1.089844 10.441406,1.257812 13.714844,2.132812 16,5.109375 16,8.5 16,11.890625 13.714844,14.867188 10.441406,15.742188 7.167969,16.621094 3.699219,15.1875 2.003906,12.25 1.726562,11.773438 1.894531,11.160156 2.371094,10.886719 2.847656,10.609375 3.460938,10.773438 3.738281,11.25 c 1.246094,2.160156 3.777344,3.207031 6.1875,2.5625 C 12.332031,13.167969 14,10.996094 14,8.5 14,6.003906 12.332031,3.832031 9.925781,3.1875 7.515625,2.542969 4.984375,3.589844 3.738281,5.75 3.679688,5.835938 3.613281,5.914062 3.535156,5.980469 L 3.554688,5.992188 3.5625,6 H 4 C 4.550781,6 5,6.449219 5,7 V 8 H 0 V 3 H 1 C 1.550781,3 2,3.449219 2,4 V 4.6875 L 2.015625,4.699219 2.027344,4.710938 C 3.304688,2.53125 5.558594,1.191406 7.980469,1.019531 8.183594,1.003906 8.386719,1 8.59375,1.003906 Z m 0,0"
       id="path1"
       style="fill:#222222" />
    <path
       d="m 10.279858,5.4248447 c -0.244838,0.00331 -0.4946374,0.097604 -0.7163143,0.319281 L 5.7520274,9.555642 C 5.5932143,9.7144552 5.503882,9.9295147 5.503882,10.1545 v 1.270505 h 1.2705052 c 0.2249854,0 0.4400451,-0.08933 0.5988582,-0.248145 L 11.184762,7.3653431 c 0.757671,-0.757671 0.03474,-1.8594372 -0.800683,-1.9355354 -0.03474,-0.00496 -0.06948,-0.00496 -0.104221,-0.00496 z M 9.5271495,6.9517673 9.9771195,7.4017381 6.9861383,10.39272 6.5361673,9.942749 Z m 0,0"
       fill="#222222"
       id="path1-3"
       style="stroke-width:0.423501" />
  </g>
</svg>
