<?xml version="1.0" encoding="UTF-8" standalone="no"?>
<svg
   width="16"
   height="16"
   viewBox="0 0 16 16"
   fill="none"
   version="1.1"
   id="svg12"
   sodipodi:docname="share-light.svg"
   inkscape:version="1.3 (0e150ed6c4, 2023-07-21)"
   xmlns:inkscape="http://www.inkscape.org/namespaces/inkscape"
   xmlns:sodipodi="http://sodipodi.sourceforge.net/DTD/sodipodi-0.dtd"
   xmlns="http://www.w3.org/2000/svg"
   xmlns:svg="http://www.w3.org/2000/svg">
  <defs
     id="defs16" />
  <sodipodi:namedview
     id="namedview14"
     pagecolor="#ffffff"
     bordercolor="#000000"
     borderopacity="0.25"
     inkscape:showpageshadow="2"
     inkscape:pageopacity="0.0"
     inkscape:pagecheckerboard="0"
     inkscape:deskcolor="#d1d1d1"
     showgrid="false"
     inkscape:zoom="19.583333"
     inkscape:cx="12.153192"
     inkscape:cy="11.974468"
     inkscape:window-width="1920"
     inkscape:window-height="1011"
     inkscape:window-x="0"
     inkscape:window-y="0"
     inkscape:window-maximized="1"
     inkscape:current-layer="svg12"
     showguides="false" />
  <path
     d="m 14.34375,3.625 c 0,1.08731 -0.881475,1.96875 -1.96875,1.96875 -1.087275,0 -1.96875,-0.88144 -1.96875,-1.96875 0,-1.08731 0.881475,-1.96875 1.96875,-1.96875 1.087275,0 1.96875,0.88144 1.96875,1.96875 z"
     stroke="currentColor"
     stroke-width="1.3125"
     stroke-linecap="round"
     stroke-linejoin="round"
     id="path2"
     style="stroke:#333333;stroke-opacity:1" />
  <path
     d="M 5.59375,8 C 5.59375,9.087275 4.71231,9.96875 3.625,9.96875 2.53769,9.96875 1.65625,9.087275 1.65625,8 1.65625,6.912725 2.53769,6.03125 3.625,6.03125 4.71231,6.03125 5.59375,6.912725 5.59375,8 Z"
     stroke="currentColor"
     stroke-width="1.3125"
     stroke-linecap="round"
     stroke-linejoin="round"
     id="path4"
     style="stroke:#333333;stroke-opacity:1" />
  <path
     d="m 14.34375,12.375 c 0,1.087275 -0.881475,1.96875 -1.96875,1.96875 -1.087275,0 -1.96875,-0.881475 -1.96875,-1.96875 0,-1.087275 0.881475,-1.96875 1.96875,-1.96875 1.087275,0 1.96875,0.881475 1.96875,1.96875 z"
     stroke="currentColor"
     stroke-width="1.3125"
     stroke-linecap="round"
     stroke-linejoin="round"
     id="path6"
     style="stroke:#333333;stroke-opacity:1" />
  <path
     d="M 10.1875,11.5 5.375,9.3125"
     stroke="currentColor"
     stroke-width="1.3125"
     stroke-linecap="round"
     stroke-linejoin="round"
     id="path8"
     style="stroke:#333333;stroke-opacity:1" />
  <path
     d="M 10.1875,4.9375 5.375,7.125"
     stroke="currentColor"
     stroke-width="1.3125"
     stroke-linecap="round"
     stroke-linejoin="round"
     id="path10"
     style="stroke:#333333;stroke-opacity:1" />
</svg>
