<?xml version="1.0" encoding="UTF-8" standalone="no"?>
<svg
   width="24"
   height="24"
   viewBox="0 0 24 24"
   fill="none"
   version="1.1"
   id="svg12"
   sodipodi:docname="share-dark.svg"
   inkscape:version="1.2.2 (b0a8486541, 2022-12-01)"
   xmlns:inkscape="http://www.inkscape.org/namespaces/inkscape"
   xmlns:sodipodi="http://sodipodi.sourceforge.net/DTD/sodipodi-0.dtd"
   xmlns="http://www.w3.org/2000/svg"
   xmlns:svg="http://www.w3.org/2000/svg">
  <defs
     id="defs16" />
  <sodipodi:namedview
     id="namedview14"
     pagecolor="#ffffff"
     bordercolor="#000000"
     borderopacity="0.25"
     inkscape:showpageshadow="2"
     inkscape:pageopacity="0.0"
     inkscape:pagecheckerboard="0"
     inkscape:deskcolor="#d1d1d1"
     showgrid="false"
     inkscape:zoom="19.583333"
     inkscape:cx="11.106383"
     inkscape:cy="12"
     inkscape:window-width="1366"
     inkscape:window-height="699"
     inkscape:window-x="0"
     inkscape:window-y="0"
     inkscape:window-maximized="1"
     inkscape:current-layer="svg12" />
  <path
     d="m 14.75,7 c 0,1.24264 1.0074,2.25 2.25,2.25 1.2426,0 2.25,-1.00736 2.25,-2.25 0,-1.24264 -1.0074,-2.25 -2.25,-2.25 -1.2426,0 -2.25,1.00736 -2.25,2.25 z"
     stroke="currentColor"
     stroke-width="1.5"
     stroke-linecap="round"
     stroke-linejoin="round"
     id="path2"
     style="stroke:#ffffff;stroke-opacity:1" />
  <path
     d="M9.25 12C9.25 13.2426 8.24264 14.25 7 14.25C5.75736 14.25 4.75 13.2426 4.75 12C4.75 10.7574 5.75736 9.75 7 9.75C8.24264 9.75 9.25 10.7574 9.25 12Z"
     stroke="currentColor"
     stroke-width="1.5"
     stroke-linecap="round"
     stroke-linejoin="round"
     id="path4"
     style="stroke:#ffffff;stroke-opacity:1" />
  <path
     d="M19.25 17C19.25 18.2426 18.2426 19.25 17 19.25C15.7574 19.25 14.75 18.2426 14.75 17C14.75 15.7574 15.7574 14.75 17 14.75C18.2426 14.75 19.25 15.7574 19.25 17Z"
     stroke="currentColor"
     stroke-width="1.5"
     stroke-linecap="round"
     stroke-linejoin="round"
     id="path6"
     style="stroke:#ffffff;stroke-opacity:1" />
  <path
     d="M14.5 16L9 13.5"
     stroke="currentColor"
     stroke-width="1.5"
     stroke-linecap="round"
     stroke-linejoin="round"
     id="path8"
     style="stroke:#ffffff;stroke-opacity:1" />
  <path
     d="M14.5 8.5L9 11"
     stroke="currentColor"
     stroke-width="1.5"
     stroke-linecap="round"
     stroke-linejoin="round"
     id="path10"
     style="stroke:#ffffff;stroke-opacity:1" />
</svg>
