<?xml version="1.0" encoding="UTF-8"?>
<svg height="16px" viewBox="0 0 16 16" width="16px" xmlns="http://www.w3.org/2000/svg">
    <g fill="#222222">
        <path d="m 5.96875 7.96875 c 0 1.640625 -1.328125 2.96875 -2.96875 2.96875 s -2.96875 -1.328125 -2.96875 -2.96875 s 1.328125 -2.96875 2.96875 -2.96875 s 2.96875 1.328125 2.96875 2.96875 z m 0 0"/>
        <path d="m 15.9375 12.96875 c 0 1.640625 -1.328125 2.96875 -2.96875 2.96875 s -2.96875 -1.328125 -2.96875 -2.96875 s 1.328125 -2.96875 2.96875 -2.96875 s 2.96875 1.328125 2.96875 2.96875 z m 0 0"/>
        <path d="m 15.9375 2.96875 c 0 1.640625 -1.328125 2.96875 -2.96875 2.96875 s -2.96875 -1.328125 -2.96875 -2.96875 s 1.328125 -2.96875 2.96875 -2.96875 s 2.96875 1.328125 2.96875 2.96875 z m 0 0"/>
        <path d="m 12.613281 2.144531 l -11.863281 5.78125 l 11.851562 5.96875 l 0.898438 -1.789062 l -8.246094 -4.148438 l 8.234375 -4.011719 z m 0 0"/>
    </g>
</svg>
