<?xml version="1.0" encoding="UTF-8"?>
<svg height="16px" viewBox="0 0 16 16" width="16px" xmlns="http://www.w3.org/2000/svg">
    <g fill="#222222">
        <path d="m 14 3 v 2 h -12 v -2 z m -14 0 v 2 c 0 1.109375 0.890625 2 2 2 h 12 c 1.109375 0 2 -0.890625 2 -2 v -2 c 0 -1.109375 -0.890625 -2 -2 -2 h -12 c -1.109375 0 -2 0.890625 -2 2 z m 0 0"/>
        <path d="m 13 7 v 7 h -10 v -7 z m -12 0 v 7 c 0 1.109375 0.890625 2 2 2 h 10 c 1.109375 0 2 -0.890625 2 -2 v -7 c 0 -1.109375 -0.890625 -2 -2 -2 h -10 c -1.109375 0 -2 0.890625 -2 2 z m 0 0"/>
        <path d="m 6 8 h 4 v 1 h -4 z m 0 0"/>
    </g>
</svg>
