<?xml version="1.0" encoding="UTF-8"?>
<svg height="16px" viewBox="0 0 16 16" width="16px" xmlns="http://www.w3.org/2000/svg">
    <path d="m 4.03125 1.011719 c -1.660156 0 -3.03125 1.371093 -3.03125 3.035156 v 7.917969 c 0 1.664062 1.371094 3.03125 3.03125 3.03125 h 7.9375 v -2 h -7.9375 c -0.585938 0 -1.03125 -0.441406 -1.03125 -1.03125 v -7.917969 c 0 -0.589844 0.445312 -1.035156 1.03125 -1.035156 h 7.9375 v -2 z m 4.96875 2.996093 v 1 c 0 0.257813 0.128906 0.527344 0.3125 0.71875 l 1.28125 1.28125 h -4.59375 v 2 h 4.59375 l -1.28125 1.28125 c -0.183594 0.191407 -0.3125 0.410157 -0.3125 0.71875 v 1 h 1 c 0.308594 0 0.550781 -0.089843 0.75 -0.28125 l 3.65625 -3.71875 l -3.65625 -3.71875 c -0.199219 -0.191406 -0.441406 -0.28125 -0.75 -0.28125 z m 0 0" fill="#222222"/>
</svg>
