<?xml version="1.0" encoding="UTF-8"?>
<svg xmlns="http://www.w3.org/2000/svg" height="16px" viewBox="0 0 16 16" width="16px"><path d="m 6.574219 5 h 5 c 0.144531 0 0.234375 0.058594 0.300781 0.15625 c 0.066406 0.101562 0.089844 0.203125 0.035156 0.339844 l -1.65625 4.207031 c -0.308594 0.785156 -1.058594 1.296875 -1.902344 1.296875 h -3.917968 c -0.164063 0 -0.265625 -0.070312 -0.34375 -0.179688 c -0.074219 -0.113281 -0.101563 -0.234374 -0.042969 -0.386718 l 0.054687 -0.140625 c 0.308594 -0.78125 1.054688 -1.292969 1.898438 -1.292969 h 6 c 0.550781 0 1 -0.449219 1 -1 s -0.449219 -1 -1 -1 h -6 c -1.660156 0 -3.152344 1.019531 -3.761719 2.566406 l -0.054687 0.140625 c -0.617188 1.582031 0.550781 3.292969 2.25 3.292969 h 3.917968 c 1.664063 0 3.15625 -1.015625 3.765626 -2.5625 l 1.65625 -4.210938 c 0.609374 -1.546874 -0.535157 -3.226562 -2.199219 -3.226562 h -5 c -0.554688 0 -1 0.449219 -1 1 s 0.445312 1 1 1 z m 0 0" fill="#222222"/></svg>
