<?xml version="1.0" encoding="UTF-8" standalone="no"?>
<svg
   height="16px"
   viewBox="0 0 16 16"
   width="16px"
   version="1.1"
   id="svg1"
   sodipodi:docname="today.svg"
   inkscape:version="1.3.2 (091e20ef0f, 2023-11-25)"
   xmlns:inkscape="http://www.inkscape.org/namespaces/inkscape"
   xmlns:sodipodi="http://sodipodi.sourceforge.net/DTD/sodipodi-0.dtd"
   xmlns="http://www.w3.org/2000/svg"
   xmlns:svg="http://www.w3.org/2000/svg">
  <defs
     id="defs1" />
  <sodipodi:namedview
     id="namedview1"
     pagecolor="#ffffff"
     bordercolor="#000000"
     borderopacity="0.25"
     inkscape:showpageshadow="2"
     inkscape:pageopacity="0.0"
     inkscape:pagecheckerboard="0"
     inkscape:deskcolor="#d1d1d1"
     inkscape:zoom="50.3125"
     inkscape:cx="8"
     inkscape:cy="8"
     inkscape:window-width="1920"
     inkscape:window-height="1011"
     inkscape:window-x="0"
     inkscape:window-y="0"
     inkscape:window-maximized="1"
     inkscape:current-layer="svg1" />
  <path
     d="m 7.972656 0.125 c -0.429687 0.011719 -0.777344 0.214844 -1.003906 0.414062 c -0.222656 0.199219 -0.367188 0.40625 -0.496094 0.621094 c -0.257812 0.429688 -0.441406 0.902344 -0.621094 1.371094 c -0.179687 0.464844 -0.34375 0.929688 -0.496093 1.269531 c -0.082031 0.1875 -0.0625 0.160157 -0.113281 0.234375 l -3.394532 -0.007812 c -0.453125 -0.003906 -0.847656 0.28125 -0.980468 0.695312 c -0.230469 0.746094 0.101562 1.226563 0.371093 1.648438 c 0.269531 0.417968 0.609375 0.8125 0.953125 1.199218 c 0.34375 0.382813 0.6875 0.75 0.949219 1.054688 c 0.257813 0.304688 0.417969 0.605469 0.390625 0.519531 c -0.082031 -0.246093 -0.015625 0.042969 -0.117188 0.390625 c -0.101562 0.347656 -0.269531 0.808594 -0.433593 1.273438 c -0.160157 0.46875 -0.320313 0.941406 -0.398438 1.429687 c -0.039062 0.242188 -0.0625 0.492188 -0.007812 0.785157 c 0.050781 0.296874 0.226562 0.691406 0.589843 0.9375 c 0.359376 0.242187 0.773438 0.269531 1.074219 0.234374 c 0.304688 -0.035156 0.546875 -0.125 0.785157 -0.226562 c 0.480468 -0.203125 0.929687 -0.484375 1.375 -0.765625 c 0.441406 -0.28125 0.875 -0.5625 1.214843 -0.757813 c 0.34375 -0.195312 0.667969 -0.234374 0.445313 -0.234374 c -0.25 0 0.070312 0.035156 0.402344 0.230468 c 0.332031 0.195313 0.75 0.484375 1.183593 0.769532 c 0.433594 0.28125 0.867188 0.566406 1.335938 0.773437 c 0.230469 0.101563 0.472656 0.195313 0.777343 0.230469 c 0.304688 0.035156 0.734376 0 1.09375 -0.261719 c 0.039063 -0.03125 0.078126 -0.066406 0.113282 -0.101563 c 0.515625 -0.511718 0.558594 -1.214843 0.476562 -1.730468 c -0.082031 -0.511719 -0.265625 -0.972656 -0.441406 -1.414063 c -0.175781 -0.441406 -0.351562 -0.859375 -0.445312 -1.183593 c -0.09375 -0.324219 -0.070313 -0.53125 -0.074219 -0.523438 c -0.054688 0.160156 0.085937 -0.109375 0.359375 -0.371094 c 0.273437 -0.265625 0.648437 -0.59375 1.023437 -0.953125 c 0.375 -0.355469 0.75 -0.734375 1.046875 -1.191406 c 0.296875 -0.460937 0.5625 -1.101563 0.3125 -1.792969 c -0.144531 -0.394531 -0.527344 -0.65625 -0.960937 -0.660156 h -3.597657 c -0.019531 -0.03125 -0.019531 -0.023438 -0.039062 -0.066406 c -0.144531 -0.277344 -0.320312 -0.746094 -0.5 -1.234375 c -0.175781 -0.492188 -0.359375 -1.003907 -0.597656 -1.464844 c -0.121094 -0.230469 -0.25 -0.453125 -0.464844 -0.671875 c -0.214844 -0.222656 -0.59375 -0.480469 -1.089844 -0.472656 z m 0 0"
     fill="#222222"
     id="path1"
     style="fill:#33d17a;fill-opacity:1" />
</svg>
