<?xml version="1.0" encoding="UTF-8" standalone="no"?>
<svg
   width="16"
   height="16"
   viewBox="0 0 16 16"
   fill="none"
   version="1.1"
   id="svg14"
   sodipodi:docname="unordered-list-dark.svg"
   inkscape:version="1.3 (0e150ed6c4, 2023-07-21)"
   xmlns:inkscape="http://www.inkscape.org/namespaces/inkscape"
   xmlns:sodipodi="http://sodipodi.sourceforge.net/DTD/sodipodi-0.dtd"
   xmlns="http://www.w3.org/2000/svg"
   xmlns:svg="http://www.w3.org/2000/svg">
  <defs
     id="defs18" />
  <sodipodi:namedview
     id="namedview16"
     pagecolor="#ffffff"
     bordercolor="#000000"
     borderopacity="0.25"
     inkscape:showpageshadow="2"
     inkscape:pageopacity="0.0"
     inkscape:pagecheckerboard="0"
     inkscape:deskcolor="#d1d1d1"
     showgrid="false"
     inkscape:zoom="19.583333"
     inkscape:cx="12"
     inkscape:cy="11.974468"
     inkscape:window-width="1920"
     inkscape:window-height="1011"
     inkscape:window-x="0"
     inkscape:window-y="0"
     inkscape:window-maximized="1"
     inkscape:current-layer="svg14" />
  <path
     d="m 3.2857144,2.857143 c 0,0.2366914 -0.19188,0.4285714 -0.4285714,0.4285714 -0.2366915,0 -0.4285715,-0.19188 -0.4285715,-0.4285714 0,-0.2366915 0.19188,-0.4285715 0.4285715,-0.4285715 0.2366914,0 0.4285714,0.19188 0.4285714,0.4285715 z"
     stroke="currentColor"
     stroke-linecap="round"
     stroke-linejoin="round"
     id="path2"
     style="stroke:#ffffff;stroke-width:0.857143;stroke-opacity:1" />
  <path
     d="m 3.2857144,8.0000001 c 0,0.2366571 -0.19188,0.4285714 -0.4285714,0.4285714 -0.2366915,0 -0.4285715,-0.1919143 -0.4285715,-0.4285714 0,-0.2366571 0.19188,-0.4285714 0.4285715,-0.4285714 0.2366914,0 0.4285714,0.1919143 0.4285714,0.4285714 z"
     stroke="currentColor"
     stroke-linecap="round"
     stroke-linejoin="round"
     id="path4"
     style="stroke:#ffffff;stroke-width:0.857143;stroke-opacity:1" />
  <path
     d="m 3.2857144,13.142857 c 0,0.236657 -0.19188,0.428572 -0.4285714,0.428572 -0.2366915,0 -0.4285715,-0.191915 -0.4285715,-0.428572 0,-0.236657 0.19188,-0.428571 0.4285715,-0.428571 0.2366914,0 0.4285714,0.191914 0.4285714,0.428571 z"
     stroke="currentColor"
     stroke-linecap="round"
     stroke-linejoin="round"
     id="path6"
     style="stroke:#ffffff;stroke-width:0.857143;stroke-opacity:1" />
  <path
     d="M 6.0714287,2.857143 H 13.357143"
     stroke="currentColor"
     stroke-width="1.28571"
     stroke-linecap="round"
     stroke-linejoin="round"
     id="path8"
     style="stroke:#ffffff;stroke-opacity:1" />
  <path
     d="M 6.0714287,8.0000001 H 13.357143"
     stroke="currentColor"
     stroke-width="1.28571"
     stroke-linecap="round"
     stroke-linejoin="round"
     id="path10"
     style="stroke:#ffffff;stroke-opacity:1" />
  <path
     d="M 6.0714287,13.142857 H 13.357143"
     stroke="currentColor"
     stroke-width="1.28571"
     stroke-linecap="round"
     stroke-linejoin="round"
     id="path12"
     style="stroke:#ffffff;stroke-opacity:1" />
</svg>
