<?xml version="1.0" encoding="UTF-8"?>
<svg height="16px" viewBox="0 0 16 16" width="16px" xmlns="http://www.w3.org/2000/svg">
    <g fill="#222222" fill-rule="evenodd">
        <path d="m 1 3.914062 c 0.003906 -0.257812 0.105469 -0.511718 0.304688 -0.703124 l 3 -2.917969 c 0.386718 -0.3789065 1.003906 -0.3789065 1.394531 0 l 3 2.917969 c 0.394531 0.382812 0.402343 1.015624 0.019531 1.414062 c -0.386719 0.394531 -1.019531 0.402344 -1.417969 0.015625 l -1.300781 -1.265625 v 6.550781 c 0 1.332031 -2 1.332031 -2 0 v -6.550781 l -1.300781 1.269531 c -0.398438 0.382813 -1.03125 0.375 -1.414063 -0.019531 c -0.195312 -0.199219 -0.289062 -0.457031 -0.285156 -0.710938 z m 0 0"/>
        <path d="m 7 11.941406 c 0.003906 0.253906 0.105469 0.507813 0.304688 0.703125 l 3 2.917969 c 0.386718 0.375 1.003906 0.375 1.394531 0 l 3 -2.917969 c 0.394531 -0.386719 0.402343 -1.019531 0.019531 -1.414062 c -0.386719 -0.398438 -1.019531 -0.40625 -1.417969 -0.019531 l -1.300781 1.265624 v -6.550781 c 0 -1.332031 -2 -1.332031 -2 0 v 6.550781 l -1.300781 -1.265624 c -0.398438 -0.386719 -1.03125 -0.378907 -1.414063 0.015624 c -0.195312 0.199219 -0.289062 0.457032 -0.285156 0.710938 z m 0 0"/>
    </g>
</svg>
