<?xml version="1.0" encoding="UTF-8"?>
<svg xmlns="http://www.w3.org/2000/svg" height="16px" viewBox="0 0 16 16" width="16px"><path d="m 7 2 c -1.644531 0 -3 1.355469 -3 3 v 1.425781 l -3.316406 -3.433593 h -0.683594 v 9 h 0.644531 l 3.355469 -3.492188 v 1.5 c 0 1.644531 1.355469 3 3 3 h 6 c 1.644531 0 3 -1.355469 3 -3 v -5 c 0 -1.644531 -1.355469 -3 -3 -3 z m 0 2 h 6 c 0.570312 0 1 0.429688 1 1 v 5 c 0 0.570312 -0.429688 1 -1 1 h -6 c -0.570312 0 -1 -0.429688 -1 -1 v -5 c 0 -0.570312 0.429688 -1 1 -1 z m 0 0" fill="#222222"/></svg>
