<?xml version="1.0" encoding="UTF-8" standalone="no"?>
<svg
   height="16px"
   viewBox="0 0 16 16"
   width="16px"
   version="1.1"
   id="svg13"
   sodipodi:docname="view-columns-symbolic.svg"
   inkscape:version="1.4.2 (ebf0e940d0, 2025-05-08)"
   xmlns:inkscape="http://www.inkscape.org/namespaces/inkscape"
   xmlns:sodipodi="http://sodipodi.sourceforge.net/DTD/sodipodi-0.dtd"
   xmlns="http://www.w3.org/2000/svg"
   xmlns:svg="http://www.w3.org/2000/svg">
  <defs
     id="defs13" />
  <sodipodi:namedview
     id="namedview13"
     pagecolor="#ffffff"
     bordercolor="#000000"
     borderopacity="0.25"
     inkscape:showpageshadow="2"
     inkscape:pageopacity="0.0"
     inkscape:pagecheckerboard="0"
     inkscape:deskcolor="#d1d1d1"
     inkscape:zoom="30.5"
     inkscape:cx="7.9836066"
     inkscape:cy="8"
     inkscape:window-width="1366"
     inkscape:window-height="699"
     inkscape:window-x="0"
     inkscape:window-y="0"
     inkscape:window-maximized="1"
     inkscape:current-layer="svg13" />
  <filter
     id="a"
     height="1"
     width="1"
     x="0"
     y="0">
    <feColorMatrix
       color-interpolation-filters="sRGB"
       values="0 0 0 0 1 0 0 0 0 1 0 0 0 0 1 0 0 0 1 0"
       id="feColorMatrix1" />
  </filter>
  <mask
     id="b">
    <g
       filter="url(#a)"
       id="g1">
      <path
         d="m -1.6 -1.6 h 19.2 v 19.2 h -19.2 z"
         fill-opacity="0.5"
         id="path1" />
    </g>
  </mask>
  <clipPath
     id="c">
    <path
       d="m 0 0 h 1600 v 1200 h -1600 z"
       id="path2" />
  </clipPath>
  <mask
     id="d">
    <g
       filter="url(#a)"
       id="g3">
      <path
         d="m -1.6 -1.6 h 19.2 v 19.2 h -19.2 z"
         fill-opacity="0.7"
         id="path3" />
    </g>
  </mask>
  <clipPath
     id="e">
    <path
       d="m 0 0 h 1600 v 1200 h -1600 z"
       id="path4" />
  </clipPath>
  <mask
     id="f">
    <g
       filter="url(#a)"
       id="g5">
      <path
         d="m -1.6 -1.6 h 19.2 v 19.2 h -19.2 z"
         fill-opacity="0.35"
         id="path5" />
    </g>
  </mask>
  <clipPath
     id="g">
    <path
       d="m 0 0 h 1600 v 1200 h -1600 z"
       id="path6" />
  </clipPath>
  <path
     d="m 1,13 c 0,1.089844 0.910156,2 2,2 h 10 c 1.089844,0 2,-0.910156 2,-2 V 3 C 15,1.910156 14.089844,1 13,1 H 3 C 1.910156,1 1,1.910156 1,3 Z m 2,0 V 3 h 2 v 10 z m 4,0 V 3 h 2 v 10 z m 4,0 V 3 h 2 v 10 z m 0,0"
     fill="#222222"
     id="path7" />
  <g
     mask="url(#b)"
     id="g9"
     transform="rotate(-90,8,8)">
    <g
       clip-path="url(#c)"
       transform="translate(-640,-784)"
       id="g8">
      <path
         d="m 550,182 c -0.35156,0.004 -0.69531,0.10156 -1,0.28125 v 3.4375 c 0.30469,0.17969 0.64844,0.27734 1,0.28125 1.10547,0 2,-0.89453 2,-2 0,-1.10547 -0.89453,-2 -2,-2 z m 0,5 c -0.33984,0 -0.67969,0.0586 -1,0.17578 V 194 h 4 v -4 c 0,-1.65625 -1.34375,-3 -3,-3 z m 0,0"
         id="path8" />
    </g>
  </g>
  <g
     mask="url(#d)"
     id="g11"
     transform="rotate(-90,8,8)">
    <g
       clip-path="url(#e)"
       transform="translate(-640,-784)"
       id="g10">
      <path
         d="m 569,182 v 4 c 1.10547,0 2,-0.89453 2,-2 0,-1.10547 -0.89453,-2 -2,-2 z m 0,5 v 7 h 3 v -4 c 0,-1.65625 -1.34375,-3 -3,-3 z m 0,0"
         id="path9" />
    </g>
  </g>
  <g
     mask="url(#f)"
     id="g13"
     transform="rotate(-90,8,8)">
    <g
       clip-path="url(#g)"
       transform="translate(-640,-784)"
       id="g12">
      <path
         d="m 573,182.26953 v 3.44922 c 0.61328,-0.35547 0.99609,-1.00781 1,-1.71875 0,-0.71484 -0.38281,-1.375 -1,-1.73047 z m 0,4.90625 V 194 h 2 v -4 c 0,-1.26953 -0.80078,-2.40234 -2,-2.82422 z m 0,0"
         id="path11" />
    </g>
  </g>
</svg>
