<?xml version="1.0" encoding="UTF-8"?>
<svg height="16px" viewBox="0 0 16 16" width="16px" xmlns="http://www.w3.org/2000/svg">
    <path d="m 2 1 c -0.554688 0 -1 0.445312 -1 1 v 2 c 0 0.554688 0.445312 1 1 1 h 2 c 0.554688 0 1 -0.445312 1 -1 v -2 c 0 -0.554688 -0.445312 -1 -1 -1 z m 5 1 v 2 h 8 v -2 z m -5 4.015625 c -0.554688 0 -1 0.445313 -1 1 v 1.980469 c 0 0.550781 0.445312 1 1 1 h 2 c 0.554688 0 1 -0.449219 1 -1 v -1.980469 c 0 -0.554687 -0.445312 -1 -1 -1 z m 5 0.984375 v 2 h 8 v -2 z m -5 4 c -0.554688 0 -1 0.445312 -1 1 v 1.980469 c 0 0.550781 0.445312 1 1 1 h 2 c 0.554688 0 1 -0.449219 1 -1 v -1.980469 c 0 -0.554688 -0.445312 -1 -1 -1 z m 5 0.984375 v 2 h 8 v -2 z m 0 0" fill="#2e3436"/>
</svg>
